G04 EAGLE Gerber RS-274X export*
G75*
%MOMM*%
%FSLAX34Y34*%
%LPD*%
%INTop Copper*%
%IPPOS*%
%AMOC8*
5,1,8,0,0,1.08239X$1,22.5*%
G01*
%ADD10C,0.304800*%
%ADD11C,1.500000*%
%ADD12R,1.300000X1.500000*%
%ADD13R,1.475000X0.350000*%
%ADD14C,1.400000*%
%ADD15C,0.350000*%
%ADD16C,0.800000*%
%ADD17C,0.800000*%
%ADD18C,0.406400*%
%ADD19C,0.508000*%

G36*
X310336Y5095D02*
X310336Y5095D01*
X310462Y5102D01*
X310509Y5115D01*
X310557Y5121D01*
X310676Y5163D01*
X310797Y5198D01*
X310839Y5222D01*
X310885Y5238D01*
X310991Y5307D01*
X311101Y5368D01*
X311148Y5408D01*
X311178Y5427D01*
X311211Y5462D01*
X311288Y5527D01*
X394523Y88762D01*
X394602Y88861D01*
X394686Y88955D01*
X394710Y88997D01*
X394740Y89035D01*
X394794Y89149D01*
X394855Y89260D01*
X394868Y89307D01*
X394889Y89350D01*
X394915Y89474D01*
X394950Y89596D01*
X394955Y89656D01*
X394962Y89691D01*
X394961Y89739D01*
X394969Y89839D01*
X394969Y104542D01*
X397307Y110185D01*
X401625Y114503D01*
X407268Y116841D01*
X431794Y116841D01*
X431842Y116846D01*
X431943Y116848D01*
X433133Y116965D01*
X433233Y116987D01*
X433334Y116999D01*
X433427Y117029D01*
X433474Y117039D01*
X433507Y117055D01*
X433567Y117074D01*
X435767Y117985D01*
X435769Y117986D01*
X435771Y117987D01*
X435921Y118071D01*
X436071Y118154D01*
X436073Y118156D01*
X436075Y118157D01*
X436261Y118315D01*
X437945Y119999D01*
X437946Y120001D01*
X437948Y120002D01*
X438055Y120137D01*
X438161Y120272D01*
X438162Y120274D01*
X438163Y120275D01*
X438275Y120493D01*
X439186Y122693D01*
X439214Y122791D01*
X439251Y122886D01*
X439269Y122982D01*
X439282Y123028D01*
X439284Y123065D01*
X439295Y123127D01*
X439412Y124317D01*
X439411Y124365D01*
X439419Y124466D01*
X439419Y167793D01*
X439418Y167803D01*
X439419Y167812D01*
X439398Y167975D01*
X439379Y168140D01*
X439376Y168148D01*
X439375Y168158D01*
X439318Y168310D01*
X439262Y168468D01*
X439257Y168476D01*
X439254Y168484D01*
X439162Y168622D01*
X439073Y168761D01*
X439066Y168767D01*
X439061Y168775D01*
X438941Y168888D01*
X438822Y169003D01*
X438814Y169007D01*
X438808Y169014D01*
X438665Y169097D01*
X438523Y169182D01*
X438514Y169184D01*
X438506Y169189D01*
X438349Y169237D01*
X438191Y169288D01*
X438182Y169289D01*
X438173Y169291D01*
X438008Y169303D01*
X437844Y169316D01*
X437835Y169314D01*
X437825Y169315D01*
X437663Y169289D01*
X437499Y169264D01*
X437491Y169261D01*
X437481Y169259D01*
X437252Y169174D01*
X437001Y169057D01*
X436992Y169051D01*
X436982Y169048D01*
X436771Y168924D01*
X436724Y168891D01*
X436674Y168883D01*
X436667Y168880D01*
X436662Y168879D01*
X436641Y168870D01*
X436445Y168797D01*
X435711Y168455D01*
X435566Y168366D01*
X435458Y168301D01*
X435404Y168287D01*
X435394Y168283D01*
X435384Y168281D01*
X435154Y168196D01*
X435102Y168171D01*
X435052Y168172D01*
X435044Y168170D01*
X435039Y168170D01*
X435017Y168165D01*
X434811Y168128D01*
X434029Y167918D01*
X433872Y167856D01*
X433753Y167810D01*
X433697Y167805D01*
X433687Y167803D01*
X433676Y167803D01*
X433436Y167759D01*
X433379Y167744D01*
X433330Y167753D01*
X433323Y167753D01*
X433318Y167754D01*
X433295Y167753D01*
X433086Y167752D01*
X432279Y167681D01*
X432113Y167647D01*
X431988Y167623D01*
X431933Y167628D01*
X431922Y167627D01*
X431912Y167629D01*
X431667Y167628D01*
X431609Y167623D01*
X431562Y167640D01*
X431555Y167642D01*
X431550Y167643D01*
X431528Y167646D01*
X431321Y167681D01*
X430514Y167752D01*
X430347Y167747D01*
X430218Y167745D01*
X430164Y167759D01*
X430154Y167761D01*
X430144Y167764D01*
X429903Y167805D01*
X429845Y167810D01*
X429802Y167836D01*
X429795Y167838D01*
X429790Y167841D01*
X429768Y167848D01*
X429571Y167918D01*
X428789Y168128D01*
X428624Y168152D01*
X428496Y168172D01*
X428445Y168196D01*
X428435Y168199D01*
X428426Y168204D01*
X428196Y168287D01*
X428140Y168302D01*
X428102Y168334D01*
X428095Y168338D01*
X428091Y168341D01*
X428071Y168352D01*
X427889Y168455D01*
X427155Y168797D01*
X426995Y168851D01*
X426874Y168892D01*
X426829Y168924D01*
X426820Y168929D01*
X426811Y168936D01*
X426599Y169057D01*
X426546Y169081D01*
X426514Y169120D01*
X426509Y169125D01*
X426505Y169129D01*
X426488Y169142D01*
X426326Y169276D01*
X425662Y169741D01*
X425515Y169820D01*
X425403Y169883D01*
X425363Y169922D01*
X425355Y169929D01*
X425348Y169937D01*
X425160Y170093D01*
X425112Y170126D01*
X425087Y170170D01*
X425083Y170176D01*
X425080Y170180D01*
X425065Y170197D01*
X424929Y170356D01*
X424356Y170929D01*
X424225Y171033D01*
X424125Y171114D01*
X424093Y171160D01*
X424086Y171168D01*
X424081Y171177D01*
X423922Y171363D01*
X423881Y171404D01*
X423865Y171451D01*
X423861Y171458D01*
X423859Y171463D01*
X423846Y171482D01*
X423741Y171662D01*
X423276Y172326D01*
X423164Y172453D01*
X423080Y172548D01*
X423057Y172599D01*
X423051Y172608D01*
X423048Y172618D01*
X422924Y172829D01*
X422891Y172876D01*
X422883Y172926D01*
X422880Y172933D01*
X422879Y172938D01*
X422870Y172959D01*
X422797Y173155D01*
X422455Y173889D01*
X422367Y174033D01*
X422301Y174142D01*
X422287Y174196D01*
X422283Y174206D01*
X422281Y174216D01*
X422196Y174445D01*
X422171Y174498D01*
X422172Y174548D01*
X422170Y174556D01*
X422170Y174561D01*
X422165Y174584D01*
X422128Y174789D01*
X421918Y175571D01*
X421856Y175727D01*
X421810Y175847D01*
X421805Y175903D01*
X421803Y175913D01*
X421803Y175924D01*
X421759Y176164D01*
X421744Y176221D01*
X421753Y176270D01*
X421753Y176277D01*
X421754Y176282D01*
X421753Y176305D01*
X421752Y176514D01*
X421681Y177321D01*
X421647Y177487D01*
X421623Y177612D01*
X421628Y177667D01*
X421627Y177678D01*
X421629Y177688D01*
X421628Y177933D01*
X421623Y177991D01*
X421640Y178038D01*
X421642Y178045D01*
X421643Y178050D01*
X421646Y178072D01*
X421681Y178279D01*
X421752Y179086D01*
X421747Y179253D01*
X421745Y179382D01*
X421759Y179436D01*
X421761Y179446D01*
X421764Y179456D01*
X421805Y179697D01*
X421810Y179755D01*
X421836Y179798D01*
X421839Y179805D01*
X421841Y179810D01*
X421848Y179832D01*
X421918Y180029D01*
X422128Y180811D01*
X422152Y180975D01*
X422172Y181104D01*
X422196Y181155D01*
X422199Y181165D01*
X422204Y181174D01*
X422287Y181404D01*
X422302Y181460D01*
X422334Y181498D01*
X422338Y181505D01*
X422341Y181509D01*
X422352Y181529D01*
X422455Y181711D01*
X422797Y182445D01*
X422851Y182605D01*
X422892Y182726D01*
X422924Y182771D01*
X422929Y182780D01*
X422936Y182789D01*
X423057Y183001D01*
X423081Y183054D01*
X423120Y183086D01*
X423125Y183091D01*
X423129Y183095D01*
X423142Y183112D01*
X423276Y183274D01*
X423741Y183938D01*
X423820Y184085D01*
X423883Y184197D01*
X423922Y184237D01*
X423929Y184245D01*
X423937Y184252D01*
X424093Y184440D01*
X424126Y184488D01*
X424170Y184513D01*
X424176Y184517D01*
X424180Y184520D01*
X424197Y184535D01*
X424356Y184671D01*
X424929Y185244D01*
X425033Y185375D01*
X425114Y185475D01*
X425160Y185507D01*
X425168Y185514D01*
X425177Y185519D01*
X425363Y185678D01*
X425404Y185719D01*
X425451Y185735D01*
X425458Y185739D01*
X425463Y185741D01*
X425482Y185754D01*
X425662Y185859D01*
X426326Y186324D01*
X426452Y186436D01*
X426548Y186520D01*
X426599Y186543D01*
X426608Y186549D01*
X426618Y186552D01*
X426829Y186676D01*
X426876Y186709D01*
X426926Y186717D01*
X426933Y186720D01*
X426938Y186721D01*
X426959Y186730D01*
X427155Y186803D01*
X427889Y187145D01*
X428033Y187233D01*
X428142Y187299D01*
X428196Y187313D01*
X428206Y187317D01*
X428216Y187319D01*
X428446Y187404D01*
X428498Y187429D01*
X428549Y187428D01*
X428556Y187430D01*
X428561Y187430D01*
X428583Y187435D01*
X428789Y187472D01*
X429571Y187682D01*
X429728Y187744D01*
X429847Y187790D01*
X429903Y187795D01*
X429913Y187797D01*
X429924Y187797D01*
X430164Y187841D01*
X430221Y187856D01*
X430270Y187847D01*
X430277Y187847D01*
X430282Y187846D01*
X430305Y187847D01*
X430514Y187848D01*
X431321Y187919D01*
X431487Y187953D01*
X431612Y187977D01*
X431667Y187972D01*
X431678Y187973D01*
X431688Y187971D01*
X431933Y187972D01*
X431991Y187977D01*
X432038Y187960D01*
X432045Y187958D01*
X432050Y187957D01*
X432072Y187954D01*
X432279Y187919D01*
X433086Y187848D01*
X433253Y187853D01*
X433382Y187855D01*
X433436Y187841D01*
X433446Y187839D01*
X433456Y187836D01*
X433697Y187795D01*
X433755Y187790D01*
X433798Y187764D01*
X433805Y187761D01*
X433810Y187759D01*
X433832Y187752D01*
X434029Y187682D01*
X434811Y187472D01*
X434977Y187448D01*
X435104Y187428D01*
X435154Y187404D01*
X435165Y187401D01*
X435174Y187395D01*
X435404Y187313D01*
X435460Y187298D01*
X435498Y187266D01*
X435505Y187262D01*
X435509Y187259D01*
X435529Y187248D01*
X435711Y187145D01*
X436445Y186803D01*
X436605Y186749D01*
X436726Y186708D01*
X436771Y186676D01*
X436780Y186671D01*
X436788Y186664D01*
X437001Y186543D01*
X437252Y186426D01*
X437261Y186423D01*
X437269Y186418D01*
X437425Y186368D01*
X437583Y186316D01*
X437592Y186315D01*
X437601Y186312D01*
X437765Y186299D01*
X437930Y186284D01*
X437939Y186285D01*
X437948Y186284D01*
X438112Y186309D01*
X438275Y186331D01*
X438284Y186335D01*
X438293Y186336D01*
X438446Y186397D01*
X438601Y186456D01*
X438608Y186461D01*
X438617Y186465D01*
X438751Y186558D01*
X438889Y186651D01*
X438895Y186658D01*
X438903Y186664D01*
X439013Y186785D01*
X439126Y186907D01*
X439130Y186915D01*
X439136Y186922D01*
X439216Y187067D01*
X439298Y187210D01*
X439300Y187219D01*
X439305Y187227D01*
X439350Y187387D01*
X439397Y187545D01*
X439397Y187554D01*
X439400Y187563D01*
X439419Y187807D01*
X439419Y205893D01*
X439418Y205903D01*
X439419Y205912D01*
X439398Y206075D01*
X439379Y206240D01*
X439376Y206248D01*
X439375Y206258D01*
X439318Y206410D01*
X439262Y206568D01*
X439257Y206576D01*
X439254Y206584D01*
X439162Y206722D01*
X439073Y206861D01*
X439066Y206867D01*
X439061Y206875D01*
X438941Y206988D01*
X438822Y207103D01*
X438814Y207107D01*
X438808Y207114D01*
X438665Y207197D01*
X438523Y207282D01*
X438514Y207284D01*
X438506Y207289D01*
X438349Y207337D01*
X438191Y207388D01*
X438182Y207389D01*
X438173Y207391D01*
X438008Y207403D01*
X437844Y207416D01*
X437835Y207414D01*
X437825Y207415D01*
X437663Y207389D01*
X437499Y207364D01*
X437491Y207361D01*
X437481Y207359D01*
X437252Y207274D01*
X437001Y207157D01*
X436992Y207151D01*
X436982Y207148D01*
X436771Y207024D01*
X436724Y206991D01*
X436674Y206983D01*
X436667Y206980D01*
X436662Y206979D01*
X436641Y206970D01*
X436445Y206897D01*
X435711Y206555D01*
X435566Y206466D01*
X435458Y206401D01*
X435404Y206387D01*
X435394Y206383D01*
X435384Y206381D01*
X435154Y206296D01*
X435102Y206271D01*
X435052Y206272D01*
X435044Y206270D01*
X435039Y206270D01*
X435017Y206265D01*
X434811Y206228D01*
X434029Y206018D01*
X433872Y205956D01*
X433753Y205910D01*
X433697Y205905D01*
X433687Y205903D01*
X433676Y205903D01*
X433436Y205859D01*
X433379Y205844D01*
X433330Y205853D01*
X433323Y205853D01*
X433318Y205854D01*
X433295Y205853D01*
X433086Y205852D01*
X432279Y205781D01*
X432113Y205747D01*
X431988Y205723D01*
X431933Y205728D01*
X431922Y205727D01*
X431912Y205729D01*
X431667Y205728D01*
X431609Y205723D01*
X431562Y205740D01*
X431555Y205742D01*
X431550Y205743D01*
X431528Y205746D01*
X431321Y205781D01*
X430514Y205852D01*
X430347Y205847D01*
X430218Y205845D01*
X430164Y205859D01*
X430154Y205861D01*
X430144Y205864D01*
X429903Y205905D01*
X429845Y205910D01*
X429802Y205936D01*
X429795Y205938D01*
X429790Y205941D01*
X429768Y205948D01*
X429571Y206018D01*
X428789Y206228D01*
X428624Y206252D01*
X428496Y206272D01*
X428445Y206296D01*
X428435Y206299D01*
X428426Y206304D01*
X428196Y206387D01*
X428140Y206402D01*
X428102Y206434D01*
X428095Y206438D01*
X428091Y206441D01*
X428071Y206452D01*
X427889Y206555D01*
X427155Y206897D01*
X426995Y206951D01*
X426874Y206992D01*
X426829Y207024D01*
X426820Y207029D01*
X426811Y207036D01*
X426599Y207157D01*
X426546Y207181D01*
X426514Y207220D01*
X426509Y207225D01*
X426505Y207229D01*
X426488Y207242D01*
X426326Y207376D01*
X425662Y207841D01*
X425515Y207920D01*
X425403Y207983D01*
X425363Y208022D01*
X425355Y208029D01*
X425348Y208037D01*
X425160Y208193D01*
X425112Y208226D01*
X425087Y208270D01*
X425083Y208276D01*
X425080Y208280D01*
X425065Y208297D01*
X424929Y208456D01*
X424356Y209029D01*
X424225Y209133D01*
X424125Y209214D01*
X424093Y209260D01*
X424086Y209268D01*
X424081Y209277D01*
X423922Y209463D01*
X423881Y209504D01*
X423865Y209551D01*
X423861Y209558D01*
X423859Y209563D01*
X423846Y209582D01*
X423741Y209762D01*
X423276Y210426D01*
X423164Y210553D01*
X423080Y210648D01*
X423057Y210699D01*
X423051Y210708D01*
X423048Y210718D01*
X422924Y210929D01*
X422891Y210976D01*
X422883Y211026D01*
X422880Y211033D01*
X422879Y211038D01*
X422870Y211059D01*
X422797Y211255D01*
X422455Y211989D01*
X422367Y212133D01*
X422301Y212242D01*
X422287Y212296D01*
X422283Y212306D01*
X422281Y212316D01*
X422196Y212545D01*
X422171Y212598D01*
X422172Y212648D01*
X422170Y212656D01*
X422170Y212661D01*
X422165Y212684D01*
X422128Y212889D01*
X421918Y213671D01*
X421856Y213827D01*
X421810Y213947D01*
X421805Y214003D01*
X421803Y214013D01*
X421803Y214024D01*
X421759Y214264D01*
X421744Y214321D01*
X421753Y214370D01*
X421753Y214377D01*
X421754Y214382D01*
X421753Y214405D01*
X421752Y214614D01*
X421681Y215421D01*
X421652Y215563D01*
X421634Y215686D01*
X421623Y215713D01*
X421628Y215767D01*
X421627Y215778D01*
X421629Y215788D01*
X421628Y216033D01*
X421623Y216091D01*
X421640Y216138D01*
X421642Y216145D01*
X421643Y216150D01*
X421646Y216172D01*
X421681Y216379D01*
X421752Y217186D01*
X421747Y217353D01*
X421745Y217482D01*
X421759Y217536D01*
X421761Y217546D01*
X421764Y217556D01*
X421805Y217797D01*
X421810Y217855D01*
X421836Y217898D01*
X421839Y217905D01*
X421841Y217910D01*
X421848Y217932D01*
X421918Y218129D01*
X422128Y218911D01*
X422152Y219077D01*
X422172Y219204D01*
X422196Y219255D01*
X422199Y219265D01*
X422204Y219274D01*
X422287Y219504D01*
X422302Y219560D01*
X422334Y219598D01*
X422338Y219605D01*
X422341Y219609D01*
X422352Y219629D01*
X422455Y219811D01*
X422797Y220545D01*
X422851Y220705D01*
X422892Y220826D01*
X422924Y220871D01*
X422929Y220880D01*
X422936Y220888D01*
X423057Y221101D01*
X423174Y221352D01*
X423177Y221361D01*
X423182Y221369D01*
X423232Y221525D01*
X423284Y221683D01*
X423285Y221692D01*
X423288Y221701D01*
X423301Y221865D01*
X423316Y222030D01*
X423315Y222039D01*
X423316Y222048D01*
X423291Y222212D01*
X423269Y222375D01*
X423265Y222384D01*
X423264Y222393D01*
X423203Y222546D01*
X423144Y222701D01*
X423139Y222708D01*
X423135Y222717D01*
X423042Y222851D01*
X422949Y222989D01*
X422942Y222995D01*
X422936Y223003D01*
X422815Y223113D01*
X422693Y223226D01*
X422685Y223230D01*
X422678Y223236D01*
X422533Y223316D01*
X422390Y223398D01*
X422381Y223400D01*
X422373Y223405D01*
X422213Y223450D01*
X422055Y223497D01*
X422046Y223497D01*
X422037Y223500D01*
X421793Y223519D01*
X414211Y223519D01*
X414112Y223508D01*
X414011Y223506D01*
X413939Y223488D01*
X413865Y223479D01*
X413771Y223446D01*
X413673Y223421D01*
X413607Y223387D01*
X413537Y223362D01*
X413453Y223307D01*
X413363Y223261D01*
X413307Y223213D01*
X413244Y223173D01*
X413174Y223101D01*
X413098Y223036D01*
X413054Y222976D01*
X413002Y222922D01*
X412950Y222836D01*
X412891Y222755D01*
X412861Y222687D01*
X412823Y222623D01*
X412793Y222528D01*
X412753Y222435D01*
X412740Y222362D01*
X412717Y222291D01*
X412709Y222191D01*
X412691Y222092D01*
X412695Y222018D01*
X412689Y221944D01*
X412704Y221845D01*
X412709Y221744D01*
X412730Y221673D01*
X412741Y221599D01*
X412778Y221506D01*
X412806Y221409D01*
X412842Y221344D01*
X412869Y221275D01*
X412927Y221193D01*
X412976Y221105D01*
X413041Y221029D01*
X413068Y220989D01*
X413095Y220965D01*
X413134Y220919D01*
X413445Y220608D01*
X414711Y217553D01*
X414711Y214247D01*
X413445Y211192D01*
X411108Y208855D01*
X408053Y207589D01*
X404747Y207589D01*
X401692Y208855D01*
X399355Y211192D01*
X398089Y214247D01*
X398089Y217553D01*
X399355Y220608D01*
X399666Y220919D01*
X399728Y220997D01*
X399798Y221070D01*
X399836Y221134D01*
X399882Y221192D01*
X399925Y221283D01*
X399977Y221369D01*
X399999Y221440D01*
X400031Y221507D01*
X400052Y221605D01*
X400083Y221701D01*
X400089Y221775D01*
X400105Y221848D01*
X400103Y221948D01*
X400111Y222048D01*
X400100Y222122D01*
X400099Y222196D01*
X400074Y222294D01*
X400059Y222393D01*
X400032Y222462D01*
X400014Y222534D01*
X399968Y222623D01*
X399931Y222717D01*
X399888Y222778D01*
X399854Y222844D01*
X399789Y222920D01*
X399732Y223003D01*
X399677Y223053D01*
X399628Y223109D01*
X399547Y223169D01*
X399473Y223236D01*
X399408Y223272D01*
X399348Y223317D01*
X399256Y223356D01*
X399168Y223405D01*
X399096Y223425D01*
X399028Y223455D01*
X398929Y223472D01*
X398832Y223500D01*
X398732Y223508D01*
X398685Y223516D01*
X398649Y223514D01*
X398589Y223519D01*
X388811Y223519D01*
X388712Y223508D01*
X388611Y223506D01*
X388539Y223488D01*
X388465Y223479D01*
X388371Y223446D01*
X388273Y223421D01*
X388207Y223387D01*
X388137Y223362D01*
X388053Y223307D01*
X387963Y223261D01*
X387907Y223213D01*
X387844Y223173D01*
X387774Y223101D01*
X387698Y223036D01*
X387654Y222976D01*
X387602Y222922D01*
X387550Y222836D01*
X387491Y222755D01*
X387461Y222687D01*
X387423Y222623D01*
X387393Y222528D01*
X387353Y222435D01*
X387340Y222362D01*
X387317Y222291D01*
X387309Y222191D01*
X387291Y222092D01*
X387295Y222018D01*
X387289Y221944D01*
X387304Y221845D01*
X387309Y221744D01*
X387330Y221673D01*
X387341Y221599D01*
X387378Y221506D01*
X387406Y221409D01*
X387442Y221344D01*
X387469Y221275D01*
X387527Y221193D01*
X387576Y221105D01*
X387641Y221029D01*
X387668Y220989D01*
X387695Y220965D01*
X387734Y220919D01*
X388045Y220608D01*
X389311Y217553D01*
X389311Y214247D01*
X388045Y211192D01*
X385708Y208855D01*
X382653Y207589D01*
X379347Y207589D01*
X376292Y208855D01*
X373955Y211192D01*
X372689Y214247D01*
X372689Y217553D01*
X373955Y220608D01*
X374266Y220919D01*
X374328Y220997D01*
X374398Y221070D01*
X374436Y221134D01*
X374482Y221192D01*
X374525Y221283D01*
X374577Y221369D01*
X374599Y221440D01*
X374631Y221507D01*
X374652Y221605D01*
X374683Y221701D01*
X374689Y221775D01*
X374705Y221848D01*
X374703Y221948D01*
X374711Y222048D01*
X374700Y222122D01*
X374699Y222196D01*
X374674Y222294D01*
X374659Y222393D01*
X374632Y222462D01*
X374614Y222534D01*
X374568Y222623D01*
X374531Y222717D01*
X374488Y222778D01*
X374454Y222844D01*
X374389Y222920D01*
X374332Y223003D01*
X374277Y223053D01*
X374228Y223109D01*
X374147Y223169D01*
X374073Y223236D01*
X374008Y223272D01*
X373948Y223317D01*
X373856Y223356D01*
X373768Y223405D01*
X373696Y223425D01*
X373628Y223455D01*
X373529Y223472D01*
X373432Y223500D01*
X373332Y223508D01*
X373285Y223516D01*
X373249Y223514D01*
X373189Y223519D01*
X363411Y223519D01*
X363312Y223508D01*
X363211Y223506D01*
X363139Y223488D01*
X363065Y223479D01*
X362971Y223446D01*
X362873Y223421D01*
X362807Y223387D01*
X362737Y223362D01*
X362653Y223307D01*
X362563Y223261D01*
X362507Y223213D01*
X362444Y223173D01*
X362374Y223101D01*
X362298Y223036D01*
X362254Y222976D01*
X362202Y222922D01*
X362150Y222836D01*
X362091Y222755D01*
X362061Y222687D01*
X362023Y222623D01*
X361993Y222528D01*
X361953Y222435D01*
X361940Y222362D01*
X361917Y222291D01*
X361909Y222191D01*
X361891Y222092D01*
X361895Y222018D01*
X361889Y221944D01*
X361904Y221845D01*
X361909Y221744D01*
X361930Y221673D01*
X361941Y221599D01*
X361978Y221506D01*
X362006Y221409D01*
X362042Y221344D01*
X362069Y221275D01*
X362127Y221193D01*
X362176Y221105D01*
X362241Y221029D01*
X362268Y220989D01*
X362295Y220965D01*
X362334Y220919D01*
X362645Y220608D01*
X363911Y217553D01*
X363911Y214247D01*
X362645Y211192D01*
X360308Y208855D01*
X357253Y207589D01*
X353947Y207589D01*
X350892Y208855D01*
X348555Y211192D01*
X347289Y214247D01*
X347289Y217553D01*
X348555Y220608D01*
X348866Y220919D01*
X348928Y220997D01*
X348998Y221070D01*
X349036Y221134D01*
X349082Y221192D01*
X349125Y221283D01*
X349177Y221369D01*
X349199Y221440D01*
X349231Y221507D01*
X349252Y221605D01*
X349283Y221701D01*
X349289Y221775D01*
X349305Y221848D01*
X349303Y221948D01*
X349311Y222048D01*
X349300Y222122D01*
X349299Y222196D01*
X349274Y222294D01*
X349259Y222393D01*
X349232Y222462D01*
X349214Y222534D01*
X349168Y222623D01*
X349131Y222717D01*
X349088Y222778D01*
X349054Y222844D01*
X348989Y222920D01*
X348932Y223003D01*
X348877Y223053D01*
X348828Y223109D01*
X348747Y223169D01*
X348673Y223236D01*
X348608Y223272D01*
X348548Y223317D01*
X348456Y223356D01*
X348368Y223405D01*
X348296Y223425D01*
X348228Y223455D01*
X348129Y223472D01*
X348032Y223500D01*
X347932Y223508D01*
X347885Y223516D01*
X347849Y223514D01*
X347789Y223519D01*
X338011Y223519D01*
X337912Y223508D01*
X337811Y223506D01*
X337739Y223488D01*
X337665Y223479D01*
X337571Y223446D01*
X337473Y223421D01*
X337407Y223387D01*
X337337Y223362D01*
X337253Y223307D01*
X337163Y223261D01*
X337107Y223213D01*
X337044Y223173D01*
X336974Y223101D01*
X336898Y223036D01*
X336854Y222976D01*
X336802Y222922D01*
X336750Y222836D01*
X336691Y222755D01*
X336661Y222687D01*
X336623Y222623D01*
X336593Y222528D01*
X336553Y222435D01*
X336540Y222362D01*
X336517Y222291D01*
X336509Y222191D01*
X336491Y222092D01*
X336495Y222018D01*
X336489Y221944D01*
X336504Y221845D01*
X336509Y221744D01*
X336530Y221673D01*
X336541Y221599D01*
X336578Y221506D01*
X336606Y221409D01*
X336642Y221344D01*
X336669Y221275D01*
X336727Y221193D01*
X336776Y221105D01*
X336841Y221029D01*
X336868Y220989D01*
X336895Y220965D01*
X336934Y220919D01*
X337245Y220608D01*
X338511Y217553D01*
X338511Y214247D01*
X337245Y211192D01*
X334908Y208855D01*
X331853Y207589D01*
X328547Y207589D01*
X325492Y208855D01*
X323155Y211192D01*
X321889Y214247D01*
X321889Y217553D01*
X323155Y220608D01*
X323466Y220919D01*
X323528Y220997D01*
X323598Y221070D01*
X323636Y221134D01*
X323682Y221192D01*
X323725Y221283D01*
X323777Y221369D01*
X323799Y221440D01*
X323831Y221507D01*
X323852Y221605D01*
X323883Y221701D01*
X323889Y221775D01*
X323905Y221848D01*
X323903Y221948D01*
X323911Y222048D01*
X323900Y222122D01*
X323899Y222196D01*
X323874Y222294D01*
X323859Y222393D01*
X323832Y222462D01*
X323814Y222534D01*
X323768Y222623D01*
X323731Y222717D01*
X323688Y222778D01*
X323654Y222844D01*
X323589Y222920D01*
X323532Y223003D01*
X323477Y223053D01*
X323428Y223109D01*
X323347Y223169D01*
X323273Y223236D01*
X323208Y223272D01*
X323148Y223317D01*
X323056Y223356D01*
X322968Y223405D01*
X322896Y223425D01*
X322828Y223455D01*
X322729Y223472D01*
X322632Y223500D01*
X322532Y223508D01*
X322485Y223516D01*
X322449Y223514D01*
X322389Y223519D01*
X312611Y223519D01*
X312512Y223508D01*
X312411Y223506D01*
X312339Y223488D01*
X312265Y223479D01*
X312171Y223446D01*
X312073Y223421D01*
X312007Y223387D01*
X311937Y223362D01*
X311853Y223307D01*
X311763Y223261D01*
X311707Y223213D01*
X311644Y223173D01*
X311574Y223101D01*
X311498Y223036D01*
X311454Y222976D01*
X311402Y222922D01*
X311350Y222836D01*
X311291Y222755D01*
X311261Y222687D01*
X311223Y222623D01*
X311193Y222528D01*
X311153Y222435D01*
X311140Y222362D01*
X311117Y222291D01*
X311109Y222191D01*
X311091Y222092D01*
X311095Y222018D01*
X311089Y221944D01*
X311104Y221845D01*
X311109Y221744D01*
X311130Y221673D01*
X311141Y221599D01*
X311178Y221506D01*
X311206Y221409D01*
X311242Y221344D01*
X311269Y221275D01*
X311327Y221193D01*
X311376Y221105D01*
X311441Y221029D01*
X311468Y220989D01*
X311495Y220965D01*
X311534Y220919D01*
X311845Y220608D01*
X313111Y217553D01*
X313111Y214247D01*
X311845Y211192D01*
X309508Y208855D01*
X306453Y207589D01*
X303147Y207589D01*
X300092Y208855D01*
X297755Y211192D01*
X296489Y214247D01*
X296489Y217553D01*
X297755Y220608D01*
X298066Y220919D01*
X298128Y220997D01*
X298198Y221070D01*
X298236Y221134D01*
X298282Y221192D01*
X298325Y221283D01*
X298377Y221369D01*
X298399Y221440D01*
X298431Y221507D01*
X298452Y221605D01*
X298483Y221701D01*
X298489Y221775D01*
X298505Y221848D01*
X298503Y221948D01*
X298511Y222048D01*
X298500Y222122D01*
X298499Y222196D01*
X298474Y222294D01*
X298459Y222393D01*
X298432Y222462D01*
X298414Y222534D01*
X298368Y222623D01*
X298331Y222717D01*
X298288Y222778D01*
X298254Y222844D01*
X298189Y222920D01*
X298132Y223003D01*
X298077Y223053D01*
X298028Y223109D01*
X297947Y223169D01*
X297873Y223236D01*
X297808Y223272D01*
X297748Y223317D01*
X297656Y223356D01*
X297568Y223405D01*
X297496Y223425D01*
X297428Y223455D01*
X297329Y223472D01*
X297232Y223500D01*
X297132Y223508D01*
X297085Y223516D01*
X297049Y223514D01*
X296989Y223519D01*
X287211Y223519D01*
X287112Y223508D01*
X287011Y223506D01*
X286939Y223488D01*
X286865Y223479D01*
X286771Y223446D01*
X286673Y223421D01*
X286607Y223387D01*
X286537Y223362D01*
X286453Y223307D01*
X286363Y223261D01*
X286307Y223213D01*
X286244Y223173D01*
X286174Y223101D01*
X286098Y223036D01*
X286054Y222976D01*
X286002Y222922D01*
X285950Y222836D01*
X285891Y222755D01*
X285861Y222687D01*
X285823Y222623D01*
X285793Y222528D01*
X285753Y222435D01*
X285740Y222362D01*
X285717Y222291D01*
X285709Y222191D01*
X285691Y222092D01*
X285695Y222018D01*
X285689Y221944D01*
X285704Y221845D01*
X285709Y221744D01*
X285730Y221673D01*
X285741Y221599D01*
X285778Y221506D01*
X285806Y221409D01*
X285842Y221344D01*
X285869Y221275D01*
X285927Y221193D01*
X285976Y221105D01*
X286041Y221029D01*
X286068Y220989D01*
X286095Y220965D01*
X286134Y220919D01*
X286445Y220608D01*
X287711Y217553D01*
X287711Y214247D01*
X286445Y211192D01*
X284108Y208855D01*
X281053Y207589D01*
X277747Y207589D01*
X274692Y208855D01*
X272355Y211192D01*
X271089Y214247D01*
X271089Y217553D01*
X272355Y220608D01*
X272666Y220919D01*
X272728Y220997D01*
X272798Y221070D01*
X272836Y221134D01*
X272882Y221192D01*
X272925Y221283D01*
X272977Y221369D01*
X272999Y221440D01*
X273031Y221507D01*
X273052Y221605D01*
X273083Y221701D01*
X273089Y221775D01*
X273105Y221848D01*
X273103Y221948D01*
X273111Y222048D01*
X273100Y222122D01*
X273099Y222196D01*
X273074Y222294D01*
X273059Y222393D01*
X273032Y222462D01*
X273014Y222534D01*
X272968Y222623D01*
X272931Y222717D01*
X272888Y222778D01*
X272854Y222844D01*
X272789Y222920D01*
X272732Y223003D01*
X272677Y223053D01*
X272628Y223109D01*
X272547Y223169D01*
X272473Y223236D01*
X272408Y223272D01*
X272348Y223317D01*
X272256Y223356D01*
X272168Y223405D01*
X272096Y223425D01*
X272028Y223455D01*
X271929Y223472D01*
X271832Y223500D01*
X271732Y223508D01*
X271685Y223516D01*
X271649Y223514D01*
X271589Y223519D01*
X261811Y223519D01*
X261712Y223508D01*
X261611Y223506D01*
X261539Y223488D01*
X261465Y223479D01*
X261371Y223446D01*
X261273Y223421D01*
X261207Y223387D01*
X261137Y223362D01*
X261053Y223307D01*
X260963Y223261D01*
X260907Y223213D01*
X260844Y223173D01*
X260774Y223101D01*
X260698Y223036D01*
X260654Y222976D01*
X260602Y222922D01*
X260550Y222836D01*
X260491Y222755D01*
X260461Y222687D01*
X260423Y222623D01*
X260393Y222528D01*
X260353Y222435D01*
X260340Y222362D01*
X260317Y222291D01*
X260309Y222191D01*
X260291Y222092D01*
X260295Y222018D01*
X260289Y221944D01*
X260304Y221845D01*
X260309Y221744D01*
X260330Y221673D01*
X260341Y221599D01*
X260378Y221506D01*
X260406Y221409D01*
X260442Y221344D01*
X260469Y221275D01*
X260527Y221193D01*
X260576Y221105D01*
X260641Y221029D01*
X260668Y220989D01*
X260695Y220965D01*
X260734Y220919D01*
X261045Y220608D01*
X262311Y217553D01*
X262311Y214247D01*
X261045Y211192D01*
X258708Y208855D01*
X255653Y207589D01*
X252347Y207589D01*
X249292Y208855D01*
X246955Y211192D01*
X245689Y214247D01*
X245689Y217553D01*
X246955Y220608D01*
X247266Y220919D01*
X247328Y220997D01*
X247398Y221070D01*
X247436Y221134D01*
X247482Y221192D01*
X247525Y221283D01*
X247577Y221369D01*
X247599Y221440D01*
X247631Y221507D01*
X247652Y221605D01*
X247683Y221701D01*
X247689Y221775D01*
X247705Y221848D01*
X247703Y221948D01*
X247711Y222048D01*
X247700Y222122D01*
X247699Y222196D01*
X247674Y222294D01*
X247659Y222393D01*
X247632Y222462D01*
X247614Y222534D01*
X247568Y222623D01*
X247531Y222717D01*
X247488Y222778D01*
X247454Y222844D01*
X247389Y222920D01*
X247332Y223003D01*
X247277Y223053D01*
X247228Y223109D01*
X247147Y223169D01*
X247073Y223236D01*
X247008Y223272D01*
X246948Y223317D01*
X246856Y223356D01*
X246768Y223405D01*
X246696Y223425D01*
X246628Y223455D01*
X246529Y223472D01*
X246432Y223500D01*
X246332Y223508D01*
X246285Y223516D01*
X246249Y223514D01*
X246189Y223519D01*
X236411Y223519D01*
X236312Y223508D01*
X236211Y223506D01*
X236139Y223488D01*
X236065Y223479D01*
X235971Y223446D01*
X235873Y223421D01*
X235807Y223387D01*
X235737Y223362D01*
X235653Y223307D01*
X235563Y223261D01*
X235507Y223213D01*
X235444Y223173D01*
X235374Y223101D01*
X235298Y223036D01*
X235254Y222976D01*
X235202Y222922D01*
X235150Y222836D01*
X235091Y222755D01*
X235061Y222687D01*
X235023Y222623D01*
X234993Y222528D01*
X234953Y222435D01*
X234940Y222362D01*
X234917Y222291D01*
X234909Y222191D01*
X234891Y222092D01*
X234895Y222018D01*
X234889Y221944D01*
X234904Y221845D01*
X234909Y221744D01*
X234930Y221673D01*
X234941Y221599D01*
X234978Y221506D01*
X235006Y221409D01*
X235042Y221344D01*
X235069Y221275D01*
X235127Y221193D01*
X235176Y221105D01*
X235241Y221029D01*
X235268Y220989D01*
X235295Y220965D01*
X235334Y220919D01*
X235645Y220608D01*
X236911Y217553D01*
X236911Y214247D01*
X235645Y211192D01*
X233308Y208855D01*
X230253Y207589D01*
X226947Y207589D01*
X223892Y208855D01*
X221555Y211192D01*
X220289Y214247D01*
X220289Y217553D01*
X221555Y220608D01*
X221866Y220919D01*
X221928Y220997D01*
X221998Y221070D01*
X222036Y221134D01*
X222082Y221192D01*
X222125Y221283D01*
X222177Y221369D01*
X222199Y221440D01*
X222231Y221507D01*
X222252Y221605D01*
X222283Y221701D01*
X222289Y221775D01*
X222305Y221848D01*
X222303Y221948D01*
X222311Y222048D01*
X222300Y222122D01*
X222299Y222196D01*
X222274Y222294D01*
X222259Y222393D01*
X222232Y222462D01*
X222214Y222534D01*
X222168Y222623D01*
X222131Y222717D01*
X222088Y222778D01*
X222054Y222844D01*
X221989Y222920D01*
X221932Y223003D01*
X221877Y223053D01*
X221828Y223109D01*
X221747Y223169D01*
X221673Y223236D01*
X221608Y223272D01*
X221548Y223317D01*
X221456Y223356D01*
X221368Y223405D01*
X221296Y223425D01*
X221228Y223455D01*
X221129Y223472D01*
X221032Y223500D01*
X220932Y223508D01*
X220885Y223516D01*
X220849Y223514D01*
X220789Y223519D01*
X211011Y223519D01*
X210912Y223508D01*
X210811Y223506D01*
X210739Y223488D01*
X210665Y223479D01*
X210571Y223446D01*
X210473Y223421D01*
X210407Y223387D01*
X210337Y223362D01*
X210253Y223307D01*
X210163Y223261D01*
X210107Y223213D01*
X210044Y223173D01*
X209974Y223101D01*
X209898Y223036D01*
X209854Y222976D01*
X209802Y222922D01*
X209750Y222836D01*
X209691Y222755D01*
X209661Y222687D01*
X209623Y222623D01*
X209593Y222528D01*
X209553Y222435D01*
X209540Y222362D01*
X209517Y222291D01*
X209509Y222191D01*
X209491Y222092D01*
X209495Y222018D01*
X209489Y221944D01*
X209504Y221845D01*
X209509Y221744D01*
X209530Y221673D01*
X209541Y221599D01*
X209578Y221506D01*
X209606Y221409D01*
X209642Y221344D01*
X209669Y221275D01*
X209727Y221193D01*
X209776Y221105D01*
X209841Y221029D01*
X209868Y220989D01*
X209895Y220965D01*
X209934Y220919D01*
X210245Y220608D01*
X211511Y217553D01*
X211511Y214247D01*
X210245Y211192D01*
X207908Y208855D01*
X204853Y207589D01*
X201547Y207589D01*
X198492Y208855D01*
X196155Y211192D01*
X194889Y214247D01*
X194889Y217553D01*
X196155Y220608D01*
X196466Y220919D01*
X196528Y220997D01*
X196598Y221070D01*
X196636Y221134D01*
X196682Y221192D01*
X196725Y221283D01*
X196777Y221369D01*
X196799Y221440D01*
X196831Y221507D01*
X196852Y221605D01*
X196883Y221701D01*
X196889Y221775D01*
X196905Y221848D01*
X196903Y221948D01*
X196911Y222048D01*
X196900Y222122D01*
X196899Y222196D01*
X196874Y222294D01*
X196859Y222393D01*
X196832Y222462D01*
X196814Y222534D01*
X196768Y222623D01*
X196731Y222717D01*
X196688Y222778D01*
X196654Y222844D01*
X196589Y222920D01*
X196532Y223003D01*
X196477Y223053D01*
X196428Y223109D01*
X196347Y223169D01*
X196273Y223236D01*
X196208Y223272D01*
X196148Y223317D01*
X196056Y223356D01*
X195968Y223405D01*
X195896Y223425D01*
X195828Y223455D01*
X195729Y223472D01*
X195632Y223500D01*
X195532Y223508D01*
X195485Y223516D01*
X195449Y223514D01*
X195389Y223519D01*
X185611Y223519D01*
X185512Y223508D01*
X185411Y223506D01*
X185339Y223488D01*
X185265Y223479D01*
X185171Y223446D01*
X185073Y223421D01*
X185007Y223387D01*
X184937Y223362D01*
X184853Y223307D01*
X184763Y223261D01*
X184707Y223213D01*
X184644Y223173D01*
X184574Y223101D01*
X184498Y223036D01*
X184454Y222976D01*
X184402Y222922D01*
X184350Y222836D01*
X184291Y222755D01*
X184261Y222687D01*
X184223Y222623D01*
X184193Y222528D01*
X184153Y222435D01*
X184140Y222362D01*
X184117Y222291D01*
X184109Y222191D01*
X184091Y222092D01*
X184095Y222018D01*
X184089Y221944D01*
X184104Y221845D01*
X184109Y221744D01*
X184130Y221673D01*
X184141Y221599D01*
X184178Y221506D01*
X184206Y221409D01*
X184242Y221344D01*
X184269Y221275D01*
X184327Y221193D01*
X184376Y221105D01*
X184441Y221029D01*
X184468Y220989D01*
X184495Y220965D01*
X184534Y220919D01*
X184845Y220608D01*
X186111Y217553D01*
X186111Y214247D01*
X184845Y211192D01*
X182508Y208855D01*
X179453Y207589D01*
X176147Y207589D01*
X173092Y208855D01*
X170755Y211192D01*
X169489Y214247D01*
X169489Y217553D01*
X170755Y220608D01*
X171066Y220919D01*
X171128Y220997D01*
X171198Y221070D01*
X171236Y221134D01*
X171282Y221192D01*
X171325Y221283D01*
X171377Y221369D01*
X171399Y221440D01*
X171431Y221507D01*
X171452Y221605D01*
X171483Y221701D01*
X171489Y221775D01*
X171505Y221848D01*
X171503Y221948D01*
X171511Y222048D01*
X171500Y222122D01*
X171499Y222196D01*
X171474Y222294D01*
X171459Y222393D01*
X171432Y222462D01*
X171414Y222534D01*
X171368Y222623D01*
X171331Y222717D01*
X171288Y222778D01*
X171254Y222844D01*
X171189Y222920D01*
X171132Y223003D01*
X171077Y223053D01*
X171028Y223109D01*
X170947Y223169D01*
X170873Y223236D01*
X170808Y223272D01*
X170748Y223317D01*
X170656Y223356D01*
X170568Y223405D01*
X170496Y223425D01*
X170428Y223455D01*
X170329Y223472D01*
X170232Y223500D01*
X170132Y223508D01*
X170085Y223516D01*
X170049Y223514D01*
X169989Y223519D01*
X160211Y223519D01*
X160112Y223508D01*
X160011Y223506D01*
X159939Y223488D01*
X159865Y223479D01*
X159771Y223446D01*
X159673Y223421D01*
X159607Y223387D01*
X159537Y223362D01*
X159453Y223307D01*
X159363Y223261D01*
X159307Y223213D01*
X159244Y223173D01*
X159174Y223101D01*
X159098Y223036D01*
X159054Y222976D01*
X159002Y222922D01*
X158950Y222836D01*
X158891Y222755D01*
X158861Y222687D01*
X158823Y222623D01*
X158793Y222528D01*
X158753Y222435D01*
X158740Y222362D01*
X158717Y222291D01*
X158709Y222191D01*
X158691Y222092D01*
X158695Y222018D01*
X158689Y221944D01*
X158704Y221845D01*
X158709Y221744D01*
X158730Y221673D01*
X158741Y221599D01*
X158778Y221506D01*
X158806Y221409D01*
X158842Y221344D01*
X158869Y221275D01*
X158927Y221193D01*
X158976Y221105D01*
X159041Y221029D01*
X159068Y220989D01*
X159095Y220965D01*
X159134Y220919D01*
X159445Y220608D01*
X160711Y217553D01*
X160711Y214247D01*
X159445Y211192D01*
X157108Y208855D01*
X154053Y207589D01*
X150747Y207589D01*
X147692Y208855D01*
X145355Y211192D01*
X144089Y214247D01*
X144089Y217553D01*
X145355Y220608D01*
X145666Y220919D01*
X145728Y220997D01*
X145798Y221070D01*
X145836Y221134D01*
X145882Y221192D01*
X145925Y221283D01*
X145977Y221369D01*
X145999Y221440D01*
X146031Y221507D01*
X146052Y221605D01*
X146083Y221701D01*
X146089Y221775D01*
X146105Y221848D01*
X146103Y221948D01*
X146111Y222048D01*
X146100Y222122D01*
X146099Y222196D01*
X146074Y222294D01*
X146059Y222393D01*
X146032Y222462D01*
X146014Y222534D01*
X145968Y222623D01*
X145931Y222717D01*
X145888Y222778D01*
X145854Y222844D01*
X145789Y222920D01*
X145732Y223003D01*
X145677Y223053D01*
X145628Y223109D01*
X145547Y223169D01*
X145473Y223236D01*
X145408Y223272D01*
X145348Y223317D01*
X145256Y223356D01*
X145168Y223405D01*
X145096Y223425D01*
X145028Y223455D01*
X144929Y223472D01*
X144832Y223500D01*
X144732Y223508D01*
X144685Y223516D01*
X144649Y223514D01*
X144589Y223519D01*
X134811Y223519D01*
X134712Y223508D01*
X134611Y223506D01*
X134539Y223488D01*
X134465Y223479D01*
X134371Y223446D01*
X134273Y223421D01*
X134207Y223387D01*
X134137Y223362D01*
X134053Y223307D01*
X133963Y223261D01*
X133907Y223213D01*
X133844Y223173D01*
X133774Y223101D01*
X133698Y223036D01*
X133654Y222976D01*
X133602Y222922D01*
X133550Y222836D01*
X133491Y222755D01*
X133461Y222687D01*
X133423Y222623D01*
X133393Y222528D01*
X133353Y222435D01*
X133340Y222362D01*
X133317Y222291D01*
X133309Y222191D01*
X133291Y222092D01*
X133295Y222018D01*
X133289Y221944D01*
X133304Y221845D01*
X133309Y221744D01*
X133330Y221673D01*
X133341Y221599D01*
X133378Y221506D01*
X133406Y221409D01*
X133442Y221344D01*
X133469Y221275D01*
X133527Y221193D01*
X133576Y221105D01*
X133641Y221029D01*
X133668Y220989D01*
X133695Y220965D01*
X133734Y220919D01*
X134045Y220608D01*
X135311Y217553D01*
X135311Y214247D01*
X134045Y211192D01*
X131708Y208855D01*
X128653Y207589D01*
X125347Y207589D01*
X122292Y208855D01*
X119955Y211192D01*
X118689Y214247D01*
X118689Y217553D01*
X119955Y220608D01*
X120266Y220919D01*
X120328Y220997D01*
X120398Y221070D01*
X120436Y221134D01*
X120482Y221192D01*
X120525Y221283D01*
X120577Y221369D01*
X120599Y221440D01*
X120631Y221507D01*
X120652Y221605D01*
X120683Y221701D01*
X120689Y221775D01*
X120705Y221848D01*
X120703Y221948D01*
X120711Y222048D01*
X120700Y222122D01*
X120699Y222196D01*
X120674Y222294D01*
X120659Y222393D01*
X120632Y222462D01*
X120614Y222534D01*
X120568Y222623D01*
X120531Y222717D01*
X120488Y222778D01*
X120454Y222844D01*
X120389Y222920D01*
X120332Y223003D01*
X120277Y223053D01*
X120228Y223109D01*
X120147Y223169D01*
X120073Y223236D01*
X120008Y223272D01*
X119948Y223317D01*
X119856Y223356D01*
X119768Y223405D01*
X119696Y223425D01*
X119628Y223455D01*
X119529Y223472D01*
X119432Y223500D01*
X119332Y223508D01*
X119285Y223516D01*
X119249Y223514D01*
X119189Y223519D01*
X109411Y223519D01*
X109312Y223508D01*
X109211Y223506D01*
X109139Y223488D01*
X109065Y223479D01*
X108971Y223446D01*
X108873Y223421D01*
X108807Y223387D01*
X108737Y223362D01*
X108653Y223307D01*
X108563Y223261D01*
X108507Y223213D01*
X108444Y223173D01*
X108374Y223101D01*
X108298Y223036D01*
X108254Y222976D01*
X108202Y222922D01*
X108150Y222836D01*
X108091Y222755D01*
X108061Y222687D01*
X108023Y222623D01*
X107993Y222528D01*
X107953Y222435D01*
X107940Y222362D01*
X107917Y222291D01*
X107909Y222191D01*
X107891Y222092D01*
X107895Y222018D01*
X107889Y221944D01*
X107904Y221845D01*
X107909Y221744D01*
X107930Y221673D01*
X107941Y221599D01*
X107978Y221506D01*
X108006Y221409D01*
X108042Y221344D01*
X108069Y221275D01*
X108127Y221193D01*
X108176Y221105D01*
X108241Y221029D01*
X108268Y220989D01*
X108295Y220965D01*
X108334Y220919D01*
X108645Y220608D01*
X109911Y217553D01*
X109911Y214247D01*
X108645Y211192D01*
X106308Y208855D01*
X103253Y207589D01*
X99947Y207589D01*
X96892Y208855D01*
X94555Y211192D01*
X93289Y214247D01*
X93289Y217553D01*
X94555Y220608D01*
X94866Y220919D01*
X94928Y220997D01*
X94998Y221070D01*
X95036Y221134D01*
X95082Y221192D01*
X95125Y221283D01*
X95177Y221369D01*
X95199Y221440D01*
X95231Y221507D01*
X95252Y221605D01*
X95283Y221701D01*
X95289Y221775D01*
X95305Y221848D01*
X95303Y221948D01*
X95311Y222048D01*
X95300Y222122D01*
X95299Y222196D01*
X95274Y222294D01*
X95259Y222393D01*
X95232Y222462D01*
X95214Y222534D01*
X95168Y222623D01*
X95131Y222717D01*
X95088Y222778D01*
X95054Y222844D01*
X94989Y222920D01*
X94932Y223003D01*
X94877Y223053D01*
X94828Y223109D01*
X94747Y223169D01*
X94673Y223236D01*
X94608Y223272D01*
X94548Y223317D01*
X94456Y223356D01*
X94368Y223405D01*
X94296Y223425D01*
X94228Y223455D01*
X94129Y223472D01*
X94032Y223500D01*
X93932Y223508D01*
X93885Y223516D01*
X93849Y223514D01*
X93789Y223519D01*
X84011Y223519D01*
X83912Y223508D01*
X83811Y223506D01*
X83739Y223488D01*
X83665Y223479D01*
X83571Y223446D01*
X83473Y223421D01*
X83407Y223387D01*
X83337Y223362D01*
X83253Y223307D01*
X83163Y223261D01*
X83107Y223213D01*
X83044Y223173D01*
X82974Y223101D01*
X82898Y223036D01*
X82854Y222976D01*
X82802Y222922D01*
X82750Y222836D01*
X82691Y222755D01*
X82661Y222687D01*
X82623Y222623D01*
X82593Y222528D01*
X82553Y222435D01*
X82540Y222362D01*
X82517Y222291D01*
X82509Y222191D01*
X82491Y222092D01*
X82495Y222018D01*
X82489Y221944D01*
X82504Y221845D01*
X82509Y221744D01*
X82530Y221673D01*
X82541Y221599D01*
X82578Y221506D01*
X82606Y221409D01*
X82642Y221344D01*
X82669Y221275D01*
X82727Y221193D01*
X82776Y221105D01*
X82841Y221029D01*
X82868Y220989D01*
X82895Y220965D01*
X82934Y220919D01*
X83245Y220608D01*
X84511Y217553D01*
X84511Y214247D01*
X83245Y211192D01*
X80908Y208855D01*
X77853Y207589D01*
X74547Y207589D01*
X71492Y208855D01*
X69155Y211192D01*
X67889Y214247D01*
X67889Y217553D01*
X69155Y220608D01*
X69466Y220919D01*
X69528Y220997D01*
X69598Y221070D01*
X69636Y221134D01*
X69682Y221192D01*
X69725Y221283D01*
X69777Y221369D01*
X69799Y221440D01*
X69831Y221507D01*
X69852Y221605D01*
X69883Y221701D01*
X69889Y221775D01*
X69905Y221848D01*
X69903Y221948D01*
X69911Y222048D01*
X69900Y222122D01*
X69899Y222196D01*
X69874Y222294D01*
X69859Y222393D01*
X69832Y222462D01*
X69814Y222534D01*
X69768Y222623D01*
X69731Y222717D01*
X69688Y222778D01*
X69654Y222844D01*
X69589Y222920D01*
X69532Y223003D01*
X69477Y223053D01*
X69428Y223109D01*
X69347Y223169D01*
X69273Y223236D01*
X69208Y223272D01*
X69148Y223317D01*
X69056Y223356D01*
X68968Y223405D01*
X68896Y223425D01*
X68828Y223455D01*
X68729Y223472D01*
X68632Y223500D01*
X68532Y223508D01*
X68485Y223516D01*
X68449Y223514D01*
X68389Y223519D01*
X58611Y223519D01*
X58512Y223508D01*
X58411Y223506D01*
X58339Y223488D01*
X58265Y223479D01*
X58171Y223446D01*
X58073Y223421D01*
X58007Y223387D01*
X57937Y223362D01*
X57853Y223307D01*
X57763Y223261D01*
X57707Y223213D01*
X57644Y223173D01*
X57574Y223101D01*
X57498Y223036D01*
X57454Y222976D01*
X57402Y222922D01*
X57350Y222836D01*
X57291Y222755D01*
X57261Y222687D01*
X57223Y222623D01*
X57193Y222528D01*
X57153Y222435D01*
X57140Y222362D01*
X57117Y222291D01*
X57109Y222191D01*
X57091Y222092D01*
X57095Y222018D01*
X57089Y221944D01*
X57104Y221845D01*
X57109Y221744D01*
X57130Y221673D01*
X57141Y221599D01*
X57178Y221506D01*
X57206Y221409D01*
X57242Y221344D01*
X57269Y221275D01*
X57327Y221193D01*
X57376Y221105D01*
X57441Y221029D01*
X57468Y220989D01*
X57495Y220965D01*
X57534Y220919D01*
X57845Y220608D01*
X59111Y217553D01*
X59111Y214247D01*
X57845Y211192D01*
X55508Y208855D01*
X52453Y207589D01*
X49147Y207589D01*
X46092Y208855D01*
X43755Y211192D01*
X42489Y214247D01*
X42489Y217553D01*
X43755Y220608D01*
X44066Y220919D01*
X44128Y220997D01*
X44198Y221070D01*
X44236Y221134D01*
X44282Y221192D01*
X44325Y221283D01*
X44377Y221369D01*
X44399Y221440D01*
X44431Y221507D01*
X44452Y221605D01*
X44483Y221701D01*
X44489Y221775D01*
X44505Y221848D01*
X44503Y221948D01*
X44511Y222048D01*
X44500Y222122D01*
X44499Y222196D01*
X44474Y222294D01*
X44459Y222393D01*
X44432Y222462D01*
X44414Y222534D01*
X44368Y222623D01*
X44331Y222717D01*
X44288Y222778D01*
X44254Y222844D01*
X44189Y222920D01*
X44132Y223003D01*
X44077Y223053D01*
X44028Y223109D01*
X43947Y223169D01*
X43873Y223236D01*
X43808Y223272D01*
X43748Y223317D01*
X43656Y223356D01*
X43568Y223405D01*
X43496Y223425D01*
X43428Y223455D01*
X43329Y223472D01*
X43232Y223500D01*
X43132Y223508D01*
X43085Y223516D01*
X43049Y223514D01*
X42989Y223519D01*
X33211Y223519D01*
X33112Y223508D01*
X33011Y223506D01*
X32939Y223488D01*
X32865Y223479D01*
X32771Y223446D01*
X32673Y223421D01*
X32607Y223387D01*
X32537Y223362D01*
X32453Y223307D01*
X32363Y223261D01*
X32307Y223213D01*
X32244Y223173D01*
X32174Y223101D01*
X32098Y223036D01*
X32054Y222976D01*
X32002Y222922D01*
X31950Y222836D01*
X31891Y222755D01*
X31861Y222687D01*
X31823Y222623D01*
X31793Y222528D01*
X31753Y222435D01*
X31740Y222362D01*
X31717Y222291D01*
X31709Y222191D01*
X31691Y222092D01*
X31695Y222018D01*
X31689Y221944D01*
X31704Y221845D01*
X31709Y221744D01*
X31730Y221673D01*
X31741Y221599D01*
X31778Y221506D01*
X31806Y221409D01*
X31842Y221344D01*
X31869Y221275D01*
X31927Y221193D01*
X31976Y221105D01*
X32041Y221029D01*
X32068Y220989D01*
X32095Y220965D01*
X32134Y220919D01*
X32445Y220608D01*
X33711Y217553D01*
X33711Y214247D01*
X32445Y211192D01*
X30108Y208855D01*
X27053Y207589D01*
X23747Y207589D01*
X20692Y208855D01*
X18355Y211192D01*
X17089Y214247D01*
X17089Y217553D01*
X18355Y220608D01*
X18666Y220919D01*
X18728Y220997D01*
X18798Y221070D01*
X18836Y221134D01*
X18882Y221192D01*
X18925Y221283D01*
X18977Y221369D01*
X18999Y221440D01*
X19031Y221507D01*
X19052Y221605D01*
X19083Y221701D01*
X19089Y221775D01*
X19105Y221848D01*
X19103Y221948D01*
X19111Y222048D01*
X19100Y222122D01*
X19099Y222196D01*
X19074Y222294D01*
X19059Y222393D01*
X19032Y222462D01*
X19014Y222534D01*
X18968Y222623D01*
X18931Y222717D01*
X18888Y222778D01*
X18854Y222844D01*
X18789Y222920D01*
X18732Y223003D01*
X18677Y223053D01*
X18628Y223109D01*
X18547Y223169D01*
X18473Y223236D01*
X18408Y223272D01*
X18348Y223317D01*
X18256Y223356D01*
X18168Y223405D01*
X18096Y223425D01*
X18028Y223455D01*
X17929Y223472D01*
X17832Y223500D01*
X17732Y223508D01*
X17685Y223516D01*
X17649Y223514D01*
X17589Y223519D01*
X12753Y223519D01*
X12705Y223514D01*
X12603Y223512D01*
X11404Y223394D01*
X11304Y223372D01*
X11203Y223360D01*
X11110Y223330D01*
X11063Y223320D01*
X11030Y223304D01*
X10970Y223285D01*
X8754Y222367D01*
X8752Y222366D01*
X8750Y222366D01*
X8598Y222280D01*
X8449Y222198D01*
X8448Y222196D01*
X8446Y222195D01*
X8260Y222037D01*
X6563Y220340D01*
X6562Y220339D01*
X6560Y220338D01*
X6453Y220201D01*
X6347Y220067D01*
X6346Y220066D01*
X6344Y220064D01*
X6233Y219846D01*
X5315Y217630D01*
X5287Y217532D01*
X5250Y217437D01*
X5232Y217341D01*
X5219Y217295D01*
X5217Y217258D01*
X5206Y217196D01*
X5088Y215997D01*
X5089Y215948D01*
X5081Y215847D01*
X5081Y206857D01*
X5082Y206847D01*
X5081Y206838D01*
X5102Y206675D01*
X5121Y206510D01*
X5124Y206502D01*
X5125Y206492D01*
X5182Y206338D01*
X5238Y206182D01*
X5243Y206174D01*
X5246Y206166D01*
X5338Y206028D01*
X5427Y205889D01*
X5434Y205883D01*
X5439Y205875D01*
X5559Y205762D01*
X5678Y205647D01*
X5686Y205643D01*
X5692Y205636D01*
X5836Y205553D01*
X5977Y205468D01*
X5986Y205466D01*
X5994Y205461D01*
X6151Y205413D01*
X6309Y205362D01*
X6318Y205361D01*
X6327Y205359D01*
X6492Y205347D01*
X6656Y205334D01*
X6665Y205336D01*
X6675Y205335D01*
X6837Y205361D01*
X7001Y205386D01*
X7009Y205389D01*
X7019Y205391D01*
X7248Y205476D01*
X7499Y205593D01*
X7508Y205599D01*
X7518Y205602D01*
X7729Y205726D01*
X7776Y205759D01*
X7826Y205767D01*
X7833Y205770D01*
X7838Y205771D01*
X7859Y205780D01*
X8055Y205853D01*
X8789Y206195D01*
X8933Y206283D01*
X9042Y206349D01*
X9096Y206363D01*
X9106Y206367D01*
X9116Y206369D01*
X9346Y206454D01*
X9398Y206479D01*
X9449Y206478D01*
X9456Y206480D01*
X9461Y206480D01*
X9483Y206485D01*
X9689Y206522D01*
X10471Y206732D01*
X10628Y206794D01*
X10747Y206840D01*
X10803Y206845D01*
X10813Y206847D01*
X10824Y206847D01*
X11064Y206891D01*
X11121Y206906D01*
X11170Y206897D01*
X11177Y206897D01*
X11182Y206896D01*
X11205Y206897D01*
X11414Y206898D01*
X12221Y206969D01*
X12387Y207003D01*
X12512Y207027D01*
X12567Y207022D01*
X12578Y207023D01*
X12588Y207021D01*
X12833Y207022D01*
X12891Y207027D01*
X12938Y207010D01*
X12945Y207008D01*
X12950Y207007D01*
X12972Y207004D01*
X13179Y206969D01*
X13986Y206898D01*
X14153Y206903D01*
X14282Y206905D01*
X14336Y206891D01*
X14346Y206889D01*
X14356Y206886D01*
X14597Y206845D01*
X14655Y206840D01*
X14698Y206814D01*
X14705Y206811D01*
X14710Y206809D01*
X14732Y206802D01*
X14929Y206732D01*
X15711Y206522D01*
X15877Y206498D01*
X16004Y206478D01*
X16054Y206454D01*
X16065Y206451D01*
X16074Y206445D01*
X16304Y206363D01*
X16360Y206348D01*
X16398Y206316D01*
X16405Y206312D01*
X16409Y206309D01*
X16429Y206298D01*
X16611Y206195D01*
X17345Y205853D01*
X17505Y205799D01*
X17626Y205758D01*
X17671Y205726D01*
X17680Y205721D01*
X17689Y205714D01*
X17901Y205593D01*
X17954Y205569D01*
X17986Y205530D01*
X17991Y205525D01*
X17995Y205521D01*
X18012Y205508D01*
X18174Y205374D01*
X18838Y204909D01*
X18985Y204829D01*
X19097Y204767D01*
X19137Y204728D01*
X19145Y204721D01*
X19152Y204713D01*
X19340Y204557D01*
X19388Y204524D01*
X19413Y204480D01*
X19417Y204474D01*
X19420Y204470D01*
X19435Y204453D01*
X19571Y204294D01*
X20144Y203721D01*
X20275Y203617D01*
X20375Y203536D01*
X20407Y203490D01*
X20414Y203482D01*
X20419Y203473D01*
X20578Y203287D01*
X20619Y203246D01*
X20635Y203199D01*
X20639Y203192D01*
X20641Y203187D01*
X20654Y203168D01*
X20759Y202988D01*
X21224Y202324D01*
X21336Y202197D01*
X21420Y202102D01*
X21443Y202051D01*
X21449Y202042D01*
X21452Y202032D01*
X21576Y201821D01*
X21609Y201774D01*
X21617Y201724D01*
X21620Y201717D01*
X21621Y201712D01*
X21630Y201691D01*
X21703Y201495D01*
X22045Y200761D01*
X22133Y200617D01*
X22199Y200508D01*
X22213Y200454D01*
X22217Y200444D01*
X22219Y200434D01*
X22304Y200204D01*
X22329Y200152D01*
X22328Y200101D01*
X22330Y200094D01*
X22330Y200089D01*
X22335Y200067D01*
X22372Y199861D01*
X22582Y199079D01*
X22644Y198922D01*
X22690Y198803D01*
X22695Y198747D01*
X22697Y198737D01*
X22697Y198726D01*
X22741Y198486D01*
X22756Y198429D01*
X22747Y198380D01*
X22747Y198373D01*
X22746Y198368D01*
X22747Y198345D01*
X22748Y198136D01*
X22819Y197329D01*
X22853Y197163D01*
X22877Y197038D01*
X22872Y196983D01*
X22873Y196972D01*
X22871Y196962D01*
X22872Y196717D01*
X22877Y196659D01*
X22860Y196612D01*
X22858Y196605D01*
X22857Y196600D01*
X22854Y196578D01*
X22819Y196371D01*
X22748Y195564D01*
X22751Y195468D01*
X22748Y195435D01*
X22753Y195405D01*
X22753Y195397D01*
X22755Y195268D01*
X22741Y195214D01*
X22739Y195204D01*
X22736Y195194D01*
X22695Y194953D01*
X22690Y194895D01*
X22664Y194852D01*
X22661Y194845D01*
X22659Y194840D01*
X22652Y194818D01*
X22582Y194621D01*
X22372Y193839D01*
X22348Y193673D01*
X22328Y193546D01*
X22304Y193496D01*
X22301Y193485D01*
X22295Y193476D01*
X22213Y193246D01*
X22198Y193190D01*
X22166Y193152D01*
X22162Y193145D01*
X22159Y193141D01*
X22148Y193121D01*
X22045Y192939D01*
X21703Y192205D01*
X21649Y192044D01*
X21608Y191924D01*
X21576Y191879D01*
X21571Y191870D01*
X21564Y191861D01*
X21443Y191649D01*
X21419Y191596D01*
X21380Y191564D01*
X21375Y191559D01*
X21371Y191555D01*
X21358Y191538D01*
X21224Y191376D01*
X20759Y190712D01*
X20680Y190565D01*
X20617Y190453D01*
X20578Y190413D01*
X20571Y190405D01*
X20563Y190398D01*
X20407Y190210D01*
X20374Y190162D01*
X20330Y190137D01*
X20324Y190133D01*
X20320Y190130D01*
X20303Y190115D01*
X20144Y189979D01*
X19571Y189406D01*
X19467Y189275D01*
X19386Y189175D01*
X19340Y189143D01*
X19332Y189136D01*
X19323Y189131D01*
X19235Y189056D01*
X19223Y189048D01*
X19209Y189033D01*
X19137Y188972D01*
X19096Y188931D01*
X19049Y188915D01*
X19042Y188911D01*
X19037Y188909D01*
X19018Y188896D01*
X18838Y188791D01*
X18174Y188326D01*
X18047Y188214D01*
X17952Y188130D01*
X17901Y188107D01*
X17892Y188101D01*
X17882Y188098D01*
X17671Y187974D01*
X17624Y187941D01*
X17574Y187933D01*
X17567Y187930D01*
X17562Y187929D01*
X17541Y187920D01*
X17345Y187847D01*
X16611Y187505D01*
X16466Y187416D01*
X16358Y187351D01*
X16304Y187337D01*
X16294Y187333D01*
X16284Y187331D01*
X16054Y187246D01*
X16002Y187221D01*
X15952Y187222D01*
X15944Y187220D01*
X15939Y187220D01*
X15917Y187215D01*
X15711Y187178D01*
X14929Y186968D01*
X14772Y186906D01*
X14653Y186860D01*
X14597Y186855D01*
X14587Y186853D01*
X14576Y186853D01*
X14336Y186809D01*
X14279Y186794D01*
X14230Y186803D01*
X14223Y186803D01*
X14218Y186804D01*
X14195Y186803D01*
X13986Y186802D01*
X13179Y186731D01*
X13013Y186697D01*
X12888Y186673D01*
X12833Y186678D01*
X12822Y186677D01*
X12812Y186679D01*
X12567Y186678D01*
X12509Y186673D01*
X12462Y186690D01*
X12455Y186692D01*
X12450Y186693D01*
X12428Y186696D01*
X12221Y186731D01*
X11414Y186802D01*
X11247Y186797D01*
X11118Y186795D01*
X11064Y186809D01*
X11054Y186811D01*
X11044Y186814D01*
X10803Y186855D01*
X10745Y186860D01*
X10702Y186886D01*
X10695Y186888D01*
X10690Y186891D01*
X10668Y186898D01*
X10471Y186968D01*
X9689Y187178D01*
X9524Y187202D01*
X9396Y187222D01*
X9345Y187246D01*
X9335Y187249D01*
X9326Y187254D01*
X9096Y187337D01*
X9040Y187352D01*
X9002Y187384D01*
X8995Y187388D01*
X8991Y187391D01*
X8971Y187402D01*
X8789Y187505D01*
X8055Y187847D01*
X7895Y187901D01*
X7774Y187942D01*
X7729Y187974D01*
X7720Y187979D01*
X7712Y187986D01*
X7499Y188107D01*
X7248Y188224D01*
X7239Y188227D01*
X7231Y188232D01*
X7075Y188282D01*
X6917Y188334D01*
X6908Y188335D01*
X6899Y188338D01*
X6735Y188351D01*
X6570Y188366D01*
X6561Y188365D01*
X6552Y188366D01*
X6388Y188341D01*
X6225Y188319D01*
X6216Y188315D01*
X6207Y188314D01*
X6054Y188253D01*
X5899Y188194D01*
X5892Y188189D01*
X5883Y188185D01*
X5749Y188092D01*
X5611Y187999D01*
X5605Y187992D01*
X5597Y187986D01*
X5487Y187865D01*
X5374Y187743D01*
X5370Y187735D01*
X5364Y187728D01*
X5284Y187583D01*
X5202Y187440D01*
X5200Y187431D01*
X5195Y187423D01*
X5150Y187262D01*
X5103Y187105D01*
X5103Y187096D01*
X5100Y187087D01*
X5081Y186843D01*
X5081Y168757D01*
X5082Y168747D01*
X5081Y168738D01*
X5102Y168575D01*
X5121Y168410D01*
X5124Y168402D01*
X5125Y168392D01*
X5182Y168238D01*
X5238Y168082D01*
X5243Y168074D01*
X5246Y168066D01*
X5338Y167928D01*
X5427Y167789D01*
X5434Y167783D01*
X5439Y167775D01*
X5559Y167662D01*
X5678Y167547D01*
X5686Y167543D01*
X5692Y167536D01*
X5835Y167453D01*
X5977Y167368D01*
X5986Y167366D01*
X5994Y167361D01*
X6151Y167313D01*
X6309Y167262D01*
X6318Y167261D01*
X6327Y167259D01*
X6492Y167247D01*
X6656Y167234D01*
X6665Y167236D01*
X6675Y167235D01*
X6837Y167261D01*
X7001Y167286D01*
X7009Y167289D01*
X7019Y167291D01*
X7248Y167376D01*
X7499Y167493D01*
X7508Y167499D01*
X7518Y167502D01*
X7729Y167626D01*
X7776Y167659D01*
X7826Y167667D01*
X7833Y167670D01*
X7838Y167671D01*
X7859Y167680D01*
X8055Y167753D01*
X8789Y168095D01*
X8933Y168183D01*
X9042Y168249D01*
X9096Y168263D01*
X9106Y168267D01*
X9116Y168269D01*
X9346Y168354D01*
X9398Y168379D01*
X9449Y168378D01*
X9456Y168380D01*
X9461Y168380D01*
X9483Y168385D01*
X9689Y168422D01*
X10471Y168632D01*
X10628Y168694D01*
X10747Y168740D01*
X10803Y168745D01*
X10813Y168747D01*
X10824Y168747D01*
X11064Y168791D01*
X11121Y168806D01*
X11170Y168797D01*
X11177Y168797D01*
X11182Y168796D01*
X11205Y168797D01*
X11414Y168798D01*
X12221Y168869D01*
X12387Y168903D01*
X12512Y168927D01*
X12567Y168922D01*
X12578Y168923D01*
X12588Y168921D01*
X12833Y168922D01*
X12891Y168927D01*
X12938Y168910D01*
X12945Y168908D01*
X12950Y168907D01*
X12972Y168904D01*
X13179Y168869D01*
X13986Y168798D01*
X14153Y168803D01*
X14282Y168805D01*
X14336Y168791D01*
X14346Y168789D01*
X14356Y168786D01*
X14597Y168745D01*
X14655Y168740D01*
X14698Y168714D01*
X14705Y168711D01*
X14710Y168709D01*
X14732Y168702D01*
X14929Y168632D01*
X15711Y168422D01*
X15877Y168398D01*
X16004Y168378D01*
X16054Y168354D01*
X16065Y168351D01*
X16074Y168345D01*
X16304Y168263D01*
X16360Y168248D01*
X16398Y168216D01*
X16405Y168212D01*
X16409Y168209D01*
X16429Y168198D01*
X16611Y168095D01*
X17345Y167753D01*
X17505Y167699D01*
X17626Y167658D01*
X17671Y167626D01*
X17680Y167621D01*
X17689Y167614D01*
X17901Y167493D01*
X17954Y167469D01*
X17986Y167430D01*
X17991Y167425D01*
X17995Y167421D01*
X18012Y167408D01*
X18174Y167274D01*
X18838Y166809D01*
X18985Y166729D01*
X19097Y166667D01*
X19137Y166628D01*
X19145Y166621D01*
X19152Y166613D01*
X19340Y166457D01*
X19388Y166424D01*
X19413Y166380D01*
X19417Y166374D01*
X19420Y166370D01*
X19435Y166353D01*
X19571Y166194D01*
X20144Y165621D01*
X20275Y165517D01*
X20375Y165436D01*
X20407Y165390D01*
X20414Y165382D01*
X20419Y165373D01*
X20578Y165187D01*
X20619Y165146D01*
X20635Y165099D01*
X20639Y165092D01*
X20641Y165087D01*
X20654Y165068D01*
X20759Y164888D01*
X21224Y164224D01*
X21338Y164096D01*
X21420Y164002D01*
X21443Y163951D01*
X21449Y163942D01*
X21452Y163932D01*
X21576Y163721D01*
X21609Y163674D01*
X21617Y163624D01*
X21620Y163617D01*
X21621Y163612D01*
X21630Y163591D01*
X21703Y163395D01*
X22045Y162661D01*
X22133Y162517D01*
X22199Y162408D01*
X22213Y162354D01*
X22217Y162344D01*
X22219Y162334D01*
X22304Y162104D01*
X22329Y162052D01*
X22328Y162001D01*
X22330Y161994D01*
X22330Y161989D01*
X22335Y161967D01*
X22372Y161761D01*
X22582Y160979D01*
X22644Y160822D01*
X22690Y160703D01*
X22695Y160647D01*
X22697Y160637D01*
X22697Y160626D01*
X22741Y160386D01*
X22756Y160329D01*
X22747Y160280D01*
X22747Y160273D01*
X22746Y160268D01*
X22747Y160245D01*
X22748Y160036D01*
X22819Y159229D01*
X22853Y159063D01*
X22877Y158938D01*
X22872Y158883D01*
X22873Y158872D01*
X22871Y158862D01*
X22872Y158617D01*
X22877Y158559D01*
X22860Y158512D01*
X22858Y158505D01*
X22857Y158500D01*
X22854Y158478D01*
X22819Y158271D01*
X22748Y157464D01*
X22751Y157367D01*
X22750Y157354D01*
X22752Y157342D01*
X22753Y157297D01*
X22755Y157168D01*
X22741Y157114D01*
X22739Y157104D01*
X22736Y157094D01*
X22695Y156853D01*
X22690Y156795D01*
X22664Y156752D01*
X22661Y156745D01*
X22659Y156740D01*
X22652Y156718D01*
X22582Y156521D01*
X22372Y155739D01*
X22348Y155573D01*
X22328Y155446D01*
X22304Y155396D01*
X22301Y155385D01*
X22295Y155376D01*
X22213Y155146D01*
X22198Y155090D01*
X22166Y155052D01*
X22162Y155045D01*
X22159Y155041D01*
X22148Y155021D01*
X22045Y154839D01*
X21703Y154105D01*
X21649Y153945D01*
X21608Y153824D01*
X21576Y153779D01*
X21571Y153770D01*
X21564Y153761D01*
X21443Y153549D01*
X21419Y153496D01*
X21380Y153464D01*
X21375Y153459D01*
X21371Y153455D01*
X21358Y153438D01*
X21224Y153276D01*
X20759Y152612D01*
X20680Y152465D01*
X20617Y152353D01*
X20578Y152313D01*
X20571Y152305D01*
X20563Y152298D01*
X20407Y152110D01*
X20374Y152062D01*
X20330Y152037D01*
X20324Y152033D01*
X20320Y152030D01*
X20303Y152015D01*
X20144Y151879D01*
X19571Y151306D01*
X19467Y151175D01*
X19386Y151075D01*
X19340Y151043D01*
X19332Y151036D01*
X19323Y151031D01*
X19267Y150983D01*
X19241Y150966D01*
X19212Y150936D01*
X19137Y150872D01*
X19096Y150831D01*
X19049Y150815D01*
X19042Y150811D01*
X19037Y150809D01*
X19018Y150796D01*
X18838Y150691D01*
X18174Y150226D01*
X18047Y150114D01*
X17952Y150030D01*
X17901Y150007D01*
X17892Y150001D01*
X17882Y149998D01*
X17671Y149874D01*
X17624Y149841D01*
X17574Y149833D01*
X17567Y149830D01*
X17562Y149829D01*
X17541Y149820D01*
X17345Y149747D01*
X16611Y149405D01*
X16467Y149317D01*
X16358Y149251D01*
X16304Y149237D01*
X16294Y149233D01*
X16284Y149231D01*
X16054Y149146D01*
X16002Y149121D01*
X15952Y149122D01*
X15944Y149120D01*
X15939Y149120D01*
X15917Y149115D01*
X15711Y149078D01*
X14929Y148868D01*
X14772Y148806D01*
X14653Y148760D01*
X14597Y148755D01*
X14587Y148753D01*
X14576Y148753D01*
X14336Y148709D01*
X14279Y148694D01*
X14230Y148703D01*
X14223Y148703D01*
X14218Y148704D01*
X14195Y148703D01*
X13986Y148702D01*
X13179Y148631D01*
X13013Y148597D01*
X12888Y148573D01*
X12833Y148578D01*
X12822Y148577D01*
X12812Y148579D01*
X12567Y148578D01*
X12509Y148573D01*
X12462Y148590D01*
X12455Y148592D01*
X12450Y148593D01*
X12428Y148596D01*
X12221Y148631D01*
X11414Y148702D01*
X11247Y148697D01*
X11118Y148695D01*
X11064Y148709D01*
X11054Y148711D01*
X11044Y148714D01*
X10803Y148755D01*
X10745Y148760D01*
X10702Y148786D01*
X10695Y148788D01*
X10690Y148791D01*
X10668Y148798D01*
X10471Y148868D01*
X9689Y149078D01*
X9524Y149102D01*
X9396Y149122D01*
X9345Y149146D01*
X9335Y149149D01*
X9326Y149154D01*
X9096Y149237D01*
X9040Y149252D01*
X9002Y149284D01*
X8995Y149288D01*
X8991Y149291D01*
X8971Y149302D01*
X8789Y149405D01*
X8055Y149747D01*
X7895Y149801D01*
X7774Y149842D01*
X7729Y149874D01*
X7720Y149879D01*
X7712Y149886D01*
X7499Y150007D01*
X7248Y150124D01*
X7239Y150127D01*
X7231Y150132D01*
X7075Y150182D01*
X6917Y150234D01*
X6908Y150235D01*
X6899Y150238D01*
X6735Y150251D01*
X6570Y150266D01*
X6561Y150265D01*
X6552Y150266D01*
X6388Y150241D01*
X6225Y150219D01*
X6216Y150215D01*
X6207Y150214D01*
X6054Y150153D01*
X5899Y150094D01*
X5892Y150089D01*
X5883Y150085D01*
X5749Y149992D01*
X5611Y149899D01*
X5605Y149892D01*
X5597Y149886D01*
X5487Y149765D01*
X5374Y149643D01*
X5370Y149635D01*
X5364Y149628D01*
X5284Y149483D01*
X5202Y149340D01*
X5200Y149331D01*
X5195Y149323D01*
X5150Y149162D01*
X5103Y149005D01*
X5103Y148996D01*
X5100Y148987D01*
X5081Y148743D01*
X5081Y136843D01*
X5084Y136817D01*
X5082Y136791D01*
X5104Y136644D01*
X5121Y136497D01*
X5129Y136472D01*
X5133Y136446D01*
X5188Y136308D01*
X5238Y136169D01*
X5252Y136147D01*
X5262Y136122D01*
X5347Y136001D01*
X5427Y135876D01*
X5446Y135858D01*
X5461Y135836D01*
X5571Y135737D01*
X5678Y135634D01*
X5700Y135620D01*
X5720Y135603D01*
X5850Y135531D01*
X5977Y135455D01*
X6002Y135447D01*
X6025Y135434D01*
X6168Y135394D01*
X6309Y135349D01*
X6335Y135347D01*
X6360Y135339D01*
X6604Y135320D01*
X22650Y135320D01*
X26568Y133697D01*
X29567Y130698D01*
X31190Y126780D01*
X31190Y110744D01*
X31193Y110718D01*
X31191Y110692D01*
X31213Y110545D01*
X31230Y110398D01*
X31238Y110373D01*
X31242Y110347D01*
X31297Y110209D01*
X31347Y110070D01*
X31361Y110048D01*
X31371Y110023D01*
X31456Y109902D01*
X31536Y109777D01*
X31555Y109759D01*
X31570Y109737D01*
X31680Y109638D01*
X31787Y109535D01*
X31809Y109521D01*
X31829Y109504D01*
X31959Y109432D01*
X32086Y109356D01*
X32111Y109348D01*
X32134Y109335D01*
X32277Y109295D01*
X32418Y109250D01*
X32444Y109248D01*
X32469Y109240D01*
X32713Y109221D01*
X140246Y109221D01*
X145823Y106911D01*
X150091Y102643D01*
X152401Y97066D01*
X152401Y82219D01*
X152415Y82094D01*
X152422Y81968D01*
X152435Y81921D01*
X152441Y81873D01*
X152483Y81754D01*
X152518Y81633D01*
X152542Y81591D01*
X152558Y81545D01*
X152627Y81439D01*
X152688Y81329D01*
X152728Y81282D01*
X152747Y81252D01*
X152782Y81219D01*
X152847Y81142D01*
X178932Y55057D01*
X179031Y54978D01*
X179125Y54894D01*
X179168Y54870D01*
X179205Y54840D01*
X179320Y54786D01*
X179430Y54725D01*
X179477Y54712D01*
X179520Y54691D01*
X179644Y54665D01*
X179766Y54630D01*
X179826Y54625D01*
X179861Y54618D01*
X179909Y54619D01*
X180009Y54611D01*
X272272Y54611D01*
X277873Y52290D01*
X282160Y48003D01*
X284481Y42402D01*
X284481Y19989D01*
X284495Y19864D01*
X284502Y19738D01*
X284515Y19691D01*
X284521Y19643D01*
X284563Y19524D01*
X284598Y19403D01*
X284622Y19361D01*
X284638Y19315D01*
X284707Y19209D01*
X284768Y19099D01*
X284808Y19052D01*
X284827Y19022D01*
X284862Y18989D01*
X284927Y18912D01*
X298312Y5527D01*
X298411Y5448D01*
X298505Y5364D01*
X298548Y5340D01*
X298585Y5310D01*
X298700Y5256D01*
X298810Y5195D01*
X298857Y5182D01*
X298900Y5161D01*
X299024Y5135D01*
X299146Y5100D01*
X299206Y5095D01*
X299241Y5088D01*
X299289Y5089D01*
X299389Y5081D01*
X310211Y5081D01*
X310336Y5095D01*
G37*
%LPC*%
G36*
X219578Y59811D02*
X219578Y59811D01*
X216987Y60884D01*
X215004Y62867D01*
X213931Y65458D01*
X213931Y67328D01*
X213928Y67354D01*
X213930Y67380D01*
X213908Y67527D01*
X213891Y67674D01*
X213883Y67699D01*
X213879Y67725D01*
X213824Y67863D01*
X213774Y68002D01*
X213760Y68024D01*
X213750Y68049D01*
X213665Y68170D01*
X213585Y68295D01*
X213566Y68313D01*
X213551Y68335D01*
X213441Y68434D01*
X213334Y68537D01*
X213312Y68551D01*
X213292Y68568D01*
X213162Y68640D01*
X213035Y68716D01*
X213010Y68724D01*
X212987Y68737D01*
X212844Y68777D01*
X212703Y68822D01*
X212677Y68824D01*
X212652Y68832D01*
X212408Y68851D01*
X209418Y68851D01*
X206827Y69924D01*
X204844Y71907D01*
X203771Y74498D01*
X203771Y77302D01*
X204844Y79893D01*
X206827Y81876D01*
X209418Y82949D01*
X212222Y82949D01*
X212570Y82804D01*
X212716Y82763D01*
X212839Y82724D01*
X213602Y82378D01*
X213621Y82372D01*
X213647Y82358D01*
X214867Y81853D01*
X214936Y81795D01*
X214960Y81782D01*
X214974Y81771D01*
X215016Y81751D01*
X215150Y81677D01*
X217508Y80608D01*
X217534Y80600D01*
X217557Y80587D01*
X217699Y80547D01*
X217840Y80502D01*
X217867Y80500D01*
X217893Y80492D01*
X218136Y80473D01*
X233333Y80473D01*
X233359Y80476D01*
X233385Y80474D01*
X233532Y80496D01*
X233679Y80513D01*
X233704Y80521D01*
X233730Y80525D01*
X233868Y80580D01*
X234007Y80630D01*
X234029Y80644D01*
X234054Y80654D01*
X234175Y80739D01*
X234300Y80819D01*
X234318Y80838D01*
X234340Y80853D01*
X234439Y80963D01*
X234542Y81070D01*
X234556Y81092D01*
X234573Y81112D01*
X234645Y81242D01*
X234721Y81369D01*
X234729Y81394D01*
X234742Y81417D01*
X234782Y81560D01*
X234827Y81701D01*
X234829Y81727D01*
X234837Y81752D01*
X234856Y81996D01*
X234856Y89304D01*
X234853Y89330D01*
X234855Y89356D01*
X234833Y89503D01*
X234816Y89650D01*
X234808Y89675D01*
X234804Y89701D01*
X234749Y89839D01*
X234699Y89978D01*
X234685Y90000D01*
X234675Y90025D01*
X234590Y90146D01*
X234510Y90271D01*
X234491Y90289D01*
X234476Y90311D01*
X234366Y90410D01*
X234259Y90513D01*
X234237Y90527D01*
X234217Y90544D01*
X234087Y90616D01*
X233960Y90692D01*
X233935Y90700D01*
X233912Y90713D01*
X233769Y90753D01*
X233628Y90798D01*
X233602Y90800D01*
X233577Y90808D01*
X233333Y90827D01*
X198467Y90827D01*
X198441Y90824D01*
X198415Y90826D01*
X198268Y90804D01*
X198121Y90787D01*
X198096Y90779D01*
X198070Y90775D01*
X197932Y90720D01*
X197793Y90670D01*
X197771Y90656D01*
X197746Y90646D01*
X197625Y90561D01*
X197500Y90481D01*
X197482Y90462D01*
X197460Y90447D01*
X197439Y90423D01*
X186520Y90423D01*
X175592Y90423D01*
X175499Y90513D01*
X175477Y90527D01*
X175457Y90544D01*
X175327Y90616D01*
X175200Y90692D01*
X175175Y90700D01*
X175152Y90713D01*
X175009Y90753D01*
X174868Y90798D01*
X174842Y90800D01*
X174817Y90808D01*
X174573Y90827D01*
X172930Y90827D01*
X171250Y91523D01*
X168463Y94310D01*
X168385Y94372D01*
X168312Y94442D01*
X168248Y94481D01*
X168190Y94527D01*
X168099Y94570D01*
X168013Y94621D01*
X167942Y94644D01*
X167875Y94676D01*
X167777Y94697D01*
X167681Y94727D01*
X167607Y94733D01*
X167534Y94749D01*
X167434Y94747D01*
X167334Y94755D01*
X167260Y94744D01*
X167186Y94743D01*
X167089Y94719D01*
X166989Y94704D01*
X166920Y94676D01*
X166848Y94658D01*
X166759Y94612D01*
X166665Y94575D01*
X166604Y94532D01*
X166538Y94498D01*
X166462Y94433D01*
X166379Y94376D01*
X166329Y94321D01*
X166273Y94273D01*
X166213Y94192D01*
X166146Y94117D01*
X166110Y94052D01*
X166065Y93992D01*
X166026Y93900D01*
X165977Y93812D01*
X165957Y93741D01*
X165927Y93672D01*
X165910Y93574D01*
X165882Y93477D01*
X165874Y93377D01*
X165866Y93329D01*
X165868Y93294D01*
X165863Y93233D01*
X165863Y90155D01*
X165877Y90029D01*
X165884Y89903D01*
X165897Y89857D01*
X165903Y89809D01*
X165945Y89690D01*
X165980Y89568D01*
X166004Y89526D01*
X166020Y89481D01*
X166089Y89374D01*
X166150Y89264D01*
X166190Y89218D01*
X166209Y89188D01*
X166244Y89154D01*
X166309Y89078D01*
X173496Y81891D01*
X173574Y81829D01*
X173647Y81759D01*
X173711Y81720D01*
X173769Y81674D01*
X173860Y81631D01*
X173946Y81580D01*
X174017Y81557D01*
X174084Y81525D01*
X174182Y81504D01*
X174278Y81474D01*
X174352Y81468D01*
X174425Y81452D01*
X174525Y81454D01*
X174625Y81446D01*
X174699Y81457D01*
X174773Y81458D01*
X174870Y81482D01*
X174970Y81497D01*
X175039Y81525D01*
X175111Y81543D01*
X175201Y81589D01*
X175294Y81626D01*
X175355Y81668D01*
X175421Y81703D01*
X175498Y81768D01*
X175580Y81825D01*
X175630Y81880D01*
X175686Y81928D01*
X175746Y82009D01*
X175813Y82084D01*
X175849Y82149D01*
X175894Y82209D01*
X175933Y82301D01*
X175982Y82389D01*
X176002Y82460D01*
X176032Y82529D01*
X176049Y82627D01*
X176077Y82724D01*
X176085Y82824D01*
X176093Y82872D01*
X176091Y82907D01*
X176096Y82968D01*
X176096Y85597D01*
X176106Y85617D01*
X176112Y85640D01*
X176122Y85661D01*
X176154Y85809D01*
X176190Y85955D01*
X176191Y85979D01*
X176196Y86002D01*
X176193Y86153D01*
X176195Y86304D01*
X176190Y86332D01*
X176190Y86350D01*
X176178Y86396D01*
X176151Y86545D01*
X176096Y86749D01*
X176096Y87377D01*
X186520Y87377D01*
X196944Y87377D01*
X196944Y86749D01*
X196889Y86545D01*
X196867Y86395D01*
X196840Y86246D01*
X196841Y86223D01*
X196838Y86200D01*
X196850Y86049D01*
X196858Y85898D01*
X196865Y85876D01*
X196867Y85853D01*
X196913Y85708D01*
X196944Y85602D01*
X196944Y72703D01*
X196933Y72683D01*
X196928Y72660D01*
X196918Y72639D01*
X196886Y72491D01*
X196850Y72344D01*
X196849Y72321D01*
X196844Y72298D01*
X196847Y72147D01*
X196845Y71996D01*
X196850Y71968D01*
X196850Y71950D01*
X196862Y71905D01*
X196889Y71755D01*
X196944Y71551D01*
X196944Y70923D01*
X186520Y70923D01*
X175592Y70923D01*
X175499Y71013D01*
X175477Y71027D01*
X175457Y71044D01*
X175327Y71116D01*
X175200Y71192D01*
X175175Y71200D01*
X175152Y71213D01*
X175009Y71253D01*
X174868Y71298D01*
X174842Y71300D01*
X174817Y71308D01*
X174573Y71327D01*
X172110Y71327D01*
X170430Y72023D01*
X157413Y85040D01*
X156717Y86720D01*
X156717Y110505D01*
X156703Y110631D01*
X156696Y110757D01*
X156683Y110803D01*
X156677Y110851D01*
X156635Y110970D01*
X156600Y111092D01*
X156576Y111134D01*
X156560Y111179D01*
X156491Y111286D01*
X156430Y111396D01*
X156390Y111442D01*
X156371Y111472D01*
X156336Y111506D01*
X156271Y111582D01*
X155062Y112791D01*
X154963Y112870D01*
X154869Y112954D01*
X154827Y112978D01*
X154789Y113008D01*
X154675Y113062D01*
X154564Y113123D01*
X154518Y113136D01*
X154474Y113157D01*
X154351Y113183D01*
X154229Y113218D01*
X154168Y113223D01*
X154133Y113230D01*
X154085Y113229D01*
X153985Y113237D01*
X88900Y113237D01*
X87220Y113933D01*
X81338Y119815D01*
X81239Y119894D01*
X81145Y119978D01*
X81103Y120002D01*
X81065Y120032D01*
X80951Y120086D01*
X80840Y120147D01*
X80794Y120160D01*
X80750Y120181D01*
X80627Y120207D01*
X80505Y120242D01*
X80444Y120247D01*
X80409Y120254D01*
X80361Y120253D01*
X80261Y120261D01*
X69047Y120261D01*
X68387Y120921D01*
X68367Y120938D01*
X68350Y120958D01*
X68231Y121046D01*
X68114Y121138D01*
X68090Y121149D01*
X68069Y121165D01*
X67933Y121223D01*
X67799Y121287D01*
X67773Y121292D01*
X67749Y121303D01*
X67603Y121329D01*
X67458Y121360D01*
X67432Y121360D01*
X67406Y121364D01*
X67258Y121357D01*
X67110Y121354D01*
X67084Y121348D01*
X67058Y121347D01*
X66916Y121305D01*
X66772Y121269D01*
X66749Y121257D01*
X66723Y121250D01*
X66594Y121177D01*
X66462Y121110D01*
X66442Y121093D01*
X66419Y121080D01*
X66233Y120921D01*
X66182Y120870D01*
X65487Y120469D01*
X64711Y120261D01*
X60857Y120261D01*
X60857Y129286D01*
X60854Y129312D01*
X60856Y129338D01*
X60834Y129485D01*
X60817Y129632D01*
X60808Y129657D01*
X60805Y129683D01*
X60750Y129821D01*
X60700Y129960D01*
X60686Y129982D01*
X60676Y130007D01*
X60591Y130128D01*
X60511Y130253D01*
X60492Y130271D01*
X60477Y130293D01*
X60367Y130392D01*
X60260Y130495D01*
X60238Y130509D01*
X60218Y130526D01*
X60088Y130598D01*
X59961Y130674D01*
X59936Y130682D01*
X59913Y130695D01*
X59770Y130735D01*
X59629Y130780D01*
X59603Y130782D01*
X59578Y130790D01*
X59334Y130809D01*
X57809Y130809D01*
X57809Y130811D01*
X59334Y130811D01*
X59360Y130814D01*
X59386Y130812D01*
X59533Y130834D01*
X59680Y130851D01*
X59705Y130860D01*
X59731Y130863D01*
X59869Y130918D01*
X60008Y130968D01*
X60030Y130982D01*
X60055Y130992D01*
X60176Y131077D01*
X60301Y131157D01*
X60319Y131176D01*
X60341Y131191D01*
X60440Y131301D01*
X60543Y131408D01*
X60557Y131430D01*
X60574Y131450D01*
X60646Y131580D01*
X60722Y131707D01*
X60730Y131732D01*
X60743Y131755D01*
X60783Y131898D01*
X60828Y132039D01*
X60830Y132065D01*
X60838Y132090D01*
X60857Y132334D01*
X60857Y141359D01*
X64711Y141359D01*
X65487Y141151D01*
X66182Y140750D01*
X66233Y140699D01*
X66253Y140682D01*
X66270Y140662D01*
X66390Y140574D01*
X66506Y140482D01*
X66530Y140471D01*
X66551Y140455D01*
X66687Y140397D01*
X66821Y140333D01*
X66847Y140328D01*
X66871Y140317D01*
X67017Y140291D01*
X67162Y140260D01*
X67188Y140260D01*
X67214Y140256D01*
X67362Y140263D01*
X67510Y140266D01*
X67536Y140272D01*
X67562Y140273D01*
X67704Y140314D01*
X67848Y140351D01*
X67872Y140363D01*
X67897Y140370D01*
X68026Y140442D01*
X68158Y140510D01*
X68178Y140527D01*
X68201Y140540D01*
X68387Y140699D01*
X69047Y141359D01*
X70714Y141359D01*
X70740Y141362D01*
X70766Y141360D01*
X70913Y141382D01*
X71060Y141399D01*
X71085Y141407D01*
X71111Y141411D01*
X71249Y141466D01*
X71388Y141516D01*
X71410Y141530D01*
X71435Y141540D01*
X71556Y141625D01*
X71681Y141705D01*
X71699Y141724D01*
X71721Y141739D01*
X71820Y141849D01*
X71923Y141956D01*
X71937Y141978D01*
X71954Y141998D01*
X72026Y142128D01*
X72102Y142255D01*
X72110Y142280D01*
X72123Y142303D01*
X72163Y142446D01*
X72208Y142587D01*
X72210Y142613D01*
X72218Y142638D01*
X72230Y142798D01*
X72234Y142819D01*
X72233Y142834D01*
X72237Y142882D01*
X72237Y142915D01*
X72236Y142928D01*
X72236Y142934D01*
X72231Y142972D01*
X72223Y143041D01*
X72216Y143167D01*
X72203Y143213D01*
X72197Y143261D01*
X72155Y143380D01*
X72120Y143502D01*
X72096Y143544D01*
X72080Y143589D01*
X72011Y143695D01*
X71950Y143806D01*
X71910Y143852D01*
X71891Y143882D01*
X71856Y143916D01*
X71791Y143992D01*
X70325Y145458D01*
X70280Y145494D01*
X70240Y145537D01*
X70069Y145662D01*
X70052Y145674D01*
X70048Y145676D01*
X70043Y145681D01*
X69813Y145821D01*
X69793Y145843D01*
X69784Y145850D01*
X69778Y145856D01*
X69753Y145873D01*
X69597Y145990D01*
X68310Y146805D01*
X68285Y146817D01*
X68264Y146833D01*
X68043Y146939D01*
X63733Y148599D01*
X63581Y148639D01*
X63429Y148682D01*
X63409Y148683D01*
X63395Y148687D01*
X63354Y148688D01*
X63185Y148701D01*
X61501Y148701D01*
X60589Y149079D01*
X60496Y149106D01*
X60407Y149141D01*
X60301Y149161D01*
X60254Y149175D01*
X60221Y149177D01*
X60167Y149187D01*
X60143Y149189D01*
X59696Y149433D01*
X59653Y149450D01*
X59515Y149517D01*
X58961Y149730D01*
X58955Y149735D01*
X58937Y149744D01*
X58927Y149752D01*
X58889Y149769D01*
X58738Y149846D01*
X57808Y150231D01*
X54981Y153058D01*
X53451Y156751D01*
X53451Y160749D01*
X54981Y164442D01*
X57808Y167269D01*
X61501Y168799D01*
X65499Y168799D01*
X69192Y167269D01*
X72019Y164442D01*
X72404Y163512D01*
X72481Y163375D01*
X72504Y163330D01*
X72733Y162735D01*
X72755Y162694D01*
X72817Y162555D01*
X73061Y162107D01*
X73063Y162083D01*
X73084Y161990D01*
X73096Y161894D01*
X73129Y161791D01*
X73140Y161743D01*
X73154Y161714D01*
X73171Y161661D01*
X73549Y160749D01*
X73549Y159065D01*
X73567Y158909D01*
X73581Y158752D01*
X73587Y158732D01*
X73589Y158719D01*
X73603Y158680D01*
X73651Y158517D01*
X75311Y154207D01*
X75324Y154183D01*
X75332Y154156D01*
X75445Y153940D01*
X76260Y152653D01*
X76362Y152526D01*
X76420Y152452D01*
X76570Y152207D01*
X76605Y152162D01*
X76634Y152111D01*
X76771Y151950D01*
X76784Y151933D01*
X76788Y151930D01*
X76792Y151925D01*
X79629Y149088D01*
X80369Y148347D01*
X81383Y145901D01*
X81383Y142882D01*
X81386Y142856D01*
X81384Y142830D01*
X81406Y142683D01*
X81423Y142536D01*
X81431Y142511D01*
X81435Y142485D01*
X81490Y142347D01*
X81540Y142208D01*
X81554Y142186D01*
X81564Y142161D01*
X81649Y142040D01*
X81729Y141915D01*
X81748Y141897D01*
X81763Y141875D01*
X81873Y141776D01*
X81980Y141673D01*
X82002Y141659D01*
X82022Y141642D01*
X82152Y141570D01*
X82279Y141494D01*
X82304Y141486D01*
X82327Y141473D01*
X82470Y141433D01*
X82611Y141388D01*
X82637Y141386D01*
X82662Y141378D01*
X82906Y141359D01*
X84573Y141359D01*
X86359Y139573D01*
X86359Y128359D01*
X86373Y128233D01*
X86380Y128107D01*
X86393Y128061D01*
X86399Y128013D01*
X86441Y127894D01*
X86476Y127772D01*
X86500Y127730D01*
X86516Y127685D01*
X86585Y127579D01*
X86646Y127468D01*
X86686Y127422D01*
X86705Y127392D01*
X86740Y127358D01*
X86805Y127282D01*
X88841Y125246D01*
X88919Y125184D01*
X88992Y125114D01*
X89056Y125075D01*
X89114Y125029D01*
X89205Y124986D01*
X89291Y124935D01*
X89362Y124912D01*
X89429Y124880D01*
X89527Y124859D01*
X89623Y124829D01*
X89697Y124823D01*
X89770Y124807D01*
X89870Y124809D01*
X89970Y124801D01*
X90044Y124812D01*
X90118Y124813D01*
X90215Y124837D01*
X90315Y124852D01*
X90384Y124880D01*
X90456Y124898D01*
X90545Y124944D01*
X90639Y124981D01*
X90700Y125024D01*
X90766Y125058D01*
X90842Y125123D01*
X90925Y125180D01*
X90975Y125235D01*
X91031Y125283D01*
X91091Y125364D01*
X91158Y125439D01*
X91194Y125504D01*
X91239Y125564D01*
X91278Y125656D01*
X91327Y125744D01*
X91347Y125815D01*
X91377Y125884D01*
X91394Y125982D01*
X91422Y126079D01*
X91430Y126179D01*
X91438Y126227D01*
X91436Y126262D01*
X91441Y126323D01*
X91441Y139573D01*
X93495Y141627D01*
X93574Y141726D01*
X93658Y141820D01*
X93682Y141862D01*
X93712Y141900D01*
X93766Y142014D01*
X93827Y142125D01*
X93840Y142171D01*
X93861Y142215D01*
X93887Y142338D01*
X93922Y142460D01*
X93927Y142521D01*
X93934Y142556D01*
X93933Y142604D01*
X93941Y142704D01*
X93941Y146182D01*
X95014Y148773D01*
X96997Y150756D01*
X99588Y151829D01*
X102392Y151829D01*
X104983Y150756D01*
X106966Y148773D01*
X108039Y146182D01*
X108039Y142704D01*
X108053Y142579D01*
X108060Y142452D01*
X108073Y142405D01*
X108079Y142358D01*
X108121Y142239D01*
X108156Y142117D01*
X108180Y142075D01*
X108196Y142029D01*
X108265Y141923D01*
X108326Y141813D01*
X108366Y141767D01*
X108385Y141737D01*
X108420Y141703D01*
X108485Y141627D01*
X109413Y140699D01*
X109433Y140682D01*
X109450Y140662D01*
X109569Y140574D01*
X109686Y140482D01*
X109710Y140471D01*
X109731Y140455D01*
X109867Y140397D01*
X110001Y140333D01*
X110027Y140328D01*
X110051Y140317D01*
X110197Y140291D01*
X110342Y140260D01*
X110368Y140260D01*
X110394Y140256D01*
X110542Y140263D01*
X110690Y140266D01*
X110716Y140272D01*
X110742Y140273D01*
X110884Y140315D01*
X111028Y140351D01*
X111051Y140363D01*
X111077Y140370D01*
X111206Y140442D01*
X111338Y140510D01*
X111358Y140527D01*
X111381Y140540D01*
X111567Y140699D01*
X112227Y141359D01*
X127753Y141359D01*
X129539Y139573D01*
X129539Y137414D01*
X129542Y137388D01*
X129540Y137362D01*
X129562Y137215D01*
X129579Y137068D01*
X129587Y137043D01*
X129591Y137017D01*
X129646Y136879D01*
X129696Y136740D01*
X129710Y136718D01*
X129720Y136693D01*
X129805Y136572D01*
X129885Y136447D01*
X129904Y136429D01*
X129919Y136407D01*
X130029Y136308D01*
X130136Y136205D01*
X130158Y136191D01*
X130178Y136174D01*
X130308Y136102D01*
X130435Y136026D01*
X130460Y136018D01*
X130483Y136005D01*
X130626Y135965D01*
X130767Y135920D01*
X130793Y135918D01*
X130818Y135910D01*
X131062Y135891D01*
X131828Y135891D01*
X131854Y135894D01*
X131880Y135892D01*
X132027Y135914D01*
X132174Y135931D01*
X132199Y135939D01*
X132225Y135943D01*
X132363Y135998D01*
X132502Y136048D01*
X132524Y136062D01*
X132549Y136072D01*
X132670Y136157D01*
X132795Y136237D01*
X132813Y136256D01*
X132835Y136271D01*
X132934Y136381D01*
X133037Y136488D01*
X133051Y136510D01*
X133068Y136530D01*
X133140Y136660D01*
X133216Y136787D01*
X133224Y136812D01*
X133237Y136835D01*
X133277Y136978D01*
X133322Y137119D01*
X133324Y137145D01*
X133332Y137170D01*
X133351Y137414D01*
X133351Y139573D01*
X135137Y141359D01*
X141823Y141359D01*
X141948Y141373D01*
X142074Y141380D01*
X142121Y141393D01*
X142169Y141399D01*
X142288Y141441D01*
X142409Y141476D01*
X142451Y141500D01*
X142497Y141516D01*
X142603Y141585D01*
X142713Y141646D01*
X142760Y141686D01*
X142790Y141705D01*
X142823Y141740D01*
X142900Y141805D01*
X150182Y149087D01*
X152049Y149861D01*
X158559Y149861D01*
X158659Y149872D01*
X158759Y149874D01*
X158831Y149892D01*
X158905Y149901D01*
X158999Y149934D01*
X159097Y149959D01*
X159163Y149993D01*
X159233Y150018D01*
X159317Y150073D01*
X159407Y150119D01*
X159463Y150167D01*
X159526Y150207D01*
X159596Y150279D01*
X159672Y150344D01*
X159716Y150404D01*
X159768Y150458D01*
X159820Y150544D01*
X159879Y150625D01*
X159909Y150693D01*
X159947Y150757D01*
X159977Y150853D01*
X160017Y150945D01*
X160030Y151018D01*
X160053Y151089D01*
X160061Y151189D01*
X160079Y151288D01*
X160075Y151362D01*
X160081Y151436D01*
X160066Y151536D01*
X160061Y151636D01*
X160040Y151707D01*
X160029Y151781D01*
X159992Y151874D01*
X159964Y151971D01*
X159928Y152036D01*
X159901Y152105D01*
X159843Y152187D01*
X159794Y152275D01*
X159729Y152351D01*
X159702Y152391D01*
X159675Y152415D01*
X159636Y152461D01*
X158054Y154042D01*
X156789Y157097D01*
X156789Y160403D01*
X158055Y163458D01*
X160392Y165795D01*
X163447Y167061D01*
X166753Y167061D01*
X169808Y165795D01*
X172145Y163458D01*
X173411Y160403D01*
X173411Y157097D01*
X172146Y154042D01*
X170564Y152461D01*
X170502Y152382D01*
X170432Y152310D01*
X170394Y152246D01*
X170348Y152188D01*
X170305Y152097D01*
X170253Y152011D01*
X170231Y151940D01*
X170199Y151873D01*
X170178Y151775D01*
X170147Y151679D01*
X170141Y151605D01*
X170125Y151532D01*
X170127Y151432D01*
X170119Y151332D01*
X170130Y151258D01*
X170131Y151184D01*
X170156Y151087D01*
X170171Y150987D01*
X170198Y150918D01*
X170216Y150846D01*
X170262Y150757D01*
X170299Y150663D01*
X170342Y150602D01*
X170376Y150536D01*
X170441Y150460D01*
X170498Y150377D01*
X170554Y150327D01*
X170602Y150271D01*
X170683Y150211D01*
X170757Y150144D01*
X170822Y150108D01*
X170882Y150063D01*
X170974Y150024D01*
X171062Y149975D01*
X171134Y149955D01*
X171202Y149925D01*
X171301Y149908D01*
X171398Y149880D01*
X171498Y149872D01*
X171545Y149864D01*
X171581Y149866D01*
X171641Y149861D01*
X183959Y149861D01*
X184059Y149872D01*
X184159Y149874D01*
X184231Y149892D01*
X184305Y149901D01*
X184399Y149934D01*
X184497Y149959D01*
X184563Y149993D01*
X184633Y150018D01*
X184717Y150073D01*
X184807Y150119D01*
X184863Y150167D01*
X184926Y150207D01*
X184996Y150279D01*
X185072Y150344D01*
X185116Y150404D01*
X185168Y150458D01*
X185220Y150544D01*
X185279Y150625D01*
X185309Y150693D01*
X185347Y150757D01*
X185377Y150853D01*
X185417Y150945D01*
X185430Y151018D01*
X185453Y151089D01*
X185461Y151189D01*
X185479Y151288D01*
X185475Y151362D01*
X185481Y151436D01*
X185466Y151536D01*
X185461Y151636D01*
X185440Y151707D01*
X185429Y151781D01*
X185392Y151874D01*
X185364Y151971D01*
X185328Y152036D01*
X185301Y152105D01*
X185243Y152187D01*
X185194Y152275D01*
X185129Y152351D01*
X185102Y152391D01*
X185075Y152415D01*
X185036Y152461D01*
X183454Y154042D01*
X182189Y157097D01*
X182189Y160403D01*
X183455Y163458D01*
X185792Y165795D01*
X188847Y167061D01*
X192153Y167061D01*
X195208Y165795D01*
X197545Y163458D01*
X198811Y160403D01*
X198811Y157097D01*
X197545Y154042D01*
X195356Y151853D01*
X195262Y151735D01*
X195165Y151620D01*
X195154Y151598D01*
X195139Y151580D01*
X195075Y151444D01*
X195006Y151310D01*
X195000Y151286D01*
X194990Y151264D01*
X194959Y151118D01*
X194922Y150972D01*
X194922Y150947D01*
X194917Y150924D01*
X194919Y150774D01*
X194917Y150623D01*
X194922Y150599D01*
X194923Y150575D01*
X194959Y150430D01*
X194991Y150283D01*
X195002Y150261D01*
X195008Y150237D01*
X195077Y150104D01*
X195141Y149968D01*
X195156Y149949D01*
X195167Y149927D01*
X195265Y149813D01*
X195359Y149695D01*
X195378Y149680D01*
X195393Y149662D01*
X195514Y149573D01*
X195632Y149480D01*
X195658Y149466D01*
X195673Y149455D01*
X195717Y149436D01*
X195850Y149368D01*
X196528Y149087D01*
X198171Y147444D01*
X203810Y141805D01*
X203909Y141726D01*
X204003Y141642D01*
X204046Y141618D01*
X204083Y141588D01*
X204198Y141534D01*
X204308Y141473D01*
X204355Y141460D01*
X204398Y141439D01*
X204522Y141413D01*
X204644Y141378D01*
X204704Y141373D01*
X204739Y141366D01*
X204787Y141367D01*
X204887Y141359D01*
X211573Y141359D01*
X213359Y139573D01*
X213359Y137414D01*
X213362Y137388D01*
X213360Y137362D01*
X213382Y137215D01*
X213399Y137068D01*
X213407Y137043D01*
X213411Y137017D01*
X213466Y136879D01*
X213516Y136740D01*
X213530Y136718D01*
X213540Y136693D01*
X213625Y136572D01*
X213705Y136447D01*
X213724Y136429D01*
X213739Y136407D01*
X213849Y136308D01*
X213956Y136205D01*
X213978Y136191D01*
X213998Y136174D01*
X214128Y136102D01*
X214255Y136026D01*
X214280Y136018D01*
X214303Y136005D01*
X214446Y135965D01*
X214587Y135920D01*
X214613Y135918D01*
X214638Y135910D01*
X214882Y135891D01*
X215648Y135891D01*
X215674Y135894D01*
X215700Y135892D01*
X215847Y135914D01*
X215994Y135931D01*
X216019Y135939D01*
X216045Y135943D01*
X216183Y135998D01*
X216322Y136048D01*
X216344Y136062D01*
X216369Y136072D01*
X216490Y136157D01*
X216615Y136237D01*
X216633Y136256D01*
X216655Y136271D01*
X216754Y136381D01*
X216857Y136488D01*
X216871Y136510D01*
X216888Y136530D01*
X216960Y136660D01*
X217036Y136787D01*
X217044Y136812D01*
X217057Y136835D01*
X217097Y136978D01*
X217142Y137119D01*
X217144Y137145D01*
X217152Y137170D01*
X217171Y137414D01*
X217171Y139573D01*
X218957Y141359D01*
X219608Y141359D01*
X219634Y141362D01*
X219660Y141360D01*
X219807Y141382D01*
X219954Y141399D01*
X219979Y141407D01*
X220005Y141411D01*
X220143Y141466D01*
X220282Y141516D01*
X220304Y141530D01*
X220329Y141540D01*
X220450Y141625D01*
X220575Y141705D01*
X220593Y141724D01*
X220615Y141739D01*
X220714Y141849D01*
X220817Y141956D01*
X220831Y141978D01*
X220848Y141998D01*
X220920Y142128D01*
X220996Y142255D01*
X221004Y142280D01*
X221017Y142303D01*
X221057Y142446D01*
X221102Y142587D01*
X221104Y142613D01*
X221112Y142638D01*
X221131Y142882D01*
X221131Y144715D01*
X221125Y144774D01*
X221127Y144833D01*
X221105Y144947D01*
X221091Y145062D01*
X221072Y145117D01*
X221060Y145175D01*
X221013Y145281D01*
X220974Y145390D01*
X220942Y145439D01*
X220918Y145493D01*
X220848Y145585D01*
X220785Y145683D01*
X220743Y145723D01*
X220707Y145770D01*
X220551Y145908D01*
X220534Y145925D01*
X220530Y145927D01*
X220524Y145933D01*
X219894Y146407D01*
X219870Y146420D01*
X219850Y146439D01*
X219639Y146562D01*
X215522Y148544D01*
X215496Y148553D01*
X215472Y148567D01*
X215417Y148586D01*
X215415Y148587D01*
X215409Y148589D01*
X215241Y148647D01*
X215216Y148653D01*
X215202Y148655D01*
X215192Y148658D01*
X215144Y148663D01*
X215080Y148682D01*
X214912Y148695D01*
X214871Y148701D01*
X214857Y148700D01*
X214836Y148701D01*
X213901Y148701D01*
X212922Y149107D01*
X212794Y149143D01*
X212667Y149187D01*
X212617Y149194D01*
X212587Y149202D01*
X212564Y149204D01*
X212385Y149290D01*
X212312Y149315D01*
X212243Y149349D01*
X212100Y149388D01*
X212055Y149404D01*
X212036Y149406D01*
X212007Y149414D01*
X211835Y149447D01*
X211493Y149670D01*
X211476Y149679D01*
X211460Y149691D01*
X211242Y149803D01*
X210208Y150231D01*
X207381Y153058D01*
X205851Y156751D01*
X205851Y160749D01*
X206280Y161783D01*
X206285Y161802D01*
X206294Y161820D01*
X206364Y162055D01*
X206447Y162454D01*
X206546Y162598D01*
X206581Y162667D01*
X206626Y162730D01*
X206684Y162862D01*
X206690Y162872D01*
X206691Y162876D01*
X206708Y162907D01*
X206713Y162926D01*
X206725Y162954D01*
X206797Y163161D01*
X206864Y163245D01*
X206887Y163290D01*
X206905Y163315D01*
X206924Y163362D01*
X206976Y163463D01*
X207381Y164442D01*
X208042Y165103D01*
X208086Y165158D01*
X208136Y165206D01*
X208233Y165343D01*
X208259Y165376D01*
X208265Y165389D01*
X208277Y165406D01*
X208290Y165428D01*
X208301Y165453D01*
X208317Y165475D01*
X208416Y165699D01*
X209447Y168645D01*
X209460Y168701D01*
X209481Y168755D01*
X209498Y168870D01*
X209524Y168984D01*
X209523Y169042D01*
X209532Y169100D01*
X209522Y169216D01*
X209521Y169333D01*
X209507Y169389D01*
X209503Y169447D01*
X209467Y169558D01*
X209439Y169672D01*
X209413Y169724D01*
X209396Y169779D01*
X209335Y169879D01*
X209283Y169983D01*
X209246Y170028D01*
X209216Y170077D01*
X209135Y170161D01*
X209060Y170251D01*
X209013Y170286D01*
X208973Y170327D01*
X208875Y170390D01*
X208781Y170461D01*
X208729Y170484D01*
X208680Y170515D01*
X208570Y170555D01*
X208463Y170602D01*
X208406Y170613D01*
X208351Y170632D01*
X208235Y170645D01*
X208120Y170667D01*
X208063Y170665D01*
X208005Y170671D01*
X207889Y170657D01*
X207772Y170652D01*
X207716Y170637D01*
X207659Y170630D01*
X207455Y170565D01*
X207436Y170559D01*
X207433Y170557D01*
X207426Y170555D01*
X204853Y169489D01*
X201547Y169489D01*
X198492Y170755D01*
X196155Y173092D01*
X194889Y176147D01*
X194889Y179453D01*
X196155Y182508D01*
X198492Y184845D01*
X201547Y186111D01*
X204853Y186111D01*
X207426Y185045D01*
X207482Y185029D01*
X207534Y185005D01*
X207649Y184981D01*
X207761Y184949D01*
X207819Y184946D01*
X207876Y184935D01*
X207993Y184938D01*
X208109Y184932D01*
X208166Y184943D01*
X208224Y184944D01*
X208337Y184974D01*
X208452Y184995D01*
X208505Y185018D01*
X208561Y185033D01*
X208665Y185087D01*
X208772Y185134D01*
X208818Y185168D01*
X208869Y185195D01*
X208958Y185272D01*
X209052Y185342D01*
X209089Y185386D01*
X209133Y185424D01*
X209201Y185518D01*
X209277Y185608D01*
X209303Y185659D01*
X209337Y185706D01*
X209382Y185814D01*
X209435Y185918D01*
X209449Y185974D01*
X209472Y186027D01*
X209491Y186143D01*
X209520Y186256D01*
X209520Y186314D01*
X209530Y186371D01*
X209523Y186488D01*
X209525Y186605D01*
X209512Y186661D01*
X209509Y186719D01*
X209455Y186925D01*
X209450Y186945D01*
X209448Y186949D01*
X209447Y186956D01*
X208416Y189901D01*
X208404Y189925D01*
X208397Y189951D01*
X208371Y190004D01*
X208371Y190006D01*
X208368Y190012D01*
X208337Y190075D01*
X208321Y190115D01*
X208310Y190132D01*
X208290Y190171D01*
X208277Y190193D01*
X208268Y190205D01*
X208264Y190214D01*
X208233Y190252D01*
X208201Y190310D01*
X208093Y190437D01*
X208067Y190471D01*
X208056Y190480D01*
X208042Y190497D01*
X207381Y191158D01*
X206976Y192137D01*
X206911Y192254D01*
X206852Y192374D01*
X206821Y192414D01*
X206806Y192441D01*
X206790Y192459D01*
X206725Y192646D01*
X206691Y192716D01*
X206667Y192789D01*
X206593Y192917D01*
X206573Y192960D01*
X206560Y192975D01*
X206546Y193001D01*
X206447Y193146D01*
X206363Y193545D01*
X206357Y193564D01*
X206355Y193584D01*
X206280Y193817D01*
X205851Y194851D01*
X205851Y198849D01*
X207381Y202542D01*
X210208Y205369D01*
X213901Y206899D01*
X217899Y206899D01*
X221592Y205369D01*
X224419Y202542D01*
X225949Y198849D01*
X225949Y194851D01*
X225520Y193817D01*
X225515Y193798D01*
X225506Y193780D01*
X225436Y193545D01*
X225353Y193146D01*
X225254Y193001D01*
X225219Y192933D01*
X225174Y192870D01*
X225114Y192735D01*
X225092Y192693D01*
X225087Y192674D01*
X225075Y192646D01*
X225003Y192439D01*
X224936Y192354D01*
X224913Y192310D01*
X224895Y192284D01*
X224876Y192238D01*
X224824Y192137D01*
X224419Y191158D01*
X223758Y190497D01*
X223714Y190442D01*
X223663Y190393D01*
X223614Y190323D01*
X223611Y190320D01*
X223607Y190314D01*
X223568Y190257D01*
X223541Y190224D01*
X223535Y190211D01*
X223522Y190193D01*
X223510Y190171D01*
X223499Y190146D01*
X223483Y190125D01*
X223452Y190053D01*
X223432Y190021D01*
X223419Y189980D01*
X223384Y189901D01*
X222353Y186955D01*
X222340Y186899D01*
X222319Y186845D01*
X222302Y186730D01*
X222276Y186616D01*
X222277Y186558D01*
X222268Y186500D01*
X222278Y186384D01*
X222279Y186267D01*
X222293Y186211D01*
X222297Y186153D01*
X222333Y186042D01*
X222361Y185928D01*
X222387Y185877D01*
X222404Y185821D01*
X222465Y185721D01*
X222517Y185617D01*
X222554Y185572D01*
X222584Y185523D01*
X222665Y185439D01*
X222740Y185349D01*
X222787Y185314D01*
X222827Y185273D01*
X222925Y185210D01*
X223019Y185139D01*
X223071Y185116D01*
X223120Y185085D01*
X223230Y185045D01*
X223337Y184998D01*
X223394Y184987D01*
X223449Y184968D01*
X223565Y184955D01*
X223680Y184933D01*
X223737Y184935D01*
X223795Y184929D01*
X223911Y184943D01*
X224028Y184948D01*
X224084Y184963D01*
X224141Y184970D01*
X224345Y185035D01*
X224364Y185041D01*
X224367Y185043D01*
X224374Y185045D01*
X226947Y186111D01*
X230253Y186111D01*
X233308Y184845D01*
X235645Y182508D01*
X236911Y179453D01*
X236911Y176147D01*
X235645Y173092D01*
X233308Y170755D01*
X230253Y169489D01*
X226947Y169489D01*
X224374Y170555D01*
X224318Y170571D01*
X224266Y170595D01*
X224151Y170619D01*
X224039Y170651D01*
X223981Y170654D01*
X223924Y170665D01*
X223807Y170662D01*
X223691Y170668D01*
X223634Y170657D01*
X223576Y170656D01*
X223463Y170626D01*
X223348Y170605D01*
X223295Y170582D01*
X223239Y170567D01*
X223135Y170513D01*
X223028Y170466D01*
X222982Y170432D01*
X222930Y170405D01*
X222842Y170328D01*
X222748Y170258D01*
X222711Y170214D01*
X222667Y170176D01*
X222599Y170081D01*
X222523Y169992D01*
X222497Y169941D01*
X222463Y169894D01*
X222418Y169786D01*
X222364Y169682D01*
X222351Y169626D01*
X222328Y169573D01*
X222309Y169457D01*
X222280Y169344D01*
X222280Y169286D01*
X222270Y169229D01*
X222277Y169112D01*
X222275Y168995D01*
X222288Y168939D01*
X222291Y168881D01*
X222345Y168675D01*
X222350Y168655D01*
X222352Y168651D01*
X222353Y168645D01*
X223384Y165699D01*
X223396Y165675D01*
X223403Y165649D01*
X223428Y165596D01*
X223429Y165594D01*
X223433Y165587D01*
X223509Y165429D01*
X223522Y165408D01*
X223531Y165395D01*
X223536Y165385D01*
X223567Y165348D01*
X223599Y165290D01*
X223707Y165163D01*
X223732Y165129D01*
X223743Y165120D01*
X223758Y165103D01*
X224419Y164442D01*
X224824Y163463D01*
X224890Y163346D01*
X224948Y163226D01*
X224979Y163185D01*
X224994Y163159D01*
X225021Y163128D01*
X225108Y162969D01*
X225122Y162940D01*
X225127Y162933D01*
X225134Y162922D01*
X225229Y162776D01*
X225238Y162750D01*
X225285Y162599D01*
X225293Y162584D01*
X225299Y162569D01*
X225347Y162484D01*
X225379Y162329D01*
X225399Y162269D01*
X225410Y162207D01*
X225451Y162100D01*
X225452Y162093D01*
X225468Y161961D01*
X225484Y161913D01*
X225489Y161882D01*
X225508Y161836D01*
X225543Y161728D01*
X225949Y160749D01*
X225949Y159814D01*
X225957Y159744D01*
X225955Y159674D01*
X225984Y159509D01*
X225989Y159468D01*
X225993Y159454D01*
X225997Y159433D01*
X226003Y159409D01*
X226013Y159383D01*
X226018Y159357D01*
X226106Y159128D01*
X228088Y155011D01*
X228103Y154988D01*
X228112Y154963D01*
X228243Y154756D01*
X229396Y153225D01*
X229425Y153194D01*
X229448Y153160D01*
X229620Y152986D01*
X229943Y152708D01*
X229987Y152641D01*
X230045Y152536D01*
X230091Y152483D01*
X230113Y152449D01*
X230146Y152418D01*
X230204Y152350D01*
X230377Y152177D01*
X230377Y152176D01*
X230785Y151769D01*
X232309Y148090D01*
X232309Y142882D01*
X232312Y142856D01*
X232310Y142830D01*
X232332Y142683D01*
X232349Y142536D01*
X232357Y142511D01*
X232361Y142485D01*
X232416Y142347D01*
X232466Y142208D01*
X232480Y142186D01*
X232490Y142161D01*
X232575Y142040D01*
X232655Y141915D01*
X232674Y141897D01*
X232689Y141875D01*
X232799Y141776D01*
X232906Y141673D01*
X232928Y141659D01*
X232948Y141642D01*
X233078Y141570D01*
X233205Y141494D01*
X233230Y141486D01*
X233253Y141473D01*
X233396Y141433D01*
X233537Y141388D01*
X233563Y141386D01*
X233588Y141378D01*
X233832Y141359D01*
X234483Y141359D01*
X235143Y140699D01*
X235163Y140682D01*
X235181Y140662D01*
X235300Y140574D01*
X235416Y140482D01*
X235440Y140471D01*
X235461Y140455D01*
X235597Y140396D01*
X235731Y140333D01*
X235757Y140328D01*
X235781Y140317D01*
X235927Y140291D01*
X236072Y140260D01*
X236098Y140260D01*
X236124Y140256D01*
X236272Y140263D01*
X236420Y140266D01*
X236446Y140272D01*
X236472Y140273D01*
X236614Y140315D01*
X236758Y140351D01*
X236782Y140363D01*
X236807Y140370D01*
X236936Y140442D01*
X237068Y140510D01*
X237088Y140527D01*
X237111Y140540D01*
X237297Y140699D01*
X237348Y140750D01*
X238043Y141151D01*
X238819Y141359D01*
X242673Y141359D01*
X242673Y132334D01*
X242676Y132308D01*
X242674Y132282D01*
X242696Y132135D01*
X242713Y131988D01*
X242721Y131963D01*
X242725Y131937D01*
X242780Y131799D01*
X242830Y131660D01*
X242844Y131638D01*
X242854Y131613D01*
X242939Y131492D01*
X243019Y131367D01*
X243038Y131349D01*
X243053Y131327D01*
X243163Y131228D01*
X243270Y131125D01*
X243292Y131111D01*
X243312Y131094D01*
X243442Y131022D01*
X243569Y130946D01*
X243594Y130938D01*
X243617Y130925D01*
X243760Y130885D01*
X243901Y130840D01*
X243927Y130838D01*
X243952Y130830D01*
X244196Y130811D01*
X245721Y130811D01*
X245721Y130809D01*
X244196Y130809D01*
X244170Y130806D01*
X244144Y130808D01*
X243997Y130786D01*
X243850Y130769D01*
X243825Y130760D01*
X243799Y130757D01*
X243661Y130702D01*
X243522Y130652D01*
X243500Y130638D01*
X243475Y130628D01*
X243354Y130543D01*
X243229Y130463D01*
X243211Y130444D01*
X243189Y130429D01*
X243090Y130319D01*
X242987Y130212D01*
X242973Y130190D01*
X242956Y130170D01*
X242884Y130040D01*
X242808Y129913D01*
X242800Y129888D01*
X242787Y129865D01*
X242747Y129722D01*
X242702Y129581D01*
X242700Y129555D01*
X242692Y129530D01*
X242673Y129286D01*
X242673Y120261D01*
X238819Y120261D01*
X238043Y120469D01*
X237348Y120870D01*
X237297Y120921D01*
X237277Y120938D01*
X237260Y120958D01*
X237140Y121046D01*
X237024Y121138D01*
X237000Y121149D01*
X236979Y121165D01*
X236843Y121223D01*
X236709Y121287D01*
X236683Y121292D01*
X236659Y121303D01*
X236513Y121329D01*
X236368Y121360D01*
X236342Y121360D01*
X236316Y121364D01*
X236168Y121357D01*
X236020Y121354D01*
X235994Y121348D01*
X235968Y121347D01*
X235826Y121306D01*
X235682Y121269D01*
X235658Y121257D01*
X235633Y121250D01*
X235504Y121178D01*
X235372Y121110D01*
X235352Y121093D01*
X235329Y121080D01*
X235143Y120921D01*
X234483Y120261D01*
X233042Y120261D01*
X233016Y120258D01*
X232990Y120260D01*
X232843Y120238D01*
X232696Y120221D01*
X232671Y120213D01*
X232645Y120209D01*
X232507Y120154D01*
X232368Y120104D01*
X232346Y120090D01*
X232321Y120080D01*
X232200Y119995D01*
X232075Y119915D01*
X232057Y119896D01*
X232035Y119881D01*
X231936Y119771D01*
X231833Y119664D01*
X231819Y119642D01*
X231802Y119622D01*
X231730Y119492D01*
X231654Y119365D01*
X231646Y119340D01*
X231633Y119317D01*
X231593Y119174D01*
X231548Y119033D01*
X231546Y119007D01*
X231538Y118982D01*
X231519Y118738D01*
X231519Y117529D01*
X231533Y117403D01*
X231540Y117277D01*
X231553Y117230D01*
X231559Y117182D01*
X231601Y117063D01*
X231636Y116942D01*
X231660Y116900D01*
X231676Y116854D01*
X231745Y116748D01*
X231806Y116638D01*
X231846Y116592D01*
X231865Y116562D01*
X231900Y116528D01*
X231965Y116452D01*
X234772Y113645D01*
X234871Y113566D01*
X234964Y113482D01*
X235007Y113458D01*
X235045Y113428D01*
X235159Y113374D01*
X235269Y113313D01*
X235316Y113300D01*
X235360Y113279D01*
X235483Y113253D01*
X235605Y113218D01*
X235666Y113213D01*
X235700Y113206D01*
X235748Y113207D01*
X235849Y113199D01*
X253918Y113199D01*
X255704Y111413D01*
X255704Y94996D01*
X255707Y94970D01*
X255705Y94944D01*
X255727Y94797D01*
X255744Y94650D01*
X255752Y94625D01*
X255756Y94599D01*
X255811Y94461D01*
X255861Y94322D01*
X255875Y94300D01*
X255885Y94275D01*
X255970Y94154D01*
X256050Y94029D01*
X256069Y94011D01*
X256084Y93989D01*
X256194Y93890D01*
X256301Y93787D01*
X256323Y93773D01*
X256343Y93756D01*
X256473Y93684D01*
X256600Y93608D01*
X256625Y93600D01*
X256648Y93587D01*
X256791Y93547D01*
X256932Y93502D01*
X256958Y93500D01*
X256983Y93492D01*
X257227Y93473D01*
X265734Y93473D01*
X265760Y93476D01*
X265787Y93474D01*
X265933Y93496D01*
X266080Y93513D01*
X266105Y93522D01*
X266132Y93526D01*
X266362Y93608D01*
X268720Y94677D01*
X268850Y94755D01*
X268983Y94829D01*
X269004Y94847D01*
X269019Y94856D01*
X269026Y94863D01*
X270223Y95358D01*
X270240Y95368D01*
X270268Y95378D01*
X271035Y95726D01*
X271067Y95729D01*
X271093Y95738D01*
X271111Y95740D01*
X271154Y95758D01*
X271300Y95804D01*
X271648Y95949D01*
X274452Y95949D01*
X277043Y94876D01*
X279026Y92893D01*
X280099Y90302D01*
X280099Y87498D01*
X279026Y84907D01*
X277191Y83073D01*
X277129Y82995D01*
X277059Y82922D01*
X277021Y82858D01*
X276975Y82800D01*
X276932Y82709D01*
X276880Y82623D01*
X276858Y82552D01*
X276826Y82485D01*
X276805Y82387D01*
X276774Y82291D01*
X276768Y82217D01*
X276753Y82144D01*
X276754Y82044D01*
X276746Y81944D01*
X276757Y81870D01*
X276759Y81796D01*
X276783Y81699D01*
X276798Y81599D01*
X276825Y81530D01*
X276844Y81458D01*
X276890Y81369D01*
X276927Y81275D01*
X276969Y81214D01*
X277003Y81148D01*
X277068Y81072D01*
X277126Y80989D01*
X277181Y80939D01*
X277229Y80883D01*
X277310Y80823D01*
X277384Y80756D01*
X277449Y80720D01*
X277509Y80675D01*
X277602Y80636D01*
X277689Y80587D01*
X277761Y80567D01*
X277829Y80537D01*
X277928Y80520D01*
X278025Y80492D01*
X278125Y80484D01*
X278172Y80476D01*
X278208Y80478D01*
X278269Y80473D01*
X301293Y80473D01*
X301320Y80476D01*
X301347Y80474D01*
X301493Y80496D01*
X301640Y80513D01*
X301665Y80522D01*
X301692Y80526D01*
X301922Y80608D01*
X304280Y81677D01*
X304410Y81755D01*
X304543Y81829D01*
X304564Y81847D01*
X304579Y81856D01*
X304586Y81863D01*
X305783Y82358D01*
X305800Y82368D01*
X305828Y82378D01*
X306595Y82726D01*
X306627Y82729D01*
X306653Y82738D01*
X306671Y82740D01*
X306714Y82758D01*
X306860Y82804D01*
X307208Y82949D01*
X310012Y82949D01*
X312603Y81876D01*
X314586Y79893D01*
X315659Y77302D01*
X315659Y74498D01*
X314586Y71907D01*
X312603Y69924D01*
X310012Y68851D01*
X307208Y68851D01*
X306860Y68996D01*
X306714Y69037D01*
X306591Y69076D01*
X305827Y69422D01*
X305809Y69428D01*
X305782Y69442D01*
X304563Y69947D01*
X304494Y70005D01*
X304470Y70018D01*
X304456Y70029D01*
X304414Y70049D01*
X304280Y70123D01*
X301922Y71192D01*
X301896Y71200D01*
X301873Y71213D01*
X301731Y71253D01*
X301590Y71298D01*
X301563Y71300D01*
X301537Y71308D01*
X301293Y71327D01*
X257227Y71327D01*
X257201Y71324D01*
X257175Y71326D01*
X257028Y71304D01*
X256881Y71287D01*
X256856Y71279D01*
X256830Y71275D01*
X256692Y71220D01*
X256553Y71170D01*
X256531Y71156D01*
X256506Y71146D01*
X256385Y71061D01*
X256260Y70981D01*
X256242Y70962D01*
X256220Y70947D01*
X256121Y70837D01*
X256018Y70730D01*
X256004Y70708D01*
X255987Y70688D01*
X255915Y70558D01*
X255839Y70431D01*
X255831Y70406D01*
X255818Y70383D01*
X255778Y70240D01*
X255733Y70099D01*
X255731Y70073D01*
X255723Y70048D01*
X255704Y69804D01*
X255704Y66387D01*
X253918Y64601D01*
X236582Y64601D01*
X236475Y64652D01*
X236364Y64713D01*
X236318Y64726D01*
X236274Y64747D01*
X236151Y64773D01*
X236029Y64808D01*
X235968Y64813D01*
X235933Y64820D01*
X235885Y64819D01*
X235785Y64827D01*
X229221Y64827D01*
X229210Y64826D01*
X229200Y64827D01*
X229037Y64806D01*
X228875Y64787D01*
X228865Y64784D01*
X228854Y64782D01*
X228701Y64725D01*
X228547Y64670D01*
X228538Y64664D01*
X228528Y64660D01*
X228392Y64570D01*
X228254Y64481D01*
X228246Y64473D01*
X228238Y64467D01*
X228064Y64295D01*
X227221Y63310D01*
X227155Y63212D01*
X227082Y63120D01*
X227048Y63055D01*
X227026Y63021D01*
X227010Y62979D01*
X226970Y62902D01*
X226956Y62867D01*
X226198Y62110D01*
X226172Y62077D01*
X226119Y62024D01*
X225719Y61557D01*
X225718Y61557D01*
X225615Y61499D01*
X225560Y61452D01*
X225526Y61430D01*
X225495Y61397D01*
X225429Y61341D01*
X224973Y60884D01*
X222382Y59811D01*
X219578Y59811D01*
G37*
%LPD*%
%LPC*%
G36*
X340802Y46601D02*
X340802Y46601D01*
X336925Y48207D01*
X333957Y51175D01*
X332351Y55052D01*
X332351Y57812D01*
X332334Y57962D01*
X332321Y58112D01*
X332314Y58140D01*
X332311Y58158D01*
X332296Y58203D01*
X332254Y58347D01*
X330900Y61959D01*
X330887Y61984D01*
X330880Y62010D01*
X330817Y62132D01*
X330805Y62162D01*
X330792Y62181D01*
X330768Y62227D01*
X330160Y63208D01*
X330157Y63212D01*
X330155Y63216D01*
X330102Y63282D01*
X329864Y63664D01*
X329832Y63704D01*
X329807Y63749D01*
X329648Y63935D01*
X327824Y65759D01*
X326323Y67260D01*
X325627Y68940D01*
X325627Y100345D01*
X325613Y100471D01*
X325606Y100597D01*
X325593Y100643D01*
X325587Y100691D01*
X325545Y100810D01*
X325510Y100932D01*
X325486Y100974D01*
X325470Y101019D01*
X325401Y101125D01*
X325340Y101236D01*
X325300Y101282D01*
X325281Y101312D01*
X325246Y101346D01*
X325181Y101422D01*
X323672Y102931D01*
X323573Y103010D01*
X323479Y103094D01*
X323437Y103118D01*
X323399Y103148D01*
X323285Y103202D01*
X323174Y103263D01*
X323128Y103276D01*
X323084Y103297D01*
X322961Y103323D01*
X322839Y103358D01*
X322778Y103363D01*
X322743Y103370D01*
X322695Y103369D01*
X322595Y103377D01*
X301350Y103377D01*
X299670Y104073D01*
X281340Y122403D01*
X281319Y122420D01*
X281301Y122440D01*
X281183Y122528D01*
X281067Y122620D01*
X281043Y122631D01*
X281021Y122647D01*
X280800Y122752D01*
X278377Y123664D01*
X278230Y123700D01*
X278084Y123742D01*
X278056Y123744D01*
X278039Y123748D01*
X278029Y123748D01*
X276833Y124244D01*
X276814Y124249D01*
X276786Y124262D01*
X275998Y124559D01*
X275973Y124579D01*
X275949Y124591D01*
X275934Y124602D01*
X275892Y124620D01*
X275756Y124690D01*
X275407Y124834D01*
X273424Y126817D01*
X272351Y129408D01*
X272351Y132212D01*
X272496Y132560D01*
X272537Y132705D01*
X272576Y132829D01*
X272648Y132988D01*
X272922Y133592D01*
X272928Y133611D01*
X272942Y133638D01*
X273447Y134857D01*
X273505Y134926D01*
X273518Y134950D01*
X273529Y134964D01*
X273549Y135006D01*
X273623Y135140D01*
X274692Y137498D01*
X274700Y137524D01*
X274713Y137547D01*
X274753Y137689D01*
X274798Y137830D01*
X274800Y137857D01*
X274808Y137883D01*
X274827Y138127D01*
X274827Y151447D01*
X274816Y151546D01*
X274814Y151647D01*
X274796Y151719D01*
X274787Y151793D01*
X274753Y151888D01*
X274729Y151985D01*
X274695Y152051D01*
X274670Y152121D01*
X274615Y152205D01*
X274569Y152295D01*
X274521Y152351D01*
X274481Y152414D01*
X274409Y152484D01*
X274344Y152560D01*
X274284Y152604D01*
X274230Y152656D01*
X274144Y152708D01*
X274063Y152767D01*
X273995Y152797D01*
X273931Y152835D01*
X273835Y152865D01*
X273743Y152905D01*
X273670Y152918D01*
X273599Y152941D01*
X273499Y152949D01*
X273400Y152967D01*
X273326Y152963D01*
X273252Y152969D01*
X273152Y152954D01*
X273052Y152949D01*
X272981Y152928D01*
X272907Y152917D01*
X272814Y152880D01*
X272717Y152852D01*
X272652Y152816D01*
X272583Y152789D01*
X272501Y152731D01*
X272413Y152682D01*
X272337Y152617D01*
X272297Y152590D01*
X272273Y152563D01*
X272227Y152524D01*
X271408Y151704D01*
X268353Y150439D01*
X265047Y150439D01*
X261992Y151705D01*
X259655Y154042D01*
X258389Y157097D01*
X258389Y160403D01*
X259655Y163458D01*
X261992Y165795D01*
X265047Y167061D01*
X268353Y167061D01*
X271408Y165795D01*
X273453Y163750D01*
X273496Y163716D01*
X273533Y163676D01*
X273632Y163608D01*
X273726Y163533D01*
X273776Y163510D01*
X273821Y163479D01*
X273933Y163436D01*
X274041Y163384D01*
X274095Y163373D01*
X274145Y163353D01*
X274265Y163336D01*
X274382Y163311D01*
X274437Y163312D01*
X274490Y163304D01*
X274610Y163315D01*
X274731Y163317D01*
X274783Y163330D01*
X274838Y163335D01*
X274952Y163372D01*
X275069Y163402D01*
X275117Y163427D01*
X275169Y163444D01*
X275272Y163506D01*
X275378Y163561D01*
X275420Y163597D01*
X275466Y163625D01*
X275552Y163709D01*
X275644Y163787D01*
X275676Y163831D01*
X275715Y163869D01*
X275846Y164061D01*
X275851Y164068D01*
X275852Y164069D01*
X275853Y164071D01*
X277861Y167585D01*
X277909Y167698D01*
X277965Y167807D01*
X277978Y167858D01*
X277998Y167906D01*
X278020Y168026D01*
X278049Y168145D01*
X278050Y168197D01*
X278059Y168249D01*
X278052Y168371D01*
X278054Y168493D01*
X278043Y168545D01*
X278040Y168597D01*
X278006Y168714D01*
X277980Y168834D01*
X277957Y168881D01*
X277943Y168931D01*
X277883Y169038D01*
X277830Y169149D01*
X277798Y169189D01*
X277772Y169235D01*
X277689Y169325D01*
X277613Y169421D01*
X277572Y169453D01*
X277536Y169492D01*
X277435Y169561D01*
X277339Y169637D01*
X277280Y169667D01*
X277249Y169689D01*
X277205Y169706D01*
X277121Y169748D01*
X274692Y170755D01*
X272355Y173092D01*
X271089Y176147D01*
X271089Y179453D01*
X272355Y182508D01*
X274692Y184845D01*
X277747Y186111D01*
X281053Y186111D01*
X284108Y184845D01*
X286445Y182508D01*
X287711Y179453D01*
X287711Y175956D01*
X287711Y175949D01*
X287711Y175942D01*
X287731Y175776D01*
X287751Y175609D01*
X287753Y175603D01*
X287754Y175597D01*
X287812Y175439D01*
X287868Y175281D01*
X287872Y175276D01*
X287874Y175270D01*
X287966Y175130D01*
X288057Y174988D01*
X288062Y174984D01*
X288066Y174978D01*
X288187Y174863D01*
X288308Y174746D01*
X288313Y174743D01*
X288318Y174738D01*
X288463Y174654D01*
X288607Y174567D01*
X288613Y174565D01*
X288619Y174562D01*
X288781Y174512D01*
X288939Y174461D01*
X288945Y174461D01*
X288952Y174459D01*
X289120Y174447D01*
X289286Y174433D01*
X289293Y174434D01*
X289299Y174434D01*
X289542Y174464D01*
X292100Y174992D01*
X294658Y174464D01*
X294665Y174463D01*
X294671Y174461D01*
X294837Y174448D01*
X295005Y174433D01*
X295012Y174434D01*
X295018Y174433D01*
X295184Y174458D01*
X295350Y174482D01*
X295356Y174484D01*
X295363Y174485D01*
X295520Y174547D01*
X295675Y174608D01*
X295681Y174611D01*
X295687Y174614D01*
X295825Y174710D01*
X295963Y174804D01*
X295967Y174809D01*
X295973Y174813D01*
X296086Y174938D01*
X296199Y175061D01*
X296202Y175066D01*
X296206Y175071D01*
X296288Y175219D01*
X296370Y175364D01*
X296372Y175371D01*
X296375Y175376D01*
X296420Y175537D01*
X296467Y175699D01*
X296468Y175705D01*
X296470Y175712D01*
X296489Y175956D01*
X296489Y179453D01*
X297755Y182508D01*
X300092Y184845D01*
X303147Y186111D01*
X306453Y186111D01*
X309508Y184845D01*
X311845Y182508D01*
X313111Y179453D01*
X313111Y175956D01*
X313111Y175949D01*
X313111Y175942D01*
X313131Y175776D01*
X313151Y175609D01*
X313153Y175603D01*
X313154Y175597D01*
X313212Y175439D01*
X313268Y175281D01*
X313272Y175276D01*
X313274Y175270D01*
X313366Y175130D01*
X313457Y174988D01*
X313462Y174984D01*
X313466Y174978D01*
X313587Y174863D01*
X313708Y174746D01*
X313713Y174743D01*
X313718Y174738D01*
X313863Y174654D01*
X314007Y174567D01*
X314013Y174565D01*
X314019Y174562D01*
X314181Y174512D01*
X314339Y174461D01*
X314345Y174461D01*
X314352Y174459D01*
X314520Y174447D01*
X314686Y174433D01*
X314693Y174434D01*
X314699Y174434D01*
X314942Y174464D01*
X317500Y174992D01*
X320058Y174464D01*
X320065Y174463D01*
X320071Y174461D01*
X320237Y174448D01*
X320405Y174433D01*
X320412Y174434D01*
X320418Y174433D01*
X320584Y174458D01*
X320750Y174482D01*
X320756Y174484D01*
X320763Y174485D01*
X320920Y174547D01*
X321075Y174608D01*
X321081Y174611D01*
X321087Y174614D01*
X321225Y174710D01*
X321363Y174804D01*
X321367Y174809D01*
X321373Y174813D01*
X321486Y174938D01*
X321599Y175061D01*
X321602Y175066D01*
X321606Y175071D01*
X321688Y175219D01*
X321770Y175364D01*
X321772Y175371D01*
X321775Y175376D01*
X321820Y175537D01*
X321867Y175699D01*
X321868Y175705D01*
X321870Y175712D01*
X321889Y175956D01*
X321889Y179453D01*
X323155Y182508D01*
X325492Y184845D01*
X328547Y186111D01*
X331853Y186111D01*
X334908Y184845D01*
X337245Y182508D01*
X338511Y179453D01*
X338511Y175956D01*
X338511Y175949D01*
X338511Y175942D01*
X338531Y175776D01*
X338551Y175609D01*
X338553Y175603D01*
X338554Y175597D01*
X338612Y175439D01*
X338668Y175281D01*
X338672Y175276D01*
X338674Y175270D01*
X338766Y175130D01*
X338857Y174988D01*
X338862Y174984D01*
X338866Y174978D01*
X338987Y174863D01*
X339108Y174746D01*
X339113Y174743D01*
X339118Y174738D01*
X339263Y174654D01*
X339407Y174567D01*
X339413Y174565D01*
X339419Y174562D01*
X339581Y174512D01*
X339739Y174461D01*
X339745Y174461D01*
X339752Y174459D01*
X339920Y174447D01*
X340086Y174433D01*
X340093Y174434D01*
X340099Y174434D01*
X340342Y174464D01*
X342900Y174992D01*
X345458Y174464D01*
X345465Y174463D01*
X345471Y174461D01*
X345637Y174448D01*
X345805Y174433D01*
X345812Y174434D01*
X345818Y174433D01*
X345984Y174458D01*
X346150Y174482D01*
X346156Y174484D01*
X346163Y174485D01*
X346320Y174547D01*
X346475Y174608D01*
X346481Y174611D01*
X346487Y174614D01*
X346625Y174710D01*
X346763Y174804D01*
X346767Y174809D01*
X346773Y174813D01*
X346886Y174938D01*
X346999Y175061D01*
X347002Y175066D01*
X347006Y175071D01*
X347088Y175219D01*
X347170Y175364D01*
X347172Y175371D01*
X347175Y175376D01*
X347220Y175537D01*
X347267Y175699D01*
X347268Y175705D01*
X347270Y175712D01*
X347289Y175956D01*
X347289Y179453D01*
X348555Y182508D01*
X350892Y184845D01*
X353947Y186111D01*
X357253Y186111D01*
X360308Y184845D01*
X362376Y182777D01*
X362381Y182773D01*
X362385Y182768D01*
X362518Y182665D01*
X362649Y182561D01*
X362655Y182558D01*
X362660Y182554D01*
X362813Y182483D01*
X362964Y182412D01*
X362971Y182410D01*
X362977Y182408D01*
X363141Y182374D01*
X363305Y182338D01*
X363311Y182338D01*
X363318Y182337D01*
X363485Y182341D01*
X363653Y182344D01*
X363660Y182346D01*
X363666Y182346D01*
X363828Y182388D01*
X363991Y182429D01*
X363997Y182432D01*
X364003Y182434D01*
X364151Y182512D01*
X364301Y182589D01*
X364306Y182593D01*
X364312Y182596D01*
X364438Y182706D01*
X364566Y182815D01*
X364570Y182820D01*
X364575Y182824D01*
X364726Y183017D01*
X366979Y186443D01*
X367055Y186593D01*
X367133Y186746D01*
X367134Y186750D01*
X367136Y186754D01*
X367175Y186917D01*
X367217Y187084D01*
X367217Y187088D01*
X367218Y187093D01*
X367219Y187262D01*
X367222Y187432D01*
X367221Y187437D01*
X367221Y187441D01*
X367184Y187607D01*
X367148Y187773D01*
X367146Y187777D01*
X367145Y187782D01*
X367071Y187934D01*
X366998Y188088D01*
X366995Y188091D01*
X366993Y188095D01*
X366888Y188226D01*
X366781Y188360D01*
X366777Y188363D01*
X366774Y188366D01*
X366642Y188469D01*
X366507Y188576D01*
X366502Y188578D01*
X366499Y188581D01*
X366483Y188588D01*
X366289Y188687D01*
X363592Y189805D01*
X361255Y192142D01*
X359989Y195197D01*
X359989Y198503D01*
X361255Y201558D01*
X363592Y203895D01*
X366647Y205161D01*
X369953Y205161D01*
X373008Y203895D01*
X375345Y201558D01*
X376611Y198503D01*
X376611Y196692D01*
X376622Y196592D01*
X376624Y196492D01*
X376642Y196420D01*
X376651Y196346D01*
X376684Y196251D01*
X376709Y196154D01*
X376743Y196088D01*
X376768Y196018D01*
X376823Y195933D01*
X376869Y195844D01*
X376917Y195788D01*
X376957Y195725D01*
X377029Y195655D01*
X377094Y195579D01*
X377154Y195535D01*
X377208Y195483D01*
X377294Y195431D01*
X377375Y195372D01*
X377443Y195342D01*
X377507Y195304D01*
X377603Y195273D01*
X377695Y195234D01*
X377768Y195220D01*
X377839Y195198D01*
X377939Y195190D01*
X378038Y195172D01*
X378112Y195176D01*
X378186Y195170D01*
X378286Y195185D01*
X378386Y195190D01*
X378457Y195210D01*
X378531Y195222D01*
X378624Y195259D01*
X378721Y195286D01*
X378786Y195323D01*
X378855Y195350D01*
X378937Y195408D01*
X379025Y195457D01*
X379101Y195522D01*
X379141Y195549D01*
X379165Y195576D01*
X379211Y195615D01*
X380308Y196712D01*
X380333Y196744D01*
X380385Y196795D01*
X384882Y202019D01*
X384949Y202118D01*
X385023Y202212D01*
X385055Y202275D01*
X385077Y202308D01*
X385094Y202350D01*
X385135Y202430D01*
X385181Y202542D01*
X385543Y202904D01*
X385545Y202906D01*
X385547Y202908D01*
X385557Y202921D01*
X386241Y203605D01*
X386267Y203637D01*
X386319Y203689D01*
X386782Y204227D01*
X386803Y204241D01*
X386908Y204299D01*
X386961Y204345D01*
X386994Y204366D01*
X387026Y204400D01*
X387094Y204458D01*
X387246Y204610D01*
X387265Y204626D01*
X388008Y205369D01*
X391701Y206899D01*
X395699Y206899D01*
X399392Y205369D01*
X402219Y202542D01*
X403749Y198849D01*
X403749Y194851D01*
X402219Y191158D01*
X399392Y188331D01*
X395699Y186801D01*
X394078Y186801D01*
X394040Y186797D01*
X393972Y186798D01*
X393214Y186745D01*
X393187Y186745D01*
X387748Y186375D01*
X387700Y186366D01*
X387652Y186366D01*
X387530Y186335D01*
X387406Y186312D01*
X387361Y186293D01*
X387314Y186281D01*
X387202Y186223D01*
X387086Y186173D01*
X387047Y186143D01*
X387004Y186121D01*
X386908Y186039D01*
X386807Y185964D01*
X386776Y185927D01*
X386738Y185895D01*
X386663Y185794D01*
X386582Y185698D01*
X386560Y185654D01*
X386531Y185615D01*
X386481Y185499D01*
X386424Y185387D01*
X386413Y185340D01*
X386393Y185295D01*
X386371Y185171D01*
X386341Y185049D01*
X386340Y185000D01*
X386332Y184952D01*
X386338Y184826D01*
X386336Y184700D01*
X386347Y184653D01*
X386349Y184604D01*
X386384Y184483D01*
X386411Y184360D01*
X386432Y184316D01*
X386446Y184269D01*
X386508Y184159D01*
X386562Y184046D01*
X386592Y184007D01*
X386616Y183965D01*
X386734Y183827D01*
X386740Y183817D01*
X386746Y183812D01*
X386775Y183778D01*
X388046Y182508D01*
X389311Y179453D01*
X389311Y176147D01*
X388045Y173092D01*
X385708Y170755D01*
X382653Y169489D01*
X379347Y169489D01*
X376292Y170755D01*
X374118Y172928D01*
X374113Y172933D01*
X374109Y172938D01*
X373977Y173041D01*
X373845Y173145D01*
X373839Y173148D01*
X373834Y173152D01*
X373682Y173222D01*
X373530Y173294D01*
X373524Y173295D01*
X373518Y173298D01*
X373354Y173332D01*
X373190Y173367D01*
X373183Y173367D01*
X373177Y173369D01*
X373009Y173364D01*
X372841Y173361D01*
X372835Y173360D01*
X372828Y173360D01*
X372666Y173317D01*
X372503Y173276D01*
X372497Y173273D01*
X372491Y173272D01*
X372342Y173193D01*
X372193Y173117D01*
X372188Y173113D01*
X372182Y173109D01*
X372055Y172999D01*
X371928Y172891D01*
X371924Y172886D01*
X371919Y172881D01*
X371769Y172688D01*
X369483Y169214D01*
X369407Y169063D01*
X369330Y168911D01*
X369328Y168907D01*
X369326Y168903D01*
X369286Y168738D01*
X369245Y168573D01*
X369245Y168569D01*
X369244Y168564D01*
X369243Y168390D01*
X369240Y168225D01*
X369241Y168220D01*
X369241Y168216D01*
X369279Y168049D01*
X369315Y167884D01*
X369317Y167880D01*
X369318Y167876D01*
X369392Y167721D01*
X369464Y167569D01*
X369467Y167566D01*
X369469Y167562D01*
X369576Y167430D01*
X369682Y167297D01*
X369685Y167294D01*
X369688Y167291D01*
X369821Y167187D01*
X369955Y167081D01*
X369960Y167079D01*
X369963Y167076D01*
X369979Y167069D01*
X370173Y166970D01*
X373008Y165795D01*
X375345Y163458D01*
X376611Y160403D01*
X376611Y157097D01*
X375345Y154042D01*
X373008Y151705D01*
X369953Y150439D01*
X366647Y150439D01*
X363592Y151705D01*
X361255Y154042D01*
X359989Y157097D01*
X359989Y160611D01*
X359971Y160768D01*
X359956Y160927D01*
X359951Y160942D01*
X359949Y160957D01*
X359896Y161107D01*
X359845Y161257D01*
X359837Y161270D01*
X359832Y161285D01*
X359745Y161419D01*
X359662Y161554D01*
X359651Y161565D01*
X359643Y161578D01*
X359529Y161688D01*
X359417Y161801D01*
X359404Y161809D01*
X359392Y161820D01*
X359256Y161902D01*
X359121Y161986D01*
X359107Y161991D01*
X359093Y161999D01*
X358942Y162047D01*
X358792Y162099D01*
X358776Y162100D01*
X358761Y162105D01*
X358603Y162118D01*
X358445Y162134D01*
X358426Y162132D01*
X358414Y162133D01*
X358374Y162127D01*
X358201Y162111D01*
X357875Y162053D01*
X357870Y162052D01*
X357861Y162051D01*
X355417Y161596D01*
X352984Y162002D01*
X352832Y162009D01*
X352682Y162021D01*
X352659Y162018D01*
X352636Y162019D01*
X352487Y161992D01*
X352337Y161970D01*
X352316Y161961D01*
X352293Y161957D01*
X352154Y161897D01*
X352013Y161841D01*
X351995Y161828D01*
X351973Y161819D01*
X351851Y161728D01*
X351727Y161642D01*
X351712Y161625D01*
X351693Y161612D01*
X351595Y161496D01*
X351494Y161383D01*
X351483Y161363D01*
X351468Y161346D01*
X351399Y161211D01*
X351325Y161078D01*
X351319Y161056D01*
X351308Y161036D01*
X351272Y160889D01*
X351230Y160743D01*
X351228Y160715D01*
X351224Y160698D01*
X351223Y160652D01*
X351211Y160499D01*
X351211Y157097D01*
X349945Y154042D01*
X347608Y151705D01*
X344553Y150439D01*
X341247Y150439D01*
X338192Y151705D01*
X335855Y154042D01*
X334589Y157097D01*
X334589Y160437D01*
X334571Y160595D01*
X334556Y160753D01*
X334551Y160768D01*
X334549Y160784D01*
X334496Y160933D01*
X334445Y161084D01*
X334437Y161097D01*
X334432Y161112D01*
X334346Y161245D01*
X334262Y161380D01*
X334251Y161391D01*
X334243Y161405D01*
X334129Y161515D01*
X334017Y161628D01*
X334004Y161636D01*
X333992Y161647D01*
X333856Y161728D01*
X333721Y161812D01*
X333707Y161818D01*
X333693Y161826D01*
X333542Y161874D01*
X333392Y161925D01*
X333376Y161927D01*
X333361Y161932D01*
X333203Y161945D01*
X333045Y161961D01*
X333026Y161959D01*
X333014Y161960D01*
X332974Y161954D01*
X332801Y161938D01*
X330200Y161479D01*
X327599Y161938D01*
X327440Y161947D01*
X327282Y161960D01*
X327266Y161957D01*
X327251Y161958D01*
X327094Y161932D01*
X326937Y161908D01*
X326923Y161902D01*
X326907Y161900D01*
X326761Y161838D01*
X326613Y161779D01*
X326600Y161770D01*
X326586Y161764D01*
X326457Y161671D01*
X326327Y161580D01*
X326317Y161569D01*
X326304Y161560D01*
X326199Y161439D01*
X326094Y161322D01*
X326086Y161308D01*
X326076Y161296D01*
X326002Y161156D01*
X325925Y161017D01*
X325921Y161001D01*
X325914Y160988D01*
X325874Y160835D01*
X325830Y160681D01*
X325829Y160662D01*
X325826Y160650D01*
X325825Y160611D01*
X325811Y160437D01*
X325811Y157097D01*
X324545Y154042D01*
X322208Y151705D01*
X319153Y150439D01*
X315847Y150439D01*
X312792Y151705D01*
X310455Y154042D01*
X309189Y157097D01*
X309189Y160437D01*
X309171Y160595D01*
X309156Y160753D01*
X309151Y160768D01*
X309149Y160784D01*
X309096Y160933D01*
X309045Y161084D01*
X309037Y161097D01*
X309032Y161112D01*
X308946Y161245D01*
X308862Y161380D01*
X308851Y161391D01*
X308843Y161405D01*
X308729Y161515D01*
X308617Y161628D01*
X308604Y161636D01*
X308592Y161647D01*
X308456Y161728D01*
X308321Y161812D01*
X308307Y161818D01*
X308293Y161826D01*
X308142Y161874D01*
X307992Y161925D01*
X307976Y161927D01*
X307961Y161932D01*
X307803Y161945D01*
X307645Y161961D01*
X307626Y161959D01*
X307614Y161960D01*
X307574Y161954D01*
X307401Y161938D01*
X304800Y161479D01*
X302199Y161938D01*
X302040Y161947D01*
X301882Y161960D01*
X301866Y161957D01*
X301851Y161958D01*
X301694Y161932D01*
X301537Y161908D01*
X301523Y161902D01*
X301507Y161900D01*
X301361Y161838D01*
X301213Y161779D01*
X301200Y161770D01*
X301186Y161764D01*
X301057Y161671D01*
X300927Y161580D01*
X300917Y161569D01*
X300904Y161560D01*
X300799Y161439D01*
X300694Y161322D01*
X300686Y161308D01*
X300676Y161296D01*
X300602Y161156D01*
X300525Y161017D01*
X300521Y161001D01*
X300514Y160988D01*
X300474Y160835D01*
X300430Y160681D01*
X300429Y160662D01*
X300426Y160650D01*
X300425Y160611D01*
X300411Y160437D01*
X300411Y157097D01*
X299145Y154042D01*
X296808Y151705D01*
X293753Y150439D01*
X290447Y150439D01*
X287392Y151704D01*
X286573Y152524D01*
X286494Y152586D01*
X286422Y152656D01*
X286358Y152694D01*
X286300Y152740D01*
X286209Y152783D01*
X286123Y152835D01*
X286052Y152857D01*
X285985Y152889D01*
X285887Y152910D01*
X285791Y152941D01*
X285717Y152947D01*
X285644Y152963D01*
X285544Y152961D01*
X285444Y152969D01*
X285370Y152958D01*
X285296Y152957D01*
X285199Y152932D01*
X285099Y152917D01*
X285030Y152890D01*
X284958Y152872D01*
X284869Y152826D01*
X284775Y152789D01*
X284714Y152746D01*
X284648Y152712D01*
X284572Y152647D01*
X284489Y152590D01*
X284439Y152534D01*
X284383Y152486D01*
X284323Y152405D01*
X284256Y152331D01*
X284220Y152266D01*
X284175Y152206D01*
X284136Y152114D01*
X284087Y152026D01*
X284067Y151954D01*
X284037Y151886D01*
X284020Y151787D01*
X283992Y151690D01*
X283984Y151590D01*
X283976Y151543D01*
X283978Y151507D01*
X283973Y151447D01*
X283973Y138126D01*
X283976Y138100D01*
X283974Y138073D01*
X283996Y137927D01*
X284013Y137780D01*
X284022Y137755D01*
X284026Y137728D01*
X284108Y137498D01*
X285177Y135140D01*
X285255Y135010D01*
X285329Y134877D01*
X285347Y134856D01*
X285356Y134841D01*
X285363Y134834D01*
X285520Y134454D01*
X285594Y134322D01*
X285652Y134208D01*
X285802Y133811D01*
X285898Y133556D01*
X285915Y133523D01*
X285936Y133464D01*
X286226Y132825D01*
X286229Y132793D01*
X286238Y132767D01*
X286240Y132749D01*
X286258Y132706D01*
X286304Y132560D01*
X286471Y132158D01*
X286479Y132068D01*
X286487Y132042D01*
X286489Y132024D01*
X286504Y131980D01*
X286546Y131833D01*
X287458Y129410D01*
X287471Y129386D01*
X287478Y129360D01*
X287518Y129290D01*
X287527Y129266D01*
X287546Y129238D01*
X287550Y129232D01*
X287618Y129100D01*
X287635Y129080D01*
X287648Y129056D01*
X287807Y128870D01*
X303708Y112969D01*
X303807Y112890D01*
X303901Y112806D01*
X303943Y112782D01*
X303981Y112752D01*
X304095Y112698D01*
X304206Y112637D01*
X304252Y112624D01*
X304296Y112603D01*
X304419Y112577D01*
X304541Y112542D01*
X304602Y112537D01*
X304637Y112530D01*
X304685Y112531D01*
X304785Y112523D01*
X369210Y112523D01*
X370890Y111827D01*
X374215Y108502D01*
X374255Y108470D01*
X374290Y108432D01*
X374486Y108286D01*
X374838Y108067D01*
X374942Y107990D01*
X375923Y107382D01*
X375947Y107371D01*
X375969Y107354D01*
X376057Y107313D01*
X376098Y107288D01*
X376133Y107277D01*
X376191Y107250D01*
X379803Y105896D01*
X379949Y105859D01*
X380094Y105818D01*
X380123Y105816D01*
X380141Y105811D01*
X380188Y105811D01*
X380338Y105799D01*
X383098Y105799D01*
X386975Y104193D01*
X389943Y101225D01*
X391549Y97348D01*
X391549Y93152D01*
X389943Y89275D01*
X386975Y86307D01*
X383098Y84701D01*
X378902Y84701D01*
X375025Y86307D01*
X372057Y89275D01*
X370451Y93152D01*
X370451Y95912D01*
X370434Y96062D01*
X370421Y96212D01*
X370414Y96240D01*
X370411Y96258D01*
X370396Y96303D01*
X370354Y96447D01*
X369000Y100059D01*
X368987Y100084D01*
X368980Y100110D01*
X368933Y100201D01*
X368916Y100243D01*
X368897Y100270D01*
X368868Y100327D01*
X368260Y101308D01*
X368257Y101312D01*
X368255Y101316D01*
X368202Y101382D01*
X367964Y101764D01*
X367932Y101804D01*
X367907Y101849D01*
X367748Y102035D01*
X367384Y102399D01*
X366852Y102931D01*
X366753Y103010D01*
X366659Y103094D01*
X366617Y103118D01*
X366579Y103148D01*
X366465Y103202D01*
X366354Y103263D01*
X366308Y103276D01*
X366264Y103297D01*
X366141Y103323D01*
X366019Y103358D01*
X365958Y103363D01*
X365923Y103370D01*
X365875Y103369D01*
X365775Y103377D01*
X337805Y103377D01*
X337679Y103363D01*
X337553Y103356D01*
X337507Y103343D01*
X337459Y103337D01*
X337340Y103295D01*
X337218Y103260D01*
X337176Y103236D01*
X337131Y103220D01*
X337024Y103151D01*
X336914Y103090D01*
X336868Y103050D01*
X336838Y103031D01*
X336804Y102996D01*
X336728Y102931D01*
X335219Y101422D01*
X335140Y101323D01*
X335056Y101229D01*
X335032Y101187D01*
X335002Y101149D01*
X334948Y101035D01*
X334887Y100924D01*
X334874Y100878D01*
X334853Y100834D01*
X334827Y100711D01*
X334792Y100589D01*
X334787Y100528D01*
X334780Y100493D01*
X334781Y100445D01*
X334773Y100345D01*
X334773Y72375D01*
X334787Y72250D01*
X334794Y72123D01*
X334807Y72077D01*
X334813Y72029D01*
X334855Y71910D01*
X334890Y71788D01*
X334914Y71746D01*
X334930Y71701D01*
X334999Y71595D01*
X335060Y71484D01*
X335100Y71438D01*
X335119Y71408D01*
X335154Y71374D01*
X335219Y71298D01*
X336115Y70402D01*
X336155Y70370D01*
X336190Y70332D01*
X336386Y70186D01*
X336738Y69967D01*
X336842Y69890D01*
X337823Y69282D01*
X337847Y69270D01*
X337869Y69254D01*
X338010Y69188D01*
X338040Y69172D01*
X338053Y69168D01*
X338091Y69150D01*
X341703Y67796D01*
X341849Y67759D01*
X341994Y67718D01*
X342023Y67716D01*
X342041Y67711D01*
X342088Y67711D01*
X342238Y67699D01*
X344998Y67699D01*
X348875Y66093D01*
X351843Y63125D01*
X353449Y59248D01*
X353449Y55052D01*
X351843Y51175D01*
X348875Y48207D01*
X344998Y46601D01*
X340802Y46601D01*
G37*
%LPD*%
%LPC*%
G36*
X416150Y120916D02*
X416150Y120916D01*
X414639Y121929D01*
X414634Y121935D01*
X414536Y122051D01*
X414441Y122170D01*
X414424Y122184D01*
X414409Y122201D01*
X414287Y122292D01*
X414168Y122386D01*
X414147Y122396D01*
X414129Y122409D01*
X413990Y122470D01*
X413852Y122534D01*
X413830Y122539D01*
X413809Y122548D01*
X413660Y122575D01*
X413511Y122607D01*
X413489Y122606D01*
X413467Y122610D01*
X413315Y122603D01*
X413163Y122600D01*
X413141Y122594D01*
X413119Y122593D01*
X412973Y122552D01*
X412825Y122514D01*
X412805Y122504D01*
X412783Y122497D01*
X412651Y122424D01*
X412516Y122354D01*
X412499Y122339D01*
X412479Y122328D01*
X412366Y122226D01*
X412251Y122127D01*
X412234Y122106D01*
X412221Y122094D01*
X412195Y122056D01*
X412099Y121935D01*
X412095Y121929D01*
X410583Y120916D01*
X408800Y120560D01*
X407015Y120913D01*
X405502Y121922D01*
X404489Y123433D01*
X404173Y125013D01*
X404158Y125061D01*
X404150Y125111D01*
X404104Y125226D01*
X404066Y125344D01*
X404040Y125388D01*
X404022Y125435D01*
X403951Y125537D01*
X403887Y125643D01*
X403852Y125679D01*
X403823Y125721D01*
X403731Y125804D01*
X403644Y125893D01*
X403601Y125921D01*
X403564Y125954D01*
X403455Y126014D01*
X403351Y126081D01*
X403303Y126098D01*
X403259Y126123D01*
X403139Y126157D01*
X403022Y126198D01*
X402972Y126204D01*
X402923Y126218D01*
X402680Y126237D01*
X400410Y126237D01*
X400215Y126318D01*
X400117Y126346D01*
X400023Y126383D01*
X399951Y126394D01*
X399880Y126414D01*
X399779Y126419D01*
X399679Y126434D01*
X399605Y126427D01*
X399532Y126431D01*
X399432Y126413D01*
X399331Y126404D01*
X399261Y126382D01*
X399189Y126368D01*
X399096Y126328D01*
X399000Y126297D01*
X398937Y126259D01*
X398869Y126230D01*
X398788Y126169D01*
X398701Y126117D01*
X398648Y126066D01*
X398589Y126022D01*
X398524Y125945D01*
X398452Y125874D01*
X398395Y125792D01*
X398364Y125756D01*
X398348Y125724D01*
X398313Y125673D01*
X396709Y122895D01*
X392819Y120649D01*
X388326Y120649D01*
X385390Y122345D01*
X385389Y122345D01*
X385388Y122346D01*
X385234Y122412D01*
X385070Y122483D01*
X385069Y122483D01*
X385068Y122484D01*
X384895Y122515D01*
X384727Y122545D01*
X384726Y122545D01*
X384725Y122546D01*
X384554Y122537D01*
X384379Y122528D01*
X384378Y122528D01*
X384377Y122528D01*
X384221Y122483D01*
X384044Y122432D01*
X384043Y122431D01*
X384042Y122431D01*
X383892Y122348D01*
X383740Y122263D01*
X383739Y122262D01*
X383738Y122261D01*
X383551Y122103D01*
X382794Y121345D01*
X381114Y120649D01*
X376246Y120649D01*
X374566Y121345D01*
X374194Y121717D01*
X374193Y121718D01*
X374192Y121719D01*
X374058Y121825D01*
X373921Y121934D01*
X373920Y121934D01*
X373919Y121935D01*
X373770Y122005D01*
X373606Y122083D01*
X373605Y122083D01*
X373604Y122083D01*
X373436Y122119D01*
X373265Y122156D01*
X373264Y122156D01*
X373263Y122156D01*
X373080Y122153D01*
X372917Y122150D01*
X372916Y122150D01*
X372914Y122150D01*
X372739Y122105D01*
X372579Y122065D01*
X372578Y122064D01*
X372576Y122064D01*
X372355Y121959D01*
X370087Y120649D01*
X365843Y120649D01*
X361777Y122343D01*
X360226Y123907D01*
X359586Y124553D01*
X358896Y126236D01*
X358904Y128056D01*
X359607Y129733D01*
X360072Y130195D01*
X360073Y130195D01*
X360074Y130196D01*
X360179Y130328D01*
X360290Y130467D01*
X360290Y130468D01*
X360291Y130469D01*
X360366Y130626D01*
X360440Y130781D01*
X360440Y130782D01*
X360441Y130783D01*
X360479Y130957D01*
X360515Y131121D01*
X360515Y131123D01*
X360515Y131124D01*
X360513Y131297D01*
X360510Y131470D01*
X360510Y131471D01*
X360510Y131472D01*
X360472Y131625D01*
X360427Y131808D01*
X360426Y131809D01*
X360426Y131810D01*
X360322Y132032D01*
X359281Y133854D01*
X359281Y137932D01*
X361323Y141469D01*
X364860Y143511D01*
X368571Y143511D01*
X371739Y142455D01*
X372092Y142190D01*
X372172Y142143D01*
X372247Y142088D01*
X372322Y142056D01*
X372393Y142014D01*
X372481Y141987D01*
X372567Y141950D01*
X372647Y141936D01*
X372726Y141912D01*
X372818Y141905D01*
X372910Y141889D01*
X372992Y141893D01*
X373073Y141887D01*
X373165Y141902D01*
X373258Y141907D01*
X373336Y141929D01*
X373417Y141942D01*
X373503Y141977D01*
X373592Y142003D01*
X373664Y142043D01*
X373740Y142074D01*
X373816Y142128D01*
X373897Y142173D01*
X373983Y142247D01*
X374024Y142276D01*
X374045Y142299D01*
X374083Y142332D01*
X374566Y142815D01*
X376246Y143511D01*
X381114Y143511D01*
X382794Y142815D01*
X383551Y142057D01*
X383552Y142057D01*
X383553Y142056D01*
X383685Y141951D01*
X383824Y141841D01*
X383826Y141840D01*
X383827Y141839D01*
X383983Y141766D01*
X384139Y141692D01*
X384141Y141692D01*
X384142Y141691D01*
X384318Y141654D01*
X384480Y141619D01*
X384481Y141619D01*
X384483Y141618D01*
X384666Y141622D01*
X384829Y141625D01*
X384830Y141625D01*
X384831Y141625D01*
X385004Y141669D01*
X385167Y141710D01*
X385168Y141710D01*
X385169Y141711D01*
X385390Y141815D01*
X388326Y143511D01*
X392819Y143511D01*
X396709Y141265D01*
X398955Y137374D01*
X398955Y136906D01*
X398958Y136880D01*
X398956Y136854D01*
X398978Y136707D01*
X398995Y136560D01*
X399004Y136535D01*
X399008Y136509D01*
X399063Y136371D01*
X399113Y136232D01*
X399127Y136210D01*
X399137Y136185D01*
X399221Y136064D01*
X399302Y135939D01*
X399321Y135921D01*
X399336Y135899D01*
X399445Y135800D01*
X399552Y135697D01*
X399575Y135683D01*
X399594Y135666D01*
X399724Y135594D01*
X399851Y135518D01*
X399876Y135510D01*
X399899Y135497D01*
X400042Y135457D01*
X400183Y135412D01*
X400210Y135410D01*
X400235Y135402D01*
X400479Y135383D01*
X402983Y135383D01*
X403169Y135404D01*
X403329Y135423D01*
X403474Y135475D01*
X403657Y135540D01*
X403780Y135620D01*
X403950Y135729D01*
X404059Y135842D01*
X404192Y135980D01*
X404264Y136100D01*
X404371Y136279D01*
X404424Y136446D01*
X404477Y136611D01*
X404491Y136785D01*
X404505Y136958D01*
X404505Y136959D01*
X404477Y137202D01*
X404132Y138943D01*
X404415Y140355D01*
X404489Y140727D01*
X405502Y142238D01*
X407015Y143247D01*
X408800Y143600D01*
X410583Y143244D01*
X412095Y142231D01*
X412099Y142225D01*
X412198Y142109D01*
X412292Y141990D01*
X412310Y141976D01*
X412325Y141959D01*
X412447Y141868D01*
X412566Y141774D01*
X412586Y141764D01*
X412604Y141751D01*
X412744Y141690D01*
X412881Y141626D01*
X412903Y141621D01*
X412924Y141612D01*
X413073Y141585D01*
X413222Y141553D01*
X413245Y141554D01*
X413267Y141550D01*
X413418Y141557D01*
X413571Y141560D01*
X413593Y141566D01*
X413615Y141567D01*
X413761Y141608D01*
X413908Y141646D01*
X413929Y141656D01*
X413950Y141663D01*
X414083Y141736D01*
X414218Y141806D01*
X414235Y141821D01*
X414255Y141832D01*
X414367Y141934D01*
X414483Y142033D01*
X414500Y142054D01*
X414513Y142066D01*
X414539Y142104D01*
X414634Y142225D01*
X414639Y142231D01*
X416150Y143244D01*
X417934Y143600D01*
X419718Y143247D01*
X421316Y142182D01*
X421339Y142170D01*
X421360Y142154D01*
X421494Y142091D01*
X421627Y142023D01*
X421652Y142017D01*
X421675Y142006D01*
X421821Y141975D01*
X421965Y141939D01*
X421991Y141939D01*
X422016Y141933D01*
X422165Y141936D01*
X422313Y141934D01*
X422338Y141939D01*
X422364Y141940D01*
X422509Y141976D01*
X422654Y142008D01*
X422677Y142019D01*
X422702Y142025D01*
X422923Y142130D01*
X425314Y143511D01*
X429026Y143511D01*
X432193Y142455D01*
X433529Y141453D01*
X434256Y140907D01*
X435183Y139342D01*
X435441Y137541D01*
X434989Y135779D01*
X434456Y135069D01*
X434424Y135013D01*
X434383Y134963D01*
X434336Y134863D01*
X434281Y134768D01*
X434261Y134706D01*
X434234Y134648D01*
X434210Y134540D01*
X434178Y134435D01*
X434173Y134371D01*
X434159Y134307D01*
X434161Y134197D01*
X434153Y134087D01*
X434164Y134024D01*
X434164Y133959D01*
X434191Y133852D01*
X434208Y133743D01*
X434233Y133683D01*
X434249Y133621D01*
X434327Y133453D01*
X434340Y133421D01*
X434346Y133413D01*
X434353Y133399D01*
X436120Y130306D01*
X436120Y126228D01*
X434078Y122691D01*
X430541Y120649D01*
X426297Y120649D01*
X422758Y122124D01*
X422660Y122152D01*
X422565Y122190D01*
X422493Y122200D01*
X422423Y122220D01*
X422321Y122225D01*
X422220Y122240D01*
X422147Y122234D01*
X422075Y122238D01*
X421974Y122220D01*
X421872Y122211D01*
X421803Y122189D01*
X421732Y122176D01*
X421638Y122136D01*
X421541Y122104D01*
X421456Y122057D01*
X421412Y122038D01*
X421382Y122016D01*
X421327Y121985D01*
X419718Y120913D01*
X417934Y120560D01*
X416150Y120916D01*
G37*
%LPD*%
%LPC*%
G36*
X307721Y120649D02*
X307721Y120649D01*
X306040Y121345D01*
X304754Y122632D01*
X304058Y124312D01*
X304058Y139848D01*
X304754Y141528D01*
X306040Y142815D01*
X307721Y143511D01*
X314687Y143511D01*
X318355Y141393D01*
X318494Y141333D01*
X318630Y141269D01*
X318653Y141264D01*
X318675Y141254D01*
X318823Y141227D01*
X318971Y141196D01*
X318994Y141196D01*
X319018Y141192D01*
X319168Y141200D01*
X319319Y141202D01*
X319342Y141208D01*
X319366Y141209D01*
X319511Y141251D01*
X319657Y141288D01*
X319683Y141300D01*
X319701Y141305D01*
X319742Y141328D01*
X319878Y141393D01*
X323546Y143511D01*
X327258Y143511D01*
X330425Y142455D01*
X331761Y141453D01*
X332488Y140907D01*
X332557Y140791D01*
X332637Y140686D01*
X332712Y140576D01*
X332742Y140547D01*
X332768Y140514D01*
X332870Y140429D01*
X332967Y140339D01*
X333004Y140318D01*
X333036Y140291D01*
X333155Y140232D01*
X333270Y140166D01*
X333310Y140154D01*
X333348Y140136D01*
X333477Y140105D01*
X333604Y140067D01*
X333646Y140065D01*
X333687Y140055D01*
X333820Y140054D01*
X333952Y140047D01*
X333994Y140054D01*
X334035Y140053D01*
X334165Y140083D01*
X334296Y140106D01*
X334334Y140122D01*
X334375Y140131D01*
X334494Y140189D01*
X334617Y140241D01*
X334660Y140270D01*
X334688Y140284D01*
X334727Y140315D01*
X334819Y140378D01*
X337219Y142298D01*
X337255Y142333D01*
X337345Y142410D01*
X337749Y142815D01*
X337790Y142831D01*
X337871Y142876D01*
X337956Y142912D01*
X338051Y142977D01*
X338095Y143001D01*
X338117Y143021D01*
X338159Y143049D01*
X338193Y143077D01*
X338742Y143236D01*
X338789Y143255D01*
X338901Y143292D01*
X339430Y143511D01*
X339474Y143511D01*
X339566Y143521D01*
X339658Y143522D01*
X339771Y143545D01*
X339820Y143551D01*
X339849Y143561D01*
X339898Y143571D01*
X339940Y143583D01*
X340509Y143520D01*
X340559Y143520D01*
X340677Y143511D01*
X341249Y143511D01*
X341290Y143494D01*
X341379Y143468D01*
X341464Y143434D01*
X341577Y143412D01*
X341625Y143398D01*
X341655Y143397D01*
X341705Y143387D01*
X341748Y143382D01*
X342249Y143106D01*
X342296Y143087D01*
X342401Y143033D01*
X342930Y142815D01*
X342961Y142783D01*
X343033Y142726D01*
X343099Y142661D01*
X343195Y142598D01*
X343234Y142567D01*
X343262Y142554D01*
X343303Y142526D01*
X343342Y142505D01*
X343699Y142058D01*
X343735Y142023D01*
X343812Y141933D01*
X344216Y141528D01*
X344233Y141487D01*
X344278Y141407D01*
X344314Y141321D01*
X344378Y141226D01*
X344402Y141183D01*
X344423Y141160D01*
X344451Y141119D01*
X344478Y141084D01*
X344637Y140535D01*
X344657Y140489D01*
X344693Y140376D01*
X344912Y139848D01*
X344912Y139803D01*
X344923Y139712D01*
X344923Y139619D01*
X344946Y139507D01*
X344952Y139457D01*
X344962Y139428D01*
X344972Y139379D01*
X344985Y139337D01*
X344921Y138769D01*
X344922Y138719D01*
X344912Y138600D01*
X344912Y130873D01*
X344921Y130798D01*
X344920Y130721D01*
X344941Y130625D01*
X344952Y130527D01*
X344978Y130455D01*
X344994Y130381D01*
X345036Y130292D01*
X345070Y130199D01*
X345111Y130135D01*
X345144Y130066D01*
X345205Y129989D01*
X345259Y129906D01*
X345314Y129853D01*
X345361Y129793D01*
X345438Y129732D01*
X345509Y129664D01*
X345575Y129625D01*
X345635Y129577D01*
X345768Y129509D01*
X345808Y129485D01*
X345826Y129479D01*
X345852Y129466D01*
X346740Y129099D01*
X348026Y127812D01*
X348722Y126132D01*
X348722Y124312D01*
X348026Y122632D01*
X346740Y121345D01*
X345059Y120649D01*
X335620Y120649D01*
X333939Y121345D01*
X333316Y121969D01*
X333315Y121969D01*
X333314Y121970D01*
X333188Y122070D01*
X333177Y122079D01*
X333167Y122088D01*
X333162Y122091D01*
X333043Y122185D01*
X333042Y122186D01*
X333041Y122187D01*
X332892Y122257D01*
X332728Y122334D01*
X332727Y122334D01*
X332725Y122335D01*
X332553Y122372D01*
X332387Y122407D01*
X332386Y122407D01*
X332385Y122408D01*
X332202Y122404D01*
X332039Y122401D01*
X332038Y122401D01*
X332036Y122401D01*
X331861Y122357D01*
X331701Y122316D01*
X331700Y122316D01*
X331698Y122315D01*
X331477Y122211D01*
X328773Y120649D01*
X324529Y120649D01*
X320463Y122343D01*
X318912Y123907D01*
X318272Y124553D01*
X317521Y126386D01*
X317459Y126499D01*
X317404Y126615D01*
X317375Y126651D01*
X317353Y126691D01*
X317267Y126787D01*
X317187Y126888D01*
X317151Y126916D01*
X317120Y126951D01*
X317015Y127024D01*
X316914Y127104D01*
X316872Y127124D01*
X316834Y127150D01*
X316715Y127198D01*
X316598Y127253D01*
X316553Y127262D01*
X316511Y127279D01*
X316384Y127298D01*
X316257Y127325D01*
X316211Y127324D01*
X316166Y127331D01*
X316038Y127321D01*
X315909Y127319D01*
X315864Y127307D01*
X315819Y127304D01*
X315696Y127265D01*
X315571Y127233D01*
X315519Y127209D01*
X315487Y127198D01*
X315445Y127173D01*
X315350Y127128D01*
X314684Y126744D01*
X314674Y126744D01*
X314528Y126722D01*
X314380Y126705D01*
X314356Y126697D01*
X314330Y126693D01*
X314192Y126638D01*
X314052Y126588D01*
X314030Y126574D01*
X314006Y126564D01*
X313884Y126479D01*
X313759Y126399D01*
X313741Y126380D01*
X313720Y126365D01*
X313621Y126255D01*
X313517Y126148D01*
X313504Y126126D01*
X313486Y126106D01*
X313414Y125976D01*
X313338Y125849D01*
X313330Y125824D01*
X313318Y125801D01*
X313277Y125658D01*
X313232Y125517D01*
X313230Y125491D01*
X313223Y125466D01*
X313203Y125222D01*
X313203Y124312D01*
X312507Y122632D01*
X311221Y121345D01*
X309540Y120649D01*
X307721Y120649D01*
G37*
%LPD*%
%LPC*%
G36*
X359852Y65651D02*
X359852Y65651D01*
X355975Y67257D01*
X353007Y70225D01*
X351401Y74102D01*
X351401Y76149D01*
X351387Y76275D01*
X351380Y76401D01*
X351367Y76448D01*
X351361Y76496D01*
X351319Y76615D01*
X351284Y76736D01*
X351260Y76778D01*
X351244Y76824D01*
X351175Y76930D01*
X351114Y77040D01*
X351074Y77086D01*
X351055Y77116D01*
X351020Y77150D01*
X350955Y77226D01*
X345814Y82367D01*
X344741Y84958D01*
X344741Y87762D01*
X345814Y90353D01*
X347797Y92336D01*
X350388Y93409D01*
X353192Y93409D01*
X355783Y92336D01*
X360924Y87195D01*
X361023Y87116D01*
X361116Y87032D01*
X361159Y87008D01*
X361197Y86978D01*
X361311Y86924D01*
X361421Y86863D01*
X361468Y86850D01*
X361512Y86829D01*
X361635Y86803D01*
X361757Y86768D01*
X361818Y86763D01*
X361852Y86756D01*
X361900Y86757D01*
X362001Y86749D01*
X364048Y86749D01*
X367925Y85143D01*
X370893Y82175D01*
X372499Y78298D01*
X372499Y74102D01*
X370893Y70225D01*
X367925Y67257D01*
X364048Y65651D01*
X359852Y65651D01*
G37*
%LPD*%
%LPC*%
G36*
X321752Y27551D02*
X321752Y27551D01*
X317875Y29157D01*
X314907Y32125D01*
X313301Y36002D01*
X313301Y38049D01*
X313287Y38175D01*
X313280Y38301D01*
X313267Y38348D01*
X313261Y38396D01*
X313219Y38515D01*
X313184Y38636D01*
X313160Y38678D01*
X313144Y38724D01*
X313075Y38830D01*
X313014Y38940D01*
X312974Y38986D01*
X312955Y39016D01*
X312920Y39050D01*
X312855Y39126D01*
X307714Y44267D01*
X306641Y46858D01*
X306641Y49662D01*
X307714Y52253D01*
X309697Y54236D01*
X312288Y55309D01*
X315092Y55309D01*
X317683Y54236D01*
X322824Y49095D01*
X322923Y49016D01*
X323016Y48932D01*
X323059Y48908D01*
X323097Y48878D01*
X323211Y48824D01*
X323321Y48763D01*
X323368Y48750D01*
X323412Y48729D01*
X323535Y48703D01*
X323657Y48668D01*
X323718Y48663D01*
X323752Y48656D01*
X323800Y48657D01*
X323901Y48649D01*
X325948Y48649D01*
X329825Y47043D01*
X332793Y44075D01*
X334399Y40198D01*
X334399Y36002D01*
X332793Y32125D01*
X329825Y29157D01*
X325948Y27551D01*
X321752Y27551D01*
G37*
%LPD*%
%LPC*%
G36*
X302702Y8501D02*
X302702Y8501D01*
X298825Y10107D01*
X295857Y13075D01*
X294251Y16952D01*
X294251Y18999D01*
X294237Y19125D01*
X294230Y19251D01*
X294217Y19298D01*
X294211Y19346D01*
X294169Y19465D01*
X294134Y19586D01*
X294110Y19628D01*
X294094Y19674D01*
X294025Y19780D01*
X293964Y19890D01*
X293924Y19937D01*
X293905Y19967D01*
X293870Y20000D01*
X293805Y20076D01*
X288664Y25217D01*
X287591Y27808D01*
X287591Y30612D01*
X288664Y33203D01*
X290647Y35186D01*
X293238Y36259D01*
X296042Y36259D01*
X298633Y35186D01*
X303774Y30045D01*
X303873Y29966D01*
X303966Y29882D01*
X304009Y29858D01*
X304047Y29828D01*
X304161Y29774D01*
X304271Y29713D01*
X304318Y29700D01*
X304362Y29679D01*
X304485Y29653D01*
X304607Y29618D01*
X304668Y29613D01*
X304702Y29606D01*
X304750Y29607D01*
X304851Y29599D01*
X306898Y29599D01*
X310775Y27993D01*
X313743Y25025D01*
X315349Y21148D01*
X315349Y16952D01*
X313743Y13075D01*
X310775Y10107D01*
X306898Y8501D01*
X302702Y8501D01*
G37*
%LPD*%
%LPC*%
G36*
X391701Y148701D02*
X391701Y148701D01*
X388008Y150231D01*
X385181Y153058D01*
X383651Y156751D01*
X383651Y160749D01*
X385181Y164442D01*
X388008Y167269D01*
X391701Y168799D01*
X395699Y168799D01*
X399392Y167269D01*
X402219Y164442D01*
X403749Y160749D01*
X403749Y156751D01*
X402219Y153058D01*
X399392Y150231D01*
X395699Y148701D01*
X391701Y148701D01*
G37*
%LPD*%
%LPC*%
G36*
X265047Y188539D02*
X265047Y188539D01*
X261992Y189805D01*
X259655Y192142D01*
X258389Y195197D01*
X258389Y198503D01*
X259655Y201558D01*
X261992Y203895D01*
X265047Y205161D01*
X268353Y205161D01*
X271408Y203895D01*
X273745Y201558D01*
X275011Y198503D01*
X275011Y195197D01*
X273745Y192142D01*
X271408Y189805D01*
X268353Y188539D01*
X265047Y188539D01*
G37*
%LPD*%
%LPC*%
G36*
X36447Y188539D02*
X36447Y188539D01*
X33392Y189805D01*
X31055Y192142D01*
X29789Y195197D01*
X29789Y198503D01*
X31055Y201558D01*
X33392Y203895D01*
X36447Y205161D01*
X39753Y205161D01*
X42808Y203895D01*
X45145Y201558D01*
X46411Y198503D01*
X46411Y195197D01*
X45145Y192142D01*
X42808Y189805D01*
X39753Y188539D01*
X36447Y188539D01*
G37*
%LPD*%
%LPC*%
G36*
X61847Y188539D02*
X61847Y188539D01*
X58792Y189805D01*
X56455Y192142D01*
X55189Y195197D01*
X55189Y198503D01*
X56455Y201558D01*
X58792Y203895D01*
X61847Y205161D01*
X65153Y205161D01*
X68208Y203895D01*
X70545Y201558D01*
X71811Y198503D01*
X71811Y195197D01*
X70545Y192142D01*
X68208Y189805D01*
X65153Y188539D01*
X61847Y188539D01*
G37*
%LPD*%
%LPC*%
G36*
X417447Y188539D02*
X417447Y188539D01*
X414392Y189805D01*
X412055Y192142D01*
X410789Y195197D01*
X410789Y198503D01*
X412055Y201558D01*
X414392Y203895D01*
X417447Y205161D01*
X420753Y205161D01*
X423808Y203895D01*
X426145Y201558D01*
X427411Y198503D01*
X427411Y195197D01*
X426145Y192142D01*
X423808Y189805D01*
X420753Y188539D01*
X417447Y188539D01*
G37*
%LPD*%
%LPC*%
G36*
X341247Y188539D02*
X341247Y188539D01*
X338192Y189805D01*
X335855Y192142D01*
X334589Y195197D01*
X334589Y198503D01*
X335855Y201558D01*
X338192Y203895D01*
X341247Y205161D01*
X344553Y205161D01*
X347608Y203895D01*
X349945Y201558D01*
X351211Y198503D01*
X351211Y195197D01*
X349945Y192142D01*
X347608Y189805D01*
X344553Y188539D01*
X341247Y188539D01*
G37*
%LPD*%
%LPC*%
G36*
X315847Y188539D02*
X315847Y188539D01*
X312792Y189805D01*
X310455Y192142D01*
X309189Y195197D01*
X309189Y198503D01*
X310455Y201558D01*
X312792Y203895D01*
X315847Y205161D01*
X319153Y205161D01*
X322208Y203895D01*
X324545Y201558D01*
X325811Y198503D01*
X325811Y195197D01*
X324545Y192142D01*
X322208Y189805D01*
X319153Y188539D01*
X315847Y188539D01*
G37*
%LPD*%
%LPC*%
G36*
X290447Y188539D02*
X290447Y188539D01*
X287392Y189805D01*
X285055Y192142D01*
X283789Y195197D01*
X283789Y198503D01*
X285055Y201558D01*
X287392Y203895D01*
X290447Y205161D01*
X293753Y205161D01*
X296808Y203895D01*
X299145Y201558D01*
X300411Y198503D01*
X300411Y195197D01*
X299145Y192142D01*
X296808Y189805D01*
X293753Y188539D01*
X290447Y188539D01*
G37*
%LPD*%
%LPC*%
G36*
X74547Y169489D02*
X74547Y169489D01*
X71492Y170755D01*
X69155Y173092D01*
X67889Y176147D01*
X67889Y179453D01*
X69155Y182508D01*
X71492Y184845D01*
X74547Y186111D01*
X77853Y186111D01*
X80908Y184845D01*
X83245Y182508D01*
X84511Y179453D01*
X84511Y176147D01*
X83245Y173092D01*
X80908Y170755D01*
X77853Y169489D01*
X74547Y169489D01*
G37*
%LPD*%
%LPC*%
G36*
X99947Y169489D02*
X99947Y169489D01*
X96892Y170755D01*
X94555Y173092D01*
X93289Y176147D01*
X93289Y179453D01*
X94555Y182508D01*
X96892Y184845D01*
X99947Y186111D01*
X103253Y186111D01*
X106308Y184845D01*
X108645Y182508D01*
X109911Y179453D01*
X109911Y176147D01*
X108645Y173092D01*
X106308Y170755D01*
X103253Y169489D01*
X99947Y169489D01*
G37*
%LPD*%
%LPC*%
G36*
X125347Y169489D02*
X125347Y169489D01*
X122292Y170755D01*
X119955Y173092D01*
X118689Y176147D01*
X118689Y179453D01*
X119955Y182508D01*
X122292Y184845D01*
X125347Y186111D01*
X128653Y186111D01*
X131708Y184845D01*
X134045Y182508D01*
X135311Y179453D01*
X135311Y176147D01*
X134045Y173092D01*
X131708Y170755D01*
X128653Y169489D01*
X125347Y169489D01*
G37*
%LPD*%
%LPC*%
G36*
X150747Y169489D02*
X150747Y169489D01*
X147692Y170755D01*
X145355Y173092D01*
X144089Y176147D01*
X144089Y179453D01*
X145355Y182508D01*
X147692Y184845D01*
X150747Y186111D01*
X154053Y186111D01*
X157108Y184845D01*
X159445Y182508D01*
X160711Y179453D01*
X160711Y176147D01*
X159445Y173092D01*
X157108Y170755D01*
X154053Y169489D01*
X150747Y169489D01*
G37*
%LPD*%
%LPC*%
G36*
X176147Y169489D02*
X176147Y169489D01*
X173092Y170755D01*
X170755Y173092D01*
X169489Y176147D01*
X169489Y179453D01*
X170755Y182508D01*
X173092Y184845D01*
X176147Y186111D01*
X179453Y186111D01*
X182508Y184845D01*
X184845Y182508D01*
X186111Y179453D01*
X186111Y176147D01*
X184845Y173092D01*
X182508Y170755D01*
X179453Y169489D01*
X176147Y169489D01*
G37*
%LPD*%
%LPC*%
G36*
X138047Y188539D02*
X138047Y188539D01*
X134992Y189805D01*
X132655Y192142D01*
X131389Y195197D01*
X131389Y198503D01*
X132655Y201558D01*
X134992Y203895D01*
X138047Y205161D01*
X141353Y205161D01*
X144408Y203895D01*
X146745Y201558D01*
X148011Y198503D01*
X148011Y195197D01*
X146745Y192142D01*
X144408Y189805D01*
X141353Y188539D01*
X138047Y188539D01*
G37*
%LPD*%
%LPC*%
G36*
X23747Y169489D02*
X23747Y169489D01*
X20692Y170755D01*
X18355Y173092D01*
X17089Y176147D01*
X17089Y179453D01*
X18355Y182508D01*
X20692Y184845D01*
X23747Y186111D01*
X27053Y186111D01*
X30108Y184845D01*
X32445Y182508D01*
X33711Y179453D01*
X33711Y176147D01*
X32445Y173092D01*
X30108Y170755D01*
X27053Y169489D01*
X23747Y169489D01*
G37*
%LPD*%
%LPC*%
G36*
X252347Y169489D02*
X252347Y169489D01*
X249292Y170755D01*
X246955Y173092D01*
X245689Y176147D01*
X245689Y179453D01*
X246955Y182508D01*
X249292Y184845D01*
X252347Y186111D01*
X255653Y186111D01*
X258708Y184845D01*
X261045Y182508D01*
X262311Y179453D01*
X262311Y176147D01*
X261045Y173092D01*
X258708Y170755D01*
X255653Y169489D01*
X252347Y169489D01*
G37*
%LPD*%
%LPC*%
G36*
X49147Y169489D02*
X49147Y169489D01*
X46092Y170755D01*
X43755Y173092D01*
X42489Y176147D01*
X42489Y179453D01*
X43755Y182508D01*
X46092Y184845D01*
X49147Y186111D01*
X52453Y186111D01*
X55508Y184845D01*
X57845Y182508D01*
X59111Y179453D01*
X59111Y176147D01*
X57845Y173092D01*
X55508Y170755D01*
X52453Y169489D01*
X49147Y169489D01*
G37*
%LPD*%
%LPC*%
G36*
X87247Y188539D02*
X87247Y188539D01*
X84192Y189805D01*
X81855Y192142D01*
X80589Y195197D01*
X80589Y198503D01*
X81855Y201558D01*
X84192Y203895D01*
X87247Y205161D01*
X90553Y205161D01*
X93608Y203895D01*
X95945Y201558D01*
X97211Y198503D01*
X97211Y195197D01*
X95945Y192142D01*
X93608Y189805D01*
X90553Y188539D01*
X87247Y188539D01*
G37*
%LPD*%
%LPC*%
G36*
X417447Y150439D02*
X417447Y150439D01*
X414392Y151705D01*
X412055Y154042D01*
X410789Y157097D01*
X410789Y160403D01*
X412055Y163458D01*
X414392Y165795D01*
X417447Y167061D01*
X420753Y167061D01*
X423808Y165795D01*
X426145Y163458D01*
X427411Y160403D01*
X427411Y157097D01*
X426145Y154042D01*
X423808Y151705D01*
X420753Y150439D01*
X417447Y150439D01*
G37*
%LPD*%
%LPC*%
G36*
X239647Y150439D02*
X239647Y150439D01*
X236592Y151705D01*
X234255Y154042D01*
X232989Y157097D01*
X232989Y160403D01*
X234255Y163458D01*
X236592Y165795D01*
X239647Y167061D01*
X242953Y167061D01*
X246008Y165795D01*
X248345Y163458D01*
X249611Y160403D01*
X249611Y157097D01*
X248345Y154042D01*
X246008Y151705D01*
X242953Y150439D01*
X239647Y150439D01*
G37*
%LPD*%
%LPC*%
G36*
X138047Y150439D02*
X138047Y150439D01*
X134992Y151705D01*
X132655Y154042D01*
X131389Y157097D01*
X131389Y160403D01*
X132655Y163458D01*
X134992Y165795D01*
X138047Y167061D01*
X141353Y167061D01*
X144408Y165795D01*
X146745Y163458D01*
X148011Y160403D01*
X148011Y157097D01*
X146745Y154042D01*
X144408Y151705D01*
X141353Y150439D01*
X138047Y150439D01*
G37*
%LPD*%
%LPC*%
G36*
X112647Y150439D02*
X112647Y150439D01*
X109592Y151705D01*
X107255Y154042D01*
X105989Y157097D01*
X105989Y160403D01*
X107255Y163458D01*
X109592Y165795D01*
X112647Y167061D01*
X115953Y167061D01*
X119008Y165795D01*
X121345Y163458D01*
X122611Y160403D01*
X122611Y157097D01*
X121345Y154042D01*
X119008Y151705D01*
X115953Y150439D01*
X112647Y150439D01*
G37*
%LPD*%
%LPC*%
G36*
X87247Y150439D02*
X87247Y150439D01*
X84192Y151705D01*
X81855Y154042D01*
X80589Y157097D01*
X80589Y160403D01*
X81855Y163458D01*
X84192Y165795D01*
X87247Y167061D01*
X90553Y167061D01*
X93608Y165795D01*
X95945Y163458D01*
X97211Y160403D01*
X97211Y157097D01*
X95945Y154042D01*
X93608Y151705D01*
X90553Y150439D01*
X87247Y150439D01*
G37*
%LPD*%
%LPC*%
G36*
X36447Y150439D02*
X36447Y150439D01*
X33392Y151705D01*
X31055Y154042D01*
X29789Y157097D01*
X29789Y160403D01*
X31055Y163458D01*
X33392Y165795D01*
X36447Y167061D01*
X39753Y167061D01*
X42808Y165795D01*
X45145Y163458D01*
X46411Y160403D01*
X46411Y157097D01*
X45145Y154042D01*
X42808Y151705D01*
X39753Y150439D01*
X36447Y150439D01*
G37*
%LPD*%
%LPC*%
G36*
X112647Y188539D02*
X112647Y188539D01*
X109592Y189805D01*
X107255Y192142D01*
X105989Y195197D01*
X105989Y198503D01*
X107255Y201558D01*
X109592Y203895D01*
X112647Y205161D01*
X115953Y205161D01*
X119008Y203895D01*
X121345Y201558D01*
X122611Y198503D01*
X122611Y195197D01*
X121345Y192142D01*
X119008Y189805D01*
X115953Y188539D01*
X112647Y188539D01*
G37*
%LPD*%
%LPC*%
G36*
X163447Y188539D02*
X163447Y188539D01*
X160392Y189805D01*
X158055Y192142D01*
X156789Y195197D01*
X156789Y198503D01*
X158055Y201558D01*
X160392Y203895D01*
X163447Y205161D01*
X166753Y205161D01*
X169808Y203895D01*
X172145Y201558D01*
X173411Y198503D01*
X173411Y195197D01*
X172145Y192142D01*
X169808Y189805D01*
X166753Y188539D01*
X163447Y188539D01*
G37*
%LPD*%
%LPC*%
G36*
X404747Y169489D02*
X404747Y169489D01*
X401692Y170755D01*
X399355Y173092D01*
X398089Y176147D01*
X398089Y179453D01*
X399355Y182508D01*
X401692Y184845D01*
X404747Y186111D01*
X408053Y186111D01*
X411108Y184845D01*
X413445Y182508D01*
X414711Y179453D01*
X414711Y176147D01*
X413445Y173092D01*
X411108Y170755D01*
X408053Y169489D01*
X404747Y169489D01*
G37*
%LPD*%
%LPC*%
G36*
X188847Y188539D02*
X188847Y188539D01*
X185792Y189805D01*
X183455Y192142D01*
X182189Y195197D01*
X182189Y198503D01*
X183455Y201558D01*
X185792Y203895D01*
X188847Y205161D01*
X192153Y205161D01*
X195208Y203895D01*
X197545Y201558D01*
X198811Y198503D01*
X198811Y195197D01*
X197545Y192142D01*
X195208Y189805D01*
X192153Y188539D01*
X188847Y188539D01*
G37*
%LPD*%
%LPC*%
G36*
X239647Y188539D02*
X239647Y188539D01*
X236592Y189805D01*
X234255Y192142D01*
X232989Y195197D01*
X232989Y198503D01*
X234255Y201558D01*
X236592Y203895D01*
X239647Y205161D01*
X242953Y205161D01*
X246008Y203895D01*
X248345Y201558D01*
X249611Y198503D01*
X249611Y195197D01*
X248345Y192142D01*
X246008Y189805D01*
X242953Y188539D01*
X239647Y188539D01*
G37*
%LPD*%
%LPC*%
G36*
X248767Y133857D02*
X248767Y133857D01*
X248767Y141359D01*
X252621Y141359D01*
X253397Y141151D01*
X254092Y140750D01*
X254660Y140182D01*
X255061Y139487D01*
X255269Y138711D01*
X255269Y133857D01*
X248767Y133857D01*
G37*
%LPD*%
%LPC*%
G36*
X248767Y120261D02*
X248767Y120261D01*
X248767Y127763D01*
X255269Y127763D01*
X255269Y122909D01*
X255061Y122133D01*
X254660Y121438D01*
X254092Y120870D01*
X253397Y120469D01*
X252621Y120261D01*
X248767Y120261D01*
G37*
%LPD*%
%LPC*%
G36*
X48261Y133857D02*
X48261Y133857D01*
X48261Y138711D01*
X48469Y139487D01*
X48870Y140182D01*
X49438Y140750D01*
X50133Y141151D01*
X50909Y141359D01*
X54763Y141359D01*
X54763Y133857D01*
X48261Y133857D01*
G37*
%LPD*%
%LPC*%
G36*
X50909Y120261D02*
X50909Y120261D01*
X50133Y120469D01*
X49438Y120870D01*
X48870Y121438D01*
X48469Y122133D01*
X48261Y122909D01*
X48261Y127763D01*
X54763Y127763D01*
X54763Y120261D01*
X50909Y120261D01*
G37*
%LPD*%
%LPC*%
G36*
X188043Y64601D02*
X188043Y64601D01*
X188043Y67877D01*
X196944Y67877D01*
X196944Y67249D01*
X196736Y66473D01*
X196335Y65778D01*
X195767Y65210D01*
X195072Y64809D01*
X194296Y64601D01*
X188043Y64601D01*
G37*
%LPD*%
%LPC*%
G36*
X178744Y64601D02*
X178744Y64601D01*
X177968Y64809D01*
X177273Y65210D01*
X176705Y65778D01*
X176304Y66473D01*
X176096Y67249D01*
X176096Y67877D01*
X184997Y67877D01*
X184997Y64601D01*
X178744Y64601D01*
G37*
%LPD*%
D10*
X368045Y125222D02*
X368154Y125224D01*
X368262Y125230D01*
X368371Y125239D01*
X368479Y125253D01*
X368586Y125270D01*
X368693Y125292D01*
X368799Y125317D01*
X368904Y125345D01*
X369008Y125378D01*
X369110Y125414D01*
X369211Y125454D01*
X369311Y125497D01*
X369409Y125544D01*
X369506Y125595D01*
X369600Y125649D01*
X369693Y125706D01*
X369783Y125766D01*
X369872Y125830D01*
X369958Y125897D01*
X370041Y125966D01*
X370122Y126039D01*
X370200Y126115D01*
X370276Y126193D01*
X370349Y126274D01*
X370418Y126357D01*
X370485Y126443D01*
X370549Y126532D01*
X370609Y126622D01*
X370666Y126715D01*
X370720Y126809D01*
X370771Y126906D01*
X370818Y127004D01*
X370861Y127104D01*
X370901Y127205D01*
X370937Y127307D01*
X370970Y127411D01*
X370998Y127516D01*
X371023Y127622D01*
X371045Y127729D01*
X371062Y127836D01*
X371076Y127944D01*
X371085Y128053D01*
X371091Y128161D01*
X371093Y128270D01*
X368045Y125222D02*
X367886Y125224D01*
X367727Y125230D01*
X367569Y125240D01*
X367411Y125253D01*
X367253Y125271D01*
X367095Y125292D01*
X366938Y125318D01*
X366782Y125347D01*
X366627Y125380D01*
X366472Y125417D01*
X366319Y125458D01*
X366166Y125502D01*
X366015Y125550D01*
X365865Y125602D01*
X365716Y125658D01*
X365568Y125717D01*
X365423Y125780D01*
X365278Y125847D01*
X365136Y125917D01*
X364995Y125990D01*
X364856Y126067D01*
X364719Y126148D01*
X364584Y126231D01*
X364451Y126318D01*
X364320Y126409D01*
X364192Y126502D01*
X364066Y126599D01*
X363942Y126699D01*
X363821Y126801D01*
X363702Y126907D01*
X363586Y127016D01*
X363473Y127127D01*
X363854Y135890D02*
X363856Y135999D01*
X363862Y136107D01*
X363871Y136216D01*
X363885Y136324D01*
X363902Y136431D01*
X363924Y136538D01*
X363949Y136644D01*
X363977Y136749D01*
X364010Y136853D01*
X364046Y136955D01*
X364086Y137056D01*
X364129Y137156D01*
X364176Y137254D01*
X364227Y137351D01*
X364281Y137445D01*
X364338Y137538D01*
X364398Y137628D01*
X364462Y137717D01*
X364529Y137803D01*
X364598Y137886D01*
X364671Y137967D01*
X364747Y138045D01*
X364825Y138121D01*
X364906Y138194D01*
X364989Y138263D01*
X365075Y138330D01*
X365164Y138394D01*
X365254Y138454D01*
X365347Y138511D01*
X365441Y138565D01*
X365538Y138616D01*
X365636Y138663D01*
X365736Y138706D01*
X365837Y138746D01*
X365939Y138782D01*
X366043Y138815D01*
X366148Y138843D01*
X366254Y138868D01*
X366361Y138890D01*
X366468Y138907D01*
X366576Y138921D01*
X366685Y138930D01*
X366793Y138936D01*
X366902Y138938D01*
X367049Y138936D01*
X367196Y138930D01*
X367343Y138921D01*
X367489Y138908D01*
X367635Y138891D01*
X367781Y138870D01*
X367926Y138845D01*
X368071Y138817D01*
X368214Y138785D01*
X368357Y138750D01*
X368499Y138710D01*
X368639Y138668D01*
X368779Y138621D01*
X368917Y138571D01*
X369054Y138517D01*
X369190Y138460D01*
X369324Y138400D01*
X369456Y138335D01*
X369587Y138268D01*
X369716Y138197D01*
X369843Y138123D01*
X369968Y138046D01*
X370091Y137965D01*
X370212Y137882D01*
X370331Y137795D01*
X365378Y133223D02*
X365284Y133281D01*
X365191Y133342D01*
X365101Y133407D01*
X365014Y133474D01*
X364928Y133545D01*
X364846Y133619D01*
X364766Y133696D01*
X364689Y133775D01*
X364614Y133858D01*
X364543Y133943D01*
X364475Y134030D01*
X364410Y134120D01*
X364348Y134212D01*
X364290Y134306D01*
X364235Y134402D01*
X364183Y134500D01*
X364135Y134600D01*
X364091Y134702D01*
X364050Y134805D01*
X364013Y134910D01*
X363980Y135015D01*
X363951Y135122D01*
X363925Y135230D01*
X363903Y135339D01*
X363886Y135448D01*
X363872Y135558D01*
X363862Y135668D01*
X363856Y135779D01*
X363854Y135890D01*
X369569Y130937D02*
X369663Y130879D01*
X369756Y130818D01*
X369846Y130753D01*
X369933Y130686D01*
X370019Y130615D01*
X370101Y130541D01*
X370181Y130464D01*
X370258Y130385D01*
X370333Y130302D01*
X370404Y130217D01*
X370472Y130130D01*
X370537Y130040D01*
X370599Y129948D01*
X370657Y129854D01*
X370712Y129758D01*
X370764Y129660D01*
X370812Y129560D01*
X370856Y129458D01*
X370897Y129355D01*
X370934Y129250D01*
X370967Y129145D01*
X370996Y129038D01*
X371022Y128930D01*
X371044Y128821D01*
X371061Y128712D01*
X371075Y128602D01*
X371085Y128492D01*
X371091Y128381D01*
X371093Y128270D01*
X369569Y130937D02*
X365378Y133223D01*
X378680Y138938D02*
X378680Y125222D01*
X377156Y125222D02*
X380204Y125222D01*
X380204Y138938D02*
X377156Y138938D01*
X386763Y135128D02*
X386763Y129032D01*
X386763Y135128D02*
X386765Y135250D01*
X386771Y135372D01*
X386781Y135494D01*
X386794Y135615D01*
X386812Y135736D01*
X386833Y135856D01*
X386859Y135976D01*
X386888Y136094D01*
X386920Y136212D01*
X386957Y136329D01*
X386997Y136444D01*
X387041Y136558D01*
X387089Y136670D01*
X387140Y136781D01*
X387195Y136890D01*
X387253Y136998D01*
X387315Y137103D01*
X387380Y137206D01*
X387448Y137308D01*
X387520Y137407D01*
X387594Y137503D01*
X387672Y137598D01*
X387753Y137689D01*
X387836Y137779D01*
X387922Y137865D01*
X388012Y137948D01*
X388103Y138029D01*
X388198Y138107D01*
X388294Y138181D01*
X388393Y138253D01*
X388495Y138321D01*
X388598Y138386D01*
X388703Y138448D01*
X388811Y138506D01*
X388920Y138561D01*
X389031Y138612D01*
X389143Y138660D01*
X389257Y138704D01*
X389372Y138744D01*
X389489Y138781D01*
X389607Y138813D01*
X389725Y138842D01*
X389845Y138868D01*
X389965Y138889D01*
X390086Y138907D01*
X390207Y138920D01*
X390329Y138930D01*
X390451Y138936D01*
X390573Y138938D01*
X390695Y138936D01*
X390817Y138930D01*
X390939Y138920D01*
X391060Y138907D01*
X391181Y138889D01*
X391301Y138868D01*
X391421Y138842D01*
X391539Y138813D01*
X391657Y138781D01*
X391774Y138744D01*
X391889Y138704D01*
X392003Y138660D01*
X392115Y138612D01*
X392226Y138561D01*
X392335Y138506D01*
X392443Y138448D01*
X392548Y138386D01*
X392651Y138321D01*
X392753Y138253D01*
X392852Y138181D01*
X392948Y138107D01*
X393043Y138029D01*
X393134Y137948D01*
X393224Y137865D01*
X393310Y137779D01*
X393393Y137689D01*
X393474Y137598D01*
X393552Y137503D01*
X393626Y137407D01*
X393698Y137308D01*
X393766Y137206D01*
X393831Y137103D01*
X393893Y136998D01*
X393951Y136890D01*
X394006Y136781D01*
X394057Y136670D01*
X394105Y136558D01*
X394149Y136444D01*
X394189Y136329D01*
X394226Y136212D01*
X394258Y136094D01*
X394287Y135976D01*
X394313Y135856D01*
X394334Y135736D01*
X394352Y135615D01*
X394365Y135494D01*
X394375Y135372D01*
X394381Y135250D01*
X394383Y135128D01*
X394383Y129032D01*
X394381Y128910D01*
X394375Y128788D01*
X394365Y128666D01*
X394352Y128545D01*
X394334Y128424D01*
X394313Y128304D01*
X394287Y128184D01*
X394258Y128066D01*
X394226Y127948D01*
X394189Y127831D01*
X394149Y127716D01*
X394105Y127602D01*
X394057Y127490D01*
X394006Y127379D01*
X393951Y127270D01*
X393893Y127162D01*
X393831Y127057D01*
X393766Y126954D01*
X393698Y126852D01*
X393626Y126753D01*
X393552Y126657D01*
X393474Y126562D01*
X393393Y126471D01*
X393310Y126381D01*
X393224Y126295D01*
X393134Y126212D01*
X393043Y126131D01*
X392948Y126053D01*
X392852Y125979D01*
X392753Y125907D01*
X392651Y125839D01*
X392548Y125774D01*
X392443Y125712D01*
X392335Y125654D01*
X392226Y125599D01*
X392115Y125548D01*
X392003Y125500D01*
X391889Y125456D01*
X391774Y125416D01*
X391657Y125379D01*
X391539Y125347D01*
X391421Y125318D01*
X391301Y125292D01*
X391181Y125271D01*
X391060Y125253D01*
X390939Y125240D01*
X390817Y125230D01*
X390695Y125224D01*
X390573Y125222D01*
X390451Y125224D01*
X390329Y125230D01*
X390207Y125240D01*
X390086Y125253D01*
X389965Y125271D01*
X389845Y125292D01*
X389725Y125318D01*
X389607Y125347D01*
X389489Y125379D01*
X389372Y125416D01*
X389257Y125456D01*
X389143Y125500D01*
X389031Y125548D01*
X388920Y125599D01*
X388811Y125654D01*
X388703Y125712D01*
X388598Y125774D01*
X388495Y125839D01*
X388393Y125907D01*
X388294Y125979D01*
X388198Y126053D01*
X388103Y126131D01*
X388012Y126212D01*
X387922Y126295D01*
X387836Y126381D01*
X387753Y126471D01*
X387672Y126562D01*
X387594Y126657D01*
X387520Y126753D01*
X387448Y126852D01*
X387380Y126954D01*
X387315Y127057D01*
X387253Y127162D01*
X387195Y127270D01*
X387140Y127379D01*
X387089Y127490D01*
X387041Y127602D01*
X386997Y127716D01*
X386957Y127831D01*
X386920Y127948D01*
X386888Y128066D01*
X386859Y128184D01*
X386833Y128304D01*
X386812Y128424D01*
X386794Y128545D01*
X386781Y128666D01*
X386771Y128788D01*
X386765Y128910D01*
X386763Y129032D01*
X408795Y125222D02*
X417939Y138938D01*
X408795Y138938D02*
X417939Y125222D01*
X428499Y125222D02*
X428608Y125224D01*
X428716Y125230D01*
X428825Y125239D01*
X428933Y125253D01*
X429040Y125270D01*
X429147Y125292D01*
X429253Y125317D01*
X429358Y125345D01*
X429462Y125378D01*
X429564Y125414D01*
X429665Y125454D01*
X429765Y125497D01*
X429863Y125544D01*
X429960Y125595D01*
X430054Y125649D01*
X430147Y125706D01*
X430237Y125766D01*
X430326Y125830D01*
X430412Y125897D01*
X430495Y125966D01*
X430576Y126039D01*
X430654Y126115D01*
X430730Y126193D01*
X430803Y126274D01*
X430872Y126357D01*
X430939Y126443D01*
X431003Y126532D01*
X431063Y126622D01*
X431120Y126715D01*
X431174Y126809D01*
X431225Y126906D01*
X431272Y127004D01*
X431315Y127104D01*
X431355Y127205D01*
X431391Y127307D01*
X431424Y127411D01*
X431452Y127516D01*
X431477Y127622D01*
X431499Y127729D01*
X431516Y127836D01*
X431530Y127944D01*
X431539Y128053D01*
X431545Y128161D01*
X431547Y128270D01*
X428499Y125222D02*
X428340Y125224D01*
X428181Y125230D01*
X428023Y125240D01*
X427865Y125253D01*
X427707Y125271D01*
X427549Y125292D01*
X427392Y125318D01*
X427236Y125347D01*
X427081Y125380D01*
X426926Y125417D01*
X426773Y125458D01*
X426620Y125502D01*
X426469Y125550D01*
X426319Y125602D01*
X426170Y125658D01*
X426022Y125717D01*
X425877Y125780D01*
X425732Y125847D01*
X425590Y125917D01*
X425449Y125990D01*
X425310Y126067D01*
X425173Y126148D01*
X425038Y126231D01*
X424905Y126318D01*
X424774Y126409D01*
X424646Y126502D01*
X424520Y126599D01*
X424396Y126699D01*
X424275Y126801D01*
X424156Y126907D01*
X424040Y127016D01*
X423927Y127127D01*
X424308Y135890D02*
X424310Y135999D01*
X424316Y136107D01*
X424325Y136216D01*
X424339Y136324D01*
X424356Y136431D01*
X424378Y136538D01*
X424403Y136644D01*
X424431Y136749D01*
X424464Y136853D01*
X424500Y136955D01*
X424540Y137056D01*
X424583Y137156D01*
X424630Y137254D01*
X424681Y137351D01*
X424735Y137445D01*
X424792Y137538D01*
X424852Y137628D01*
X424916Y137717D01*
X424983Y137803D01*
X425052Y137886D01*
X425125Y137967D01*
X425201Y138045D01*
X425279Y138121D01*
X425360Y138194D01*
X425443Y138263D01*
X425529Y138330D01*
X425618Y138394D01*
X425708Y138454D01*
X425801Y138511D01*
X425895Y138565D01*
X425992Y138616D01*
X426090Y138663D01*
X426190Y138706D01*
X426291Y138746D01*
X426393Y138782D01*
X426497Y138815D01*
X426602Y138843D01*
X426708Y138868D01*
X426815Y138890D01*
X426922Y138907D01*
X427030Y138921D01*
X427139Y138930D01*
X427247Y138936D01*
X427356Y138938D01*
X427503Y138936D01*
X427650Y138930D01*
X427797Y138921D01*
X427943Y138908D01*
X428089Y138891D01*
X428235Y138870D01*
X428380Y138845D01*
X428525Y138817D01*
X428668Y138785D01*
X428811Y138750D01*
X428953Y138710D01*
X429093Y138668D01*
X429233Y138621D01*
X429371Y138571D01*
X429508Y138517D01*
X429644Y138460D01*
X429778Y138400D01*
X429910Y138335D01*
X430041Y138268D01*
X430170Y138197D01*
X430297Y138123D01*
X430422Y138046D01*
X430545Y137965D01*
X430666Y137882D01*
X430785Y137795D01*
X425832Y133223D02*
X425738Y133281D01*
X425645Y133342D01*
X425555Y133407D01*
X425468Y133474D01*
X425382Y133545D01*
X425300Y133619D01*
X425220Y133696D01*
X425143Y133775D01*
X425068Y133858D01*
X424997Y133943D01*
X424929Y134030D01*
X424864Y134120D01*
X424802Y134212D01*
X424744Y134306D01*
X424689Y134402D01*
X424637Y134500D01*
X424589Y134600D01*
X424545Y134702D01*
X424504Y134805D01*
X424467Y134910D01*
X424434Y135015D01*
X424405Y135122D01*
X424379Y135230D01*
X424357Y135339D01*
X424340Y135448D01*
X424326Y135558D01*
X424316Y135668D01*
X424310Y135779D01*
X424308Y135890D01*
X430023Y130937D02*
X430117Y130879D01*
X430210Y130818D01*
X430300Y130753D01*
X430387Y130686D01*
X430473Y130615D01*
X430555Y130541D01*
X430635Y130464D01*
X430712Y130385D01*
X430787Y130302D01*
X430858Y130217D01*
X430926Y130130D01*
X430991Y130040D01*
X431053Y129948D01*
X431111Y129854D01*
X431166Y129758D01*
X431218Y129660D01*
X431266Y129560D01*
X431310Y129458D01*
X431351Y129355D01*
X431388Y129250D01*
X431421Y129145D01*
X431450Y129038D01*
X431476Y128930D01*
X431498Y128821D01*
X431515Y128712D01*
X431529Y128602D01*
X431539Y128492D01*
X431545Y128381D01*
X431547Y128270D01*
X430023Y130937D02*
X425832Y133223D01*
X308631Y138938D02*
X308631Y125222D01*
X308631Y138938D02*
X312441Y138938D01*
X312563Y138936D01*
X312685Y138930D01*
X312807Y138920D01*
X312928Y138907D01*
X313049Y138889D01*
X313169Y138868D01*
X313289Y138842D01*
X313407Y138813D01*
X313525Y138781D01*
X313642Y138744D01*
X313757Y138704D01*
X313871Y138660D01*
X313983Y138612D01*
X314094Y138561D01*
X314203Y138506D01*
X314311Y138448D01*
X314416Y138386D01*
X314519Y138321D01*
X314621Y138253D01*
X314720Y138181D01*
X314816Y138107D01*
X314911Y138029D01*
X315002Y137948D01*
X315092Y137865D01*
X315178Y137779D01*
X315261Y137689D01*
X315342Y137598D01*
X315420Y137503D01*
X315494Y137407D01*
X315566Y137308D01*
X315634Y137206D01*
X315699Y137103D01*
X315761Y136998D01*
X315819Y136890D01*
X315874Y136781D01*
X315925Y136670D01*
X315973Y136558D01*
X316017Y136444D01*
X316057Y136329D01*
X316094Y136212D01*
X316126Y136094D01*
X316155Y135976D01*
X316181Y135856D01*
X316202Y135736D01*
X316220Y135615D01*
X316233Y135494D01*
X316243Y135372D01*
X316249Y135250D01*
X316251Y135128D01*
X316249Y135006D01*
X316243Y134884D01*
X316233Y134762D01*
X316220Y134641D01*
X316202Y134520D01*
X316181Y134400D01*
X316155Y134280D01*
X316126Y134162D01*
X316094Y134044D01*
X316057Y133927D01*
X316017Y133812D01*
X315973Y133698D01*
X315925Y133586D01*
X315874Y133475D01*
X315819Y133366D01*
X315761Y133258D01*
X315699Y133153D01*
X315634Y133050D01*
X315566Y132948D01*
X315494Y132849D01*
X315420Y132753D01*
X315342Y132658D01*
X315261Y132567D01*
X315178Y132477D01*
X315092Y132391D01*
X315002Y132308D01*
X314911Y132227D01*
X314816Y132149D01*
X314720Y132075D01*
X314621Y132003D01*
X314519Y131935D01*
X314416Y131870D01*
X314311Y131808D01*
X314203Y131750D01*
X314094Y131695D01*
X313983Y131644D01*
X313871Y131596D01*
X313757Y131552D01*
X313642Y131512D01*
X313525Y131475D01*
X313407Y131443D01*
X313289Y131414D01*
X313169Y131388D01*
X313049Y131367D01*
X312928Y131349D01*
X312807Y131336D01*
X312685Y131326D01*
X312563Y131320D01*
X312441Y131318D01*
X308631Y131318D01*
X326731Y125222D02*
X326840Y125224D01*
X326948Y125230D01*
X327057Y125239D01*
X327165Y125253D01*
X327272Y125270D01*
X327379Y125292D01*
X327485Y125317D01*
X327590Y125345D01*
X327694Y125378D01*
X327796Y125414D01*
X327897Y125454D01*
X327997Y125497D01*
X328095Y125544D01*
X328192Y125595D01*
X328286Y125649D01*
X328379Y125706D01*
X328469Y125766D01*
X328558Y125830D01*
X328644Y125897D01*
X328727Y125966D01*
X328808Y126039D01*
X328886Y126115D01*
X328962Y126193D01*
X329035Y126274D01*
X329104Y126357D01*
X329171Y126443D01*
X329235Y126532D01*
X329295Y126622D01*
X329352Y126715D01*
X329406Y126809D01*
X329457Y126906D01*
X329504Y127004D01*
X329547Y127104D01*
X329587Y127205D01*
X329623Y127307D01*
X329656Y127411D01*
X329684Y127516D01*
X329709Y127622D01*
X329731Y127729D01*
X329748Y127836D01*
X329762Y127944D01*
X329771Y128053D01*
X329777Y128161D01*
X329779Y128270D01*
X326731Y125222D02*
X326572Y125224D01*
X326413Y125230D01*
X326255Y125240D01*
X326097Y125253D01*
X325939Y125271D01*
X325781Y125292D01*
X325624Y125318D01*
X325468Y125347D01*
X325313Y125380D01*
X325158Y125417D01*
X325005Y125458D01*
X324852Y125502D01*
X324701Y125550D01*
X324551Y125602D01*
X324402Y125658D01*
X324254Y125717D01*
X324109Y125780D01*
X323964Y125847D01*
X323822Y125917D01*
X323681Y125990D01*
X323542Y126067D01*
X323405Y126148D01*
X323270Y126231D01*
X323137Y126318D01*
X323006Y126409D01*
X322878Y126502D01*
X322752Y126599D01*
X322628Y126699D01*
X322507Y126801D01*
X322388Y126907D01*
X322272Y127016D01*
X322159Y127127D01*
X322540Y135890D02*
X322542Y135999D01*
X322548Y136107D01*
X322557Y136216D01*
X322571Y136324D01*
X322588Y136431D01*
X322610Y136538D01*
X322635Y136644D01*
X322663Y136749D01*
X322696Y136853D01*
X322732Y136955D01*
X322772Y137056D01*
X322815Y137156D01*
X322862Y137254D01*
X322913Y137351D01*
X322967Y137445D01*
X323024Y137538D01*
X323084Y137628D01*
X323148Y137717D01*
X323215Y137803D01*
X323284Y137886D01*
X323357Y137967D01*
X323433Y138045D01*
X323511Y138121D01*
X323592Y138194D01*
X323675Y138263D01*
X323761Y138330D01*
X323850Y138394D01*
X323940Y138454D01*
X324033Y138511D01*
X324127Y138565D01*
X324224Y138616D01*
X324322Y138663D01*
X324422Y138706D01*
X324523Y138746D01*
X324625Y138782D01*
X324729Y138815D01*
X324834Y138843D01*
X324940Y138868D01*
X325047Y138890D01*
X325154Y138907D01*
X325262Y138921D01*
X325371Y138930D01*
X325479Y138936D01*
X325588Y138938D01*
X325735Y138936D01*
X325882Y138930D01*
X326029Y138921D01*
X326175Y138908D01*
X326321Y138891D01*
X326467Y138870D01*
X326612Y138845D01*
X326757Y138817D01*
X326900Y138785D01*
X327043Y138750D01*
X327185Y138710D01*
X327325Y138668D01*
X327465Y138621D01*
X327603Y138571D01*
X327740Y138517D01*
X327876Y138460D01*
X328010Y138400D01*
X328142Y138335D01*
X328273Y138268D01*
X328402Y138197D01*
X328529Y138123D01*
X328654Y138046D01*
X328777Y137965D01*
X328898Y137882D01*
X329017Y137795D01*
X324064Y133223D02*
X323970Y133281D01*
X323877Y133342D01*
X323787Y133407D01*
X323700Y133474D01*
X323614Y133545D01*
X323532Y133619D01*
X323452Y133696D01*
X323375Y133775D01*
X323300Y133858D01*
X323229Y133943D01*
X323161Y134030D01*
X323096Y134120D01*
X323034Y134212D01*
X322976Y134306D01*
X322921Y134402D01*
X322869Y134500D01*
X322821Y134600D01*
X322777Y134702D01*
X322736Y134805D01*
X322699Y134910D01*
X322666Y135015D01*
X322637Y135122D01*
X322611Y135230D01*
X322589Y135339D01*
X322572Y135448D01*
X322558Y135558D01*
X322548Y135668D01*
X322542Y135779D01*
X322540Y135890D01*
X328256Y130937D02*
X328350Y130879D01*
X328443Y130818D01*
X328533Y130753D01*
X328620Y130686D01*
X328706Y130615D01*
X328788Y130541D01*
X328868Y130464D01*
X328945Y130385D01*
X329020Y130302D01*
X329091Y130217D01*
X329159Y130130D01*
X329224Y130040D01*
X329286Y129948D01*
X329344Y129854D01*
X329399Y129758D01*
X329451Y129660D01*
X329499Y129560D01*
X329543Y129458D01*
X329584Y129355D01*
X329621Y129250D01*
X329654Y129145D01*
X329683Y129038D01*
X329709Y128930D01*
X329731Y128821D01*
X329748Y128712D01*
X329762Y128602D01*
X329772Y128492D01*
X329778Y128381D01*
X329780Y128270D01*
X328255Y130937D02*
X324064Y133223D01*
X336529Y135890D02*
X340339Y138938D01*
X340339Y125222D01*
X336529Y125222D02*
X344149Y125222D01*
D11*
X361950Y76200D03*
X381000Y95250D03*
X323850Y38100D03*
X304800Y19050D03*
D12*
X76810Y130810D03*
X57810Y130810D03*
X184810Y130810D03*
X203810Y130810D03*
X100990Y130810D03*
X119990Y130810D03*
X161900Y130810D03*
X142900Y130810D03*
X245720Y130810D03*
X226720Y130810D03*
D11*
X342900Y57150D03*
D13*
X186520Y108400D03*
X186520Y101900D03*
X186520Y95400D03*
X186520Y88900D03*
X186520Y82400D03*
X186520Y75900D03*
X186520Y69400D03*
X245280Y69400D03*
X245280Y75900D03*
X245280Y82400D03*
X245280Y88900D03*
X245280Y95400D03*
X245280Y101900D03*
X245280Y108400D03*
D14*
X63500Y158750D03*
D10*
X76810Y130810D02*
X89810Y117810D01*
D15*
X186520Y82400D02*
X186520Y75900D01*
D10*
X173020Y75900D01*
X161290Y87630D01*
X161290Y113030D01*
X156510Y117810D01*
X89810Y117810D01*
X76810Y130810D02*
X76810Y144577D01*
X76808Y144668D01*
X76802Y144759D01*
X76792Y144849D01*
X76778Y144939D01*
X76761Y145028D01*
X76739Y145116D01*
X76714Y145203D01*
X76684Y145289D01*
X76651Y145374D01*
X76615Y145457D01*
X76575Y145539D01*
X76531Y145619D01*
X76484Y145696D01*
X76433Y145772D01*
X76380Y145845D01*
X76323Y145916D01*
X76263Y145984D01*
X76200Y146050D01*
X63500Y158750D01*
X68610Y160718D02*
X68676Y160155D01*
X68756Y159593D01*
X68850Y159034D01*
X68957Y158477D01*
X69077Y157922D01*
X69210Y157371D01*
X69356Y156822D01*
X69515Y156278D01*
X69687Y155737D01*
X69872Y155201D01*
X70070Y154669D01*
X70280Y154142D01*
X70503Y153620D01*
X70738Y153104D01*
X70985Y152594D01*
X71244Y152089D01*
X71516Y151591D01*
X71799Y151099D01*
X72094Y150614D01*
X72400Y150137D01*
X72717Y149666D01*
X73046Y149204D01*
X68610Y160719D02*
X63500Y158750D01*
X61531Y153640D02*
X62095Y153574D01*
X62656Y153494D01*
X63216Y153400D01*
X63773Y153293D01*
X64328Y153174D01*
X64879Y153040D01*
X65427Y152894D01*
X65972Y152735D01*
X66513Y152563D01*
X67049Y152378D01*
X67581Y152180D01*
X68108Y151970D01*
X68629Y151747D01*
X69146Y151512D01*
X69656Y151265D01*
X70161Y151006D01*
X70659Y150734D01*
X71151Y150451D01*
X71636Y150157D01*
X72113Y149850D01*
X72583Y149533D01*
X73046Y149204D01*
X61531Y153640D02*
X63500Y158750D01*
D14*
X393700Y158750D03*
D10*
X245280Y69400D02*
X223520Y69400D01*
X220980Y66860D01*
D16*
X220980Y66860D03*
D10*
X220951Y69336D02*
X226416Y69400D01*
X220951Y69336D02*
X220980Y66860D01*
X222860Y65249D02*
X226416Y69400D01*
X222860Y65249D02*
X220980Y66860D01*
D17*
X313690Y48260D02*
X323850Y38100D01*
D10*
X273050Y88900D02*
X261790Y88900D01*
X245280Y88900D01*
D16*
X273050Y88900D03*
X313690Y48260D03*
D10*
X272028Y86645D02*
X267050Y88900D01*
X272028Y86645D02*
X273050Y88900D01*
X272028Y91155D02*
X267050Y88900D01*
X272028Y91155D02*
X273050Y88900D01*
D14*
X393700Y196850D03*
D10*
X368300Y107950D02*
X335280Y107950D01*
X334010Y107950D01*
X330200Y107950D02*
X325120Y107950D01*
X302260Y107950D01*
X368300Y107950D02*
X371475Y104775D01*
X381000Y95250D01*
X302260Y107950D02*
X279400Y130810D01*
D16*
X210820Y110940D03*
X279400Y130810D03*
D10*
X210820Y110940D02*
X208280Y108400D01*
X186520Y108400D01*
X284480Y167640D02*
X284748Y167823D01*
X285021Y168000D01*
X285298Y168169D01*
X285578Y168332D01*
X285863Y168488D01*
X286152Y168637D01*
X286444Y168779D01*
X286739Y168913D01*
X287037Y169041D01*
X287339Y169161D01*
X287644Y169273D01*
X287951Y169378D01*
X288260Y169476D01*
X288572Y169566D01*
X288886Y169648D01*
X289202Y169723D01*
X289520Y169790D01*
X289839Y169849D01*
X290159Y169900D01*
X290481Y169944D01*
X290804Y169980D01*
X291127Y170007D01*
X291451Y170027D01*
X291775Y170039D01*
X292100Y170043D01*
X292425Y170039D01*
X292749Y170027D01*
X293073Y170007D01*
X293396Y169980D01*
X293719Y169944D01*
X294041Y169900D01*
X294361Y169849D01*
X294680Y169790D01*
X294998Y169723D01*
X295314Y169648D01*
X295628Y169566D01*
X295940Y169476D01*
X296249Y169378D01*
X296556Y169273D01*
X296861Y169161D01*
X297163Y169041D01*
X297461Y168913D01*
X297756Y168779D01*
X298048Y168637D01*
X298337Y168488D01*
X298622Y168332D01*
X298902Y168169D01*
X299179Y168000D01*
X299452Y167823D01*
X299720Y167640D01*
X299936Y167519D01*
X300154Y167403D01*
X300376Y167293D01*
X300600Y167188D01*
X300826Y167088D01*
X301055Y166994D01*
X301286Y166906D01*
X301520Y166823D01*
X301755Y166746D01*
X301992Y166675D01*
X302230Y166609D01*
X302470Y166550D01*
X302712Y166496D01*
X302955Y166448D01*
X303198Y166406D01*
X303443Y166370D01*
X303689Y166340D01*
X303935Y166316D01*
X304182Y166298D01*
X304429Y166286D01*
X304676Y166280D01*
X304924Y166280D01*
X305171Y166286D01*
X305418Y166298D01*
X305665Y166316D01*
X305911Y166340D01*
X306157Y166370D01*
X306402Y166406D01*
X306645Y166448D01*
X306888Y166496D01*
X307130Y166550D01*
X307370Y166609D01*
X307608Y166675D01*
X307845Y166746D01*
X308080Y166823D01*
X308314Y166906D01*
X308545Y166994D01*
X308774Y167088D01*
X309000Y167188D01*
X309224Y167293D01*
X309446Y167403D01*
X309664Y167519D01*
X309880Y167640D01*
X310148Y167823D01*
X310421Y168000D01*
X310698Y168169D01*
X310978Y168332D01*
X311263Y168488D01*
X311552Y168637D01*
X311844Y168779D01*
X312139Y168913D01*
X312437Y169041D01*
X312739Y169161D01*
X313044Y169273D01*
X313351Y169378D01*
X313660Y169476D01*
X313972Y169566D01*
X314286Y169648D01*
X314602Y169723D01*
X314920Y169790D01*
X315239Y169849D01*
X315559Y169900D01*
X315881Y169944D01*
X316204Y169980D01*
X316527Y170007D01*
X316851Y170027D01*
X317175Y170039D01*
X317500Y170043D01*
X317825Y170039D01*
X318149Y170027D01*
X318473Y170007D01*
X318796Y169980D01*
X319119Y169944D01*
X319441Y169900D01*
X319761Y169849D01*
X320080Y169790D01*
X320398Y169723D01*
X320714Y169648D01*
X321028Y169566D01*
X321340Y169476D01*
X321649Y169378D01*
X321956Y169273D01*
X322261Y169161D01*
X322563Y169041D01*
X322861Y168913D01*
X323156Y168779D01*
X323448Y168637D01*
X323737Y168488D01*
X324022Y168332D01*
X324302Y168169D01*
X324579Y168000D01*
X324852Y167823D01*
X325120Y167640D01*
X325336Y167519D01*
X325554Y167403D01*
X325776Y167293D01*
X326000Y167188D01*
X326226Y167088D01*
X326455Y166994D01*
X326686Y166906D01*
X326920Y166823D01*
X327155Y166746D01*
X327392Y166675D01*
X327630Y166609D01*
X327870Y166550D01*
X328112Y166496D01*
X328355Y166448D01*
X328598Y166406D01*
X328843Y166370D01*
X329089Y166340D01*
X329335Y166316D01*
X329582Y166298D01*
X329829Y166286D01*
X330076Y166280D01*
X330324Y166280D01*
X330571Y166286D01*
X330818Y166298D01*
X331065Y166316D01*
X331311Y166340D01*
X331557Y166370D01*
X331802Y166406D01*
X332045Y166448D01*
X332288Y166496D01*
X332530Y166550D01*
X332770Y166609D01*
X333008Y166675D01*
X333245Y166746D01*
X333480Y166823D01*
X333714Y166906D01*
X333945Y166994D01*
X334174Y167088D01*
X334400Y167188D01*
X334624Y167293D01*
X334846Y167403D01*
X335064Y167519D01*
X335280Y167640D01*
X335548Y167823D01*
X335821Y168000D01*
X336098Y168169D01*
X336378Y168332D01*
X336663Y168488D01*
X336952Y168637D01*
X337244Y168779D01*
X337539Y168913D01*
X337837Y169041D01*
X338139Y169161D01*
X338444Y169273D01*
X338751Y169378D01*
X339060Y169476D01*
X339372Y169566D01*
X339686Y169648D01*
X340002Y169723D01*
X340320Y169790D01*
X340639Y169849D01*
X340959Y169900D01*
X341281Y169944D01*
X341604Y169980D01*
X341927Y170007D01*
X342251Y170027D01*
X342575Y170039D01*
X342900Y170043D01*
X343225Y170039D01*
X343549Y170027D01*
X343873Y170007D01*
X344196Y169980D01*
X344519Y169944D01*
X344841Y169900D01*
X345161Y169849D01*
X345480Y169790D01*
X345798Y169723D01*
X346114Y169648D01*
X346428Y169566D01*
X346740Y169476D01*
X347049Y169378D01*
X347356Y169273D01*
X347661Y169161D01*
X347963Y169041D01*
X348261Y168913D01*
X348556Y168779D01*
X348848Y168637D01*
X349137Y168488D01*
X349422Y168332D01*
X349702Y168169D01*
X349979Y168000D01*
X350252Y167823D01*
X350520Y167640D01*
X350724Y167528D01*
X350931Y167420D01*
X351140Y167318D01*
X351352Y167221D01*
X351566Y167129D01*
X351783Y167042D01*
X352001Y166961D01*
X352221Y166884D01*
X352443Y166813D01*
X352667Y166748D01*
X352892Y166688D01*
X353118Y166633D01*
X353346Y166583D01*
X353575Y166540D01*
X353805Y166501D01*
X354035Y166468D01*
X354267Y166441D01*
X354499Y166420D01*
X354731Y166404D01*
X354964Y166393D01*
X355197Y166388D01*
X355430Y166389D01*
X355663Y166396D01*
X355896Y166408D01*
X356128Y166425D01*
X356360Y166448D01*
X356591Y166477D01*
X356822Y166511D01*
X357051Y166551D01*
X357051Y166552D02*
X357384Y166615D01*
X357715Y166686D01*
X358045Y166765D01*
X358372Y166852D01*
X358697Y166947D01*
X359020Y167050D01*
X359340Y167161D01*
X359658Y167279D01*
X359972Y167406D01*
X360283Y167540D01*
X360591Y167681D01*
X360895Y167831D01*
X361196Y167987D01*
X361492Y168151D01*
X361785Y168322D01*
X362073Y168500D01*
X362357Y168685D01*
X362636Y168877D01*
X362911Y169075D01*
X363180Y169281D01*
X363445Y169493D01*
X363704Y169711D01*
X363958Y169935D01*
X364206Y170166D01*
X364448Y170403D01*
X364685Y170645D01*
X364916Y170893D01*
X365140Y171147D01*
X365358Y171406D01*
X365570Y171671D01*
X365776Y171940D01*
X365974Y172215D01*
X366166Y172494D01*
X366351Y172778D01*
X366529Y173066D01*
X366700Y173359D01*
X366864Y173655D01*
X367020Y173956D01*
X367170Y174260D01*
X367311Y174568D01*
X367445Y174879D01*
X367572Y175193D01*
X367690Y175511D01*
X367801Y175831D01*
X367904Y176154D01*
X367999Y176479D01*
X368086Y176806D01*
X368165Y177136D01*
X368236Y177467D01*
X368299Y177800D01*
X284481Y167640D02*
X284242Y167469D01*
X284008Y167291D01*
X283778Y167108D01*
X283552Y166920D01*
X283332Y166726D01*
X283116Y166527D01*
X282905Y166322D01*
X282699Y166112D01*
X282498Y165898D01*
X282303Y165678D01*
X282113Y165454D01*
X281929Y165225D01*
X281750Y164992D01*
X281577Y164754D01*
X281410Y164513D01*
X281249Y164267D01*
X281094Y164017D01*
X280945Y163764D01*
X280802Y163507D01*
X280666Y163247D01*
X280536Y162983D01*
X280413Y162717D01*
X280296Y162447D01*
X280186Y162175D01*
X280082Y161900D01*
X279985Y161622D01*
X279896Y161343D01*
X279812Y161061D01*
X279736Y160777D01*
X279667Y160491D01*
X279605Y160204D01*
X279550Y159916D01*
X279502Y159626D01*
X279461Y159335D01*
X279427Y159043D01*
X279401Y158750D01*
X279400Y158750D02*
X279400Y130810D01*
X333375Y66675D02*
X342900Y57150D01*
X333375Y66675D02*
X330200Y69850D01*
X330200Y102870D01*
X330200Y104140D01*
X330200Y107950D01*
X330200Y104140D02*
X334010Y107950D01*
X330200Y107950D01*
X325120Y107950D02*
X330200Y102870D01*
X335280Y107950D01*
X210849Y108464D02*
X205384Y108400D01*
X210849Y108464D02*
X210820Y110940D01*
X208940Y112551D02*
X205384Y108400D01*
X208940Y112551D02*
X210820Y110940D01*
X281717Y131682D02*
X283643Y126567D01*
X281717Y131682D02*
X279400Y130810D01*
X278528Y128493D02*
X283643Y126567D01*
X278528Y128493D02*
X279400Y130810D01*
X277145Y131832D02*
X279400Y136810D01*
X277145Y131832D02*
X279400Y130810D01*
X281655Y131832D02*
X279400Y136810D01*
X281655Y131832D02*
X279400Y130810D01*
X368300Y177800D02*
X368371Y178176D01*
X368451Y178550D01*
X368540Y178922D01*
X368639Y179291D01*
X368746Y179659D01*
X368862Y180023D01*
X368988Y180385D01*
X369122Y180743D01*
X369264Y181098D01*
X369416Y181449D01*
X369575Y181797D01*
X369744Y182140D01*
X369920Y182480D01*
X370105Y182815D01*
X370298Y183145D01*
X370499Y183470D01*
X370708Y183791D01*
X370925Y184106D01*
X371149Y184416D01*
X371381Y184720D01*
X371620Y185019D01*
X371867Y185312D01*
X372120Y185598D01*
X372381Y185878D01*
X372648Y186152D01*
X372922Y186419D01*
X373202Y186680D01*
X373488Y186933D01*
X373781Y187180D01*
X374080Y187419D01*
X374384Y187651D01*
X374694Y187875D01*
X375009Y188092D01*
X375330Y188301D01*
X375655Y188502D01*
X375985Y188695D01*
X376320Y188880D01*
X376660Y189056D01*
X377003Y189225D01*
X377351Y189384D01*
X377702Y189536D01*
X378057Y189678D01*
X378415Y189812D01*
X378777Y189938D01*
X379141Y190054D01*
X379509Y190161D01*
X379878Y190260D01*
X380250Y190349D01*
X380624Y190429D01*
X381000Y190500D01*
X380531Y190468D02*
X383702Y193640D01*
X389636Y200533D01*
X387321Y190930D02*
X394081Y191389D01*
X387321Y190930D02*
X381000Y190500D01*
X380531Y190468D01*
X389636Y200533D02*
X393319Y196850D01*
X393700Y196850D01*
X394081Y191389D01*
X380786Y190956D02*
X378460Y189865D01*
X393700Y193675D02*
X393700Y196850D01*
X384112Y191770D02*
X382374Y190956D01*
X380786Y190956D01*
X384112Y191770D02*
X393700Y196850D01*
X333376Y66675D02*
X333667Y66256D01*
X333949Y65831D01*
X334221Y65399D01*
X334482Y64960D01*
X334732Y64516D01*
X334972Y64066D01*
X335202Y63610D01*
X335420Y63149D01*
X335627Y62682D01*
X335823Y62211D01*
X336008Y61736D01*
X336181Y61256D01*
X336343Y60772D01*
X336494Y60285D01*
X336633Y59794D01*
X336760Y59299D01*
X336875Y58802D01*
X336978Y58303D01*
X337070Y57801D01*
X337149Y57297D01*
X337217Y56791D01*
X337272Y56284D01*
X343766Y62778D01*
X343259Y62833D01*
X342753Y62901D01*
X342249Y62980D01*
X341747Y63072D01*
X341248Y63175D01*
X340751Y63290D01*
X340256Y63417D01*
X339765Y63556D01*
X339278Y63707D01*
X338794Y63869D01*
X338314Y64042D01*
X337839Y64227D01*
X337368Y64423D01*
X336901Y64630D01*
X336440Y64848D01*
X335984Y65078D01*
X335534Y65318D01*
X335090Y65568D01*
X334651Y65829D01*
X334219Y66101D01*
X333794Y66383D01*
X333375Y66674D01*
X375372Y94384D02*
X375317Y94891D01*
X375249Y95397D01*
X375170Y95901D01*
X375078Y96403D01*
X374975Y96902D01*
X374860Y97399D01*
X374733Y97894D01*
X374594Y98385D01*
X374443Y98872D01*
X374281Y99356D01*
X374108Y99836D01*
X373923Y100311D01*
X373727Y100782D01*
X373520Y101249D01*
X373302Y101710D01*
X373072Y102166D01*
X372832Y102616D01*
X372582Y103060D01*
X372321Y103499D01*
X372049Y103931D01*
X371767Y104356D01*
X371476Y104775D01*
X381866Y100878D02*
X375372Y94384D01*
X381866Y100878D02*
X381359Y100933D01*
X380853Y101001D01*
X380349Y101080D01*
X379847Y101172D01*
X379348Y101275D01*
X378851Y101390D01*
X378356Y101517D01*
X377865Y101656D01*
X377378Y101807D01*
X376894Y101969D01*
X376414Y102142D01*
X375939Y102327D01*
X375468Y102523D01*
X375001Y102730D01*
X374540Y102948D01*
X374084Y103178D01*
X373634Y103418D01*
X373190Y103668D01*
X372751Y103929D01*
X372319Y104201D01*
X371894Y104483D01*
X371475Y104774D01*
D16*
X220980Y104440D03*
X294640Y29210D03*
D17*
X304800Y19050D01*
D10*
X220980Y104440D02*
X218440Y101900D01*
X186520Y101900D01*
X173990Y104440D02*
X173990Y119990D01*
X173990Y104440D02*
X176530Y101900D01*
X186520Y101900D01*
X173990Y119990D02*
X184810Y130810D01*
X215544Y101900D02*
X221009Y101964D01*
X220980Y104440D01*
X219100Y106051D02*
X215544Y101900D01*
X219100Y106051D02*
X220980Y104440D01*
D17*
X100990Y130810D02*
X100990Y144780D01*
D16*
X100990Y144780D03*
X210820Y75900D03*
D15*
X245280Y75900D02*
X245280Y82400D01*
D10*
X245280Y75900D02*
X210820Y75900D01*
D17*
X351790Y86360D02*
X361950Y76200D01*
D10*
X308610Y75900D02*
X245280Y75900D01*
D16*
X308610Y75900D03*
X351790Y86360D03*
D10*
X216820Y75900D02*
X211842Y78155D01*
X210820Y75900D01*
X211842Y73645D02*
X216820Y75900D01*
X211842Y73645D02*
X210820Y75900D01*
X302610Y75900D02*
X307588Y73645D01*
X308610Y75900D01*
X307588Y78155D02*
X302610Y75900D01*
X307588Y78155D02*
X308610Y75900D01*
D15*
X245280Y95400D02*
X245280Y101900D01*
D10*
X167640Y101600D02*
X167640Y122530D01*
X167640Y101600D02*
X173840Y95400D01*
X186520Y95400D01*
X167640Y122530D02*
X161900Y128270D01*
X161900Y130810D01*
X186520Y95400D02*
X245280Y95400D01*
D14*
X431800Y215900D03*
X431800Y177800D03*
X12700Y158750D03*
X12700Y196850D03*
D15*
X186520Y88900D02*
X199390Y88900D01*
X201930Y86360D01*
X201930Y72110D01*
X199220Y69400D01*
X186520Y69400D01*
X171450Y69400D01*
D18*
X431800Y203200D02*
X431800Y215900D01*
X431800Y190500D02*
X431800Y177800D01*
X431800Y165100D01*
X12700Y196850D02*
X12700Y209550D01*
X12700Y158750D02*
X12700Y146050D01*
X12700Y184150D02*
X12700Y196850D01*
X12700Y171450D02*
X12700Y158750D01*
D15*
X171450Y88900D02*
X186520Y88900D01*
D14*
X215900Y196850D03*
X215900Y158750D03*
D18*
X142900Y130810D02*
X119990Y130810D01*
X203810Y130810D02*
X203810Y134620D01*
X193650Y144780D01*
X153060Y144780D01*
X142900Y134620D02*
X142900Y130810D01*
X142900Y134620D02*
X153060Y144780D01*
D19*
X215900Y158750D02*
X225425Y149225D01*
X225515Y149133D01*
X225602Y149038D01*
X225686Y148941D01*
X225767Y148841D01*
X225845Y148739D01*
X225920Y148635D01*
X225993Y148528D01*
X226062Y148420D01*
X226128Y148310D01*
X226190Y148197D01*
X226250Y148083D01*
X226306Y147967D01*
X226358Y147850D01*
X226408Y147731D01*
X226453Y147611D01*
X226496Y147490D01*
X226534Y147367D01*
X226569Y147243D01*
X226601Y147119D01*
X226629Y146993D01*
X226653Y146867D01*
X226673Y146740D01*
X226690Y146612D01*
X226703Y146484D01*
X226713Y146356D01*
X226718Y146228D01*
X226720Y146099D01*
X226720Y130810D01*
X215900Y158750D02*
X215900Y196850D01*
D15*
X226720Y114910D02*
X233230Y108400D01*
X226720Y114910D02*
X226720Y130810D01*
X233230Y108400D02*
X245280Y108400D01*
D18*
X226720Y130810D02*
X203810Y130810D01*
D19*
X215900Y183350D02*
X215951Y183934D01*
X216015Y184516D01*
X216094Y185096D01*
X216186Y185675D01*
X216292Y186251D01*
X216412Y186825D01*
X216545Y187395D01*
X216692Y187962D01*
X216853Y188526D01*
X217026Y189085D01*
X217213Y189640D01*
X217413Y190191D01*
X217626Y190737D01*
X217853Y191277D01*
X218091Y191812D01*
X218343Y192341D01*
X218607Y192864D01*
X218883Y193381D01*
X219172Y193890D01*
X219473Y194393D01*
X219785Y194889D01*
X220110Y195377D01*
X215900Y196850D01*
X211690Y195377D02*
X212015Y194889D01*
X212327Y194393D01*
X212628Y193891D01*
X212917Y193381D01*
X213193Y192864D01*
X213457Y192341D01*
X213709Y191812D01*
X213947Y191277D01*
X214174Y190737D01*
X214387Y190191D01*
X214587Y189640D01*
X214774Y189085D01*
X214947Y188526D01*
X215108Y187962D01*
X215255Y187395D01*
X215388Y186825D01*
X215508Y186251D01*
X215614Y185675D01*
X215706Y185096D01*
X215785Y184516D01*
X215849Y183934D01*
X215900Y183350D01*
X211690Y195377D02*
X215900Y196850D01*
X219918Y160685D02*
X220033Y160111D01*
X220163Y159539D01*
X220306Y158971D01*
X220462Y158406D01*
X220632Y157846D01*
X220815Y157289D01*
X221011Y156737D01*
X221220Y156190D01*
X221443Y155648D01*
X221678Y155111D01*
X221926Y154581D01*
X222186Y154056D01*
X222459Y153537D01*
X222744Y153026D01*
X223041Y152521D01*
X223350Y152023D01*
X223671Y151533D01*
X224004Y151051D01*
X224347Y150576D01*
X224702Y150110D01*
X225068Y149653D01*
X225445Y149204D01*
X219919Y160685D02*
X215900Y158750D01*
X213965Y154731D02*
X214539Y154616D01*
X215111Y154486D01*
X215679Y154343D01*
X216243Y154187D01*
X216804Y154017D01*
X217361Y153834D01*
X217913Y153638D01*
X218460Y153429D01*
X219002Y153206D01*
X219538Y152971D01*
X220069Y152723D01*
X220594Y152463D01*
X221113Y152190D01*
X221624Y151905D01*
X222129Y151608D01*
X222627Y151299D01*
X223117Y150978D01*
X223599Y150645D01*
X224074Y150302D01*
X224540Y149947D01*
X224997Y149581D01*
X225446Y149204D01*
X213965Y154731D02*
X215900Y158750D01*
X211690Y160223D02*
X212015Y160711D01*
X212327Y161207D01*
X212628Y161710D01*
X212917Y162219D01*
X213193Y162736D01*
X213457Y163259D01*
X213709Y163788D01*
X213947Y164323D01*
X214174Y164863D01*
X214387Y165409D01*
X214587Y165960D01*
X214774Y166515D01*
X214947Y167074D01*
X215108Y167638D01*
X215255Y168205D01*
X215388Y168775D01*
X215508Y169349D01*
X215614Y169925D01*
X215706Y170504D01*
X215785Y171084D01*
X215849Y171666D01*
X215900Y172250D01*
X211690Y160223D02*
X215900Y158750D01*
X220110Y160223D02*
X219785Y160711D01*
X219473Y161207D01*
X219172Y161710D01*
X218883Y162219D01*
X218607Y162736D01*
X218343Y163259D01*
X218091Y163788D01*
X217852Y164323D01*
X217626Y164863D01*
X217413Y165409D01*
X217213Y165960D01*
X217026Y166515D01*
X216853Y167074D01*
X216692Y167638D01*
X216545Y168205D01*
X216412Y168775D01*
X216292Y169349D01*
X216186Y169925D01*
X216094Y170504D01*
X216015Y171084D01*
X215951Y171666D01*
X215900Y172250D01*
X220110Y160223D02*
X215900Y158750D01*
D10*
X401320Y130810D02*
X403600Y130810D01*
X6617Y130747D02*
X6617Y117001D01*
X6619Y116845D01*
X6625Y116689D01*
X6634Y116534D01*
X6648Y116378D01*
X6666Y116223D01*
X6687Y116069D01*
X6712Y115915D01*
X6741Y115762D01*
X6774Y115609D01*
X6810Y115458D01*
X6851Y115307D01*
X6895Y115158D01*
X6943Y115009D01*
X6994Y114862D01*
X7049Y114716D01*
X7108Y114572D01*
X7170Y114429D01*
X7236Y114287D01*
X7306Y114148D01*
X7379Y114010D01*
X7455Y113874D01*
X7535Y113740D01*
X7617Y113608D01*
X7704Y113478D01*
X7793Y113350D01*
X7886Y113225D01*
X7981Y113102D01*
X8080Y112981D01*
X8182Y112863D01*
X8286Y112747D01*
X8394Y112634D01*
X8504Y112524D01*
X8617Y112416D01*
X8733Y112312D01*
X8851Y112210D01*
X8972Y112111D01*
X9095Y112016D01*
X9220Y111923D01*
X9348Y111834D01*
X9478Y111747D01*
X9610Y111665D01*
X9744Y111585D01*
X9880Y111509D01*
X10018Y111436D01*
X10157Y111366D01*
X10299Y111300D01*
X10442Y111238D01*
X10586Y111179D01*
X10732Y111124D01*
X10879Y111073D01*
X11028Y111025D01*
X11177Y110981D01*
X11328Y110940D01*
X11479Y110904D01*
X11632Y110871D01*
X11785Y110842D01*
X11939Y110817D01*
X12093Y110796D01*
X12248Y110778D01*
X12404Y110764D01*
X12559Y110755D01*
X12715Y110749D01*
X12871Y110747D01*
X26617Y110747D01*
X26617Y124659D01*
X26615Y124813D01*
X26609Y124967D01*
X26599Y125121D01*
X26586Y125275D01*
X26568Y125428D01*
X26547Y125581D01*
X26522Y125733D01*
X26492Y125885D01*
X26459Y126035D01*
X26423Y126185D01*
X26382Y126334D01*
X26338Y126482D01*
X26290Y126628D01*
X26238Y126773D01*
X26183Y126917D01*
X26124Y127060D01*
X26061Y127201D01*
X25995Y127340D01*
X25925Y127478D01*
X25852Y127614D01*
X25775Y127747D01*
X25696Y127879D01*
X25612Y128009D01*
X25526Y128137D01*
X25436Y128262D01*
X25343Y128386D01*
X25247Y128506D01*
X25148Y128625D01*
X25046Y128740D01*
X24942Y128853D01*
X24834Y128964D01*
X24723Y129072D01*
X24610Y129176D01*
X24495Y129278D01*
X24376Y129377D01*
X24256Y129473D01*
X24132Y129566D01*
X24007Y129656D01*
X23879Y129742D01*
X23749Y129826D01*
X23617Y129905D01*
X23484Y129982D01*
X23348Y130055D01*
X23210Y130125D01*
X23071Y130191D01*
X22930Y130254D01*
X22787Y130313D01*
X22643Y130368D01*
X22498Y130420D01*
X22352Y130468D01*
X22204Y130512D01*
X22055Y130553D01*
X21905Y130589D01*
X21755Y130622D01*
X21603Y130652D01*
X21451Y130677D01*
X21298Y130698D01*
X21145Y130716D01*
X20991Y130729D01*
X20837Y130739D01*
X20683Y130745D01*
X20529Y130747D01*
X6617Y130747D01*
X11617Y125747D02*
X16617Y125747D01*
X11617Y125747D02*
X11617Y120747D01*
X16617Y120747D01*
X16617Y115747D01*
X21617Y115747D01*
X21617Y120747D01*
M02*
