G04 EAGLE Gerber RS-274X export*
G75*
%MOMM*%
%FSLAX34Y34*%
%LPD*%
%INBottom Copper*%
%IPPOS*%
%AMOC8*
5,1,8,0,0,1.08239X$1,22.5*%
G01*
%ADD10C,0.228600*%
%ADD11C,1.400000*%
%ADD12C,0.800000*%
%ADD13C,0.304800*%
%ADD14C,0.406400*%

G36*
X310336Y5095D02*
X310336Y5095D01*
X310462Y5102D01*
X310509Y5115D01*
X310557Y5121D01*
X310676Y5163D01*
X310797Y5198D01*
X310839Y5222D01*
X310885Y5238D01*
X310991Y5307D01*
X311101Y5368D01*
X311148Y5408D01*
X311178Y5427D01*
X311211Y5462D01*
X311288Y5527D01*
X394523Y88762D01*
X394602Y88861D01*
X394686Y88955D01*
X394710Y88997D01*
X394740Y89035D01*
X394794Y89149D01*
X394855Y89260D01*
X394868Y89307D01*
X394889Y89350D01*
X394915Y89474D01*
X394950Y89596D01*
X394955Y89656D01*
X394962Y89691D01*
X394961Y89739D01*
X394969Y89839D01*
X394969Y104542D01*
X397307Y110185D01*
X401625Y114503D01*
X407268Y116841D01*
X411787Y116841D01*
X411813Y116844D01*
X411839Y116842D01*
X411986Y116864D01*
X412133Y116881D01*
X412158Y116889D01*
X412184Y116893D01*
X412322Y116948D01*
X412461Y116998D01*
X412483Y117012D01*
X412508Y117022D01*
X412629Y117107D01*
X412754Y117187D01*
X412772Y117206D01*
X412794Y117221D01*
X412893Y117331D01*
X412996Y117438D01*
X413010Y117460D01*
X413027Y117480D01*
X413099Y117609D01*
X413175Y117737D01*
X413183Y117762D01*
X413196Y117785D01*
X413236Y117928D01*
X413281Y118069D01*
X413283Y118095D01*
X413291Y118120D01*
X413310Y118364D01*
X413310Y134400D01*
X414933Y138318D01*
X417932Y141317D01*
X421850Y142940D01*
X437896Y142940D01*
X437922Y142943D01*
X437948Y142941D01*
X438095Y142963D01*
X438242Y142980D01*
X438267Y142988D01*
X438293Y142992D01*
X438431Y143047D01*
X438570Y143097D01*
X438592Y143111D01*
X438617Y143121D01*
X438738Y143206D01*
X438863Y143286D01*
X438881Y143305D01*
X438903Y143320D01*
X439002Y143430D01*
X439105Y143537D01*
X439119Y143559D01*
X439136Y143579D01*
X439208Y143709D01*
X439284Y143836D01*
X439292Y143861D01*
X439305Y143884D01*
X439345Y144027D01*
X439390Y144168D01*
X439392Y144194D01*
X439400Y144219D01*
X439419Y144463D01*
X439419Y167793D01*
X439418Y167803D01*
X439419Y167812D01*
X439398Y167975D01*
X439379Y168140D01*
X439376Y168148D01*
X439375Y168158D01*
X439318Y168310D01*
X439262Y168468D01*
X439257Y168476D01*
X439254Y168484D01*
X439162Y168622D01*
X439073Y168761D01*
X439066Y168767D01*
X439061Y168775D01*
X438941Y168888D01*
X438822Y169003D01*
X438814Y169007D01*
X438808Y169014D01*
X438665Y169097D01*
X438523Y169182D01*
X438514Y169184D01*
X438506Y169189D01*
X438349Y169237D01*
X438191Y169288D01*
X438182Y169289D01*
X438173Y169291D01*
X438008Y169303D01*
X437844Y169316D01*
X437835Y169314D01*
X437825Y169315D01*
X437663Y169289D01*
X437499Y169264D01*
X437491Y169261D01*
X437481Y169259D01*
X437252Y169174D01*
X437001Y169057D01*
X436992Y169051D01*
X436982Y169048D01*
X436771Y168924D01*
X436724Y168891D01*
X436674Y168883D01*
X436667Y168880D01*
X436662Y168879D01*
X436641Y168870D01*
X436445Y168797D01*
X435711Y168455D01*
X435567Y168367D01*
X435458Y168301D01*
X435404Y168287D01*
X435394Y168283D01*
X435384Y168281D01*
X435155Y168196D01*
X435102Y168171D01*
X435052Y168172D01*
X435044Y168170D01*
X435039Y168170D01*
X435016Y168165D01*
X434811Y168128D01*
X434029Y167918D01*
X433873Y167856D01*
X433753Y167810D01*
X433697Y167805D01*
X433687Y167803D01*
X433676Y167803D01*
X433436Y167759D01*
X433379Y167744D01*
X433330Y167753D01*
X433323Y167753D01*
X433318Y167754D01*
X433295Y167753D01*
X433086Y167752D01*
X432279Y167681D01*
X432113Y167647D01*
X431988Y167623D01*
X431933Y167628D01*
X431922Y167627D01*
X431912Y167629D01*
X431667Y167628D01*
X431609Y167623D01*
X431562Y167640D01*
X431555Y167642D01*
X431550Y167643D01*
X431528Y167646D01*
X431321Y167681D01*
X430514Y167752D01*
X430347Y167747D01*
X430218Y167745D01*
X430164Y167759D01*
X430154Y167761D01*
X430144Y167764D01*
X429903Y167805D01*
X429845Y167810D01*
X429802Y167836D01*
X429795Y167839D01*
X429790Y167841D01*
X429768Y167848D01*
X429571Y167918D01*
X428789Y168128D01*
X428623Y168152D01*
X428496Y168172D01*
X428445Y168196D01*
X428435Y168199D01*
X428426Y168204D01*
X428196Y168287D01*
X428140Y168302D01*
X428102Y168334D01*
X428095Y168338D01*
X428091Y168341D01*
X428071Y168352D01*
X427889Y168455D01*
X427155Y168797D01*
X426995Y168851D01*
X426874Y168892D01*
X426829Y168924D01*
X426820Y168929D01*
X426811Y168936D01*
X426599Y169057D01*
X426546Y169081D01*
X426514Y169120D01*
X426509Y169125D01*
X426505Y169129D01*
X426488Y169142D01*
X426326Y169276D01*
X425662Y169741D01*
X425515Y169820D01*
X425403Y169883D01*
X425363Y169922D01*
X425355Y169929D01*
X425348Y169937D01*
X425160Y170093D01*
X425112Y170126D01*
X425087Y170170D01*
X425083Y170176D01*
X425080Y170180D01*
X425065Y170197D01*
X424929Y170356D01*
X424356Y170929D01*
X424225Y171033D01*
X424125Y171114D01*
X424093Y171160D01*
X424086Y171168D01*
X424081Y171177D01*
X423922Y171363D01*
X423881Y171404D01*
X423865Y171451D01*
X423861Y171458D01*
X423859Y171463D01*
X423846Y171482D01*
X423741Y171662D01*
X423276Y172326D01*
X423164Y172453D01*
X423080Y172548D01*
X423057Y172599D01*
X423051Y172608D01*
X423048Y172618D01*
X422924Y172829D01*
X422891Y172876D01*
X422883Y172926D01*
X422880Y172933D01*
X422879Y172938D01*
X422870Y172959D01*
X422797Y173155D01*
X422455Y173889D01*
X422367Y174033D01*
X422301Y174142D01*
X422287Y174196D01*
X422283Y174206D01*
X422281Y174216D01*
X422196Y174445D01*
X422171Y174498D01*
X422172Y174549D01*
X422170Y174556D01*
X422170Y174561D01*
X422165Y174583D01*
X422128Y174789D01*
X421918Y175571D01*
X421856Y175728D01*
X421810Y175847D01*
X421805Y175903D01*
X421803Y175913D01*
X421803Y175924D01*
X421759Y176164D01*
X421744Y176221D01*
X421753Y176270D01*
X421753Y176277D01*
X421754Y176282D01*
X421753Y176305D01*
X421752Y176514D01*
X421681Y177321D01*
X421647Y177487D01*
X421623Y177612D01*
X421628Y177667D01*
X421627Y177678D01*
X421629Y177688D01*
X421628Y177933D01*
X421623Y177991D01*
X421640Y178038D01*
X421642Y178045D01*
X421643Y178050D01*
X421646Y178072D01*
X421681Y178279D01*
X421752Y179086D01*
X421747Y179253D01*
X421745Y179382D01*
X421759Y179436D01*
X421761Y179446D01*
X421764Y179456D01*
X421805Y179697D01*
X421810Y179755D01*
X421836Y179798D01*
X421839Y179805D01*
X421841Y179810D01*
X421848Y179832D01*
X421918Y180029D01*
X422128Y180811D01*
X422152Y180975D01*
X422172Y181104D01*
X422196Y181155D01*
X422199Y181165D01*
X422204Y181174D01*
X422287Y181404D01*
X422302Y181460D01*
X422334Y181498D01*
X422338Y181505D01*
X422341Y181509D01*
X422352Y181529D01*
X422455Y181711D01*
X422797Y182445D01*
X422851Y182605D01*
X422892Y182726D01*
X422924Y182771D01*
X422929Y182780D01*
X422936Y182789D01*
X423057Y183001D01*
X423081Y183054D01*
X423120Y183086D01*
X423125Y183091D01*
X423129Y183095D01*
X423142Y183112D01*
X423276Y183274D01*
X423741Y183938D01*
X423820Y184085D01*
X423883Y184197D01*
X423922Y184237D01*
X423929Y184245D01*
X423937Y184252D01*
X424093Y184440D01*
X424126Y184488D01*
X424170Y184513D01*
X424176Y184517D01*
X424180Y184520D01*
X424197Y184535D01*
X424356Y184671D01*
X424929Y185244D01*
X425033Y185375D01*
X425114Y185475D01*
X425160Y185507D01*
X425168Y185514D01*
X425177Y185519D01*
X425363Y185678D01*
X425404Y185719D01*
X425451Y185735D01*
X425458Y185739D01*
X425463Y185741D01*
X425482Y185754D01*
X425662Y185859D01*
X426326Y186324D01*
X426453Y186436D01*
X426548Y186520D01*
X426599Y186543D01*
X426608Y186549D01*
X426618Y186552D01*
X426829Y186676D01*
X426876Y186709D01*
X426926Y186717D01*
X426933Y186720D01*
X426938Y186721D01*
X426959Y186730D01*
X427155Y186803D01*
X427889Y187145D01*
X428033Y187233D01*
X428142Y187299D01*
X428196Y187313D01*
X428206Y187317D01*
X428216Y187319D01*
X428446Y187404D01*
X428498Y187429D01*
X428549Y187428D01*
X428556Y187430D01*
X428561Y187430D01*
X428583Y187435D01*
X428789Y187472D01*
X429571Y187682D01*
X429728Y187744D01*
X429847Y187790D01*
X429903Y187795D01*
X429913Y187797D01*
X429924Y187797D01*
X430164Y187841D01*
X430221Y187856D01*
X430270Y187847D01*
X430277Y187847D01*
X430282Y187846D01*
X430305Y187847D01*
X430514Y187848D01*
X431321Y187919D01*
X431487Y187953D01*
X431612Y187977D01*
X431667Y187972D01*
X431678Y187973D01*
X431688Y187971D01*
X431933Y187972D01*
X431991Y187977D01*
X432038Y187960D01*
X432045Y187958D01*
X432050Y187957D01*
X432072Y187954D01*
X432279Y187919D01*
X433086Y187848D01*
X433253Y187853D01*
X433382Y187855D01*
X433436Y187841D01*
X433446Y187839D01*
X433456Y187836D01*
X433697Y187795D01*
X433755Y187790D01*
X433798Y187764D01*
X433805Y187761D01*
X433810Y187759D01*
X433832Y187752D01*
X434029Y187682D01*
X434811Y187472D01*
X434977Y187448D01*
X435104Y187428D01*
X435154Y187404D01*
X435165Y187401D01*
X435174Y187395D01*
X435404Y187313D01*
X435460Y187298D01*
X435498Y187266D01*
X435505Y187262D01*
X435509Y187259D01*
X435529Y187248D01*
X435711Y187145D01*
X436445Y186803D01*
X436605Y186749D01*
X436726Y186708D01*
X436771Y186676D01*
X436780Y186671D01*
X436788Y186664D01*
X437001Y186543D01*
X437252Y186426D01*
X437261Y186423D01*
X437269Y186418D01*
X437425Y186368D01*
X437583Y186316D01*
X437592Y186315D01*
X437601Y186312D01*
X437765Y186299D01*
X437930Y186284D01*
X437939Y186285D01*
X437948Y186284D01*
X438112Y186309D01*
X438275Y186331D01*
X438284Y186335D01*
X438293Y186336D01*
X438446Y186397D01*
X438601Y186456D01*
X438608Y186461D01*
X438617Y186465D01*
X438751Y186558D01*
X438889Y186651D01*
X438895Y186658D01*
X438903Y186664D01*
X439013Y186785D01*
X439126Y186907D01*
X439130Y186915D01*
X439136Y186922D01*
X439216Y187067D01*
X439298Y187210D01*
X439300Y187219D01*
X439305Y187227D01*
X439350Y187387D01*
X439397Y187545D01*
X439397Y187554D01*
X439400Y187563D01*
X439419Y187807D01*
X439419Y205893D01*
X439418Y205903D01*
X439419Y205912D01*
X439398Y206075D01*
X439379Y206240D01*
X439376Y206248D01*
X439375Y206258D01*
X439318Y206410D01*
X439262Y206568D01*
X439257Y206576D01*
X439254Y206584D01*
X439162Y206722D01*
X439073Y206861D01*
X439066Y206867D01*
X439061Y206875D01*
X438941Y206988D01*
X438822Y207103D01*
X438814Y207107D01*
X438808Y207114D01*
X438665Y207197D01*
X438523Y207282D01*
X438514Y207284D01*
X438506Y207289D01*
X438349Y207337D01*
X438191Y207388D01*
X438182Y207389D01*
X438173Y207391D01*
X438008Y207403D01*
X437844Y207416D01*
X437835Y207414D01*
X437825Y207415D01*
X437663Y207389D01*
X437499Y207364D01*
X437491Y207361D01*
X437481Y207359D01*
X437252Y207274D01*
X437001Y207157D01*
X436992Y207151D01*
X436982Y207148D01*
X436771Y207024D01*
X436724Y206991D01*
X436674Y206983D01*
X436667Y206980D01*
X436662Y206979D01*
X436641Y206970D01*
X436445Y206897D01*
X435711Y206555D01*
X435567Y206467D01*
X435458Y206401D01*
X435404Y206387D01*
X435394Y206383D01*
X435384Y206381D01*
X435155Y206296D01*
X435102Y206271D01*
X435052Y206272D01*
X435044Y206270D01*
X435039Y206270D01*
X435016Y206265D01*
X434811Y206228D01*
X434029Y206018D01*
X433873Y205956D01*
X433753Y205910D01*
X433697Y205905D01*
X433687Y205903D01*
X433676Y205903D01*
X433436Y205859D01*
X433379Y205844D01*
X433330Y205853D01*
X433323Y205853D01*
X433318Y205854D01*
X433295Y205853D01*
X433086Y205852D01*
X432279Y205781D01*
X432113Y205747D01*
X431988Y205723D01*
X431933Y205728D01*
X431922Y205727D01*
X431912Y205729D01*
X431667Y205728D01*
X431609Y205723D01*
X431562Y205740D01*
X431555Y205742D01*
X431550Y205743D01*
X431528Y205746D01*
X431321Y205781D01*
X430514Y205852D01*
X430347Y205847D01*
X430218Y205845D01*
X430164Y205859D01*
X430154Y205861D01*
X430144Y205864D01*
X429903Y205905D01*
X429845Y205910D01*
X429802Y205936D01*
X429795Y205939D01*
X429790Y205941D01*
X429768Y205948D01*
X429571Y206018D01*
X428789Y206228D01*
X428623Y206252D01*
X428496Y206272D01*
X428445Y206296D01*
X428435Y206299D01*
X428426Y206304D01*
X428196Y206387D01*
X428140Y206402D01*
X428102Y206434D01*
X428095Y206438D01*
X428091Y206441D01*
X428071Y206452D01*
X427889Y206555D01*
X427155Y206897D01*
X426995Y206951D01*
X426874Y206992D01*
X426829Y207024D01*
X426820Y207029D01*
X426811Y207036D01*
X426599Y207157D01*
X426546Y207181D01*
X426514Y207220D01*
X426509Y207225D01*
X426505Y207229D01*
X426488Y207242D01*
X426326Y207376D01*
X425662Y207841D01*
X425515Y207920D01*
X425403Y207983D01*
X425363Y208022D01*
X425355Y208029D01*
X425348Y208037D01*
X425160Y208193D01*
X425112Y208226D01*
X425087Y208270D01*
X425083Y208276D01*
X425080Y208280D01*
X425065Y208297D01*
X424929Y208456D01*
X424356Y209029D01*
X424225Y209133D01*
X424125Y209214D01*
X424093Y209260D01*
X424086Y209268D01*
X424081Y209277D01*
X423922Y209463D01*
X423881Y209504D01*
X423865Y209551D01*
X423861Y209558D01*
X423859Y209563D01*
X423846Y209582D01*
X423741Y209762D01*
X423276Y210426D01*
X423164Y210553D01*
X423080Y210648D01*
X423057Y210699D01*
X423051Y210708D01*
X423048Y210718D01*
X422924Y210929D01*
X422891Y210976D01*
X422883Y211026D01*
X422880Y211033D01*
X422879Y211038D01*
X422870Y211059D01*
X422797Y211255D01*
X422455Y211989D01*
X422367Y212133D01*
X422301Y212242D01*
X422287Y212296D01*
X422283Y212306D01*
X422281Y212316D01*
X422196Y212545D01*
X422171Y212598D01*
X422172Y212649D01*
X422170Y212656D01*
X422170Y212661D01*
X422165Y212683D01*
X422128Y212889D01*
X421918Y213671D01*
X421856Y213828D01*
X421810Y213947D01*
X421805Y214003D01*
X421803Y214013D01*
X421803Y214024D01*
X421759Y214264D01*
X421744Y214321D01*
X421753Y214370D01*
X421753Y214377D01*
X421754Y214382D01*
X421753Y214405D01*
X421752Y214614D01*
X421681Y215421D01*
X421652Y215563D01*
X421634Y215686D01*
X421623Y215713D01*
X421628Y215767D01*
X421627Y215778D01*
X421629Y215788D01*
X421628Y216033D01*
X421623Y216091D01*
X421640Y216138D01*
X421642Y216145D01*
X421643Y216150D01*
X421646Y216172D01*
X421681Y216379D01*
X421752Y217186D01*
X421747Y217353D01*
X421745Y217482D01*
X421759Y217536D01*
X421761Y217546D01*
X421764Y217556D01*
X421805Y217797D01*
X421810Y217855D01*
X421836Y217898D01*
X421839Y217905D01*
X421841Y217910D01*
X421848Y217932D01*
X421918Y218129D01*
X422128Y218911D01*
X422152Y219077D01*
X422172Y219204D01*
X422196Y219255D01*
X422199Y219265D01*
X422204Y219274D01*
X422287Y219504D01*
X422302Y219560D01*
X422334Y219598D01*
X422338Y219605D01*
X422341Y219609D01*
X422352Y219629D01*
X422455Y219811D01*
X422797Y220545D01*
X422851Y220705D01*
X422892Y220826D01*
X422924Y220871D01*
X422929Y220880D01*
X422936Y220888D01*
X423057Y221101D01*
X423174Y221352D01*
X423177Y221361D01*
X423182Y221369D01*
X423232Y221525D01*
X423284Y221683D01*
X423285Y221692D01*
X423288Y221701D01*
X423301Y221865D01*
X423316Y222030D01*
X423315Y222039D01*
X423316Y222048D01*
X423291Y222212D01*
X423269Y222375D01*
X423265Y222384D01*
X423264Y222393D01*
X423203Y222546D01*
X423144Y222701D01*
X423139Y222708D01*
X423135Y222717D01*
X423042Y222851D01*
X422949Y222989D01*
X422942Y222995D01*
X422936Y223003D01*
X422815Y223113D01*
X422693Y223226D01*
X422685Y223230D01*
X422678Y223236D01*
X422533Y223316D01*
X422390Y223398D01*
X422381Y223400D01*
X422373Y223405D01*
X422213Y223450D01*
X422055Y223497D01*
X422046Y223497D01*
X422037Y223500D01*
X421793Y223519D01*
X414211Y223519D01*
X414112Y223508D01*
X414011Y223506D01*
X413939Y223488D01*
X413865Y223479D01*
X413771Y223446D01*
X413673Y223421D01*
X413607Y223387D01*
X413537Y223362D01*
X413453Y223307D01*
X413363Y223261D01*
X413307Y223213D01*
X413244Y223173D01*
X413174Y223101D01*
X413098Y223036D01*
X413054Y222976D01*
X413002Y222922D01*
X412950Y222836D01*
X412891Y222755D01*
X412861Y222687D01*
X412823Y222623D01*
X412793Y222528D01*
X412753Y222435D01*
X412740Y222362D01*
X412717Y222291D01*
X412709Y222191D01*
X412691Y222092D01*
X412695Y222018D01*
X412689Y221944D01*
X412704Y221845D01*
X412709Y221744D01*
X412730Y221673D01*
X412741Y221599D01*
X412778Y221506D01*
X412806Y221409D01*
X412842Y221344D01*
X412869Y221275D01*
X412927Y221193D01*
X412976Y221105D01*
X413041Y221029D01*
X413068Y220989D01*
X413095Y220965D01*
X413134Y220919D01*
X413445Y220608D01*
X414711Y217553D01*
X414711Y214247D01*
X413445Y211192D01*
X411108Y208855D01*
X408053Y207589D01*
X404747Y207589D01*
X401692Y208855D01*
X399355Y211192D01*
X398089Y214247D01*
X398089Y217553D01*
X399355Y220608D01*
X399666Y220919D01*
X399728Y220997D01*
X399798Y221070D01*
X399836Y221134D01*
X399882Y221192D01*
X399925Y221283D01*
X399977Y221369D01*
X399999Y221440D01*
X400031Y221507D01*
X400052Y221605D01*
X400083Y221701D01*
X400089Y221775D01*
X400105Y221848D01*
X400103Y221948D01*
X400111Y222048D01*
X400100Y222122D01*
X400099Y222196D01*
X400074Y222294D01*
X400059Y222393D01*
X400032Y222462D01*
X400014Y222534D01*
X399968Y222623D01*
X399931Y222717D01*
X399888Y222778D01*
X399854Y222844D01*
X399789Y222920D01*
X399732Y223003D01*
X399677Y223053D01*
X399628Y223109D01*
X399547Y223169D01*
X399473Y223236D01*
X399408Y223272D01*
X399348Y223317D01*
X399256Y223356D01*
X399168Y223405D01*
X399096Y223425D01*
X399028Y223455D01*
X398929Y223472D01*
X398832Y223500D01*
X398732Y223508D01*
X398685Y223516D01*
X398649Y223514D01*
X398589Y223519D01*
X388811Y223519D01*
X388712Y223508D01*
X388611Y223506D01*
X388539Y223488D01*
X388465Y223479D01*
X388371Y223446D01*
X388273Y223421D01*
X388207Y223387D01*
X388137Y223362D01*
X388053Y223307D01*
X387963Y223261D01*
X387907Y223213D01*
X387844Y223173D01*
X387774Y223101D01*
X387698Y223036D01*
X387654Y222976D01*
X387602Y222922D01*
X387550Y222836D01*
X387491Y222755D01*
X387461Y222687D01*
X387423Y222623D01*
X387393Y222528D01*
X387353Y222435D01*
X387340Y222362D01*
X387317Y222291D01*
X387309Y222191D01*
X387291Y222092D01*
X387295Y222018D01*
X387289Y221944D01*
X387304Y221845D01*
X387309Y221744D01*
X387330Y221673D01*
X387341Y221599D01*
X387378Y221506D01*
X387406Y221409D01*
X387442Y221344D01*
X387469Y221275D01*
X387527Y221193D01*
X387576Y221105D01*
X387641Y221029D01*
X387668Y220989D01*
X387695Y220965D01*
X387734Y220919D01*
X388045Y220608D01*
X389311Y217553D01*
X389311Y214247D01*
X388045Y211192D01*
X385708Y208855D01*
X382653Y207589D01*
X379347Y207589D01*
X376292Y208855D01*
X373955Y211192D01*
X372689Y214247D01*
X372689Y217553D01*
X373955Y220608D01*
X374266Y220919D01*
X374328Y220997D01*
X374398Y221070D01*
X374436Y221134D01*
X374482Y221192D01*
X374525Y221283D01*
X374577Y221369D01*
X374599Y221440D01*
X374631Y221507D01*
X374652Y221605D01*
X374683Y221701D01*
X374689Y221775D01*
X374705Y221848D01*
X374703Y221948D01*
X374711Y222048D01*
X374700Y222122D01*
X374699Y222196D01*
X374674Y222294D01*
X374659Y222393D01*
X374632Y222462D01*
X374614Y222534D01*
X374568Y222623D01*
X374531Y222717D01*
X374488Y222778D01*
X374454Y222844D01*
X374389Y222920D01*
X374332Y223003D01*
X374277Y223053D01*
X374228Y223109D01*
X374147Y223169D01*
X374073Y223236D01*
X374008Y223272D01*
X373948Y223317D01*
X373856Y223356D01*
X373768Y223405D01*
X373696Y223425D01*
X373628Y223455D01*
X373529Y223472D01*
X373432Y223500D01*
X373332Y223508D01*
X373285Y223516D01*
X373249Y223514D01*
X373189Y223519D01*
X363411Y223519D01*
X363312Y223508D01*
X363211Y223506D01*
X363139Y223488D01*
X363065Y223479D01*
X362971Y223446D01*
X362873Y223421D01*
X362807Y223387D01*
X362737Y223362D01*
X362653Y223307D01*
X362563Y223261D01*
X362507Y223213D01*
X362444Y223173D01*
X362374Y223101D01*
X362298Y223036D01*
X362254Y222976D01*
X362202Y222922D01*
X362150Y222836D01*
X362091Y222755D01*
X362061Y222687D01*
X362023Y222623D01*
X361993Y222528D01*
X361953Y222435D01*
X361940Y222362D01*
X361917Y222291D01*
X361909Y222191D01*
X361891Y222092D01*
X361895Y222018D01*
X361889Y221944D01*
X361904Y221845D01*
X361909Y221744D01*
X361930Y221673D01*
X361941Y221599D01*
X361978Y221506D01*
X362006Y221409D01*
X362042Y221344D01*
X362069Y221275D01*
X362127Y221193D01*
X362176Y221105D01*
X362241Y221029D01*
X362268Y220989D01*
X362295Y220965D01*
X362334Y220919D01*
X362645Y220608D01*
X363911Y217553D01*
X363911Y214247D01*
X362645Y211192D01*
X360308Y208855D01*
X357253Y207589D01*
X353947Y207589D01*
X350892Y208855D01*
X348555Y211192D01*
X347289Y214247D01*
X347289Y217553D01*
X348555Y220608D01*
X348866Y220919D01*
X348928Y220997D01*
X348998Y221070D01*
X349036Y221134D01*
X349082Y221192D01*
X349125Y221283D01*
X349177Y221369D01*
X349199Y221440D01*
X349231Y221507D01*
X349252Y221605D01*
X349283Y221701D01*
X349289Y221775D01*
X349305Y221848D01*
X349303Y221948D01*
X349311Y222048D01*
X349300Y222122D01*
X349299Y222196D01*
X349274Y222294D01*
X349259Y222393D01*
X349232Y222462D01*
X349214Y222534D01*
X349168Y222623D01*
X349131Y222717D01*
X349088Y222778D01*
X349054Y222844D01*
X348989Y222920D01*
X348932Y223003D01*
X348877Y223053D01*
X348828Y223109D01*
X348747Y223169D01*
X348673Y223236D01*
X348608Y223272D01*
X348548Y223317D01*
X348456Y223356D01*
X348368Y223405D01*
X348296Y223425D01*
X348228Y223455D01*
X348129Y223472D01*
X348032Y223500D01*
X347932Y223508D01*
X347885Y223516D01*
X347849Y223514D01*
X347789Y223519D01*
X338011Y223519D01*
X337912Y223508D01*
X337811Y223506D01*
X337739Y223488D01*
X337665Y223479D01*
X337571Y223446D01*
X337473Y223421D01*
X337407Y223387D01*
X337337Y223362D01*
X337253Y223307D01*
X337163Y223261D01*
X337107Y223213D01*
X337044Y223173D01*
X336974Y223101D01*
X336898Y223036D01*
X336854Y222976D01*
X336802Y222922D01*
X336750Y222836D01*
X336691Y222755D01*
X336661Y222687D01*
X336623Y222623D01*
X336593Y222528D01*
X336553Y222435D01*
X336540Y222362D01*
X336517Y222291D01*
X336509Y222191D01*
X336491Y222092D01*
X336495Y222018D01*
X336489Y221944D01*
X336504Y221845D01*
X336509Y221744D01*
X336530Y221673D01*
X336541Y221599D01*
X336578Y221506D01*
X336606Y221409D01*
X336642Y221344D01*
X336669Y221275D01*
X336727Y221193D01*
X336776Y221105D01*
X336841Y221029D01*
X336868Y220989D01*
X336895Y220965D01*
X336934Y220919D01*
X337245Y220608D01*
X338511Y217553D01*
X338511Y214247D01*
X337245Y211192D01*
X334908Y208855D01*
X331853Y207589D01*
X328547Y207589D01*
X325492Y208855D01*
X323155Y211192D01*
X321889Y214247D01*
X321889Y217553D01*
X323155Y220608D01*
X323466Y220919D01*
X323528Y220997D01*
X323598Y221070D01*
X323636Y221134D01*
X323682Y221192D01*
X323725Y221283D01*
X323777Y221369D01*
X323799Y221440D01*
X323831Y221507D01*
X323852Y221605D01*
X323883Y221701D01*
X323889Y221775D01*
X323905Y221848D01*
X323903Y221948D01*
X323911Y222048D01*
X323900Y222122D01*
X323899Y222196D01*
X323874Y222294D01*
X323859Y222393D01*
X323832Y222462D01*
X323814Y222534D01*
X323768Y222623D01*
X323731Y222717D01*
X323688Y222778D01*
X323654Y222844D01*
X323589Y222920D01*
X323532Y223003D01*
X323477Y223053D01*
X323428Y223109D01*
X323347Y223169D01*
X323273Y223236D01*
X323208Y223272D01*
X323148Y223317D01*
X323056Y223356D01*
X322968Y223405D01*
X322896Y223425D01*
X322828Y223455D01*
X322729Y223472D01*
X322632Y223500D01*
X322532Y223508D01*
X322485Y223516D01*
X322449Y223514D01*
X322389Y223519D01*
X312611Y223519D01*
X312512Y223508D01*
X312411Y223506D01*
X312339Y223488D01*
X312265Y223479D01*
X312171Y223446D01*
X312073Y223421D01*
X312007Y223387D01*
X311937Y223362D01*
X311853Y223307D01*
X311763Y223261D01*
X311707Y223213D01*
X311644Y223173D01*
X311574Y223101D01*
X311498Y223036D01*
X311454Y222976D01*
X311402Y222922D01*
X311350Y222836D01*
X311291Y222755D01*
X311261Y222687D01*
X311223Y222623D01*
X311193Y222528D01*
X311153Y222435D01*
X311140Y222362D01*
X311117Y222291D01*
X311109Y222191D01*
X311091Y222092D01*
X311095Y222018D01*
X311089Y221944D01*
X311104Y221845D01*
X311109Y221744D01*
X311130Y221673D01*
X311141Y221599D01*
X311178Y221506D01*
X311206Y221409D01*
X311242Y221344D01*
X311269Y221275D01*
X311327Y221193D01*
X311376Y221105D01*
X311441Y221029D01*
X311468Y220989D01*
X311495Y220965D01*
X311534Y220919D01*
X311845Y220608D01*
X313111Y217553D01*
X313111Y214247D01*
X311845Y211192D01*
X309508Y208855D01*
X306453Y207589D01*
X303147Y207589D01*
X300092Y208855D01*
X297755Y211192D01*
X296489Y214247D01*
X296489Y217553D01*
X297755Y220608D01*
X298066Y220919D01*
X298128Y220997D01*
X298198Y221070D01*
X298236Y221134D01*
X298282Y221192D01*
X298325Y221283D01*
X298377Y221369D01*
X298399Y221440D01*
X298431Y221507D01*
X298452Y221605D01*
X298483Y221701D01*
X298489Y221775D01*
X298505Y221848D01*
X298503Y221948D01*
X298511Y222048D01*
X298500Y222122D01*
X298499Y222196D01*
X298474Y222294D01*
X298459Y222393D01*
X298432Y222462D01*
X298414Y222534D01*
X298368Y222623D01*
X298331Y222717D01*
X298288Y222778D01*
X298254Y222844D01*
X298189Y222920D01*
X298132Y223003D01*
X298077Y223053D01*
X298028Y223109D01*
X297947Y223169D01*
X297873Y223236D01*
X297808Y223272D01*
X297748Y223317D01*
X297656Y223356D01*
X297568Y223405D01*
X297496Y223425D01*
X297428Y223455D01*
X297329Y223472D01*
X297232Y223500D01*
X297132Y223508D01*
X297085Y223516D01*
X297049Y223514D01*
X296989Y223519D01*
X287211Y223519D01*
X287112Y223508D01*
X287011Y223506D01*
X286939Y223488D01*
X286865Y223479D01*
X286771Y223446D01*
X286673Y223421D01*
X286607Y223387D01*
X286537Y223362D01*
X286453Y223307D01*
X286363Y223261D01*
X286307Y223213D01*
X286244Y223173D01*
X286174Y223101D01*
X286098Y223036D01*
X286054Y222976D01*
X286002Y222922D01*
X285950Y222836D01*
X285891Y222755D01*
X285861Y222687D01*
X285823Y222623D01*
X285793Y222528D01*
X285753Y222435D01*
X285740Y222362D01*
X285717Y222291D01*
X285709Y222191D01*
X285691Y222092D01*
X285695Y222018D01*
X285689Y221944D01*
X285704Y221845D01*
X285709Y221744D01*
X285730Y221673D01*
X285741Y221599D01*
X285778Y221506D01*
X285806Y221409D01*
X285842Y221344D01*
X285869Y221275D01*
X285927Y221193D01*
X285976Y221105D01*
X286041Y221029D01*
X286068Y220989D01*
X286095Y220965D01*
X286134Y220919D01*
X286445Y220608D01*
X287711Y217553D01*
X287711Y214247D01*
X286445Y211192D01*
X284108Y208855D01*
X281053Y207589D01*
X277747Y207589D01*
X274692Y208855D01*
X272355Y211192D01*
X271089Y214247D01*
X271089Y217553D01*
X272355Y220608D01*
X272666Y220919D01*
X272728Y220997D01*
X272798Y221070D01*
X272836Y221134D01*
X272882Y221192D01*
X272925Y221283D01*
X272977Y221369D01*
X272999Y221440D01*
X273031Y221507D01*
X273052Y221605D01*
X273083Y221701D01*
X273089Y221775D01*
X273105Y221848D01*
X273103Y221948D01*
X273111Y222048D01*
X273100Y222122D01*
X273099Y222196D01*
X273074Y222294D01*
X273059Y222393D01*
X273032Y222462D01*
X273014Y222534D01*
X272968Y222623D01*
X272931Y222717D01*
X272888Y222778D01*
X272854Y222844D01*
X272789Y222920D01*
X272732Y223003D01*
X272677Y223053D01*
X272628Y223109D01*
X272547Y223169D01*
X272473Y223236D01*
X272408Y223272D01*
X272348Y223317D01*
X272256Y223356D01*
X272168Y223405D01*
X272096Y223425D01*
X272028Y223455D01*
X271929Y223472D01*
X271832Y223500D01*
X271732Y223508D01*
X271685Y223516D01*
X271649Y223514D01*
X271589Y223519D01*
X261811Y223519D01*
X261712Y223508D01*
X261611Y223506D01*
X261539Y223488D01*
X261465Y223479D01*
X261371Y223446D01*
X261273Y223421D01*
X261207Y223387D01*
X261137Y223362D01*
X261053Y223307D01*
X260963Y223261D01*
X260907Y223213D01*
X260844Y223173D01*
X260774Y223101D01*
X260698Y223036D01*
X260654Y222976D01*
X260602Y222922D01*
X260550Y222836D01*
X260491Y222755D01*
X260461Y222687D01*
X260423Y222623D01*
X260393Y222528D01*
X260353Y222435D01*
X260340Y222362D01*
X260317Y222291D01*
X260309Y222191D01*
X260291Y222092D01*
X260295Y222018D01*
X260289Y221944D01*
X260304Y221845D01*
X260309Y221744D01*
X260330Y221673D01*
X260341Y221599D01*
X260378Y221506D01*
X260406Y221409D01*
X260442Y221344D01*
X260469Y221275D01*
X260527Y221193D01*
X260576Y221105D01*
X260641Y221029D01*
X260668Y220989D01*
X260695Y220965D01*
X260734Y220919D01*
X261045Y220608D01*
X262311Y217553D01*
X262311Y214247D01*
X261045Y211192D01*
X258708Y208855D01*
X255653Y207589D01*
X252347Y207589D01*
X249292Y208855D01*
X246955Y211192D01*
X245689Y214247D01*
X245689Y217553D01*
X246955Y220608D01*
X247266Y220919D01*
X247328Y220997D01*
X247398Y221070D01*
X247436Y221134D01*
X247482Y221192D01*
X247525Y221283D01*
X247577Y221369D01*
X247599Y221440D01*
X247631Y221507D01*
X247652Y221605D01*
X247683Y221701D01*
X247689Y221775D01*
X247705Y221848D01*
X247703Y221948D01*
X247711Y222048D01*
X247700Y222122D01*
X247699Y222196D01*
X247674Y222294D01*
X247659Y222393D01*
X247632Y222462D01*
X247614Y222534D01*
X247568Y222623D01*
X247531Y222717D01*
X247488Y222778D01*
X247454Y222844D01*
X247389Y222920D01*
X247332Y223003D01*
X247277Y223053D01*
X247228Y223109D01*
X247147Y223169D01*
X247073Y223236D01*
X247008Y223272D01*
X246948Y223317D01*
X246856Y223356D01*
X246768Y223405D01*
X246696Y223425D01*
X246628Y223455D01*
X246529Y223472D01*
X246432Y223500D01*
X246332Y223508D01*
X246285Y223516D01*
X246249Y223514D01*
X246189Y223519D01*
X236411Y223519D01*
X236312Y223508D01*
X236211Y223506D01*
X236139Y223488D01*
X236065Y223479D01*
X235971Y223446D01*
X235873Y223421D01*
X235807Y223387D01*
X235737Y223362D01*
X235653Y223307D01*
X235563Y223261D01*
X235507Y223213D01*
X235444Y223173D01*
X235374Y223101D01*
X235298Y223036D01*
X235254Y222976D01*
X235202Y222922D01*
X235150Y222836D01*
X235091Y222755D01*
X235061Y222687D01*
X235023Y222623D01*
X234993Y222528D01*
X234953Y222435D01*
X234940Y222362D01*
X234917Y222291D01*
X234909Y222191D01*
X234891Y222092D01*
X234895Y222018D01*
X234889Y221944D01*
X234904Y221845D01*
X234909Y221744D01*
X234930Y221673D01*
X234941Y221599D01*
X234978Y221506D01*
X235006Y221409D01*
X235042Y221344D01*
X235069Y221275D01*
X235127Y221193D01*
X235176Y221105D01*
X235241Y221029D01*
X235268Y220989D01*
X235295Y220965D01*
X235334Y220919D01*
X235645Y220608D01*
X236911Y217553D01*
X236911Y214247D01*
X235645Y211192D01*
X233308Y208855D01*
X230253Y207589D01*
X226947Y207589D01*
X223892Y208855D01*
X221555Y211192D01*
X220289Y214247D01*
X220289Y217553D01*
X221555Y220608D01*
X221866Y220919D01*
X221928Y220997D01*
X221998Y221070D01*
X222036Y221134D01*
X222082Y221192D01*
X222125Y221283D01*
X222177Y221369D01*
X222199Y221440D01*
X222231Y221507D01*
X222252Y221605D01*
X222283Y221701D01*
X222289Y221775D01*
X222305Y221848D01*
X222303Y221948D01*
X222311Y222048D01*
X222300Y222122D01*
X222299Y222196D01*
X222274Y222294D01*
X222259Y222393D01*
X222232Y222462D01*
X222214Y222534D01*
X222168Y222623D01*
X222131Y222717D01*
X222088Y222778D01*
X222054Y222844D01*
X221989Y222920D01*
X221932Y223003D01*
X221877Y223053D01*
X221828Y223109D01*
X221747Y223169D01*
X221673Y223236D01*
X221608Y223272D01*
X221548Y223317D01*
X221456Y223356D01*
X221368Y223405D01*
X221296Y223425D01*
X221228Y223455D01*
X221129Y223472D01*
X221032Y223500D01*
X220932Y223508D01*
X220885Y223516D01*
X220849Y223514D01*
X220789Y223519D01*
X211011Y223519D01*
X210912Y223508D01*
X210811Y223506D01*
X210739Y223488D01*
X210665Y223479D01*
X210571Y223446D01*
X210473Y223421D01*
X210407Y223387D01*
X210337Y223362D01*
X210253Y223307D01*
X210163Y223261D01*
X210107Y223213D01*
X210044Y223173D01*
X209974Y223101D01*
X209898Y223036D01*
X209854Y222976D01*
X209802Y222922D01*
X209750Y222836D01*
X209691Y222755D01*
X209661Y222687D01*
X209623Y222623D01*
X209593Y222528D01*
X209553Y222435D01*
X209540Y222362D01*
X209517Y222291D01*
X209509Y222191D01*
X209491Y222092D01*
X209495Y222018D01*
X209489Y221944D01*
X209504Y221845D01*
X209509Y221744D01*
X209530Y221673D01*
X209541Y221599D01*
X209578Y221506D01*
X209606Y221409D01*
X209642Y221344D01*
X209669Y221275D01*
X209727Y221193D01*
X209776Y221105D01*
X209841Y221029D01*
X209868Y220989D01*
X209895Y220965D01*
X209934Y220919D01*
X210245Y220608D01*
X211511Y217553D01*
X211511Y214247D01*
X210245Y211192D01*
X207908Y208855D01*
X204853Y207589D01*
X201547Y207589D01*
X198492Y208855D01*
X196155Y211192D01*
X194889Y214247D01*
X194889Y217553D01*
X196155Y220608D01*
X196466Y220919D01*
X196528Y220997D01*
X196598Y221070D01*
X196636Y221134D01*
X196682Y221192D01*
X196725Y221283D01*
X196777Y221369D01*
X196799Y221440D01*
X196831Y221507D01*
X196852Y221605D01*
X196883Y221701D01*
X196889Y221775D01*
X196905Y221848D01*
X196903Y221948D01*
X196911Y222048D01*
X196900Y222122D01*
X196899Y222196D01*
X196874Y222294D01*
X196859Y222393D01*
X196832Y222462D01*
X196814Y222534D01*
X196768Y222623D01*
X196731Y222717D01*
X196688Y222778D01*
X196654Y222844D01*
X196589Y222920D01*
X196532Y223003D01*
X196477Y223053D01*
X196428Y223109D01*
X196347Y223169D01*
X196273Y223236D01*
X196208Y223272D01*
X196148Y223317D01*
X196056Y223356D01*
X195968Y223405D01*
X195896Y223425D01*
X195828Y223455D01*
X195729Y223472D01*
X195632Y223500D01*
X195532Y223508D01*
X195485Y223516D01*
X195449Y223514D01*
X195389Y223519D01*
X185611Y223519D01*
X185512Y223508D01*
X185411Y223506D01*
X185339Y223488D01*
X185265Y223479D01*
X185171Y223446D01*
X185073Y223421D01*
X185007Y223387D01*
X184937Y223362D01*
X184853Y223307D01*
X184763Y223261D01*
X184707Y223213D01*
X184644Y223173D01*
X184574Y223101D01*
X184498Y223036D01*
X184454Y222976D01*
X184402Y222922D01*
X184350Y222836D01*
X184291Y222755D01*
X184261Y222687D01*
X184223Y222623D01*
X184193Y222528D01*
X184153Y222435D01*
X184140Y222362D01*
X184117Y222291D01*
X184109Y222191D01*
X184091Y222092D01*
X184095Y222018D01*
X184089Y221944D01*
X184104Y221845D01*
X184109Y221744D01*
X184130Y221673D01*
X184141Y221599D01*
X184178Y221506D01*
X184206Y221409D01*
X184242Y221344D01*
X184269Y221275D01*
X184327Y221193D01*
X184376Y221105D01*
X184441Y221029D01*
X184468Y220989D01*
X184495Y220965D01*
X184534Y220919D01*
X184845Y220608D01*
X186111Y217553D01*
X186111Y214247D01*
X184845Y211192D01*
X182508Y208855D01*
X179453Y207589D01*
X176147Y207589D01*
X173092Y208855D01*
X170755Y211192D01*
X169489Y214247D01*
X169489Y217553D01*
X170755Y220608D01*
X171066Y220919D01*
X171128Y220997D01*
X171198Y221070D01*
X171236Y221134D01*
X171282Y221192D01*
X171325Y221283D01*
X171377Y221369D01*
X171399Y221440D01*
X171431Y221507D01*
X171452Y221605D01*
X171483Y221701D01*
X171489Y221775D01*
X171505Y221848D01*
X171503Y221948D01*
X171511Y222048D01*
X171500Y222122D01*
X171499Y222196D01*
X171474Y222294D01*
X171459Y222393D01*
X171432Y222462D01*
X171414Y222534D01*
X171368Y222623D01*
X171331Y222717D01*
X171288Y222778D01*
X171254Y222844D01*
X171189Y222920D01*
X171132Y223003D01*
X171077Y223053D01*
X171028Y223109D01*
X170947Y223169D01*
X170873Y223236D01*
X170808Y223272D01*
X170748Y223317D01*
X170656Y223356D01*
X170568Y223405D01*
X170496Y223425D01*
X170428Y223455D01*
X170329Y223472D01*
X170232Y223500D01*
X170132Y223508D01*
X170085Y223516D01*
X170049Y223514D01*
X169989Y223519D01*
X160211Y223519D01*
X160112Y223508D01*
X160011Y223506D01*
X159939Y223488D01*
X159865Y223479D01*
X159771Y223446D01*
X159673Y223421D01*
X159607Y223387D01*
X159537Y223362D01*
X159453Y223307D01*
X159363Y223261D01*
X159307Y223213D01*
X159244Y223173D01*
X159174Y223101D01*
X159098Y223036D01*
X159054Y222976D01*
X159002Y222922D01*
X158950Y222836D01*
X158891Y222755D01*
X158861Y222687D01*
X158823Y222623D01*
X158793Y222528D01*
X158753Y222435D01*
X158740Y222362D01*
X158717Y222291D01*
X158709Y222191D01*
X158691Y222092D01*
X158695Y222018D01*
X158689Y221944D01*
X158704Y221845D01*
X158709Y221744D01*
X158730Y221673D01*
X158741Y221599D01*
X158778Y221506D01*
X158806Y221409D01*
X158842Y221344D01*
X158869Y221275D01*
X158927Y221193D01*
X158976Y221105D01*
X159041Y221029D01*
X159068Y220989D01*
X159095Y220965D01*
X159134Y220919D01*
X159445Y220608D01*
X160711Y217553D01*
X160711Y214247D01*
X159445Y211192D01*
X157108Y208855D01*
X154053Y207589D01*
X150747Y207589D01*
X147692Y208855D01*
X145355Y211192D01*
X144089Y214247D01*
X144089Y217553D01*
X145355Y220608D01*
X145666Y220919D01*
X145728Y220997D01*
X145798Y221070D01*
X145836Y221134D01*
X145882Y221192D01*
X145925Y221283D01*
X145977Y221369D01*
X145999Y221440D01*
X146031Y221507D01*
X146052Y221605D01*
X146083Y221701D01*
X146089Y221775D01*
X146105Y221848D01*
X146103Y221948D01*
X146111Y222048D01*
X146100Y222122D01*
X146099Y222196D01*
X146074Y222294D01*
X146059Y222393D01*
X146032Y222462D01*
X146014Y222534D01*
X145968Y222623D01*
X145931Y222717D01*
X145888Y222778D01*
X145854Y222844D01*
X145789Y222920D01*
X145732Y223003D01*
X145677Y223053D01*
X145628Y223109D01*
X145547Y223169D01*
X145473Y223236D01*
X145408Y223272D01*
X145348Y223317D01*
X145256Y223356D01*
X145168Y223405D01*
X145096Y223425D01*
X145028Y223455D01*
X144929Y223472D01*
X144832Y223500D01*
X144732Y223508D01*
X144685Y223516D01*
X144649Y223514D01*
X144589Y223519D01*
X134811Y223519D01*
X134712Y223508D01*
X134611Y223506D01*
X134539Y223488D01*
X134465Y223479D01*
X134371Y223446D01*
X134273Y223421D01*
X134207Y223387D01*
X134137Y223362D01*
X134053Y223307D01*
X133963Y223261D01*
X133907Y223213D01*
X133844Y223173D01*
X133774Y223101D01*
X133698Y223036D01*
X133654Y222976D01*
X133602Y222922D01*
X133550Y222836D01*
X133491Y222755D01*
X133461Y222687D01*
X133423Y222623D01*
X133393Y222528D01*
X133353Y222435D01*
X133340Y222362D01*
X133317Y222291D01*
X133309Y222191D01*
X133291Y222092D01*
X133295Y222018D01*
X133289Y221944D01*
X133304Y221845D01*
X133309Y221744D01*
X133330Y221673D01*
X133341Y221599D01*
X133378Y221506D01*
X133406Y221409D01*
X133442Y221344D01*
X133469Y221275D01*
X133527Y221193D01*
X133576Y221105D01*
X133641Y221029D01*
X133668Y220989D01*
X133695Y220965D01*
X133734Y220919D01*
X134045Y220608D01*
X135311Y217553D01*
X135311Y214247D01*
X134045Y211192D01*
X131708Y208855D01*
X128653Y207589D01*
X125347Y207589D01*
X122292Y208855D01*
X119955Y211192D01*
X118689Y214247D01*
X118689Y217553D01*
X119955Y220608D01*
X120266Y220919D01*
X120328Y220997D01*
X120398Y221070D01*
X120436Y221134D01*
X120482Y221192D01*
X120525Y221283D01*
X120577Y221369D01*
X120599Y221440D01*
X120631Y221507D01*
X120652Y221605D01*
X120683Y221701D01*
X120689Y221775D01*
X120705Y221848D01*
X120703Y221948D01*
X120711Y222048D01*
X120700Y222122D01*
X120699Y222196D01*
X120674Y222294D01*
X120659Y222393D01*
X120632Y222462D01*
X120614Y222534D01*
X120568Y222623D01*
X120531Y222717D01*
X120488Y222778D01*
X120454Y222844D01*
X120389Y222920D01*
X120332Y223003D01*
X120277Y223053D01*
X120228Y223109D01*
X120147Y223169D01*
X120073Y223236D01*
X120008Y223272D01*
X119948Y223317D01*
X119856Y223356D01*
X119768Y223405D01*
X119696Y223425D01*
X119628Y223455D01*
X119529Y223472D01*
X119432Y223500D01*
X119332Y223508D01*
X119285Y223516D01*
X119249Y223514D01*
X119189Y223519D01*
X109411Y223519D01*
X109312Y223508D01*
X109211Y223506D01*
X109139Y223488D01*
X109065Y223479D01*
X108971Y223446D01*
X108873Y223421D01*
X108807Y223387D01*
X108737Y223362D01*
X108653Y223307D01*
X108563Y223261D01*
X108507Y223213D01*
X108444Y223173D01*
X108374Y223101D01*
X108298Y223036D01*
X108254Y222976D01*
X108202Y222922D01*
X108150Y222836D01*
X108091Y222755D01*
X108061Y222687D01*
X108023Y222623D01*
X107993Y222528D01*
X107953Y222435D01*
X107940Y222362D01*
X107917Y222291D01*
X107909Y222191D01*
X107891Y222092D01*
X107895Y222018D01*
X107889Y221944D01*
X107904Y221845D01*
X107909Y221744D01*
X107930Y221673D01*
X107941Y221599D01*
X107978Y221506D01*
X108006Y221409D01*
X108042Y221344D01*
X108069Y221275D01*
X108127Y221193D01*
X108176Y221105D01*
X108241Y221029D01*
X108268Y220989D01*
X108295Y220965D01*
X108334Y220919D01*
X108645Y220608D01*
X109911Y217553D01*
X109911Y214247D01*
X108645Y211192D01*
X106308Y208855D01*
X103253Y207589D01*
X99947Y207589D01*
X96892Y208855D01*
X94555Y211192D01*
X93289Y214247D01*
X93289Y217553D01*
X94555Y220608D01*
X94866Y220919D01*
X94928Y220997D01*
X94998Y221070D01*
X95036Y221134D01*
X95082Y221192D01*
X95125Y221283D01*
X95177Y221369D01*
X95199Y221440D01*
X95231Y221507D01*
X95252Y221605D01*
X95283Y221701D01*
X95289Y221775D01*
X95305Y221848D01*
X95303Y221948D01*
X95311Y222048D01*
X95300Y222122D01*
X95299Y222196D01*
X95274Y222294D01*
X95259Y222393D01*
X95232Y222462D01*
X95214Y222534D01*
X95168Y222623D01*
X95131Y222717D01*
X95088Y222778D01*
X95054Y222844D01*
X94989Y222920D01*
X94932Y223003D01*
X94877Y223053D01*
X94828Y223109D01*
X94747Y223169D01*
X94673Y223236D01*
X94608Y223272D01*
X94548Y223317D01*
X94456Y223356D01*
X94368Y223405D01*
X94296Y223425D01*
X94228Y223455D01*
X94129Y223472D01*
X94032Y223500D01*
X93932Y223508D01*
X93885Y223516D01*
X93849Y223514D01*
X93789Y223519D01*
X84011Y223519D01*
X83912Y223508D01*
X83811Y223506D01*
X83739Y223488D01*
X83665Y223479D01*
X83571Y223446D01*
X83473Y223421D01*
X83407Y223387D01*
X83337Y223362D01*
X83253Y223307D01*
X83163Y223261D01*
X83107Y223213D01*
X83044Y223173D01*
X82974Y223101D01*
X82898Y223036D01*
X82854Y222976D01*
X82802Y222922D01*
X82750Y222836D01*
X82691Y222755D01*
X82661Y222687D01*
X82623Y222623D01*
X82593Y222528D01*
X82553Y222435D01*
X82540Y222362D01*
X82517Y222291D01*
X82509Y222191D01*
X82491Y222092D01*
X82495Y222018D01*
X82489Y221944D01*
X82504Y221845D01*
X82509Y221744D01*
X82530Y221673D01*
X82541Y221599D01*
X82578Y221506D01*
X82606Y221409D01*
X82642Y221344D01*
X82669Y221275D01*
X82727Y221193D01*
X82776Y221105D01*
X82841Y221029D01*
X82868Y220989D01*
X82895Y220965D01*
X82934Y220919D01*
X83245Y220608D01*
X84511Y217553D01*
X84511Y214247D01*
X83245Y211192D01*
X80908Y208855D01*
X77853Y207589D01*
X74547Y207589D01*
X71492Y208855D01*
X69155Y211192D01*
X67889Y214247D01*
X67889Y217553D01*
X69155Y220608D01*
X69466Y220919D01*
X69528Y220997D01*
X69598Y221070D01*
X69636Y221134D01*
X69682Y221192D01*
X69725Y221283D01*
X69777Y221369D01*
X69799Y221440D01*
X69831Y221507D01*
X69852Y221605D01*
X69883Y221701D01*
X69889Y221775D01*
X69905Y221848D01*
X69903Y221948D01*
X69911Y222048D01*
X69900Y222122D01*
X69899Y222196D01*
X69874Y222294D01*
X69859Y222393D01*
X69832Y222462D01*
X69814Y222534D01*
X69768Y222623D01*
X69731Y222717D01*
X69688Y222778D01*
X69654Y222844D01*
X69589Y222920D01*
X69532Y223003D01*
X69477Y223053D01*
X69428Y223109D01*
X69347Y223169D01*
X69273Y223236D01*
X69208Y223272D01*
X69148Y223317D01*
X69056Y223356D01*
X68968Y223405D01*
X68896Y223425D01*
X68828Y223455D01*
X68729Y223472D01*
X68632Y223500D01*
X68532Y223508D01*
X68485Y223516D01*
X68449Y223514D01*
X68389Y223519D01*
X58611Y223519D01*
X58512Y223508D01*
X58411Y223506D01*
X58339Y223488D01*
X58265Y223479D01*
X58171Y223446D01*
X58073Y223421D01*
X58007Y223387D01*
X57937Y223362D01*
X57853Y223307D01*
X57763Y223261D01*
X57707Y223213D01*
X57644Y223173D01*
X57574Y223101D01*
X57498Y223036D01*
X57454Y222976D01*
X57402Y222922D01*
X57350Y222836D01*
X57291Y222755D01*
X57261Y222687D01*
X57223Y222623D01*
X57193Y222528D01*
X57153Y222435D01*
X57140Y222362D01*
X57117Y222291D01*
X57109Y222191D01*
X57091Y222092D01*
X57095Y222018D01*
X57089Y221944D01*
X57104Y221845D01*
X57109Y221744D01*
X57130Y221673D01*
X57141Y221599D01*
X57178Y221506D01*
X57206Y221409D01*
X57242Y221344D01*
X57269Y221275D01*
X57327Y221193D01*
X57376Y221105D01*
X57441Y221029D01*
X57468Y220989D01*
X57495Y220965D01*
X57534Y220919D01*
X57845Y220608D01*
X59111Y217553D01*
X59111Y214247D01*
X57845Y211192D01*
X55508Y208855D01*
X52453Y207589D01*
X49147Y207589D01*
X46092Y208855D01*
X43755Y211192D01*
X42489Y214247D01*
X42489Y217553D01*
X43755Y220608D01*
X44066Y220919D01*
X44128Y220997D01*
X44198Y221070D01*
X44236Y221134D01*
X44282Y221192D01*
X44325Y221283D01*
X44377Y221369D01*
X44399Y221440D01*
X44431Y221507D01*
X44452Y221605D01*
X44483Y221701D01*
X44489Y221775D01*
X44505Y221848D01*
X44503Y221948D01*
X44511Y222048D01*
X44500Y222122D01*
X44499Y222196D01*
X44474Y222294D01*
X44459Y222393D01*
X44432Y222462D01*
X44414Y222534D01*
X44368Y222623D01*
X44331Y222717D01*
X44288Y222778D01*
X44254Y222844D01*
X44189Y222920D01*
X44132Y223003D01*
X44077Y223053D01*
X44028Y223109D01*
X43947Y223169D01*
X43873Y223236D01*
X43808Y223272D01*
X43748Y223317D01*
X43656Y223356D01*
X43568Y223405D01*
X43496Y223425D01*
X43428Y223455D01*
X43329Y223472D01*
X43232Y223500D01*
X43132Y223508D01*
X43085Y223516D01*
X43049Y223514D01*
X42989Y223519D01*
X33211Y223519D01*
X33112Y223508D01*
X33011Y223506D01*
X32939Y223488D01*
X32865Y223479D01*
X32771Y223446D01*
X32673Y223421D01*
X32607Y223387D01*
X32537Y223362D01*
X32453Y223307D01*
X32363Y223261D01*
X32307Y223213D01*
X32244Y223173D01*
X32174Y223101D01*
X32098Y223036D01*
X32054Y222976D01*
X32002Y222922D01*
X31950Y222836D01*
X31891Y222755D01*
X31861Y222687D01*
X31823Y222623D01*
X31793Y222528D01*
X31753Y222435D01*
X31740Y222362D01*
X31717Y222291D01*
X31709Y222191D01*
X31691Y222092D01*
X31695Y222018D01*
X31689Y221944D01*
X31704Y221845D01*
X31709Y221744D01*
X31730Y221673D01*
X31741Y221599D01*
X31778Y221506D01*
X31806Y221409D01*
X31842Y221344D01*
X31869Y221275D01*
X31927Y221193D01*
X31976Y221105D01*
X32041Y221029D01*
X32068Y220989D01*
X32095Y220965D01*
X32134Y220919D01*
X32445Y220608D01*
X33711Y217553D01*
X33711Y214247D01*
X32445Y211192D01*
X30108Y208855D01*
X27053Y207589D01*
X23747Y207589D01*
X20692Y208855D01*
X18355Y211192D01*
X17089Y214247D01*
X17089Y217553D01*
X18355Y220608D01*
X18666Y220919D01*
X18728Y220997D01*
X18798Y221070D01*
X18836Y221134D01*
X18882Y221192D01*
X18925Y221283D01*
X18977Y221369D01*
X18999Y221440D01*
X19031Y221507D01*
X19052Y221605D01*
X19083Y221701D01*
X19089Y221775D01*
X19105Y221848D01*
X19103Y221948D01*
X19111Y222048D01*
X19100Y222122D01*
X19099Y222196D01*
X19074Y222294D01*
X19059Y222393D01*
X19032Y222462D01*
X19014Y222534D01*
X18968Y222623D01*
X18931Y222717D01*
X18888Y222778D01*
X18854Y222844D01*
X18789Y222920D01*
X18732Y223003D01*
X18677Y223053D01*
X18628Y223109D01*
X18547Y223169D01*
X18473Y223236D01*
X18408Y223272D01*
X18348Y223317D01*
X18256Y223356D01*
X18168Y223405D01*
X18096Y223425D01*
X18028Y223455D01*
X17929Y223472D01*
X17832Y223500D01*
X17732Y223508D01*
X17685Y223516D01*
X17649Y223514D01*
X17589Y223519D01*
X12753Y223519D01*
X12705Y223514D01*
X12603Y223512D01*
X11404Y223394D01*
X11304Y223372D01*
X11203Y223360D01*
X11110Y223330D01*
X11063Y223320D01*
X11030Y223304D01*
X10970Y223285D01*
X8754Y222367D01*
X8752Y222366D01*
X8750Y222366D01*
X8598Y222280D01*
X8449Y222198D01*
X8448Y222196D01*
X8446Y222195D01*
X8260Y222037D01*
X6563Y220340D01*
X6562Y220339D01*
X6560Y220338D01*
X6453Y220201D01*
X6347Y220067D01*
X6346Y220066D01*
X6344Y220064D01*
X6233Y219846D01*
X5315Y217630D01*
X5287Y217532D01*
X5250Y217437D01*
X5232Y217341D01*
X5219Y217295D01*
X5217Y217258D01*
X5206Y217196D01*
X5088Y215997D01*
X5089Y215948D01*
X5081Y215847D01*
X5081Y206857D01*
X5082Y206847D01*
X5081Y206838D01*
X5102Y206675D01*
X5121Y206510D01*
X5124Y206502D01*
X5125Y206492D01*
X5182Y206338D01*
X5238Y206182D01*
X5243Y206174D01*
X5246Y206166D01*
X5338Y206028D01*
X5427Y205889D01*
X5434Y205883D01*
X5439Y205875D01*
X5559Y205762D01*
X5678Y205647D01*
X5686Y205643D01*
X5692Y205636D01*
X5836Y205553D01*
X5977Y205468D01*
X5986Y205466D01*
X5994Y205461D01*
X6151Y205413D01*
X6309Y205362D01*
X6318Y205361D01*
X6327Y205359D01*
X6492Y205347D01*
X6656Y205334D01*
X6665Y205336D01*
X6675Y205335D01*
X6837Y205361D01*
X7001Y205386D01*
X7009Y205389D01*
X7019Y205391D01*
X7248Y205476D01*
X7499Y205593D01*
X7508Y205599D01*
X7518Y205602D01*
X7729Y205726D01*
X7776Y205759D01*
X7826Y205767D01*
X7833Y205770D01*
X7838Y205771D01*
X7859Y205780D01*
X8055Y205853D01*
X8789Y206195D01*
X8933Y206283D01*
X9042Y206349D01*
X9096Y206363D01*
X9106Y206367D01*
X9116Y206369D01*
X9346Y206454D01*
X9398Y206479D01*
X9449Y206478D01*
X9456Y206480D01*
X9461Y206480D01*
X9483Y206485D01*
X9689Y206522D01*
X10471Y206732D01*
X10628Y206794D01*
X10747Y206840D01*
X10803Y206845D01*
X10813Y206847D01*
X10824Y206847D01*
X11064Y206891D01*
X11121Y206906D01*
X11170Y206897D01*
X11177Y206897D01*
X11182Y206896D01*
X11205Y206897D01*
X11414Y206898D01*
X12221Y206969D01*
X12387Y207003D01*
X12512Y207027D01*
X12567Y207022D01*
X12578Y207023D01*
X12588Y207021D01*
X12833Y207022D01*
X12891Y207027D01*
X12938Y207010D01*
X12945Y207008D01*
X12950Y207007D01*
X12972Y207004D01*
X13179Y206969D01*
X13986Y206898D01*
X14153Y206903D01*
X14282Y206905D01*
X14336Y206891D01*
X14346Y206889D01*
X14356Y206886D01*
X14597Y206845D01*
X14655Y206840D01*
X14698Y206814D01*
X14705Y206811D01*
X14710Y206809D01*
X14732Y206802D01*
X14929Y206732D01*
X15711Y206522D01*
X15877Y206498D01*
X16004Y206478D01*
X16054Y206454D01*
X16065Y206451D01*
X16074Y206445D01*
X16304Y206363D01*
X16360Y206348D01*
X16398Y206316D01*
X16405Y206312D01*
X16409Y206309D01*
X16429Y206298D01*
X16611Y206195D01*
X17345Y205853D01*
X17505Y205799D01*
X17626Y205758D01*
X17671Y205726D01*
X17680Y205721D01*
X17689Y205714D01*
X17901Y205593D01*
X17954Y205569D01*
X17986Y205530D01*
X17991Y205525D01*
X17995Y205521D01*
X18012Y205508D01*
X18174Y205374D01*
X18838Y204909D01*
X18985Y204829D01*
X19097Y204767D01*
X19137Y204728D01*
X19145Y204721D01*
X19152Y204713D01*
X19340Y204557D01*
X19388Y204524D01*
X19413Y204480D01*
X19417Y204474D01*
X19420Y204470D01*
X19435Y204453D01*
X19571Y204294D01*
X20144Y203721D01*
X20275Y203617D01*
X20375Y203536D01*
X20407Y203490D01*
X20414Y203482D01*
X20419Y203473D01*
X20578Y203287D01*
X20619Y203246D01*
X20635Y203199D01*
X20639Y203192D01*
X20641Y203187D01*
X20654Y203168D01*
X20759Y202988D01*
X21224Y202324D01*
X21336Y202197D01*
X21420Y202102D01*
X21443Y202051D01*
X21449Y202042D01*
X21452Y202032D01*
X21576Y201821D01*
X21609Y201774D01*
X21617Y201724D01*
X21620Y201717D01*
X21621Y201712D01*
X21630Y201691D01*
X21703Y201495D01*
X22045Y200761D01*
X22133Y200617D01*
X22199Y200508D01*
X22213Y200454D01*
X22217Y200444D01*
X22219Y200434D01*
X22304Y200204D01*
X22329Y200152D01*
X22328Y200101D01*
X22330Y200094D01*
X22330Y200089D01*
X22335Y200067D01*
X22372Y199861D01*
X22582Y199079D01*
X22644Y198922D01*
X22690Y198803D01*
X22695Y198747D01*
X22697Y198737D01*
X22697Y198726D01*
X22741Y198486D01*
X22756Y198429D01*
X22747Y198380D01*
X22747Y198373D01*
X22746Y198368D01*
X22747Y198345D01*
X22748Y198136D01*
X22819Y197329D01*
X22853Y197163D01*
X22877Y197038D01*
X22872Y196983D01*
X22873Y196972D01*
X22871Y196962D01*
X22872Y196717D01*
X22877Y196659D01*
X22860Y196612D01*
X22858Y196605D01*
X22857Y196600D01*
X22854Y196578D01*
X22819Y196371D01*
X22748Y195564D01*
X22751Y195468D01*
X22748Y195435D01*
X22753Y195405D01*
X22753Y195397D01*
X22755Y195268D01*
X22741Y195214D01*
X22739Y195204D01*
X22736Y195194D01*
X22695Y194953D01*
X22690Y194895D01*
X22664Y194852D01*
X22662Y194845D01*
X22659Y194840D01*
X22652Y194818D01*
X22582Y194621D01*
X22372Y193839D01*
X22348Y193674D01*
X22328Y193546D01*
X22304Y193495D01*
X22301Y193485D01*
X22296Y193476D01*
X22213Y193246D01*
X22198Y193190D01*
X22166Y193152D01*
X22162Y193145D01*
X22159Y193141D01*
X22148Y193121D01*
X22045Y192939D01*
X21703Y192205D01*
X21649Y192044D01*
X21608Y191924D01*
X21576Y191879D01*
X21571Y191870D01*
X21564Y191861D01*
X21443Y191649D01*
X21419Y191596D01*
X21380Y191564D01*
X21375Y191559D01*
X21371Y191555D01*
X21358Y191538D01*
X21224Y191376D01*
X20759Y190712D01*
X20680Y190565D01*
X20617Y190453D01*
X20578Y190413D01*
X20571Y190405D01*
X20563Y190398D01*
X20407Y190210D01*
X20374Y190162D01*
X20330Y190137D01*
X20324Y190133D01*
X20320Y190130D01*
X20303Y190115D01*
X20144Y189979D01*
X19571Y189406D01*
X19467Y189275D01*
X19386Y189175D01*
X19340Y189143D01*
X19332Y189136D01*
X19323Y189131D01*
X19235Y189056D01*
X19223Y189048D01*
X19209Y189033D01*
X19137Y188972D01*
X19096Y188931D01*
X19049Y188915D01*
X19042Y188911D01*
X19037Y188909D01*
X19018Y188896D01*
X18838Y188791D01*
X18174Y188326D01*
X18047Y188214D01*
X17952Y188130D01*
X17901Y188107D01*
X17892Y188101D01*
X17882Y188098D01*
X17671Y187974D01*
X17624Y187941D01*
X17574Y187933D01*
X17567Y187930D01*
X17562Y187929D01*
X17541Y187920D01*
X17345Y187847D01*
X16611Y187505D01*
X16467Y187417D01*
X16358Y187351D01*
X16304Y187337D01*
X16294Y187333D01*
X16284Y187331D01*
X16055Y187246D01*
X16002Y187221D01*
X15952Y187222D01*
X15944Y187220D01*
X15939Y187220D01*
X15916Y187215D01*
X15711Y187178D01*
X14929Y186968D01*
X14773Y186906D01*
X14653Y186860D01*
X14597Y186855D01*
X14587Y186853D01*
X14576Y186853D01*
X14336Y186809D01*
X14279Y186794D01*
X14230Y186803D01*
X14223Y186803D01*
X14218Y186804D01*
X14195Y186803D01*
X13986Y186802D01*
X13179Y186731D01*
X13013Y186697D01*
X12888Y186673D01*
X12833Y186678D01*
X12822Y186677D01*
X12812Y186679D01*
X12567Y186678D01*
X12509Y186673D01*
X12462Y186690D01*
X12455Y186692D01*
X12450Y186693D01*
X12428Y186696D01*
X12221Y186731D01*
X11414Y186802D01*
X11247Y186797D01*
X11118Y186795D01*
X11064Y186809D01*
X11054Y186811D01*
X11044Y186814D01*
X10803Y186855D01*
X10745Y186860D01*
X10702Y186886D01*
X10695Y186889D01*
X10690Y186891D01*
X10668Y186898D01*
X10471Y186968D01*
X9689Y187178D01*
X9523Y187202D01*
X9396Y187222D01*
X9345Y187246D01*
X9335Y187249D01*
X9326Y187254D01*
X9096Y187337D01*
X9040Y187352D01*
X9002Y187384D01*
X8995Y187388D01*
X8991Y187391D01*
X8971Y187402D01*
X8789Y187505D01*
X8055Y187847D01*
X7895Y187901D01*
X7774Y187942D01*
X7729Y187974D01*
X7720Y187979D01*
X7712Y187986D01*
X7499Y188107D01*
X7248Y188224D01*
X7239Y188227D01*
X7231Y188232D01*
X7075Y188282D01*
X6917Y188334D01*
X6908Y188335D01*
X6899Y188338D01*
X6735Y188351D01*
X6570Y188366D01*
X6561Y188365D01*
X6552Y188366D01*
X6388Y188341D01*
X6225Y188319D01*
X6216Y188315D01*
X6207Y188314D01*
X6054Y188253D01*
X5899Y188194D01*
X5892Y188189D01*
X5883Y188185D01*
X5749Y188092D01*
X5611Y187999D01*
X5605Y187992D01*
X5597Y187986D01*
X5487Y187865D01*
X5374Y187743D01*
X5370Y187735D01*
X5364Y187728D01*
X5284Y187583D01*
X5202Y187440D01*
X5200Y187431D01*
X5195Y187423D01*
X5150Y187262D01*
X5103Y187105D01*
X5103Y187096D01*
X5100Y187087D01*
X5081Y186843D01*
X5081Y168757D01*
X5082Y168747D01*
X5081Y168738D01*
X5102Y168575D01*
X5121Y168410D01*
X5124Y168402D01*
X5125Y168392D01*
X5182Y168238D01*
X5238Y168082D01*
X5243Y168074D01*
X5246Y168066D01*
X5338Y167928D01*
X5427Y167789D01*
X5434Y167783D01*
X5439Y167775D01*
X5559Y167662D01*
X5678Y167547D01*
X5686Y167543D01*
X5692Y167536D01*
X5835Y167453D01*
X5977Y167368D01*
X5986Y167366D01*
X5994Y167361D01*
X6151Y167313D01*
X6309Y167262D01*
X6318Y167261D01*
X6327Y167259D01*
X6492Y167247D01*
X6656Y167234D01*
X6665Y167236D01*
X6675Y167235D01*
X6837Y167261D01*
X7001Y167286D01*
X7009Y167289D01*
X7019Y167291D01*
X7248Y167376D01*
X7499Y167493D01*
X7508Y167499D01*
X7518Y167502D01*
X7729Y167626D01*
X7776Y167659D01*
X7826Y167667D01*
X7833Y167670D01*
X7838Y167671D01*
X7859Y167680D01*
X8055Y167753D01*
X8789Y168095D01*
X8933Y168183D01*
X9042Y168249D01*
X9096Y168263D01*
X9106Y168267D01*
X9116Y168269D01*
X9346Y168354D01*
X9398Y168379D01*
X9449Y168378D01*
X9456Y168380D01*
X9461Y168380D01*
X9483Y168385D01*
X9689Y168422D01*
X10471Y168632D01*
X10628Y168694D01*
X10747Y168740D01*
X10803Y168745D01*
X10813Y168747D01*
X10824Y168747D01*
X11064Y168791D01*
X11121Y168806D01*
X11170Y168797D01*
X11177Y168797D01*
X11182Y168796D01*
X11205Y168797D01*
X11414Y168798D01*
X12221Y168869D01*
X12387Y168903D01*
X12512Y168927D01*
X12567Y168922D01*
X12578Y168923D01*
X12588Y168921D01*
X12833Y168922D01*
X12891Y168927D01*
X12938Y168910D01*
X12945Y168908D01*
X12950Y168907D01*
X12972Y168904D01*
X13179Y168869D01*
X13986Y168798D01*
X14153Y168803D01*
X14282Y168805D01*
X14336Y168791D01*
X14346Y168789D01*
X14356Y168786D01*
X14597Y168745D01*
X14655Y168740D01*
X14698Y168714D01*
X14705Y168711D01*
X14710Y168709D01*
X14732Y168702D01*
X14929Y168632D01*
X15711Y168422D01*
X15877Y168398D01*
X16004Y168378D01*
X16054Y168354D01*
X16065Y168351D01*
X16074Y168345D01*
X16304Y168263D01*
X16360Y168248D01*
X16398Y168216D01*
X16405Y168212D01*
X16409Y168209D01*
X16429Y168198D01*
X16611Y168095D01*
X17345Y167753D01*
X17505Y167699D01*
X17626Y167658D01*
X17671Y167626D01*
X17680Y167621D01*
X17689Y167614D01*
X17901Y167493D01*
X17954Y167469D01*
X17986Y167430D01*
X17991Y167425D01*
X17995Y167421D01*
X18012Y167408D01*
X18174Y167274D01*
X18838Y166809D01*
X18985Y166729D01*
X19097Y166667D01*
X19137Y166628D01*
X19145Y166621D01*
X19152Y166613D01*
X19340Y166457D01*
X19388Y166424D01*
X19413Y166380D01*
X19417Y166374D01*
X19420Y166370D01*
X19435Y166353D01*
X19571Y166194D01*
X20144Y165621D01*
X20275Y165517D01*
X20375Y165436D01*
X20407Y165390D01*
X20414Y165382D01*
X20419Y165373D01*
X20578Y165187D01*
X20619Y165146D01*
X20635Y165099D01*
X20639Y165092D01*
X20641Y165087D01*
X20654Y165068D01*
X20759Y164888D01*
X21224Y164224D01*
X21338Y164096D01*
X21420Y164002D01*
X21443Y163951D01*
X21449Y163942D01*
X21452Y163932D01*
X21576Y163721D01*
X21609Y163674D01*
X21617Y163624D01*
X21620Y163617D01*
X21621Y163612D01*
X21630Y163591D01*
X21703Y163395D01*
X22045Y162661D01*
X22133Y162517D01*
X22199Y162408D01*
X22213Y162354D01*
X22217Y162344D01*
X22219Y162334D01*
X22304Y162104D01*
X22329Y162052D01*
X22328Y162001D01*
X22330Y161994D01*
X22330Y161989D01*
X22335Y161967D01*
X22372Y161761D01*
X22582Y160979D01*
X22644Y160822D01*
X22690Y160703D01*
X22695Y160647D01*
X22697Y160637D01*
X22697Y160626D01*
X22741Y160386D01*
X22756Y160329D01*
X22747Y160280D01*
X22747Y160273D01*
X22746Y160268D01*
X22747Y160245D01*
X22748Y160036D01*
X22819Y159229D01*
X22853Y159063D01*
X22877Y158938D01*
X22872Y158883D01*
X22873Y158872D01*
X22871Y158862D01*
X22872Y158617D01*
X22877Y158559D01*
X22860Y158512D01*
X22858Y158505D01*
X22857Y158500D01*
X22854Y158478D01*
X22819Y158271D01*
X22748Y157464D01*
X22751Y157367D01*
X22750Y157354D01*
X22752Y157342D01*
X22753Y157297D01*
X22755Y157168D01*
X22741Y157114D01*
X22739Y157104D01*
X22736Y157094D01*
X22695Y156853D01*
X22690Y156795D01*
X22664Y156752D01*
X22662Y156745D01*
X22659Y156740D01*
X22652Y156718D01*
X22582Y156521D01*
X22372Y155739D01*
X22348Y155574D01*
X22328Y155446D01*
X22304Y155395D01*
X22301Y155385D01*
X22296Y155376D01*
X22213Y155146D01*
X22198Y155090D01*
X22166Y155052D01*
X22162Y155045D01*
X22159Y155041D01*
X22148Y155021D01*
X22045Y154839D01*
X21703Y154105D01*
X21649Y153945D01*
X21608Y153824D01*
X21576Y153779D01*
X21571Y153770D01*
X21564Y153761D01*
X21443Y153549D01*
X21419Y153496D01*
X21380Y153464D01*
X21375Y153459D01*
X21371Y153455D01*
X21358Y153438D01*
X21224Y153276D01*
X20759Y152612D01*
X20680Y152465D01*
X20617Y152353D01*
X20578Y152313D01*
X20571Y152305D01*
X20563Y152298D01*
X20407Y152110D01*
X20374Y152062D01*
X20330Y152037D01*
X20324Y152033D01*
X20320Y152030D01*
X20303Y152015D01*
X20144Y151879D01*
X19571Y151306D01*
X19467Y151175D01*
X19386Y151075D01*
X19340Y151043D01*
X19332Y151036D01*
X19323Y151031D01*
X19267Y150983D01*
X19241Y150966D01*
X19212Y150936D01*
X19137Y150872D01*
X19096Y150831D01*
X19049Y150815D01*
X19042Y150811D01*
X19037Y150809D01*
X19018Y150796D01*
X18838Y150691D01*
X18174Y150226D01*
X18047Y150114D01*
X17952Y150030D01*
X17901Y150007D01*
X17892Y150001D01*
X17882Y149998D01*
X17671Y149874D01*
X17624Y149841D01*
X17574Y149833D01*
X17567Y149830D01*
X17562Y149829D01*
X17541Y149820D01*
X17345Y149747D01*
X16611Y149405D01*
X16467Y149317D01*
X16358Y149251D01*
X16304Y149237D01*
X16294Y149233D01*
X16284Y149231D01*
X16055Y149146D01*
X16002Y149121D01*
X15952Y149122D01*
X15944Y149120D01*
X15939Y149120D01*
X15916Y149115D01*
X15711Y149078D01*
X14929Y148868D01*
X14773Y148806D01*
X14653Y148760D01*
X14597Y148755D01*
X14587Y148753D01*
X14576Y148753D01*
X14336Y148709D01*
X14279Y148694D01*
X14230Y148703D01*
X14223Y148703D01*
X14218Y148704D01*
X14195Y148703D01*
X13986Y148702D01*
X13179Y148631D01*
X13013Y148597D01*
X12888Y148573D01*
X12833Y148578D01*
X12822Y148577D01*
X12812Y148579D01*
X12567Y148578D01*
X12509Y148573D01*
X12462Y148590D01*
X12455Y148592D01*
X12450Y148593D01*
X12428Y148596D01*
X12221Y148631D01*
X11414Y148702D01*
X11247Y148697D01*
X11118Y148695D01*
X11064Y148709D01*
X11054Y148711D01*
X11044Y148714D01*
X10803Y148755D01*
X10745Y148760D01*
X10702Y148786D01*
X10695Y148789D01*
X10690Y148791D01*
X10668Y148798D01*
X10471Y148868D01*
X9689Y149078D01*
X9523Y149102D01*
X9396Y149122D01*
X9345Y149146D01*
X9335Y149149D01*
X9326Y149154D01*
X9096Y149237D01*
X9040Y149252D01*
X9002Y149284D01*
X8995Y149288D01*
X8991Y149291D01*
X8971Y149302D01*
X8789Y149405D01*
X8055Y149747D01*
X7895Y149801D01*
X7774Y149842D01*
X7729Y149874D01*
X7720Y149879D01*
X7712Y149886D01*
X7499Y150007D01*
X7248Y150124D01*
X7239Y150127D01*
X7231Y150132D01*
X7075Y150182D01*
X6917Y150234D01*
X6908Y150235D01*
X6899Y150238D01*
X6735Y150251D01*
X6570Y150266D01*
X6561Y150265D01*
X6552Y150266D01*
X6388Y150241D01*
X6225Y150219D01*
X6216Y150215D01*
X6207Y150214D01*
X6054Y150153D01*
X5899Y150094D01*
X5892Y150089D01*
X5883Y150085D01*
X5749Y149992D01*
X5611Y149899D01*
X5605Y149892D01*
X5597Y149886D01*
X5487Y149765D01*
X5374Y149643D01*
X5370Y149635D01*
X5364Y149628D01*
X5284Y149483D01*
X5202Y149340D01*
X5200Y149331D01*
X5195Y149323D01*
X5150Y149162D01*
X5103Y149005D01*
X5103Y148996D01*
X5100Y148987D01*
X5081Y148743D01*
X5081Y116900D01*
X5086Y116852D01*
X5088Y116750D01*
X5206Y115549D01*
X5228Y115450D01*
X5240Y115349D01*
X5270Y115255D01*
X5280Y115209D01*
X5296Y115176D01*
X5315Y115116D01*
X6234Y112897D01*
X6235Y112895D01*
X6236Y112893D01*
X6320Y112743D01*
X6403Y112592D01*
X6405Y112591D01*
X6406Y112589D01*
X6564Y112403D01*
X8263Y110704D01*
X8264Y110703D01*
X8266Y110701D01*
X8402Y110594D01*
X8536Y110488D01*
X8538Y110487D01*
X8539Y110486D01*
X8757Y110374D01*
X10976Y109455D01*
X11074Y109427D01*
X11169Y109390D01*
X11229Y109379D01*
X11264Y109368D01*
X11288Y109366D01*
X11311Y109359D01*
X11347Y109358D01*
X11409Y109346D01*
X12610Y109228D01*
X12658Y109229D01*
X12760Y109221D01*
X15696Y109221D01*
X15772Y109229D01*
X15847Y109228D01*
X15944Y109249D01*
X16043Y109261D01*
X16114Y109286D01*
X16188Y109302D01*
X16277Y109345D01*
X16371Y109378D01*
X16434Y109419D01*
X16503Y109452D01*
X16580Y109513D01*
X16664Y109567D01*
X16716Y109622D01*
X16775Y109669D01*
X16837Y109747D01*
X16906Y109818D01*
X16945Y109883D01*
X16992Y109942D01*
X17034Y110032D01*
X17085Y110117D01*
X17108Y110189D01*
X17140Y110258D01*
X17161Y110354D01*
X17191Y110449D01*
X17197Y110524D01*
X17213Y110598D01*
X17211Y110698D01*
X17219Y110796D01*
X17208Y110871D01*
X17206Y110947D01*
X17182Y111043D01*
X17167Y111141D01*
X17139Y111211D01*
X17121Y111285D01*
X17056Y111421D01*
X17038Y111465D01*
X17028Y111480D01*
X17016Y111506D01*
X16001Y113262D01*
X16001Y117059D01*
X16013Y117080D01*
X16041Y117144D01*
X16059Y117174D01*
X16073Y117217D01*
X16073Y117219D01*
X16138Y117355D01*
X16143Y117378D01*
X16152Y117400D01*
X16179Y117549D01*
X16211Y117696D01*
X16210Y117720D01*
X16214Y117743D01*
X16207Y117894D01*
X16204Y118045D01*
X16198Y118067D01*
X16197Y118091D01*
X16155Y118236D01*
X16118Y118382D01*
X16106Y118408D01*
X16101Y118426D01*
X16078Y118467D01*
X16013Y118603D01*
X16001Y118625D01*
X16001Y122111D01*
X17745Y125130D01*
X20607Y126783D01*
X20669Y126829D01*
X20736Y126867D01*
X20744Y126874D01*
X27715Y126874D01*
X28605Y125983D01*
X28606Y125982D01*
X28607Y125981D01*
X28741Y125875D01*
X28878Y125767D01*
X28880Y125766D01*
X28881Y125765D01*
X29040Y125690D01*
X29193Y125618D01*
X29195Y125617D01*
X29196Y125617D01*
X29371Y125579D01*
X29534Y125544D01*
X29535Y125544D01*
X29537Y125544D01*
X29719Y125548D01*
X29883Y125550D01*
X29884Y125551D01*
X29885Y125551D01*
X30056Y125594D01*
X30221Y125635D01*
X30222Y125636D01*
X30223Y125636D01*
X30444Y125741D01*
X32406Y126874D01*
X35987Y126874D01*
X35993Y126869D01*
X36113Y126769D01*
X36132Y126759D01*
X36143Y126750D01*
X36182Y126731D01*
X36327Y126652D01*
X38758Y125569D01*
X39151Y125132D01*
X39237Y125056D01*
X39317Y124973D01*
X39367Y124941D01*
X39412Y124901D01*
X39514Y124847D01*
X39610Y124784D01*
X39666Y124764D01*
X39719Y124736D01*
X39830Y124706D01*
X39939Y124667D01*
X39998Y124660D01*
X40055Y124645D01*
X40170Y124641D01*
X40285Y124627D01*
X40344Y124634D01*
X40403Y124632D01*
X40517Y124654D01*
X40631Y124668D01*
X40687Y124688D01*
X40745Y124699D01*
X40851Y124747D01*
X40959Y124785D01*
X41025Y124825D01*
X41063Y124842D01*
X41098Y124869D01*
X41169Y124911D01*
X43916Y126874D01*
X47975Y126874D01*
X50436Y125116D01*
X50480Y125092D01*
X50520Y125060D01*
X50632Y125007D01*
X50741Y124947D01*
X50789Y124933D01*
X50835Y124912D01*
X50957Y124886D01*
X51076Y124852D01*
X51126Y124850D01*
X51176Y124839D01*
X51300Y124841D01*
X51424Y124836D01*
X51474Y124845D01*
X51524Y124846D01*
X51645Y124876D01*
X51767Y124899D01*
X51813Y124919D01*
X51862Y124931D01*
X52083Y125036D01*
X52086Y125038D01*
X52087Y125038D01*
X55266Y126874D01*
X58847Y126874D01*
X58853Y126869D01*
X58973Y126769D01*
X58992Y126759D01*
X59003Y126750D01*
X59042Y126731D01*
X59187Y126652D01*
X60178Y126211D01*
X60190Y126207D01*
X60201Y126200D01*
X60357Y126154D01*
X60510Y126106D01*
X60523Y126105D01*
X60535Y126101D01*
X60697Y126092D01*
X60858Y126080D01*
X60870Y126082D01*
X60883Y126081D01*
X61043Y126109D01*
X61202Y126133D01*
X61214Y126138D01*
X61227Y126140D01*
X61375Y126203D01*
X61525Y126264D01*
X61536Y126271D01*
X61548Y126276D01*
X61678Y126371D01*
X61810Y126464D01*
X61819Y126474D01*
X61830Y126481D01*
X61935Y126604D01*
X62043Y126724D01*
X62049Y126735D01*
X62057Y126745D01*
X62178Y126958D01*
X62284Y127185D01*
X65548Y128372D01*
X68694Y126903D01*
X69427Y124888D01*
X69431Y124880D01*
X69434Y124871D01*
X69481Y124779D01*
X69514Y124697D01*
X69547Y124649D01*
X69583Y124577D01*
X69589Y124569D01*
X69593Y124561D01*
X69674Y124466D01*
X69713Y124411D01*
X69745Y124382D01*
X69806Y124308D01*
X69813Y124303D01*
X69819Y124296D01*
X69936Y124209D01*
X69971Y124177D01*
X69998Y124162D01*
X70083Y124098D01*
X70092Y124094D01*
X70099Y124088D01*
X70248Y124024D01*
X70276Y124009D01*
X70295Y124003D01*
X70402Y123956D01*
X70411Y123954D01*
X70419Y123950D01*
X70581Y123921D01*
X70595Y123919D01*
X70612Y123914D01*
X70625Y123913D01*
X70744Y123890D01*
X70753Y123890D01*
X70762Y123889D01*
X70927Y123897D01*
X71092Y123904D01*
X71101Y123906D01*
X71111Y123907D01*
X71201Y123933D01*
X71214Y123934D01*
X71245Y123945D01*
X71268Y123952D01*
X71428Y123996D01*
X71436Y124001D01*
X71445Y124003D01*
X71515Y124042D01*
X71542Y124052D01*
X71602Y124090D01*
X71734Y124162D01*
X71741Y124169D01*
X71750Y124173D01*
X71811Y124225D01*
X71834Y124241D01*
X71861Y124268D01*
X71936Y124332D01*
X74478Y126874D01*
X78577Y126874D01*
X82563Y124573D01*
X82568Y124571D01*
X82572Y124567D01*
X82731Y124500D01*
X82883Y124434D01*
X82888Y124433D01*
X82893Y124431D01*
X83060Y124402D01*
X83226Y124372D01*
X83231Y124372D01*
X83236Y124371D01*
X83403Y124380D01*
X83574Y124389D01*
X83579Y124390D01*
X83584Y124391D01*
X83821Y124452D01*
X83879Y124472D01*
X83904Y124484D01*
X83909Y124485D01*
X83920Y124491D01*
X83967Y124514D01*
X84058Y124547D01*
X84149Y124601D01*
X84194Y124622D01*
X84220Y124643D01*
X84268Y124672D01*
X87350Y126874D01*
X91409Y126874D01*
X91968Y126474D01*
X92114Y126394D01*
X92257Y126312D01*
X92266Y126310D01*
X92273Y126305D01*
X92432Y126260D01*
X92592Y126213D01*
X92600Y126213D01*
X92609Y126210D01*
X92774Y126202D01*
X92939Y126193D01*
X92948Y126194D01*
X92957Y126194D01*
X93120Y126224D01*
X93283Y126252D01*
X93291Y126255D01*
X93299Y126257D01*
X93452Y126324D01*
X93604Y126388D01*
X93611Y126393D01*
X93619Y126396D01*
X93753Y126496D01*
X93886Y126593D01*
X93891Y126600D01*
X93898Y126605D01*
X94006Y126733D01*
X94113Y126857D01*
X94118Y126866D01*
X94123Y126871D01*
X94136Y126897D01*
X94234Y127069D01*
X94288Y127185D01*
X97552Y128372D01*
X100698Y126903D01*
X101665Y124244D01*
X101668Y124238D01*
X101670Y124231D01*
X101746Y124082D01*
X101821Y123932D01*
X101826Y123927D01*
X101829Y123921D01*
X101937Y123793D01*
X102044Y123664D01*
X102049Y123660D01*
X102053Y123655D01*
X102188Y123554D01*
X102321Y123453D01*
X102328Y123451D01*
X102333Y123447D01*
X102486Y123380D01*
X102640Y123311D01*
X102646Y123310D01*
X102653Y123308D01*
X102815Y123278D01*
X102982Y123246D01*
X102989Y123246D01*
X102995Y123245D01*
X103163Y123253D01*
X103330Y123259D01*
X103337Y123261D01*
X103343Y123261D01*
X103505Y123307D01*
X103666Y123352D01*
X103672Y123355D01*
X103679Y123357D01*
X103827Y123439D01*
X103972Y123518D01*
X103977Y123522D01*
X103983Y123526D01*
X104109Y123639D01*
X104233Y123750D01*
X104237Y123755D01*
X104242Y123760D01*
X104337Y123897D01*
X104434Y124034D01*
X104436Y124041D01*
X104440Y124046D01*
X104538Y124270D01*
X104622Y124515D01*
X104679Y124556D01*
X104736Y124607D01*
X104767Y124622D01*
X104794Y124643D01*
X104842Y124672D01*
X107924Y126874D01*
X111983Y126874D01*
X113625Y125700D01*
X113626Y125700D01*
X115065Y124672D01*
X115138Y124632D01*
X115146Y124625D01*
X115181Y124591D01*
X115201Y124579D01*
X115228Y124555D01*
X115404Y124430D01*
X115470Y124394D01*
X115530Y124349D01*
X115621Y124310D01*
X115709Y124261D01*
X115781Y124241D01*
X115850Y124211D01*
X115948Y124194D01*
X116044Y124166D01*
X116119Y124163D01*
X116193Y124150D01*
X116293Y124155D01*
X116392Y124150D01*
X116466Y124164D01*
X116541Y124167D01*
X116637Y124195D01*
X116735Y124213D01*
X116804Y124243D01*
X116876Y124264D01*
X116963Y124313D01*
X117054Y124353D01*
X117114Y124397D01*
X117180Y124434D01*
X117297Y124533D01*
X117334Y124561D01*
X117345Y124575D01*
X117366Y124593D01*
X118196Y125422D01*
X118227Y125462D01*
X118308Y125548D01*
X119226Y126695D01*
X119268Y126705D01*
X119306Y126723D01*
X119347Y126735D01*
X119462Y126800D01*
X119581Y126858D01*
X119601Y126874D01*
X121067Y126874D01*
X121117Y126879D01*
X121235Y126883D01*
X122695Y127045D01*
X122732Y127022D01*
X122772Y127009D01*
X122809Y126988D01*
X122937Y126952D01*
X123062Y126909D01*
X123087Y126907D01*
X124124Y125870D01*
X124163Y125838D01*
X124249Y125757D01*
X128251Y122556D01*
X128634Y119105D01*
X127145Y117244D01*
X127083Y117145D01*
X127014Y117051D01*
X126991Y116998D01*
X126960Y116948D01*
X126922Y116838D01*
X126876Y116731D01*
X126866Y116674D01*
X126847Y116619D01*
X126835Y116503D01*
X126814Y116388D01*
X126817Y116330D01*
X126811Y116272D01*
X126826Y116156D01*
X126832Y116040D01*
X126848Y115984D01*
X126856Y115926D01*
X126896Y115817D01*
X126929Y115705D01*
X126957Y115654D01*
X126978Y115600D01*
X127042Y115503D01*
X127099Y115401D01*
X127147Y115344D01*
X127170Y115310D01*
X127195Y115287D01*
X127206Y115271D01*
X127223Y115256D01*
X127257Y115215D01*
X128468Y114004D01*
X128468Y110744D01*
X128471Y110718D01*
X128469Y110692D01*
X128491Y110545D01*
X128508Y110398D01*
X128517Y110373D01*
X128521Y110347D01*
X128575Y110209D01*
X128625Y110070D01*
X128640Y110048D01*
X128649Y110023D01*
X128734Y109902D01*
X128814Y109777D01*
X128833Y109759D01*
X128848Y109737D01*
X128958Y109638D01*
X129065Y109535D01*
X129088Y109521D01*
X129107Y109504D01*
X129237Y109432D01*
X129364Y109356D01*
X129389Y109348D01*
X129412Y109335D01*
X129555Y109295D01*
X129696Y109250D01*
X129722Y109248D01*
X129748Y109240D01*
X129991Y109221D01*
X140246Y109221D01*
X145823Y106911D01*
X150091Y102643D01*
X152401Y97066D01*
X152401Y85777D01*
X152402Y85766D01*
X152402Y85761D01*
X152406Y85733D01*
X152412Y85677D01*
X152414Y85577D01*
X152432Y85505D01*
X152441Y85431D01*
X152475Y85336D01*
X152499Y85239D01*
X152533Y85173D01*
X152558Y85103D01*
X152613Y85018D01*
X152659Y84929D01*
X152707Y84872D01*
X152747Y84810D01*
X152819Y84740D01*
X152884Y84664D01*
X152944Y84619D01*
X152998Y84568D01*
X153084Y84516D01*
X153165Y84456D01*
X153233Y84427D01*
X153297Y84389D01*
X153392Y84358D01*
X153485Y84318D01*
X153558Y84305D01*
X153629Y84283D01*
X153729Y84275D01*
X153828Y84257D01*
X153902Y84261D01*
X153976Y84255D01*
X154076Y84270D01*
X154176Y84275D01*
X154247Y84295D01*
X154321Y84306D01*
X154414Y84343D01*
X154511Y84371D01*
X154576Y84408D01*
X154645Y84435D01*
X154727Y84492D01*
X154815Y84541D01*
X154891Y84607D01*
X154931Y84634D01*
X154955Y84660D01*
X155001Y84700D01*
X155455Y85154D01*
X158915Y85154D01*
X159041Y85169D01*
X159167Y85175D01*
X159214Y85188D01*
X159262Y85194D01*
X159381Y85237D01*
X159502Y85272D01*
X159544Y85295D01*
X159590Y85311D01*
X159696Y85380D01*
X159806Y85442D01*
X159852Y85481D01*
X159882Y85501D01*
X159916Y85535D01*
X159992Y85600D01*
X163413Y89021D01*
X163444Y89060D01*
X163526Y89146D01*
X164443Y90294D01*
X164485Y90303D01*
X164523Y90322D01*
X164564Y90334D01*
X164680Y90398D01*
X164798Y90456D01*
X164818Y90472D01*
X166284Y90472D01*
X166334Y90478D01*
X166453Y90482D01*
X167913Y90644D01*
X167949Y90621D01*
X167989Y90607D01*
X168026Y90587D01*
X168154Y90551D01*
X168279Y90508D01*
X168304Y90505D01*
X169341Y89468D01*
X169380Y89437D01*
X169467Y89356D01*
X170614Y88438D01*
X170623Y88396D01*
X170642Y88358D01*
X170654Y88317D01*
X170718Y88202D01*
X170776Y88083D01*
X170793Y88063D01*
X170793Y86597D01*
X170798Y86547D01*
X170802Y86429D01*
X171368Y81336D01*
X169051Y78440D01*
X169038Y78434D01*
X168918Y78331D01*
X168795Y78231D01*
X168785Y78218D01*
X168773Y78208D01*
X168679Y78081D01*
X168582Y77955D01*
X168575Y77941D01*
X168566Y77927D01*
X168503Y77782D01*
X168437Y77638D01*
X168434Y77622D01*
X168428Y77607D01*
X168400Y77451D01*
X168368Y77297D01*
X168369Y77281D01*
X168366Y77264D01*
X168374Y77106D01*
X168379Y76948D01*
X168383Y76933D01*
X168384Y76916D01*
X168428Y76764D01*
X168468Y76612D01*
X168476Y76597D01*
X168480Y76581D01*
X168558Y76443D01*
X168632Y76304D01*
X168643Y76292D01*
X168651Y76277D01*
X168809Y76091D01*
X169736Y75164D01*
X169737Y75163D01*
X169884Y75016D01*
X169905Y75000D01*
X169922Y74980D01*
X170041Y74891D01*
X170157Y74799D01*
X170181Y74788D01*
X170202Y74773D01*
X170338Y74714D01*
X170472Y74651D01*
X170498Y74645D01*
X170522Y74635D01*
X170668Y74608D01*
X170813Y74577D01*
X170839Y74578D01*
X170865Y74573D01*
X171013Y74581D01*
X171161Y74583D01*
X171187Y74589D01*
X171213Y74591D01*
X171355Y74632D01*
X171499Y74668D01*
X171523Y74680D01*
X171548Y74687D01*
X171677Y74760D01*
X171809Y74828D01*
X171829Y74845D01*
X171852Y74858D01*
X172038Y75016D01*
X174728Y77706D01*
X174759Y77745D01*
X174840Y77831D01*
X175758Y78979D01*
X175800Y78988D01*
X175838Y79007D01*
X175879Y79019D01*
X175995Y79083D01*
X176113Y79141D01*
X176133Y79157D01*
X177599Y79157D01*
X177649Y79163D01*
X177768Y79167D01*
X179228Y79329D01*
X179264Y79306D01*
X179304Y79292D01*
X179341Y79272D01*
X179469Y79236D01*
X179594Y79193D01*
X179619Y79190D01*
X180656Y78153D01*
X180696Y78122D01*
X180782Y78041D01*
X181929Y77123D01*
X181939Y77081D01*
X181957Y77043D01*
X181969Y77002D01*
X182034Y76887D01*
X182092Y76768D01*
X182108Y76748D01*
X182108Y75282D01*
X182113Y75233D01*
X182117Y75114D01*
X182503Y71636D01*
X182529Y71526D01*
X182545Y71414D01*
X182567Y71357D01*
X182581Y71296D01*
X182631Y71194D01*
X182672Y71090D01*
X182707Y71039D01*
X182734Y70983D01*
X182805Y70895D01*
X182869Y70803D01*
X182915Y70761D01*
X182954Y70713D01*
X183044Y70644D01*
X183127Y70568D01*
X183196Y70526D01*
X183230Y70500D01*
X183269Y70482D01*
X183336Y70441D01*
X184526Y69846D01*
X184990Y68455D01*
X185015Y68401D01*
X185032Y68343D01*
X185089Y68244D01*
X185137Y68139D01*
X185175Y68092D01*
X185204Y68040D01*
X185282Y67956D01*
X185353Y67865D01*
X185400Y67828D01*
X185440Y67784D01*
X185535Y67719D01*
X185625Y67647D01*
X185679Y67621D01*
X185728Y67588D01*
X185916Y67508D01*
X185939Y67497D01*
X185945Y67496D01*
X185953Y67492D01*
X187344Y67028D01*
X188897Y63922D01*
X187799Y60628D01*
X181536Y57496D01*
X181394Y57404D01*
X181250Y57311D01*
X181248Y57308D01*
X181244Y57306D01*
X181127Y57183D01*
X181008Y57060D01*
X181006Y57057D01*
X181003Y57054D01*
X180917Y56908D01*
X180829Y56761D01*
X180828Y56757D01*
X180826Y56754D01*
X180774Y56588D01*
X180723Y56429D01*
X180723Y56425D01*
X180722Y56422D01*
X180709Y56252D01*
X180695Y56082D01*
X180696Y56078D01*
X180695Y56074D01*
X180721Y55906D01*
X180747Y55737D01*
X180748Y55734D01*
X180749Y55730D01*
X180812Y55572D01*
X180875Y55413D01*
X180878Y55410D01*
X180879Y55406D01*
X180978Y55266D01*
X181074Y55127D01*
X181077Y55125D01*
X181079Y55121D01*
X181208Y55007D01*
X181333Y54894D01*
X181337Y54892D01*
X181339Y54889D01*
X181486Y54809D01*
X181638Y54725D01*
X181642Y54724D01*
X181645Y54722D01*
X181807Y54678D01*
X181974Y54630D01*
X181978Y54630D01*
X181981Y54629D01*
X181996Y54629D01*
X182217Y54611D01*
X272272Y54611D01*
X277873Y52290D01*
X282160Y48003D01*
X284481Y42402D01*
X284481Y19989D01*
X284495Y19864D01*
X284502Y19738D01*
X284515Y19691D01*
X284521Y19643D01*
X284563Y19524D01*
X284598Y19403D01*
X284622Y19361D01*
X284638Y19315D01*
X284707Y19209D01*
X284768Y19099D01*
X284808Y19052D01*
X284827Y19022D01*
X284862Y18989D01*
X284927Y18912D01*
X298312Y5527D01*
X298411Y5448D01*
X298505Y5364D01*
X298548Y5340D01*
X298585Y5310D01*
X298700Y5256D01*
X298810Y5195D01*
X298857Y5182D01*
X298900Y5161D01*
X299024Y5135D01*
X299146Y5100D01*
X299206Y5095D01*
X299241Y5088D01*
X299289Y5089D01*
X299389Y5081D01*
X310211Y5081D01*
X310336Y5095D01*
G37*
%LPC*%
G36*
X293238Y22161D02*
X293238Y22161D01*
X290647Y23234D01*
X288664Y25217D01*
X287591Y27808D01*
X287591Y30612D01*
X287736Y30960D01*
X287777Y31106D01*
X287816Y31229D01*
X287888Y31388D01*
X288162Y31992D01*
X288168Y32011D01*
X288182Y32038D01*
X288687Y33257D01*
X288745Y33326D01*
X288758Y33350D01*
X288769Y33364D01*
X288789Y33406D01*
X288863Y33540D01*
X289932Y35898D01*
X289940Y35924D01*
X289953Y35947D01*
X289993Y36089D01*
X290038Y36230D01*
X290040Y36257D01*
X290048Y36283D01*
X290067Y36527D01*
X290067Y50053D01*
X290053Y50179D01*
X290046Y50305D01*
X290033Y50351D01*
X290027Y50399D01*
X289985Y50518D01*
X289950Y50640D01*
X289926Y50682D01*
X289910Y50727D01*
X289841Y50834D01*
X289780Y50944D01*
X289740Y50990D01*
X289721Y51020D01*
X289686Y51054D01*
X289621Y51130D01*
X241330Y99421D01*
X241231Y99500D01*
X241137Y99584D01*
X241095Y99608D01*
X241057Y99638D01*
X240943Y99692D01*
X240832Y99753D01*
X240786Y99766D01*
X240742Y99787D01*
X240619Y99813D01*
X240497Y99848D01*
X240436Y99853D01*
X240401Y99860D01*
X240353Y99859D01*
X240253Y99867D01*
X228297Y99867D01*
X228270Y99864D01*
X228243Y99866D01*
X228097Y99844D01*
X227950Y99827D01*
X227925Y99818D01*
X227898Y99814D01*
X227668Y99732D01*
X225310Y98663D01*
X225180Y98585D01*
X225047Y98511D01*
X225026Y98493D01*
X225011Y98484D01*
X225004Y98477D01*
X223808Y97982D01*
X223791Y97972D01*
X223762Y97962D01*
X223158Y97688D01*
X222995Y97614D01*
X222963Y97611D01*
X222937Y97602D01*
X222919Y97600D01*
X222876Y97582D01*
X222730Y97536D01*
X222382Y97391D01*
X219578Y97391D01*
X216918Y98493D01*
X216870Y98507D01*
X216824Y98528D01*
X216703Y98554D01*
X216583Y98589D01*
X216533Y98591D01*
X216484Y98602D01*
X216359Y98599D01*
X216235Y98606D01*
X216186Y98597D01*
X216135Y98596D01*
X216015Y98565D01*
X215892Y98543D01*
X215846Y98523D01*
X215797Y98511D01*
X215687Y98454D01*
X215573Y98404D01*
X215532Y98374D01*
X215487Y98351D01*
X215392Y98270D01*
X215293Y98196D01*
X215260Y98158D01*
X215222Y98125D01*
X215148Y98025D01*
X215068Y97930D01*
X215045Y97885D01*
X215015Y97845D01*
X214966Y97731D01*
X214909Y97620D01*
X214897Y97571D01*
X214877Y97525D01*
X214855Y97402D01*
X214825Y97282D01*
X214824Y97231D01*
X214815Y97182D01*
X214822Y97058D01*
X214820Y96933D01*
X214831Y96884D01*
X214833Y96834D01*
X214868Y96714D01*
X214894Y96593D01*
X214916Y96547D01*
X214930Y96499D01*
X214990Y96390D01*
X215044Y96278D01*
X215075Y96239D01*
X215100Y96195D01*
X215258Y96009D01*
X224857Y86410D01*
X225553Y84730D01*
X225553Y74176D01*
X225556Y74150D01*
X225554Y74123D01*
X225576Y73977D01*
X225593Y73830D01*
X225602Y73805D01*
X225606Y73778D01*
X225688Y73548D01*
X226757Y71190D01*
X226835Y71060D01*
X226909Y70927D01*
X226927Y70906D01*
X226936Y70891D01*
X226943Y70884D01*
X227438Y69688D01*
X227448Y69670D01*
X227458Y69642D01*
X227806Y68875D01*
X227809Y68843D01*
X227818Y68817D01*
X227820Y68799D01*
X227838Y68756D01*
X227884Y68610D01*
X228029Y68262D01*
X228029Y65458D01*
X226956Y62867D01*
X224973Y60884D01*
X222382Y59811D01*
X219578Y59811D01*
X216987Y60884D01*
X215004Y62867D01*
X213931Y65458D01*
X213931Y67328D01*
X213928Y67354D01*
X213930Y67380D01*
X213908Y67527D01*
X213891Y67674D01*
X213883Y67699D01*
X213879Y67725D01*
X213824Y67863D01*
X213774Y68002D01*
X213760Y68024D01*
X213750Y68049D01*
X213665Y68170D01*
X213585Y68295D01*
X213566Y68313D01*
X213551Y68335D01*
X213441Y68434D01*
X213334Y68537D01*
X213312Y68551D01*
X213292Y68568D01*
X213162Y68640D01*
X213035Y68716D01*
X213010Y68724D01*
X212987Y68737D01*
X212844Y68777D01*
X212703Y68822D01*
X212677Y68824D01*
X212652Y68832D01*
X212408Y68851D01*
X209418Y68851D01*
X206827Y69924D01*
X204844Y71907D01*
X204700Y72256D01*
X204627Y72388D01*
X204567Y72502D01*
X204272Y73286D01*
X204263Y73304D01*
X204254Y73333D01*
X203749Y74552D01*
X203741Y74642D01*
X203733Y74668D01*
X203731Y74686D01*
X203716Y74730D01*
X203674Y74877D01*
X202762Y77300D01*
X202749Y77324D01*
X202742Y77350D01*
X202670Y77479D01*
X202602Y77610D01*
X202585Y77630D01*
X202572Y77654D01*
X202413Y77840D01*
X140492Y139761D01*
X140393Y139840D01*
X140299Y139924D01*
X140257Y139948D01*
X140219Y139978D01*
X140105Y140032D01*
X139994Y140093D01*
X139948Y140106D01*
X139904Y140127D01*
X139781Y140153D01*
X139659Y140188D01*
X139598Y140193D01*
X139563Y140200D01*
X139515Y140199D01*
X139415Y140207D01*
X108306Y140207D01*
X108280Y140204D01*
X108253Y140206D01*
X108106Y140184D01*
X107960Y140167D01*
X107935Y140158D01*
X107908Y140154D01*
X107678Y140072D01*
X105320Y139003D01*
X105266Y138971D01*
X105262Y138969D01*
X105242Y138956D01*
X105190Y138925D01*
X105057Y138851D01*
X105036Y138833D01*
X105021Y138824D01*
X105014Y138817D01*
X103818Y138322D01*
X103801Y138312D01*
X103772Y138302D01*
X103168Y138028D01*
X103005Y137954D01*
X102973Y137951D01*
X102947Y137942D01*
X102929Y137940D01*
X102886Y137923D01*
X102740Y137876D01*
X102392Y137731D01*
X99588Y137731D01*
X96997Y138804D01*
X95014Y140787D01*
X93941Y143378D01*
X93941Y146182D01*
X95014Y148773D01*
X96997Y150756D01*
X99588Y151829D01*
X102392Y151829D01*
X102740Y151684D01*
X102886Y151643D01*
X103009Y151604D01*
X103771Y151258D01*
X103790Y151252D01*
X103817Y151238D01*
X105037Y150733D01*
X105106Y150675D01*
X105130Y150662D01*
X105144Y150651D01*
X105186Y150631D01*
X105320Y150557D01*
X107605Y149521D01*
X107677Y149498D01*
X107745Y149466D01*
X107842Y149445D01*
X107937Y149415D01*
X108012Y149409D01*
X108085Y149393D01*
X108185Y149395D01*
X108284Y149387D01*
X108359Y149398D01*
X108434Y149399D01*
X108530Y149423D01*
X108629Y149438D01*
X108699Y149466D01*
X108772Y149484D01*
X108861Y149530D01*
X108953Y149566D01*
X109015Y149609D01*
X109082Y149644D01*
X109158Y149708D01*
X109239Y149765D01*
X109290Y149821D01*
X109347Y149869D01*
X109406Y149950D01*
X109473Y150023D01*
X109509Y150089D01*
X109554Y150150D01*
X109594Y150241D01*
X109642Y150328D01*
X109662Y150401D01*
X109692Y150470D01*
X109710Y150568D01*
X109737Y150664D01*
X109741Y150739D01*
X109754Y150813D01*
X109749Y150912D01*
X109753Y151012D01*
X109740Y151086D01*
X109736Y151161D01*
X109708Y151256D01*
X109690Y151354D01*
X109660Y151423D01*
X109639Y151496D01*
X109591Y151583D01*
X109551Y151674D01*
X109506Y151734D01*
X109469Y151800D01*
X109370Y151916D01*
X109343Y151953D01*
X109329Y151965D01*
X109311Y151986D01*
X107255Y154042D01*
X105989Y157097D01*
X105989Y160403D01*
X107255Y163458D01*
X109592Y165795D01*
X112647Y167061D01*
X115953Y167061D01*
X119008Y165795D01*
X121345Y163458D01*
X122611Y160403D01*
X122611Y157097D01*
X121345Y154042D01*
X119256Y151953D01*
X119194Y151875D01*
X119124Y151802D01*
X119086Y151738D01*
X119040Y151680D01*
X118997Y151589D01*
X118945Y151503D01*
X118923Y151432D01*
X118891Y151365D01*
X118870Y151267D01*
X118839Y151171D01*
X118833Y151097D01*
X118817Y151024D01*
X118819Y150924D01*
X118811Y150824D01*
X118822Y150750D01*
X118823Y150676D01*
X118848Y150579D01*
X118863Y150479D01*
X118890Y150410D01*
X118908Y150338D01*
X118954Y150249D01*
X118991Y150155D01*
X119034Y150094D01*
X119068Y150028D01*
X119133Y149952D01*
X119190Y149869D01*
X119246Y149819D01*
X119294Y149763D01*
X119375Y149703D01*
X119449Y149636D01*
X119514Y149600D01*
X119574Y149555D01*
X119666Y149516D01*
X119754Y149467D01*
X119826Y149447D01*
X119894Y149417D01*
X119993Y149400D01*
X120090Y149372D01*
X120190Y149364D01*
X120237Y149356D01*
X120273Y149358D01*
X120333Y149353D01*
X133667Y149353D01*
X133767Y149364D01*
X133867Y149366D01*
X133939Y149384D01*
X134013Y149393D01*
X134107Y149426D01*
X134205Y149451D01*
X134271Y149485D01*
X134341Y149510D01*
X134425Y149565D01*
X134515Y149611D01*
X134571Y149659D01*
X134634Y149699D01*
X134704Y149771D01*
X134780Y149836D01*
X134824Y149896D01*
X134876Y149950D01*
X134928Y150036D01*
X134987Y150117D01*
X135017Y150185D01*
X135055Y150249D01*
X135085Y150345D01*
X135125Y150437D01*
X135138Y150510D01*
X135161Y150581D01*
X135169Y150681D01*
X135187Y150780D01*
X135183Y150854D01*
X135189Y150928D01*
X135174Y151028D01*
X135169Y151128D01*
X135148Y151199D01*
X135137Y151273D01*
X135100Y151366D01*
X135072Y151463D01*
X135036Y151528D01*
X135009Y151597D01*
X134951Y151679D01*
X134902Y151767D01*
X134837Y151843D01*
X134810Y151883D01*
X134783Y151907D01*
X134744Y151953D01*
X132655Y154042D01*
X131389Y157097D01*
X131389Y160403D01*
X132655Y163458D01*
X134992Y165795D01*
X138047Y167061D01*
X141353Y167061D01*
X144408Y165795D01*
X146745Y163458D01*
X148011Y160403D01*
X148011Y157097D01*
X146745Y154042D01*
X144408Y151705D01*
X144187Y151613D01*
X144099Y151564D01*
X144007Y151524D01*
X143948Y151480D01*
X143883Y151444D01*
X143808Y151376D01*
X143728Y151317D01*
X143680Y151260D01*
X143625Y151210D01*
X143567Y151127D01*
X143503Y151050D01*
X143469Y150984D01*
X143426Y150923D01*
X143390Y150830D01*
X143344Y150740D01*
X143326Y150668D01*
X143299Y150599D01*
X143284Y150499D01*
X143260Y150402D01*
X143259Y150328D01*
X143248Y150254D01*
X143256Y150154D01*
X143255Y150054D01*
X143270Y149981D01*
X143277Y149907D01*
X143307Y149811D01*
X143329Y149713D01*
X143361Y149646D01*
X143384Y149575D01*
X143435Y149489D01*
X143479Y149398D01*
X143525Y149340D01*
X143563Y149277D01*
X143633Y149205D01*
X143696Y149126D01*
X143754Y149080D01*
X143806Y149027D01*
X143891Y148972D01*
X143970Y148910D01*
X144059Y148864D01*
X144099Y148838D01*
X144133Y148826D01*
X144187Y148799D01*
X144530Y148657D01*
X208880Y84307D01*
X208901Y84290D01*
X208919Y84270D01*
X209037Y84182D01*
X209153Y84090D01*
X209177Y84079D01*
X209199Y84063D01*
X209420Y83958D01*
X210764Y83453D01*
X210789Y83446D01*
X210812Y83436D01*
X210957Y83404D01*
X211102Y83368D01*
X211128Y83368D01*
X211153Y83362D01*
X211301Y83365D01*
X211451Y83362D01*
X211476Y83368D01*
X211501Y83368D01*
X211646Y83405D01*
X211791Y83436D01*
X211814Y83447D01*
X211839Y83453D01*
X211972Y83521D01*
X212106Y83585D01*
X212126Y83601D01*
X212149Y83613D01*
X212262Y83710D01*
X212379Y83802D01*
X212395Y83822D01*
X212414Y83839D01*
X212503Y83958D01*
X212595Y84075D01*
X212606Y84098D01*
X212621Y84119D01*
X212680Y84256D01*
X212744Y84391D01*
X212749Y84416D01*
X212759Y84439D01*
X212786Y84586D01*
X212817Y84731D01*
X212817Y84757D01*
X212821Y84782D01*
X212813Y84931D01*
X212811Y85080D01*
X212804Y85105D01*
X212803Y85130D01*
X212762Y85273D01*
X212725Y85418D01*
X212714Y85440D01*
X212707Y85465D01*
X212634Y85595D01*
X212565Y85727D01*
X212549Y85747D01*
X212536Y85769D01*
X212378Y85955D01*
X196783Y101550D01*
X196087Y103230D01*
X196087Y117750D01*
X196783Y119430D01*
X222200Y144847D01*
X223880Y145543D01*
X373395Y145543D01*
X373521Y145557D01*
X373647Y145564D01*
X373693Y145577D01*
X373741Y145583D01*
X373860Y145625D01*
X373982Y145660D01*
X374024Y145684D01*
X374069Y145700D01*
X374176Y145769D01*
X374286Y145830D01*
X374332Y145870D01*
X374362Y145889D01*
X374396Y145924D01*
X374472Y145989D01*
X380007Y151524D01*
X380020Y151540D01*
X380036Y151554D01*
X380128Y151677D01*
X380224Y151797D01*
X380233Y151816D01*
X380245Y151833D01*
X380351Y152053D01*
X383549Y160354D01*
X383589Y160506D01*
X383632Y160658D01*
X383633Y160679D01*
X383637Y160692D01*
X383637Y160715D01*
X384361Y162461D01*
X384365Y162476D01*
X384375Y162497D01*
X384680Y163289D01*
X384685Y163295D01*
X384694Y163313D01*
X384702Y163324D01*
X384719Y163362D01*
X384796Y163512D01*
X385181Y164442D01*
X388008Y167269D01*
X391701Y168799D01*
X395699Y168799D01*
X399392Y167269D01*
X402219Y164442D01*
X403749Y160749D01*
X403749Y156751D01*
X402219Y153058D01*
X399392Y150231D01*
X398462Y149846D01*
X398324Y149769D01*
X398279Y149746D01*
X397447Y149425D01*
X397433Y149418D01*
X397411Y149411D01*
X395644Y148678D01*
X395539Y148669D01*
X395519Y148663D01*
X395506Y148661D01*
X395467Y148647D01*
X395304Y148599D01*
X387003Y145401D01*
X386985Y145392D01*
X386964Y145386D01*
X386830Y145311D01*
X386695Y145240D01*
X386679Y145226D01*
X386660Y145216D01*
X386474Y145057D01*
X380011Y138594D01*
X378510Y137093D01*
X376830Y136397D01*
X286995Y136397D01*
X286846Y136380D01*
X286696Y136368D01*
X286673Y136360D01*
X286649Y136357D01*
X286507Y136307D01*
X286364Y136261D01*
X286343Y136248D01*
X286321Y136240D01*
X286194Y136158D01*
X286065Y136081D01*
X286048Y136064D01*
X286028Y136051D01*
X285923Y135943D01*
X285815Y135838D01*
X285802Y135818D01*
X285786Y135800D01*
X285708Y135671D01*
X285627Y135545D01*
X285619Y135522D01*
X285607Y135501D01*
X285561Y135358D01*
X285511Y135216D01*
X285508Y135192D01*
X285500Y135169D01*
X285488Y135020D01*
X285472Y134870D01*
X285474Y134846D01*
X285473Y134822D01*
X285495Y134673D01*
X285512Y134524D01*
X285521Y134496D01*
X285524Y134477D01*
X285542Y134433D01*
X285588Y134291D01*
X286449Y132212D01*
X286449Y129408D01*
X285376Y126817D01*
X283393Y124834D01*
X280802Y123761D01*
X277998Y123761D01*
X277650Y123906D01*
X277504Y123947D01*
X277381Y123986D01*
X276617Y124332D01*
X276599Y124338D01*
X276572Y124352D01*
X275353Y124857D01*
X275284Y124915D01*
X275260Y124928D01*
X275246Y124939D01*
X275204Y124959D01*
X275070Y125033D01*
X272712Y126102D01*
X272686Y126110D01*
X272663Y126123D01*
X272521Y126163D01*
X272380Y126208D01*
X272353Y126210D01*
X272327Y126218D01*
X272083Y126237D01*
X233215Y126237D01*
X233089Y126223D01*
X232963Y126216D01*
X232917Y126203D01*
X232869Y126197D01*
X232750Y126155D01*
X232628Y126120D01*
X232586Y126096D01*
X232541Y126080D01*
X232434Y126011D01*
X232324Y125950D01*
X232278Y125910D01*
X232248Y125891D01*
X232214Y125856D01*
X232138Y125791D01*
X220436Y114089D01*
X220374Y114011D01*
X220304Y113938D01*
X220265Y113874D01*
X220219Y113816D01*
X220176Y113725D01*
X220125Y113639D01*
X220102Y113568D01*
X220070Y113501D01*
X220049Y113403D01*
X220019Y113307D01*
X220013Y113233D01*
X219997Y113160D01*
X219999Y113060D01*
X219991Y112960D01*
X220002Y112886D01*
X220003Y112812D01*
X220027Y112715D01*
X220042Y112615D01*
X220070Y112546D01*
X220088Y112474D01*
X220134Y112384D01*
X220171Y112291D01*
X220213Y112230D01*
X220248Y112164D01*
X220313Y112087D01*
X220370Y112005D01*
X220425Y111955D01*
X220473Y111899D01*
X220554Y111839D01*
X220629Y111772D01*
X220694Y111736D01*
X220754Y111691D01*
X220846Y111652D01*
X220934Y111603D01*
X221005Y111583D01*
X221074Y111553D01*
X221172Y111536D01*
X221269Y111508D01*
X221369Y111500D01*
X221417Y111492D01*
X221452Y111494D01*
X221513Y111489D01*
X222382Y111489D01*
X222730Y111344D01*
X222876Y111303D01*
X222999Y111264D01*
X223762Y110918D01*
X223780Y110912D01*
X223807Y110898D01*
X225027Y110393D01*
X225096Y110335D01*
X225120Y110322D01*
X225134Y110311D01*
X225176Y110291D01*
X225310Y110217D01*
X227668Y109148D01*
X227694Y109140D01*
X227717Y109127D01*
X227859Y109087D01*
X228000Y109042D01*
X228027Y109040D01*
X228053Y109032D01*
X228296Y109013D01*
X243688Y109013D01*
X245368Y108317D01*
X246869Y106816D01*
X263622Y90062D01*
X263740Y89969D01*
X263855Y89872D01*
X263876Y89861D01*
X263895Y89846D01*
X264031Y89782D01*
X264165Y89713D01*
X264189Y89707D01*
X264210Y89697D01*
X264357Y89665D01*
X264503Y89629D01*
X264528Y89629D01*
X264551Y89624D01*
X264701Y89626D01*
X264852Y89624D01*
X264876Y89629D01*
X264900Y89630D01*
X265045Y89666D01*
X265192Y89698D01*
X265214Y89709D01*
X265238Y89715D01*
X265372Y89784D01*
X265507Y89848D01*
X265526Y89863D01*
X265547Y89874D01*
X265662Y89972D01*
X265779Y90065D01*
X265794Y90084D01*
X265813Y90100D01*
X265902Y90221D01*
X265995Y90339D01*
X266009Y90365D01*
X266020Y90380D01*
X266039Y90424D01*
X266107Y90557D01*
X267074Y92893D01*
X269057Y94876D01*
X271648Y95949D01*
X274452Y95949D01*
X277043Y94876D01*
X279026Y92893D01*
X279170Y92544D01*
X279244Y92412D01*
X279302Y92298D01*
X279452Y91901D01*
X279597Y91515D01*
X279606Y91497D01*
X279616Y91469D01*
X280121Y90248D01*
X280129Y90158D01*
X280137Y90132D01*
X280139Y90114D01*
X280154Y90070D01*
X280196Y89923D01*
X281108Y87500D01*
X281121Y87476D01*
X281128Y87450D01*
X281200Y87321D01*
X281268Y87190D01*
X281285Y87170D01*
X281298Y87146D01*
X281457Y86960D01*
X311750Y56667D01*
X311771Y56650D01*
X311789Y56630D01*
X311908Y56542D01*
X312023Y56450D01*
X312047Y56439D01*
X312069Y56423D01*
X312290Y56318D01*
X314713Y55406D01*
X314860Y55370D01*
X315006Y55328D01*
X315034Y55326D01*
X315051Y55322D01*
X315061Y55322D01*
X316258Y54826D01*
X316277Y54820D01*
X316305Y54807D01*
X317092Y54511D01*
X317117Y54491D01*
X317141Y54479D01*
X317156Y54468D01*
X317198Y54450D01*
X317334Y54380D01*
X317683Y54236D01*
X319666Y52253D01*
X320739Y49662D01*
X320739Y46858D01*
X319666Y44267D01*
X317683Y42284D01*
X315092Y41211D01*
X312288Y41211D01*
X309697Y42284D01*
X307714Y44267D01*
X307570Y44616D01*
X307496Y44748D01*
X307437Y44862D01*
X307142Y45647D01*
X307133Y45664D01*
X307124Y45693D01*
X306619Y46913D01*
X306611Y47002D01*
X306603Y47028D01*
X306601Y47046D01*
X306586Y47090D01*
X306544Y47237D01*
X305632Y49660D01*
X305619Y49684D01*
X305612Y49710D01*
X305540Y49838D01*
X305472Y49970D01*
X305455Y49990D01*
X305442Y50014D01*
X305283Y50200D01*
X301813Y53670D01*
X301735Y53732D01*
X301662Y53802D01*
X301598Y53841D01*
X301540Y53887D01*
X301449Y53930D01*
X301363Y53981D01*
X301292Y54004D01*
X301225Y54036D01*
X301127Y54057D01*
X301031Y54087D01*
X300957Y54093D01*
X300884Y54109D01*
X300784Y54107D01*
X300684Y54115D01*
X300610Y54104D01*
X300536Y54103D01*
X300439Y54079D01*
X300339Y54064D01*
X300270Y54036D01*
X300198Y54018D01*
X300109Y53972D01*
X300015Y53935D01*
X299954Y53892D01*
X299888Y53858D01*
X299812Y53793D01*
X299729Y53736D01*
X299679Y53681D01*
X299623Y53633D01*
X299563Y53552D01*
X299496Y53477D01*
X299460Y53412D01*
X299415Y53352D01*
X299376Y53260D01*
X299327Y53172D01*
X299307Y53101D01*
X299277Y53032D01*
X299260Y52934D01*
X299232Y52837D01*
X299224Y52737D01*
X299216Y52689D01*
X299218Y52654D01*
X299213Y52593D01*
X299213Y36526D01*
X299216Y36500D01*
X299214Y36473D01*
X299236Y36327D01*
X299253Y36180D01*
X299262Y36155D01*
X299266Y36128D01*
X299348Y35898D01*
X300417Y33540D01*
X300495Y33410D01*
X300569Y33277D01*
X300587Y33256D01*
X300596Y33241D01*
X300603Y33234D01*
X301098Y32037D01*
X301108Y32020D01*
X301118Y31992D01*
X301466Y31225D01*
X301469Y31193D01*
X301478Y31167D01*
X301480Y31149D01*
X301498Y31106D01*
X301544Y30960D01*
X301689Y30612D01*
X301689Y27808D01*
X300616Y25217D01*
X298633Y23234D01*
X296042Y22161D01*
X293238Y22161D01*
G37*
%LPD*%
%LPC*%
G36*
X307208Y68851D02*
X307208Y68851D01*
X304617Y69924D01*
X302634Y71907D01*
X301561Y74498D01*
X301561Y77302D01*
X302634Y79893D01*
X304617Y81876D01*
X307208Y82949D01*
X310012Y82949D01*
X310361Y82804D01*
X310507Y82763D01*
X310628Y82724D01*
X311391Y82378D01*
X311410Y82372D01*
X311437Y82358D01*
X312657Y81853D01*
X312726Y81795D01*
X312750Y81782D01*
X312764Y81771D01*
X312806Y81751D01*
X312940Y81677D01*
X315298Y80608D01*
X315324Y80600D01*
X315347Y80587D01*
X315489Y80547D01*
X315630Y80502D01*
X315657Y80500D01*
X315683Y80492D01*
X315926Y80473D01*
X338805Y80473D01*
X338931Y80487D01*
X339057Y80494D01*
X339103Y80507D01*
X339151Y80513D01*
X339270Y80555D01*
X339392Y80590D01*
X339434Y80614D01*
X339479Y80630D01*
X339586Y80699D01*
X339696Y80760D01*
X339742Y80800D01*
X339772Y80819D01*
X339806Y80854D01*
X339882Y80919D01*
X343383Y84420D01*
X343400Y84441D01*
X343420Y84459D01*
X343508Y84578D01*
X343600Y84693D01*
X343611Y84717D01*
X343627Y84739D01*
X343732Y84960D01*
X344644Y87383D01*
X344680Y87530D01*
X344722Y87676D01*
X344724Y87704D01*
X344728Y87721D01*
X344728Y87731D01*
X345224Y88928D01*
X345230Y88947D01*
X345242Y88974D01*
X345539Y89762D01*
X345559Y89787D01*
X345571Y89811D01*
X345582Y89826D01*
X345601Y89869D01*
X345670Y90004D01*
X345814Y90353D01*
X347797Y92336D01*
X350388Y93409D01*
X353192Y93409D01*
X355783Y92336D01*
X357766Y90353D01*
X358839Y87762D01*
X358839Y84958D01*
X357766Y82367D01*
X355783Y80384D01*
X355434Y80240D01*
X355302Y80167D01*
X355188Y80107D01*
X354404Y79812D01*
X354387Y79803D01*
X354358Y79794D01*
X353137Y79289D01*
X353048Y79281D01*
X353022Y79273D01*
X353004Y79271D01*
X352960Y79256D01*
X352813Y79214D01*
X350390Y78302D01*
X350366Y78289D01*
X350340Y78282D01*
X350211Y78210D01*
X350080Y78142D01*
X350060Y78125D01*
X350036Y78112D01*
X349850Y77953D01*
X345421Y73524D01*
X343920Y72023D01*
X342240Y71327D01*
X315926Y71327D01*
X315900Y71324D01*
X315873Y71326D01*
X315726Y71304D01*
X315580Y71287D01*
X315555Y71278D01*
X315528Y71274D01*
X315298Y71192D01*
X312940Y70123D01*
X312810Y70045D01*
X312677Y69971D01*
X312656Y69953D01*
X312641Y69944D01*
X312634Y69937D01*
X311438Y69442D01*
X311420Y69432D01*
X311392Y69422D01*
X310788Y69148D01*
X310625Y69074D01*
X310593Y69071D01*
X310567Y69062D01*
X310549Y69060D01*
X310506Y69042D01*
X310360Y68996D01*
X310012Y68851D01*
X307208Y68851D01*
G37*
%LPD*%
%LPC*%
G36*
X391701Y186801D02*
X391701Y186801D01*
X388008Y188331D01*
X385181Y191158D01*
X383651Y194851D01*
X383651Y198849D01*
X385181Y202542D01*
X388008Y205369D01*
X391701Y206899D01*
X395699Y206899D01*
X399392Y205369D01*
X402219Y202542D01*
X403749Y198849D01*
X403749Y194851D01*
X402219Y191158D01*
X399392Y188331D01*
X395699Y186801D01*
X391701Y186801D01*
G37*
%LPD*%
%LPC*%
G36*
X213901Y186801D02*
X213901Y186801D01*
X210208Y188331D01*
X207381Y191158D01*
X205851Y194851D01*
X205851Y198849D01*
X207381Y202542D01*
X210208Y205369D01*
X213901Y206899D01*
X217899Y206899D01*
X221592Y205369D01*
X224419Y202542D01*
X225949Y198849D01*
X225949Y194851D01*
X224419Y191158D01*
X221592Y188331D01*
X217899Y186801D01*
X213901Y186801D01*
G37*
%LPD*%
%LPC*%
G36*
X213901Y148701D02*
X213901Y148701D01*
X210208Y150231D01*
X207381Y153058D01*
X205851Y156751D01*
X205851Y160749D01*
X207381Y164442D01*
X210208Y167269D01*
X213901Y168799D01*
X217899Y168799D01*
X221592Y167269D01*
X224419Y164442D01*
X225949Y160749D01*
X225949Y156751D01*
X224419Y153058D01*
X221592Y150231D01*
X217899Y148701D01*
X213901Y148701D01*
G37*
%LPD*%
%LPC*%
G36*
X61501Y148701D02*
X61501Y148701D01*
X57808Y150231D01*
X54981Y153058D01*
X53451Y156751D01*
X53451Y160749D01*
X54981Y164442D01*
X57808Y167269D01*
X61501Y168799D01*
X65499Y168799D01*
X69192Y167269D01*
X72019Y164442D01*
X73549Y160749D01*
X73549Y156751D01*
X72019Y153058D01*
X69192Y150231D01*
X65499Y148701D01*
X61501Y148701D01*
G37*
%LPD*%
%LPC*%
G36*
X138047Y188539D02*
X138047Y188539D01*
X134992Y189805D01*
X132655Y192142D01*
X131389Y195197D01*
X131389Y198503D01*
X132655Y201558D01*
X134992Y203895D01*
X138047Y205161D01*
X141353Y205161D01*
X144408Y203895D01*
X146745Y201558D01*
X148011Y198503D01*
X148011Y195197D01*
X146745Y192142D01*
X144408Y189805D01*
X141353Y188539D01*
X138047Y188539D01*
G37*
%LPD*%
%LPC*%
G36*
X366647Y188539D02*
X366647Y188539D01*
X363592Y189805D01*
X361255Y192142D01*
X359989Y195197D01*
X359989Y198503D01*
X361255Y201558D01*
X363592Y203895D01*
X366647Y205161D01*
X369953Y205161D01*
X373008Y203895D01*
X375345Y201558D01*
X376611Y198503D01*
X376611Y195197D01*
X375345Y192142D01*
X373008Y189805D01*
X369953Y188539D01*
X366647Y188539D01*
G37*
%LPD*%
%LPC*%
G36*
X290447Y188539D02*
X290447Y188539D01*
X287392Y189805D01*
X285055Y192142D01*
X283789Y195197D01*
X283789Y198503D01*
X285055Y201558D01*
X287392Y203895D01*
X290447Y205161D01*
X293753Y205161D01*
X296808Y203895D01*
X299145Y201558D01*
X300411Y198503D01*
X300411Y195197D01*
X299145Y192142D01*
X296808Y189805D01*
X293753Y188539D01*
X290447Y188539D01*
G37*
%LPD*%
%LPC*%
G36*
X112647Y188539D02*
X112647Y188539D01*
X109592Y189805D01*
X107255Y192142D01*
X105989Y195197D01*
X105989Y198503D01*
X107255Y201558D01*
X109592Y203895D01*
X112647Y205161D01*
X115953Y205161D01*
X119008Y203895D01*
X121345Y201558D01*
X122611Y198503D01*
X122611Y195197D01*
X121345Y192142D01*
X119008Y189805D01*
X115953Y188539D01*
X112647Y188539D01*
G37*
%LPD*%
%LPC*%
G36*
X239647Y188539D02*
X239647Y188539D01*
X236592Y189805D01*
X234255Y192142D01*
X232989Y195197D01*
X232989Y198503D01*
X234255Y201558D01*
X236592Y203895D01*
X239647Y205161D01*
X242953Y205161D01*
X246008Y203895D01*
X248345Y201558D01*
X249611Y198503D01*
X249611Y195197D01*
X248345Y192142D01*
X246008Y189805D01*
X242953Y188539D01*
X239647Y188539D01*
G37*
%LPD*%
%LPC*%
G36*
X188847Y188539D02*
X188847Y188539D01*
X185792Y189805D01*
X183455Y192142D01*
X182189Y195197D01*
X182189Y198503D01*
X183455Y201558D01*
X185792Y203895D01*
X188847Y205161D01*
X192153Y205161D01*
X195208Y203895D01*
X197545Y201558D01*
X198811Y198503D01*
X198811Y195197D01*
X197545Y192142D01*
X195208Y189805D01*
X192153Y188539D01*
X188847Y188539D01*
G37*
%LPD*%
%LPC*%
G36*
X163447Y188539D02*
X163447Y188539D01*
X160392Y189805D01*
X158055Y192142D01*
X156789Y195197D01*
X156789Y198503D01*
X158055Y201558D01*
X160392Y203895D01*
X163447Y205161D01*
X166753Y205161D01*
X169808Y203895D01*
X172145Y201558D01*
X173411Y198503D01*
X173411Y195197D01*
X172145Y192142D01*
X169808Y189805D01*
X166753Y188539D01*
X163447Y188539D01*
G37*
%LPD*%
%LPC*%
G36*
X341247Y188539D02*
X341247Y188539D01*
X338192Y189805D01*
X335855Y192142D01*
X334589Y195197D01*
X334589Y198503D01*
X335855Y201558D01*
X338192Y203895D01*
X341247Y205161D01*
X344553Y205161D01*
X347608Y203895D01*
X349945Y201558D01*
X351211Y198503D01*
X351211Y195197D01*
X349945Y192142D01*
X347608Y189805D01*
X344553Y188539D01*
X341247Y188539D01*
G37*
%LPD*%
%LPC*%
G36*
X315847Y188539D02*
X315847Y188539D01*
X312792Y189805D01*
X310455Y192142D01*
X309189Y195197D01*
X309189Y198503D01*
X310455Y201558D01*
X312792Y203895D01*
X315847Y205161D01*
X319153Y205161D01*
X322208Y203895D01*
X324545Y201558D01*
X325811Y198503D01*
X325811Y195197D01*
X324545Y192142D01*
X322208Y189805D01*
X319153Y188539D01*
X315847Y188539D01*
G37*
%LPD*%
%LPC*%
G36*
X265047Y188539D02*
X265047Y188539D01*
X261992Y189805D01*
X259655Y192142D01*
X258389Y195197D01*
X258389Y198503D01*
X259655Y201558D01*
X261992Y203895D01*
X265047Y205161D01*
X268353Y205161D01*
X271408Y203895D01*
X273745Y201558D01*
X275011Y198503D01*
X275011Y195197D01*
X273745Y192142D01*
X271408Y189805D01*
X268353Y188539D01*
X265047Y188539D01*
G37*
%LPD*%
%LPC*%
G36*
X328547Y169489D02*
X328547Y169489D01*
X325492Y170755D01*
X323155Y173092D01*
X321889Y176147D01*
X321889Y179453D01*
X323155Y182508D01*
X325492Y184845D01*
X328547Y186111D01*
X331853Y186111D01*
X334908Y184845D01*
X337245Y182508D01*
X338511Y179453D01*
X338511Y176147D01*
X337245Y173092D01*
X334908Y170755D01*
X331853Y169489D01*
X328547Y169489D01*
G37*
%LPD*%
%LPC*%
G36*
X201547Y169489D02*
X201547Y169489D01*
X198492Y170755D01*
X196155Y173092D01*
X194889Y176147D01*
X194889Y179453D01*
X196155Y182508D01*
X198492Y184845D01*
X201547Y186111D01*
X204853Y186111D01*
X207908Y184845D01*
X210245Y182508D01*
X211511Y179453D01*
X211511Y176147D01*
X210245Y173092D01*
X207908Y170755D01*
X204853Y169489D01*
X201547Y169489D01*
G37*
%LPD*%
%LPC*%
G36*
X303147Y169489D02*
X303147Y169489D01*
X300092Y170755D01*
X297755Y173092D01*
X296489Y176147D01*
X296489Y179453D01*
X297755Y182508D01*
X300092Y184845D01*
X303147Y186111D01*
X306453Y186111D01*
X309508Y184845D01*
X311845Y182508D01*
X313111Y179453D01*
X313111Y176147D01*
X311845Y173092D01*
X309508Y170755D01*
X306453Y169489D01*
X303147Y169489D01*
G37*
%LPD*%
%LPC*%
G36*
X277747Y169489D02*
X277747Y169489D01*
X274692Y170755D01*
X272355Y173092D01*
X271089Y176147D01*
X271089Y179453D01*
X272355Y182508D01*
X274692Y184845D01*
X277747Y186111D01*
X281053Y186111D01*
X284108Y184845D01*
X286445Y182508D01*
X287711Y179453D01*
X287711Y176147D01*
X286445Y173092D01*
X284108Y170755D01*
X281053Y169489D01*
X277747Y169489D01*
G37*
%LPD*%
%LPC*%
G36*
X252347Y169489D02*
X252347Y169489D01*
X249292Y170755D01*
X246955Y173092D01*
X245689Y176147D01*
X245689Y179453D01*
X246955Y182508D01*
X249292Y184845D01*
X252347Y186111D01*
X255653Y186111D01*
X258708Y184845D01*
X261045Y182508D01*
X262311Y179453D01*
X262311Y176147D01*
X261045Y173092D01*
X258708Y170755D01*
X255653Y169489D01*
X252347Y169489D01*
G37*
%LPD*%
%LPC*%
G36*
X226947Y169489D02*
X226947Y169489D01*
X223892Y170755D01*
X221555Y173092D01*
X220289Y176147D01*
X220289Y179453D01*
X221555Y182508D01*
X223892Y184845D01*
X226947Y186111D01*
X230253Y186111D01*
X233308Y184845D01*
X235645Y182508D01*
X236911Y179453D01*
X236911Y176147D01*
X235645Y173092D01*
X233308Y170755D01*
X230253Y169489D01*
X226947Y169489D01*
G37*
%LPD*%
%LPC*%
G36*
X23747Y169489D02*
X23747Y169489D01*
X20692Y170755D01*
X18355Y173092D01*
X17089Y176147D01*
X17089Y179453D01*
X18355Y182508D01*
X20692Y184845D01*
X23747Y186111D01*
X27053Y186111D01*
X30108Y184845D01*
X32445Y182508D01*
X33711Y179453D01*
X33711Y176147D01*
X32445Y173092D01*
X30108Y170755D01*
X27053Y169489D01*
X23747Y169489D01*
G37*
%LPD*%
%LPC*%
G36*
X417447Y188539D02*
X417447Y188539D01*
X414392Y189805D01*
X412055Y192142D01*
X410789Y195197D01*
X410789Y198503D01*
X412055Y201558D01*
X414392Y203895D01*
X417447Y205161D01*
X420753Y205161D01*
X423808Y203895D01*
X426145Y201558D01*
X427411Y198503D01*
X427411Y195197D01*
X426145Y192142D01*
X423808Y189805D01*
X420753Y188539D01*
X417447Y188539D01*
G37*
%LPD*%
%LPC*%
G36*
X74547Y169489D02*
X74547Y169489D01*
X71492Y170755D01*
X69155Y173092D01*
X67889Y176147D01*
X67889Y179453D01*
X69155Y182508D01*
X71492Y184845D01*
X74547Y186111D01*
X77853Y186111D01*
X80908Y184845D01*
X83245Y182508D01*
X84511Y179453D01*
X84511Y176147D01*
X83245Y173092D01*
X80908Y170755D01*
X77853Y169489D01*
X74547Y169489D01*
G37*
%LPD*%
%LPC*%
G36*
X99947Y169489D02*
X99947Y169489D01*
X96892Y170755D01*
X94555Y173092D01*
X93289Y176147D01*
X93289Y179453D01*
X94555Y182508D01*
X96892Y184845D01*
X99947Y186111D01*
X103253Y186111D01*
X106308Y184845D01*
X108645Y182508D01*
X109911Y179453D01*
X109911Y176147D01*
X108645Y173092D01*
X106308Y170755D01*
X103253Y169489D01*
X99947Y169489D01*
G37*
%LPD*%
%LPC*%
G36*
X125347Y169489D02*
X125347Y169489D01*
X122292Y170755D01*
X119955Y173092D01*
X118689Y176147D01*
X118689Y179453D01*
X119955Y182508D01*
X122292Y184845D01*
X125347Y186111D01*
X128653Y186111D01*
X131708Y184845D01*
X134045Y182508D01*
X135311Y179453D01*
X135311Y176147D01*
X134045Y173092D01*
X131708Y170755D01*
X128653Y169489D01*
X125347Y169489D01*
G37*
%LPD*%
%LPC*%
G36*
X150747Y169489D02*
X150747Y169489D01*
X147692Y170755D01*
X145355Y173092D01*
X144089Y176147D01*
X144089Y179453D01*
X145355Y182508D01*
X147692Y184845D01*
X150747Y186111D01*
X154053Y186111D01*
X157108Y184845D01*
X159445Y182508D01*
X160711Y179453D01*
X160711Y176147D01*
X159445Y173092D01*
X157108Y170755D01*
X154053Y169489D01*
X150747Y169489D01*
G37*
%LPD*%
%LPC*%
G36*
X176147Y169489D02*
X176147Y169489D01*
X173092Y170755D01*
X170755Y173092D01*
X169489Y176147D01*
X169489Y179453D01*
X170755Y182508D01*
X173092Y184845D01*
X176147Y186111D01*
X179453Y186111D01*
X182508Y184845D01*
X184845Y182508D01*
X186111Y179453D01*
X186111Y176147D01*
X184845Y173092D01*
X182508Y170755D01*
X179453Y169489D01*
X176147Y169489D01*
G37*
%LPD*%
%LPC*%
G36*
X353947Y169489D02*
X353947Y169489D01*
X350892Y170755D01*
X348555Y173092D01*
X347289Y176147D01*
X347289Y179453D01*
X348555Y182508D01*
X350892Y184845D01*
X353947Y186111D01*
X357253Y186111D01*
X360308Y184845D01*
X362645Y182508D01*
X363911Y179453D01*
X363911Y176147D01*
X362645Y173092D01*
X360308Y170755D01*
X357253Y169489D01*
X353947Y169489D01*
G37*
%LPD*%
%LPC*%
G36*
X379347Y169489D02*
X379347Y169489D01*
X376292Y170755D01*
X373955Y173092D01*
X372689Y176147D01*
X372689Y179453D01*
X373955Y182508D01*
X376292Y184845D01*
X379347Y186111D01*
X382653Y186111D01*
X385708Y184845D01*
X388045Y182508D01*
X389311Y179453D01*
X389311Y176147D01*
X388045Y173092D01*
X385708Y170755D01*
X382653Y169489D01*
X379347Y169489D01*
G37*
%LPD*%
%LPC*%
G36*
X404747Y169489D02*
X404747Y169489D01*
X401692Y170755D01*
X399355Y173092D01*
X398089Y176147D01*
X398089Y179453D01*
X399355Y182508D01*
X401692Y184845D01*
X404747Y186111D01*
X408053Y186111D01*
X411108Y184845D01*
X413445Y182508D01*
X414711Y179453D01*
X414711Y176147D01*
X413445Y173092D01*
X411108Y170755D01*
X408053Y169489D01*
X404747Y169489D01*
G37*
%LPD*%
%LPC*%
G36*
X87247Y188539D02*
X87247Y188539D01*
X84192Y189805D01*
X81855Y192142D01*
X80589Y195197D01*
X80589Y198503D01*
X81855Y201558D01*
X84192Y203895D01*
X87247Y205161D01*
X90553Y205161D01*
X93608Y203895D01*
X95945Y201558D01*
X97211Y198503D01*
X97211Y195197D01*
X95945Y192142D01*
X93608Y189805D01*
X90553Y188539D01*
X87247Y188539D01*
G37*
%LPD*%
%LPC*%
G36*
X36447Y188539D02*
X36447Y188539D01*
X33392Y189805D01*
X31055Y192142D01*
X29789Y195197D01*
X29789Y198503D01*
X31055Y201558D01*
X33392Y203895D01*
X36447Y205161D01*
X39753Y205161D01*
X42808Y203895D01*
X45145Y201558D01*
X46411Y198503D01*
X46411Y195197D01*
X45145Y192142D01*
X42808Y189805D01*
X39753Y188539D01*
X36447Y188539D01*
G37*
%LPD*%
%LPC*%
G36*
X61847Y188539D02*
X61847Y188539D01*
X58792Y189805D01*
X56455Y192142D01*
X55189Y195197D01*
X55189Y198503D01*
X56455Y201558D01*
X58792Y203895D01*
X61847Y205161D01*
X65153Y205161D01*
X68208Y203895D01*
X70545Y201558D01*
X71811Y198503D01*
X71811Y195197D01*
X70545Y192142D01*
X68208Y189805D01*
X65153Y188539D01*
X61847Y188539D01*
G37*
%LPD*%
%LPC*%
G36*
X341247Y150439D02*
X341247Y150439D01*
X338192Y151705D01*
X335855Y154042D01*
X334589Y157097D01*
X334589Y160403D01*
X335855Y163458D01*
X338192Y165795D01*
X341247Y167061D01*
X344553Y167061D01*
X347608Y165795D01*
X349945Y163458D01*
X351211Y160403D01*
X351211Y157097D01*
X349945Y154042D01*
X347608Y151705D01*
X344553Y150439D01*
X341247Y150439D01*
G37*
%LPD*%
%LPC*%
G36*
X188847Y150439D02*
X188847Y150439D01*
X185792Y151705D01*
X183455Y154042D01*
X182189Y157097D01*
X182189Y160403D01*
X183455Y163458D01*
X185792Y165795D01*
X188847Y167061D01*
X192153Y167061D01*
X195208Y165795D01*
X197545Y163458D01*
X198811Y160403D01*
X198811Y157097D01*
X197545Y154042D01*
X195208Y151705D01*
X192153Y150439D01*
X188847Y150439D01*
G37*
%LPD*%
%LPC*%
G36*
X163447Y150439D02*
X163447Y150439D01*
X160392Y151705D01*
X158055Y154042D01*
X156789Y157097D01*
X156789Y160403D01*
X158055Y163458D01*
X160392Y165795D01*
X163447Y167061D01*
X166753Y167061D01*
X169808Y165795D01*
X172145Y163458D01*
X173411Y160403D01*
X173411Y157097D01*
X172145Y154042D01*
X169808Y151705D01*
X166753Y150439D01*
X163447Y150439D01*
G37*
%LPD*%
%LPC*%
G36*
X87247Y150439D02*
X87247Y150439D01*
X84192Y151705D01*
X81855Y154042D01*
X80589Y157097D01*
X80589Y160403D01*
X81855Y163458D01*
X84192Y165795D01*
X87247Y167061D01*
X90553Y167061D01*
X93608Y165795D01*
X95945Y163458D01*
X97211Y160403D01*
X97211Y157097D01*
X95945Y154042D01*
X93608Y151705D01*
X90553Y150439D01*
X87247Y150439D01*
G37*
%LPD*%
%LPC*%
G36*
X239647Y150439D02*
X239647Y150439D01*
X236592Y151705D01*
X234255Y154042D01*
X232989Y157097D01*
X232989Y160403D01*
X234255Y163458D01*
X236592Y165795D01*
X239647Y167061D01*
X242953Y167061D01*
X246008Y165795D01*
X248345Y163458D01*
X249611Y160403D01*
X249611Y157097D01*
X248345Y154042D01*
X246008Y151705D01*
X242953Y150439D01*
X239647Y150439D01*
G37*
%LPD*%
%LPC*%
G36*
X49147Y169489D02*
X49147Y169489D01*
X46092Y170755D01*
X43755Y173092D01*
X42489Y176147D01*
X42489Y179453D01*
X43755Y182508D01*
X46092Y184845D01*
X49147Y186111D01*
X52453Y186111D01*
X55508Y184845D01*
X57845Y182508D01*
X59111Y179453D01*
X59111Y176147D01*
X57845Y173092D01*
X55508Y170755D01*
X52453Y169489D01*
X49147Y169489D01*
G37*
%LPD*%
%LPC*%
G36*
X290447Y150439D02*
X290447Y150439D01*
X287392Y151705D01*
X285055Y154042D01*
X283789Y157097D01*
X283789Y160403D01*
X285055Y163458D01*
X287392Y165795D01*
X290447Y167061D01*
X293753Y167061D01*
X296808Y165795D01*
X299145Y163458D01*
X300411Y160403D01*
X300411Y157097D01*
X299145Y154042D01*
X296808Y151705D01*
X293753Y150439D01*
X290447Y150439D01*
G37*
%LPD*%
%LPC*%
G36*
X417447Y150439D02*
X417447Y150439D01*
X414392Y151705D01*
X412055Y154042D01*
X410789Y157097D01*
X410789Y160403D01*
X412055Y163458D01*
X414392Y165795D01*
X417447Y167061D01*
X420753Y167061D01*
X423808Y165795D01*
X426145Y163458D01*
X427411Y160403D01*
X427411Y157097D01*
X426145Y154042D01*
X423808Y151705D01*
X420753Y150439D01*
X417447Y150439D01*
G37*
%LPD*%
%LPC*%
G36*
X366647Y150439D02*
X366647Y150439D01*
X363592Y151705D01*
X361255Y154042D01*
X359989Y157097D01*
X359989Y160403D01*
X361255Y163458D01*
X363592Y165795D01*
X366647Y167061D01*
X369953Y167061D01*
X373008Y165795D01*
X375345Y163458D01*
X376611Y160403D01*
X376611Y157097D01*
X375345Y154042D01*
X373008Y151705D01*
X369953Y150439D01*
X366647Y150439D01*
G37*
%LPD*%
%LPC*%
G36*
X315847Y150439D02*
X315847Y150439D01*
X312792Y151705D01*
X310455Y154042D01*
X309189Y157097D01*
X309189Y160403D01*
X310455Y163458D01*
X312792Y165795D01*
X315847Y167061D01*
X319153Y167061D01*
X322208Y165795D01*
X324545Y163458D01*
X325811Y160403D01*
X325811Y157097D01*
X324545Y154042D01*
X322208Y151705D01*
X319153Y150439D01*
X315847Y150439D01*
G37*
%LPD*%
%LPC*%
G36*
X265047Y150439D02*
X265047Y150439D01*
X261992Y151705D01*
X259655Y154042D01*
X258389Y157097D01*
X258389Y160403D01*
X259655Y163458D01*
X261992Y165795D01*
X265047Y167061D01*
X268353Y167061D01*
X271408Y165795D01*
X273745Y163458D01*
X275011Y160403D01*
X275011Y157097D01*
X273745Y154042D01*
X271408Y151705D01*
X268353Y150439D01*
X265047Y150439D01*
G37*
%LPD*%
%LPC*%
G36*
X36447Y150439D02*
X36447Y150439D01*
X33392Y151705D01*
X31055Y154042D01*
X29789Y157097D01*
X29789Y160403D01*
X31055Y163458D01*
X33392Y165795D01*
X36447Y167061D01*
X39753Y167061D01*
X42808Y165795D01*
X45145Y163458D01*
X46411Y160403D01*
X46411Y157097D01*
X45145Y154042D01*
X42808Y151705D01*
X39753Y150439D01*
X36447Y150439D01*
G37*
%LPD*%
D10*
X124276Y120368D02*
X121384Y122682D01*
X121384Y112268D01*
X124276Y112268D02*
X118491Y112268D01*
X112846Y117475D02*
X112844Y117680D01*
X112836Y117885D01*
X112824Y118089D01*
X112807Y118293D01*
X112785Y118497D01*
X112758Y118700D01*
X112726Y118903D01*
X112690Y119104D01*
X112649Y119305D01*
X112603Y119504D01*
X112552Y119703D01*
X112496Y119900D01*
X112436Y120096D01*
X112371Y120290D01*
X112302Y120483D01*
X112228Y120674D01*
X112149Y120863D01*
X112066Y121050D01*
X111978Y121236D01*
X111979Y121235D02*
X111948Y121321D01*
X111913Y121406D01*
X111874Y121489D01*
X111831Y121570D01*
X111786Y121649D01*
X111737Y121727D01*
X111684Y121802D01*
X111629Y121875D01*
X111570Y121945D01*
X111509Y122013D01*
X111444Y122078D01*
X111377Y122140D01*
X111308Y122200D01*
X111235Y122256D01*
X111161Y122309D01*
X111084Y122359D01*
X111005Y122406D01*
X110925Y122449D01*
X110842Y122489D01*
X110758Y122525D01*
X110672Y122558D01*
X110586Y122587D01*
X110497Y122612D01*
X110408Y122633D01*
X110319Y122651D01*
X110228Y122664D01*
X110137Y122674D01*
X110046Y122680D01*
X109954Y122682D01*
X109862Y122680D01*
X109771Y122674D01*
X109680Y122664D01*
X109589Y122651D01*
X109500Y122633D01*
X109411Y122612D01*
X109322Y122587D01*
X109236Y122558D01*
X109150Y122525D01*
X109066Y122489D01*
X108983Y122449D01*
X108903Y122406D01*
X108824Y122359D01*
X108747Y122309D01*
X108673Y122256D01*
X108600Y122200D01*
X108531Y122140D01*
X108464Y122078D01*
X108399Y122013D01*
X108338Y121945D01*
X108279Y121875D01*
X108224Y121802D01*
X108171Y121727D01*
X108122Y121649D01*
X108077Y121570D01*
X108034Y121489D01*
X107995Y121406D01*
X107960Y121321D01*
X107929Y121235D01*
X107929Y121236D02*
X107841Y121050D01*
X107758Y120863D01*
X107679Y120674D01*
X107605Y120483D01*
X107536Y120290D01*
X107471Y120096D01*
X107411Y119900D01*
X107355Y119703D01*
X107304Y119504D01*
X107258Y119305D01*
X107217Y119104D01*
X107181Y118903D01*
X107149Y118700D01*
X107122Y118497D01*
X107100Y118293D01*
X107083Y118089D01*
X107071Y117885D01*
X107063Y117680D01*
X107061Y117475D01*
X112846Y117475D02*
X112844Y117270D01*
X112836Y117065D01*
X112824Y116861D01*
X112807Y116657D01*
X112785Y116453D01*
X112758Y116250D01*
X112726Y116048D01*
X112690Y115846D01*
X112649Y115645D01*
X112603Y115446D01*
X112552Y115247D01*
X112496Y115050D01*
X112436Y114854D01*
X112371Y114660D01*
X112302Y114467D01*
X112228Y114276D01*
X112149Y114087D01*
X112066Y113900D01*
X111978Y113714D01*
X111979Y113715D02*
X111948Y113629D01*
X111913Y113544D01*
X111874Y113461D01*
X111831Y113380D01*
X111786Y113301D01*
X111737Y113223D01*
X111684Y113148D01*
X111629Y113075D01*
X111570Y113005D01*
X111509Y112937D01*
X111444Y112872D01*
X111377Y112810D01*
X111308Y112750D01*
X111235Y112694D01*
X111161Y112641D01*
X111084Y112591D01*
X111005Y112544D01*
X110925Y112501D01*
X110842Y112461D01*
X110758Y112425D01*
X110672Y112392D01*
X110586Y112363D01*
X110497Y112338D01*
X110408Y112317D01*
X110319Y112299D01*
X110228Y112286D01*
X110137Y112276D01*
X110046Y112270D01*
X109954Y112268D01*
X107929Y113714D02*
X107841Y113900D01*
X107758Y114087D01*
X107679Y114276D01*
X107605Y114467D01*
X107536Y114660D01*
X107471Y114854D01*
X107411Y115050D01*
X107355Y115247D01*
X107304Y115446D01*
X107258Y115645D01*
X107217Y115846D01*
X107181Y116048D01*
X107149Y116250D01*
X107122Y116453D01*
X107100Y116657D01*
X107083Y116861D01*
X107071Y117065D01*
X107063Y117270D01*
X107061Y117475D01*
X107929Y113715D02*
X107960Y113629D01*
X107995Y113544D01*
X108034Y113461D01*
X108077Y113380D01*
X108122Y113301D01*
X108171Y113223D01*
X108224Y113148D01*
X108279Y113075D01*
X108338Y113005D01*
X108399Y112937D01*
X108464Y112872D01*
X108531Y112810D01*
X108600Y112750D01*
X108673Y112694D01*
X108747Y112641D01*
X108824Y112591D01*
X108903Y112544D01*
X108983Y112501D01*
X109066Y112461D01*
X109150Y112425D01*
X109236Y112392D01*
X109322Y112363D01*
X109411Y112338D01*
X109500Y112317D01*
X109589Y112299D01*
X109680Y112286D01*
X109771Y112276D01*
X109862Y112270D01*
X109954Y112268D01*
X112268Y114582D02*
X107639Y120368D01*
X101981Y111111D02*
X97352Y123839D01*
X91404Y121236D02*
X91492Y121050D01*
X91575Y120863D01*
X91654Y120674D01*
X91728Y120483D01*
X91797Y120290D01*
X91862Y120096D01*
X91922Y119900D01*
X91978Y119703D01*
X92029Y119504D01*
X92075Y119305D01*
X92116Y119104D01*
X92152Y118903D01*
X92184Y118700D01*
X92211Y118497D01*
X92233Y118293D01*
X92250Y118089D01*
X92262Y117885D01*
X92270Y117680D01*
X92272Y117475D01*
X91405Y121235D02*
X91374Y121321D01*
X91339Y121406D01*
X91300Y121489D01*
X91257Y121570D01*
X91212Y121649D01*
X91163Y121727D01*
X91110Y121802D01*
X91055Y121875D01*
X90996Y121945D01*
X90935Y122013D01*
X90870Y122078D01*
X90803Y122140D01*
X90734Y122200D01*
X90661Y122256D01*
X90587Y122309D01*
X90510Y122359D01*
X90431Y122406D01*
X90351Y122449D01*
X90268Y122489D01*
X90184Y122525D01*
X90098Y122558D01*
X90012Y122587D01*
X89923Y122612D01*
X89834Y122633D01*
X89745Y122651D01*
X89654Y122664D01*
X89563Y122674D01*
X89472Y122680D01*
X89380Y122682D01*
X89288Y122680D01*
X89197Y122674D01*
X89106Y122664D01*
X89015Y122651D01*
X88926Y122633D01*
X88837Y122612D01*
X88748Y122587D01*
X88662Y122558D01*
X88576Y122525D01*
X88492Y122489D01*
X88409Y122449D01*
X88329Y122406D01*
X88250Y122359D01*
X88173Y122309D01*
X88099Y122256D01*
X88026Y122200D01*
X87957Y122140D01*
X87890Y122078D01*
X87825Y122013D01*
X87764Y121945D01*
X87705Y121875D01*
X87650Y121802D01*
X87597Y121727D01*
X87548Y121649D01*
X87503Y121570D01*
X87460Y121489D01*
X87421Y121406D01*
X87386Y121321D01*
X87355Y121235D01*
X87355Y121236D02*
X87267Y121050D01*
X87184Y120863D01*
X87105Y120674D01*
X87031Y120483D01*
X86962Y120290D01*
X86897Y120096D01*
X86837Y119900D01*
X86781Y119703D01*
X86730Y119504D01*
X86684Y119305D01*
X86643Y119104D01*
X86607Y118903D01*
X86575Y118700D01*
X86548Y118497D01*
X86526Y118293D01*
X86509Y118089D01*
X86497Y117885D01*
X86489Y117680D01*
X86487Y117475D01*
X92272Y117475D02*
X92270Y117270D01*
X92262Y117065D01*
X92250Y116861D01*
X92233Y116657D01*
X92211Y116453D01*
X92184Y116250D01*
X92152Y116048D01*
X92116Y115846D01*
X92075Y115645D01*
X92029Y115446D01*
X91978Y115247D01*
X91922Y115050D01*
X91862Y114854D01*
X91797Y114660D01*
X91728Y114467D01*
X91654Y114276D01*
X91575Y114087D01*
X91492Y113900D01*
X91404Y113714D01*
X91405Y113715D02*
X91374Y113629D01*
X91339Y113544D01*
X91300Y113461D01*
X91257Y113380D01*
X91212Y113301D01*
X91163Y113223D01*
X91110Y113148D01*
X91055Y113075D01*
X90996Y113005D01*
X90935Y112937D01*
X90870Y112872D01*
X90803Y112810D01*
X90734Y112750D01*
X90661Y112694D01*
X90587Y112641D01*
X90510Y112591D01*
X90431Y112544D01*
X90351Y112501D01*
X90268Y112461D01*
X90184Y112425D01*
X90098Y112392D01*
X90012Y112363D01*
X89923Y112338D01*
X89834Y112317D01*
X89745Y112299D01*
X89654Y112286D01*
X89563Y112276D01*
X89472Y112270D01*
X89380Y112268D01*
X87355Y113714D02*
X87267Y113900D01*
X87184Y114087D01*
X87105Y114276D01*
X87031Y114467D01*
X86962Y114660D01*
X86897Y114854D01*
X86837Y115050D01*
X86781Y115247D01*
X86730Y115446D01*
X86684Y115645D01*
X86643Y115846D01*
X86607Y116048D01*
X86575Y116250D01*
X86548Y116453D01*
X86526Y116657D01*
X86509Y116861D01*
X86497Y117065D01*
X86489Y117270D01*
X86487Y117475D01*
X87355Y113715D02*
X87386Y113629D01*
X87421Y113544D01*
X87460Y113461D01*
X87503Y113380D01*
X87548Y113301D01*
X87597Y113223D01*
X87650Y113148D01*
X87705Y113075D01*
X87764Y113005D01*
X87825Y112937D01*
X87890Y112872D01*
X87957Y112810D01*
X88026Y112750D01*
X88099Y112694D01*
X88173Y112641D01*
X88250Y112591D01*
X88329Y112544D01*
X88409Y112501D01*
X88492Y112461D01*
X88576Y112425D01*
X88662Y112392D01*
X88748Y112363D01*
X88837Y112338D01*
X88926Y112317D01*
X89015Y112299D01*
X89106Y112286D01*
X89197Y112276D01*
X89288Y112270D01*
X89380Y112268D01*
X91694Y114582D02*
X87065Y120368D01*
X80842Y118054D02*
X77371Y118054D01*
X77371Y118053D02*
X77275Y118051D01*
X77180Y118045D01*
X77085Y118035D01*
X76990Y118021D01*
X76896Y118004D01*
X76803Y117982D01*
X76711Y117957D01*
X76620Y117928D01*
X76530Y117895D01*
X76441Y117858D01*
X76355Y117818D01*
X76270Y117774D01*
X76187Y117727D01*
X76105Y117676D01*
X76026Y117622D01*
X75950Y117565D01*
X75875Y117505D01*
X75804Y117441D01*
X75735Y117375D01*
X75669Y117306D01*
X75605Y117235D01*
X75545Y117160D01*
X75488Y117084D01*
X75434Y117005D01*
X75383Y116924D01*
X75336Y116840D01*
X75292Y116755D01*
X75252Y116669D01*
X75215Y116580D01*
X75182Y116490D01*
X75153Y116399D01*
X75128Y116307D01*
X75106Y116214D01*
X75089Y116120D01*
X75075Y116025D01*
X75065Y115930D01*
X75059Y115835D01*
X75057Y115739D01*
X75057Y115161D01*
X75059Y115054D01*
X75065Y114947D01*
X75075Y114841D01*
X75089Y114735D01*
X75106Y114629D01*
X75128Y114525D01*
X75153Y114421D01*
X75183Y114318D01*
X75216Y114216D01*
X75252Y114116D01*
X75293Y114017D01*
X75337Y113920D01*
X75385Y113824D01*
X75436Y113730D01*
X75490Y113638D01*
X75548Y113548D01*
X75610Y113461D01*
X75674Y113375D01*
X75741Y113292D01*
X75812Y113212D01*
X75886Y113134D01*
X75962Y113059D01*
X76041Y112987D01*
X76122Y112918D01*
X76207Y112852D01*
X76293Y112789D01*
X76382Y112730D01*
X76473Y112674D01*
X76566Y112621D01*
X76660Y112571D01*
X76757Y112525D01*
X76855Y112483D01*
X76955Y112445D01*
X77056Y112410D01*
X77158Y112378D01*
X77262Y112351D01*
X77366Y112328D01*
X77471Y112308D01*
X77577Y112292D01*
X77683Y112280D01*
X77790Y112272D01*
X77897Y112268D01*
X78003Y112268D01*
X78110Y112272D01*
X78217Y112280D01*
X78323Y112292D01*
X78429Y112308D01*
X78534Y112328D01*
X78638Y112351D01*
X78742Y112378D01*
X78844Y112410D01*
X78945Y112445D01*
X79045Y112483D01*
X79143Y112525D01*
X79240Y112571D01*
X79334Y112621D01*
X79427Y112674D01*
X79518Y112730D01*
X79607Y112789D01*
X79693Y112852D01*
X79778Y112918D01*
X79859Y112987D01*
X79938Y113059D01*
X80014Y113134D01*
X80088Y113212D01*
X80159Y113292D01*
X80226Y113375D01*
X80290Y113461D01*
X80352Y113548D01*
X80410Y113638D01*
X80464Y113730D01*
X80515Y113824D01*
X80563Y113920D01*
X80607Y114017D01*
X80648Y114116D01*
X80684Y114216D01*
X80717Y114318D01*
X80747Y114421D01*
X80772Y114525D01*
X80794Y114629D01*
X80811Y114735D01*
X80825Y114841D01*
X80835Y114947D01*
X80841Y115054D01*
X80843Y115161D01*
X80842Y115161D02*
X80842Y118054D01*
X80840Y118189D01*
X80834Y118323D01*
X80824Y118457D01*
X80811Y118591D01*
X80793Y118725D01*
X80772Y118858D01*
X80746Y118990D01*
X80717Y119121D01*
X80684Y119252D01*
X80648Y119381D01*
X80607Y119510D01*
X80563Y119637D01*
X80515Y119763D01*
X80464Y119887D01*
X80408Y120010D01*
X80350Y120131D01*
X80288Y120250D01*
X80222Y120368D01*
X80153Y120484D01*
X80081Y120597D01*
X80005Y120709D01*
X79926Y120818D01*
X79844Y120924D01*
X79759Y121029D01*
X79671Y121131D01*
X79580Y121230D01*
X79486Y121326D01*
X79390Y121420D01*
X79291Y121511D01*
X79189Y121599D01*
X79084Y121684D01*
X78978Y121766D01*
X78869Y121845D01*
X78757Y121921D01*
X78644Y121993D01*
X78528Y122062D01*
X78410Y122128D01*
X78291Y122190D01*
X78170Y122248D01*
X78047Y122304D01*
X77923Y122355D01*
X77797Y122403D01*
X77670Y122447D01*
X77541Y122488D01*
X77412Y122524D01*
X77281Y122557D01*
X77150Y122586D01*
X77018Y122612D01*
X76885Y122633D01*
X76751Y122651D01*
X76617Y122664D01*
X76483Y122674D01*
X76349Y122680D01*
X76214Y122682D01*
X65348Y123839D02*
X69977Y111111D01*
X57086Y122683D02*
X56986Y122681D01*
X56887Y122675D01*
X56787Y122666D01*
X56689Y122652D01*
X56590Y122635D01*
X56493Y122615D01*
X56396Y122590D01*
X56300Y122562D01*
X56206Y122530D01*
X56113Y122494D01*
X56021Y122455D01*
X55931Y122413D01*
X55842Y122367D01*
X55755Y122317D01*
X55671Y122265D01*
X55588Y122209D01*
X55507Y122150D01*
X55429Y122088D01*
X55353Y122023D01*
X55280Y121955D01*
X55210Y121885D01*
X55142Y121812D01*
X55077Y121736D01*
X55015Y121658D01*
X54956Y121577D01*
X54900Y121494D01*
X54848Y121410D01*
X54798Y121323D01*
X54752Y121234D01*
X54710Y121144D01*
X54671Y121052D01*
X54635Y120959D01*
X54603Y120865D01*
X54575Y120769D01*
X54550Y120672D01*
X54530Y120575D01*
X54513Y120476D01*
X54499Y120378D01*
X54490Y120278D01*
X54484Y120179D01*
X54482Y120079D01*
X57086Y122682D02*
X57200Y122680D01*
X57313Y122674D01*
X57426Y122665D01*
X57539Y122651D01*
X57652Y122634D01*
X57763Y122613D01*
X57874Y122588D01*
X57984Y122559D01*
X58093Y122527D01*
X58201Y122491D01*
X58308Y122451D01*
X58413Y122408D01*
X58516Y122361D01*
X58618Y122310D01*
X58718Y122257D01*
X58817Y122199D01*
X58913Y122139D01*
X59007Y122075D01*
X59099Y122008D01*
X59189Y121938D01*
X59276Y121865D01*
X59361Y121790D01*
X59443Y121711D01*
X59522Y121629D01*
X59598Y121545D01*
X59672Y121459D01*
X59743Y121370D01*
X59810Y121278D01*
X59875Y121184D01*
X59936Y121089D01*
X59994Y120991D01*
X60048Y120891D01*
X60099Y120789D01*
X60147Y120686D01*
X60191Y120581D01*
X60231Y120475D01*
X60268Y120368D01*
X55350Y118054D02*
X55277Y118126D01*
X55206Y118201D01*
X55139Y118279D01*
X55074Y118359D01*
X55012Y118441D01*
X54953Y118525D01*
X54898Y118612D01*
X54845Y118701D01*
X54796Y118791D01*
X54750Y118883D01*
X54708Y118977D01*
X54669Y119073D01*
X54634Y119169D01*
X54602Y119267D01*
X54574Y119366D01*
X54550Y119466D01*
X54529Y119567D01*
X54512Y119669D01*
X54499Y119771D01*
X54490Y119873D01*
X54484Y119976D01*
X54482Y120079D01*
X55351Y118054D02*
X60268Y112268D01*
X54483Y112268D01*
X48839Y117475D02*
X48837Y117680D01*
X48829Y117885D01*
X48817Y118089D01*
X48800Y118293D01*
X48778Y118497D01*
X48751Y118700D01*
X48719Y118903D01*
X48683Y119104D01*
X48642Y119305D01*
X48596Y119504D01*
X48545Y119703D01*
X48489Y119900D01*
X48429Y120096D01*
X48364Y120290D01*
X48295Y120483D01*
X48221Y120674D01*
X48142Y120863D01*
X48059Y121050D01*
X47971Y121236D01*
X47971Y121235D02*
X47940Y121321D01*
X47905Y121406D01*
X47866Y121489D01*
X47823Y121570D01*
X47778Y121649D01*
X47729Y121727D01*
X47676Y121802D01*
X47621Y121875D01*
X47562Y121945D01*
X47501Y122013D01*
X47436Y122078D01*
X47369Y122140D01*
X47300Y122200D01*
X47227Y122256D01*
X47153Y122309D01*
X47076Y122359D01*
X46997Y122406D01*
X46917Y122449D01*
X46834Y122489D01*
X46750Y122525D01*
X46664Y122558D01*
X46578Y122587D01*
X46489Y122612D01*
X46400Y122633D01*
X46311Y122651D01*
X46220Y122664D01*
X46129Y122674D01*
X46038Y122680D01*
X45946Y122682D01*
X45854Y122680D01*
X45763Y122674D01*
X45672Y122664D01*
X45581Y122651D01*
X45492Y122633D01*
X45403Y122612D01*
X45314Y122587D01*
X45228Y122558D01*
X45142Y122525D01*
X45058Y122489D01*
X44975Y122449D01*
X44895Y122406D01*
X44816Y122359D01*
X44739Y122309D01*
X44665Y122256D01*
X44592Y122200D01*
X44523Y122140D01*
X44456Y122078D01*
X44391Y122013D01*
X44330Y121945D01*
X44271Y121875D01*
X44216Y121802D01*
X44163Y121727D01*
X44114Y121649D01*
X44069Y121570D01*
X44026Y121489D01*
X43987Y121406D01*
X43952Y121321D01*
X43921Y121235D01*
X43921Y121236D02*
X43833Y121050D01*
X43750Y120863D01*
X43671Y120674D01*
X43597Y120483D01*
X43528Y120290D01*
X43463Y120096D01*
X43403Y119900D01*
X43347Y119703D01*
X43296Y119504D01*
X43250Y119305D01*
X43209Y119104D01*
X43173Y118903D01*
X43141Y118700D01*
X43114Y118497D01*
X43092Y118293D01*
X43075Y118089D01*
X43063Y117885D01*
X43055Y117680D01*
X43053Y117475D01*
X48838Y117475D02*
X48836Y117270D01*
X48828Y117065D01*
X48816Y116861D01*
X48799Y116657D01*
X48777Y116453D01*
X48750Y116250D01*
X48718Y116048D01*
X48682Y115846D01*
X48641Y115645D01*
X48595Y115446D01*
X48544Y115247D01*
X48488Y115050D01*
X48428Y114854D01*
X48363Y114660D01*
X48294Y114467D01*
X48220Y114276D01*
X48141Y114087D01*
X48058Y113900D01*
X47970Y113714D01*
X47971Y113715D02*
X47940Y113629D01*
X47905Y113544D01*
X47866Y113461D01*
X47823Y113380D01*
X47778Y113301D01*
X47729Y113223D01*
X47676Y113148D01*
X47621Y113075D01*
X47562Y113005D01*
X47501Y112937D01*
X47436Y112872D01*
X47369Y112810D01*
X47300Y112750D01*
X47227Y112694D01*
X47153Y112641D01*
X47076Y112591D01*
X46997Y112544D01*
X46917Y112501D01*
X46834Y112461D01*
X46750Y112425D01*
X46664Y112392D01*
X46578Y112363D01*
X46489Y112338D01*
X46400Y112317D01*
X46311Y112299D01*
X46220Y112286D01*
X46129Y112276D01*
X46038Y112270D01*
X45946Y112268D01*
X43921Y113714D02*
X43833Y113900D01*
X43750Y114087D01*
X43671Y114276D01*
X43597Y114467D01*
X43528Y114660D01*
X43463Y114854D01*
X43403Y115050D01*
X43347Y115247D01*
X43296Y115446D01*
X43250Y115645D01*
X43209Y115846D01*
X43173Y116048D01*
X43141Y116250D01*
X43114Y116453D01*
X43092Y116657D01*
X43075Y116861D01*
X43063Y117065D01*
X43055Y117270D01*
X43053Y117475D01*
X43921Y113715D02*
X43952Y113629D01*
X43987Y113544D01*
X44026Y113461D01*
X44069Y113380D01*
X44114Y113301D01*
X44163Y113223D01*
X44216Y113148D01*
X44271Y113075D01*
X44330Y113005D01*
X44391Y112937D01*
X44456Y112872D01*
X44523Y112810D01*
X44592Y112750D01*
X44665Y112694D01*
X44739Y112641D01*
X44816Y112591D01*
X44895Y112544D01*
X44975Y112501D01*
X45058Y112461D01*
X45142Y112425D01*
X45228Y112392D01*
X45314Y112363D01*
X45403Y112338D01*
X45492Y112317D01*
X45581Y112299D01*
X45672Y112286D01*
X45763Y112276D01*
X45854Y112270D01*
X45946Y112268D01*
X48260Y114582D02*
X43631Y120368D01*
X34226Y122683D02*
X34126Y122681D01*
X34027Y122675D01*
X33927Y122666D01*
X33829Y122652D01*
X33730Y122635D01*
X33633Y122615D01*
X33536Y122590D01*
X33440Y122562D01*
X33346Y122530D01*
X33253Y122494D01*
X33161Y122455D01*
X33071Y122413D01*
X32982Y122367D01*
X32895Y122317D01*
X32811Y122265D01*
X32728Y122209D01*
X32647Y122150D01*
X32569Y122088D01*
X32493Y122023D01*
X32420Y121955D01*
X32350Y121885D01*
X32282Y121812D01*
X32217Y121736D01*
X32155Y121658D01*
X32096Y121577D01*
X32040Y121494D01*
X31988Y121410D01*
X31938Y121323D01*
X31892Y121234D01*
X31850Y121144D01*
X31811Y121052D01*
X31775Y120959D01*
X31743Y120865D01*
X31715Y120769D01*
X31690Y120672D01*
X31670Y120575D01*
X31653Y120476D01*
X31639Y120378D01*
X31630Y120278D01*
X31624Y120179D01*
X31622Y120079D01*
X34226Y122682D02*
X34340Y122680D01*
X34453Y122674D01*
X34566Y122665D01*
X34679Y122651D01*
X34792Y122634D01*
X34903Y122613D01*
X35014Y122588D01*
X35124Y122559D01*
X35233Y122527D01*
X35341Y122491D01*
X35448Y122451D01*
X35553Y122408D01*
X35656Y122361D01*
X35758Y122310D01*
X35858Y122257D01*
X35957Y122199D01*
X36053Y122139D01*
X36147Y122075D01*
X36239Y122008D01*
X36329Y121938D01*
X36416Y121865D01*
X36501Y121790D01*
X36583Y121711D01*
X36662Y121629D01*
X36738Y121545D01*
X36812Y121459D01*
X36883Y121370D01*
X36950Y121278D01*
X37015Y121184D01*
X37076Y121089D01*
X37134Y120991D01*
X37188Y120891D01*
X37239Y120789D01*
X37287Y120686D01*
X37331Y120581D01*
X37371Y120475D01*
X37408Y120368D01*
X32490Y118054D02*
X32417Y118126D01*
X32346Y118201D01*
X32279Y118279D01*
X32214Y118359D01*
X32152Y118441D01*
X32093Y118525D01*
X32038Y118612D01*
X31985Y118701D01*
X31936Y118791D01*
X31890Y118883D01*
X31848Y118977D01*
X31809Y119073D01*
X31774Y119169D01*
X31742Y119267D01*
X31714Y119366D01*
X31690Y119466D01*
X31669Y119567D01*
X31652Y119669D01*
X31639Y119771D01*
X31630Y119873D01*
X31624Y119976D01*
X31622Y120079D01*
X32491Y118054D02*
X37409Y112268D01*
X31623Y112268D01*
X25979Y112268D02*
X23086Y112268D01*
X22979Y112270D01*
X22872Y112276D01*
X22766Y112286D01*
X22660Y112300D01*
X22554Y112317D01*
X22450Y112339D01*
X22346Y112364D01*
X22243Y112394D01*
X22141Y112427D01*
X22041Y112463D01*
X21942Y112504D01*
X21845Y112548D01*
X21749Y112596D01*
X21655Y112647D01*
X21563Y112701D01*
X21473Y112759D01*
X21386Y112821D01*
X21300Y112885D01*
X21217Y112952D01*
X21137Y113023D01*
X21059Y113097D01*
X20984Y113173D01*
X20912Y113252D01*
X20843Y113333D01*
X20777Y113418D01*
X20714Y113504D01*
X20655Y113593D01*
X20599Y113684D01*
X20546Y113777D01*
X20496Y113871D01*
X20450Y113968D01*
X20408Y114066D01*
X20370Y114166D01*
X20335Y114267D01*
X20303Y114369D01*
X20276Y114473D01*
X20253Y114577D01*
X20233Y114682D01*
X20217Y114788D01*
X20205Y114894D01*
X20197Y115001D01*
X20193Y115108D01*
X20193Y115214D01*
X20197Y115321D01*
X20205Y115428D01*
X20217Y115534D01*
X20233Y115640D01*
X20253Y115745D01*
X20276Y115849D01*
X20303Y115953D01*
X20335Y116055D01*
X20370Y116156D01*
X20408Y116256D01*
X20450Y116354D01*
X20496Y116451D01*
X20546Y116545D01*
X20599Y116638D01*
X20655Y116729D01*
X20714Y116818D01*
X20777Y116904D01*
X20843Y116989D01*
X20912Y117070D01*
X20984Y117149D01*
X21059Y117225D01*
X21137Y117299D01*
X21217Y117370D01*
X21300Y117437D01*
X21386Y117501D01*
X21473Y117563D01*
X21563Y117621D01*
X21655Y117675D01*
X21749Y117726D01*
X21845Y117774D01*
X21942Y117818D01*
X22041Y117859D01*
X22141Y117895D01*
X22243Y117928D01*
X22346Y117958D01*
X22450Y117983D01*
X22554Y118005D01*
X22660Y118022D01*
X22766Y118036D01*
X22872Y118046D01*
X22979Y118052D01*
X23086Y118054D01*
X22507Y122682D02*
X25979Y122682D01*
X22507Y122682D02*
X22413Y122680D01*
X22318Y122674D01*
X22224Y122665D01*
X22131Y122651D01*
X22038Y122634D01*
X21946Y122613D01*
X21855Y122588D01*
X21765Y122560D01*
X21676Y122528D01*
X21589Y122492D01*
X21503Y122453D01*
X21419Y122410D01*
X21336Y122364D01*
X21256Y122315D01*
X21178Y122262D01*
X21101Y122206D01*
X21028Y122147D01*
X20956Y122086D01*
X20888Y122021D01*
X20821Y121953D01*
X20758Y121883D01*
X20698Y121811D01*
X20640Y121736D01*
X20586Y121658D01*
X20535Y121579D01*
X20487Y121498D01*
X20443Y121414D01*
X20402Y121329D01*
X20365Y121243D01*
X20331Y121155D01*
X20300Y121065D01*
X20274Y120975D01*
X20251Y120883D01*
X20232Y120790D01*
X20217Y120697D01*
X20205Y120604D01*
X20197Y120510D01*
X20193Y120415D01*
X20193Y120321D01*
X20197Y120226D01*
X20205Y120132D01*
X20217Y120039D01*
X20232Y119946D01*
X20251Y119853D01*
X20274Y119761D01*
X20300Y119671D01*
X20331Y119581D01*
X20365Y119493D01*
X20402Y119407D01*
X20443Y119322D01*
X20487Y119238D01*
X20535Y119157D01*
X20586Y119078D01*
X20640Y119000D01*
X20698Y118925D01*
X20758Y118853D01*
X20821Y118783D01*
X20888Y118715D01*
X20956Y118650D01*
X21028Y118589D01*
X21101Y118530D01*
X21178Y118474D01*
X21256Y118421D01*
X21336Y118372D01*
X21419Y118326D01*
X21503Y118283D01*
X21589Y118244D01*
X21676Y118208D01*
X21765Y118176D01*
X21855Y118148D01*
X21946Y118123D01*
X22038Y118102D01*
X22131Y118085D01*
X22224Y118071D01*
X22318Y118062D01*
X22413Y118056D01*
X22507Y118054D01*
X24821Y118054D01*
X177826Y60328D02*
X184372Y63601D01*
X181099Y66873D02*
X177826Y60328D01*
X178325Y71284D02*
X177916Y74966D01*
X170552Y67602D01*
X168507Y69647D02*
X172598Y65556D01*
X165099Y73055D02*
X165508Y73464D01*
X165099Y73873D01*
X164690Y73464D01*
X165099Y73055D01*
X167010Y82599D02*
X166601Y86281D01*
X159237Y78917D01*
X157192Y80962D02*
X161283Y76871D01*
D11*
X63500Y158750D03*
X393700Y158750D03*
D12*
X220980Y66860D03*
D13*
X375920Y140970D02*
X393700Y158750D01*
X375920Y140970D02*
X224790Y140970D01*
X200660Y116840D01*
X200660Y104140D01*
X220980Y83820D02*
X220980Y66860D01*
X220980Y83820D02*
X200660Y104140D01*
X384154Y149204D02*
X395669Y153640D01*
X393700Y158750D01*
X388590Y160719D02*
X384154Y149204D01*
X388590Y160719D02*
X393700Y158750D01*
X220980Y72860D02*
X218725Y67882D01*
X220980Y66860D01*
X223235Y67882D02*
X220980Y72860D01*
X223235Y67882D02*
X220980Y66860D01*
D12*
X273050Y88900D03*
X313690Y48260D03*
D13*
X273050Y88900D01*
X275367Y89772D02*
X277293Y84657D01*
X275367Y89772D02*
X273050Y88900D01*
X272178Y86583D02*
X277293Y84657D01*
X272178Y86583D02*
X273050Y88900D01*
X309447Y52503D02*
X311373Y47388D01*
X313690Y48260D01*
X314562Y50577D02*
X309447Y52503D01*
X314562Y50577D02*
X313690Y48260D01*
D11*
X393700Y196850D03*
D12*
X210820Y110940D03*
D13*
X230690Y130810D02*
X279400Y130810D01*
X230690Y130810D02*
X210820Y110940D01*
D12*
X279400Y130810D03*
D13*
X215063Y115183D02*
X209948Y113257D01*
X210820Y110940D01*
X213137Y110068D02*
X215063Y115183D01*
X213137Y110068D02*
X210820Y110940D01*
X273400Y130810D02*
X278378Y128555D01*
X279400Y130810D01*
X278378Y133065D02*
X273400Y130810D01*
X278378Y133065D02*
X279400Y130810D01*
D12*
X220980Y104440D03*
D13*
X294640Y52578D02*
X294640Y29210D01*
X294640Y52578D02*
X242778Y104440D01*
X220980Y104440D01*
D12*
X294640Y29210D03*
D13*
X226980Y104440D02*
X222002Y106695D01*
X220980Y104440D01*
X222002Y102185D02*
X226980Y104440D01*
X222002Y102185D02*
X220980Y104440D01*
X294640Y35210D02*
X292385Y30232D01*
X294640Y29210D01*
X296895Y30232D02*
X294640Y35210D01*
X296895Y30232D02*
X294640Y29210D01*
D12*
X100990Y144780D03*
X210820Y75900D03*
D13*
X141940Y144780D01*
X100990Y144780D01*
D12*
X308610Y75900D03*
X351790Y86360D03*
D13*
X341330Y75900D01*
X308610Y75900D01*
X106990Y144780D02*
X102012Y147035D01*
X100990Y144780D01*
X102012Y142525D02*
X106990Y144780D01*
X102012Y142525D02*
X100990Y144780D01*
X206577Y80143D02*
X208503Y75028D01*
X210820Y75900D01*
X211692Y78217D02*
X206577Y80143D01*
X211692Y78217D02*
X210820Y75900D01*
X309632Y78155D02*
X314610Y75900D01*
X309632Y78155D02*
X308610Y75900D01*
X309632Y73645D02*
X314610Y75900D01*
X309632Y73645D02*
X308610Y75900D01*
X347547Y82117D02*
X352662Y84043D01*
X351790Y86360D01*
X349473Y87232D02*
X347547Y82117D01*
X349473Y87232D02*
X351790Y86360D01*
D11*
X431800Y215900D03*
X431800Y177800D03*
X12700Y158750D03*
X12700Y196850D03*
D14*
X12700Y209550D01*
X12700Y196850D02*
X12700Y184150D01*
X12700Y171450D02*
X12700Y158750D01*
X12700Y146050D01*
X431800Y203200D02*
X431800Y215900D01*
X431800Y177800D02*
X431800Y165100D01*
X431800Y177800D02*
X431800Y190500D01*
D11*
X215900Y196850D03*
X215900Y158750D03*
D13*
X437883Y138367D02*
X437883Y124621D01*
X437881Y124465D01*
X437875Y124309D01*
X437866Y124154D01*
X437852Y123998D01*
X437834Y123843D01*
X437813Y123689D01*
X437788Y123535D01*
X437759Y123382D01*
X437726Y123229D01*
X437690Y123078D01*
X437649Y122927D01*
X437605Y122778D01*
X437557Y122629D01*
X437506Y122482D01*
X437451Y122336D01*
X437392Y122192D01*
X437330Y122049D01*
X437264Y121907D01*
X437194Y121768D01*
X437121Y121630D01*
X437045Y121494D01*
X436965Y121360D01*
X436883Y121228D01*
X436796Y121098D01*
X436707Y120970D01*
X436614Y120845D01*
X436519Y120722D01*
X436420Y120601D01*
X436318Y120483D01*
X436214Y120367D01*
X436106Y120254D01*
X435996Y120144D01*
X435883Y120036D01*
X435767Y119932D01*
X435649Y119830D01*
X435528Y119731D01*
X435405Y119636D01*
X435280Y119543D01*
X435152Y119454D01*
X435022Y119367D01*
X434890Y119285D01*
X434756Y119205D01*
X434620Y119129D01*
X434482Y119056D01*
X434343Y118986D01*
X434201Y118920D01*
X434058Y118858D01*
X433914Y118799D01*
X433768Y118744D01*
X433621Y118693D01*
X433472Y118645D01*
X433323Y118601D01*
X433172Y118560D01*
X433021Y118524D01*
X432868Y118491D01*
X432715Y118462D01*
X432561Y118437D01*
X432407Y118416D01*
X432252Y118398D01*
X432096Y118384D01*
X431941Y118375D01*
X431785Y118369D01*
X431629Y118367D01*
X417883Y118367D01*
X417883Y132279D01*
X417885Y132433D01*
X417891Y132587D01*
X417901Y132741D01*
X417914Y132895D01*
X417932Y133048D01*
X417953Y133201D01*
X417978Y133353D01*
X418008Y133505D01*
X418041Y133655D01*
X418077Y133805D01*
X418118Y133954D01*
X418162Y134102D01*
X418210Y134248D01*
X418262Y134393D01*
X418317Y134537D01*
X418376Y134680D01*
X418439Y134821D01*
X418505Y134960D01*
X418575Y135098D01*
X418648Y135234D01*
X418725Y135367D01*
X418804Y135499D01*
X418888Y135629D01*
X418974Y135757D01*
X419064Y135882D01*
X419157Y136006D01*
X419253Y136126D01*
X419352Y136245D01*
X419454Y136360D01*
X419558Y136473D01*
X419666Y136584D01*
X419777Y136692D01*
X419890Y136796D01*
X420005Y136898D01*
X420124Y136997D01*
X420244Y137093D01*
X420368Y137186D01*
X420493Y137276D01*
X420621Y137362D01*
X420751Y137446D01*
X420883Y137525D01*
X421016Y137602D01*
X421152Y137675D01*
X421290Y137745D01*
X421429Y137811D01*
X421570Y137874D01*
X421713Y137933D01*
X421857Y137988D01*
X422002Y138040D01*
X422148Y138088D01*
X422296Y138132D01*
X422445Y138173D01*
X422595Y138209D01*
X422745Y138242D01*
X422897Y138272D01*
X423049Y138297D01*
X423202Y138318D01*
X423355Y138336D01*
X423509Y138349D01*
X423663Y138359D01*
X423817Y138365D01*
X423971Y138367D01*
X437883Y138367D01*
X432883Y133367D02*
X427883Y133367D01*
X432883Y133367D02*
X432883Y128367D01*
X427883Y128367D01*
X427883Y123367D01*
X422883Y123367D01*
X422883Y128367D01*
M02*
