M48
;GenerationSoftware,Autodesk,EAGLE,9.6.2*%
;CreationDate,2023-06-12T14:24:12Z*%
FMAT,2
ICI,OFF
METRIC,TZ,000.000
T2C0.400
T1C0.900
%
G90
M71
T1
X6350Y15875
X39370Y15875
X31750Y19685
X29210Y19685
X26670Y19685
X39370Y19685
X24130Y19685
X19050Y19685
X16510Y19685
X21590Y19685
X13970Y19685
X11430Y19685
X8890Y19685
X6350Y19685
X43180Y21590
X43180Y17780
X1270Y15875
X1270Y19685
X3810Y19685
X21590Y15875
X2540Y21590
X5080Y21590
X7620Y21590
X10160Y21590
X12700Y21590
X15240Y21590
X17780Y21590
X20320Y21590
X22860Y21590
X25400Y21590
X27940Y21590
X30480Y21590
X33020Y21590
X35560Y21590
X38100Y21590
X40640Y21590
X41910Y19685
X40640Y17780
X41910Y15875
X38100Y17780
X35560Y17780
X33020Y17780
X30480Y17780
X2540Y17780
X5080Y17780
X7620Y17780
X10160Y17780
X12700Y17780
X15240Y17780
X17780Y17780
X20320Y17780
X22860Y17780
X25400Y17780
X27940Y17780
X3810Y15875
X8890Y15875
X11430Y15875
X13970Y15875
X16510Y15875
X19050Y15875
X24130Y15875
X26670Y15875
X29210Y15875
X31750Y15875
X34290Y15875
X36830Y15875
X36830Y19685
X34290Y19685
T2
X22098Y6686
X27305Y8890
X31369Y4826
X21082Y11094
X27940Y13081
X22098Y10444
X10099Y14478
X21082Y7590
X30861Y7590
X35179Y8636
X29464Y2921
M30