G04 EAGLE Gerber RS-274X export*
G75*
%MOMM*%
%FSLAX34Y34*%
%LPD*%
%INSilkscreen Top*%
%IPPOS*%
%AMOC8*
5,1,8,0,0,1.08239X$1,22.5*%
G01*
%ADD10C,0.050800*%
%ADD11C,0.200000*%


D10*
X341408Y67564D02*
X339714Y67564D01*
X339633Y67566D01*
X339553Y67572D01*
X339473Y67581D01*
X339394Y67595D01*
X339315Y67612D01*
X339237Y67633D01*
X339160Y67657D01*
X339085Y67685D01*
X339011Y67717D01*
X338938Y67752D01*
X338868Y67791D01*
X338799Y67833D01*
X338732Y67878D01*
X338667Y67926D01*
X338605Y67978D01*
X338546Y68032D01*
X338489Y68089D01*
X338435Y68148D01*
X338383Y68210D01*
X338335Y68275D01*
X338290Y68342D01*
X338248Y68411D01*
X338209Y68481D01*
X338174Y68554D01*
X338142Y68628D01*
X338114Y68703D01*
X338090Y68780D01*
X338069Y68858D01*
X338052Y68937D01*
X338038Y69016D01*
X338029Y69096D01*
X338023Y69176D01*
X338021Y69257D01*
X338021Y73491D01*
X338023Y73572D01*
X338029Y73652D01*
X338038Y73732D01*
X338052Y73811D01*
X338069Y73890D01*
X338090Y73968D01*
X338114Y74045D01*
X338142Y74120D01*
X338174Y74194D01*
X338209Y74267D01*
X338248Y74337D01*
X338290Y74406D01*
X338335Y74473D01*
X338383Y74538D01*
X338435Y74600D01*
X338489Y74659D01*
X338546Y74716D01*
X338605Y74770D01*
X338667Y74822D01*
X338732Y74870D01*
X338799Y74915D01*
X338867Y74957D01*
X338938Y74996D01*
X339011Y75031D01*
X339085Y75063D01*
X339160Y75091D01*
X339237Y75115D01*
X339315Y75136D01*
X339394Y75153D01*
X339473Y75167D01*
X339553Y75176D01*
X339633Y75182D01*
X339714Y75184D01*
X341408Y75184D01*
X344392Y67564D02*
X347779Y67564D01*
X344392Y67564D02*
X344392Y75184D01*
X347779Y75184D01*
X346932Y71797D02*
X344392Y71797D01*
X359836Y86614D02*
X361529Y86614D01*
X359836Y86614D02*
X359755Y86616D01*
X359675Y86622D01*
X359595Y86631D01*
X359516Y86645D01*
X359437Y86662D01*
X359359Y86683D01*
X359282Y86707D01*
X359207Y86735D01*
X359133Y86767D01*
X359060Y86802D01*
X358990Y86841D01*
X358921Y86883D01*
X358854Y86928D01*
X358789Y86976D01*
X358727Y87028D01*
X358668Y87082D01*
X358611Y87139D01*
X358557Y87198D01*
X358505Y87260D01*
X358457Y87325D01*
X358412Y87392D01*
X358370Y87461D01*
X358331Y87531D01*
X358296Y87604D01*
X358264Y87678D01*
X358236Y87753D01*
X358212Y87830D01*
X358191Y87908D01*
X358174Y87987D01*
X358160Y88066D01*
X358151Y88146D01*
X358145Y88226D01*
X358143Y88307D01*
X358142Y88307D02*
X358142Y92541D01*
X358143Y92541D02*
X358145Y92622D01*
X358151Y92702D01*
X358160Y92782D01*
X358174Y92861D01*
X358191Y92940D01*
X358212Y93018D01*
X358236Y93095D01*
X358264Y93170D01*
X358296Y93244D01*
X358331Y93317D01*
X358370Y93387D01*
X358412Y93456D01*
X358457Y93523D01*
X358505Y93588D01*
X358557Y93650D01*
X358611Y93709D01*
X358668Y93766D01*
X358727Y93820D01*
X358789Y93872D01*
X358854Y93920D01*
X358921Y93965D01*
X358989Y94007D01*
X359060Y94046D01*
X359133Y94081D01*
X359207Y94113D01*
X359282Y94141D01*
X359359Y94165D01*
X359437Y94186D01*
X359516Y94203D01*
X359595Y94217D01*
X359675Y94226D01*
X359755Y94232D01*
X359836Y94234D01*
X361529Y94234D01*
X364911Y94234D02*
X364911Y86614D01*
X364064Y86614D02*
X365758Y86614D01*
X365758Y94234D02*
X364064Y94234D01*
X377814Y105664D02*
X379508Y105664D01*
X377814Y105664D02*
X377733Y105666D01*
X377653Y105672D01*
X377573Y105681D01*
X377494Y105695D01*
X377415Y105712D01*
X377337Y105733D01*
X377260Y105757D01*
X377185Y105785D01*
X377111Y105817D01*
X377038Y105852D01*
X376968Y105891D01*
X376899Y105933D01*
X376832Y105978D01*
X376767Y106026D01*
X376705Y106078D01*
X376646Y106132D01*
X376589Y106189D01*
X376535Y106248D01*
X376483Y106310D01*
X376435Y106375D01*
X376390Y106442D01*
X376348Y106511D01*
X376309Y106581D01*
X376274Y106654D01*
X376242Y106728D01*
X376214Y106803D01*
X376190Y106880D01*
X376169Y106958D01*
X376152Y107037D01*
X376138Y107116D01*
X376129Y107196D01*
X376123Y107276D01*
X376121Y107357D01*
X376121Y111591D01*
X376123Y111672D01*
X376129Y111752D01*
X376138Y111832D01*
X376152Y111911D01*
X376169Y111990D01*
X376190Y112068D01*
X376214Y112145D01*
X376242Y112220D01*
X376274Y112294D01*
X376309Y112367D01*
X376348Y112437D01*
X376390Y112506D01*
X376435Y112573D01*
X376483Y112638D01*
X376535Y112700D01*
X376589Y112759D01*
X376646Y112816D01*
X376705Y112870D01*
X376767Y112922D01*
X376832Y112970D01*
X376899Y113015D01*
X376967Y113057D01*
X377038Y113096D01*
X377111Y113131D01*
X377185Y113163D01*
X377260Y113191D01*
X377337Y113215D01*
X377415Y113236D01*
X377494Y113253D01*
X377573Y113267D01*
X377653Y113276D01*
X377733Y113282D01*
X377814Y113284D01*
X379508Y113284D01*
X382492Y105664D02*
X385879Y105664D01*
X382492Y105664D02*
X382492Y113284D01*
X385879Y113284D01*
X385032Y109897D02*
X382492Y109897D01*
X324311Y56134D02*
X319231Y48514D01*
X324311Y48514D02*
X319231Y56134D01*
X327623Y56134D02*
X327623Y48514D01*
X328469Y48514D02*
X326776Y48514D01*
X326776Y56134D02*
X328469Y56134D01*
X304189Y37084D02*
X299109Y29464D01*
X304189Y29464D02*
X299109Y37084D01*
X307104Y29464D02*
X310491Y29464D01*
X307104Y29464D02*
X307104Y37084D01*
X310491Y37084D01*
X309644Y33697D02*
X307104Y33697D01*
D11*
X234400Y113900D02*
X197400Y113900D01*
X234400Y113900D02*
X234400Y63900D01*
X197400Y63900D01*
X197400Y113900D01*
X193900Y114150D02*
X179150Y114150D01*
M02*
