G04 EAGLE Gerber RS-274X export*
G75*
%MOMM*%
%FSLAX34Y34*%
%LPD*%
%INSoldermask Bottom*%
%IPPOS*%
%AMOC8*
5,1,8,0,0,1.08239X$1,22.5*%
G01*
%ADD10C,1.027000*%
%ADD11C,1.527000*%


D10*
X25400Y215900D03*
X50800Y215900D03*
X76200Y215900D03*
X101600Y215900D03*
X127000Y215900D03*
X152400Y215900D03*
X177800Y215900D03*
X203200Y215900D03*
X228600Y215900D03*
X254000Y215900D03*
X279400Y215900D03*
X304800Y215900D03*
X330200Y215900D03*
X355600Y215900D03*
X381000Y215900D03*
X406400Y215900D03*
X419100Y196850D03*
X406400Y177800D03*
X419100Y158750D03*
X381000Y177800D03*
X355600Y177800D03*
X330200Y177800D03*
X304800Y177800D03*
X25400Y177800D03*
X50800Y177800D03*
X76200Y177800D03*
X101600Y177800D03*
X127000Y177800D03*
X152400Y177800D03*
X177800Y177800D03*
X203200Y177800D03*
X228600Y177800D03*
X254000Y177800D03*
X279400Y177800D03*
X38100Y158750D03*
X88900Y158750D03*
X114300Y158750D03*
X139700Y158750D03*
X165100Y158750D03*
X190500Y158750D03*
X241300Y158750D03*
X266700Y158750D03*
X292100Y158750D03*
X317500Y158750D03*
X342900Y158750D03*
X368300Y158750D03*
X368300Y196850D03*
X342900Y196850D03*
X317500Y196850D03*
X292100Y196850D03*
X266700Y196850D03*
X241300Y196850D03*
X190500Y196850D03*
X165100Y196850D03*
X139700Y196850D03*
X114300Y196850D03*
X88900Y196850D03*
X63500Y196850D03*
X38100Y196850D03*
D11*
X63500Y158750D03*
X393700Y158750D03*
X393700Y196850D03*
X431800Y215900D03*
X431800Y177800D03*
X12700Y158750D03*
X12700Y196850D03*
X215900Y196850D03*
X215900Y158750D03*
M02*
